# https://github.com/mikedh/trimesh
v 2.64041235 -0.22837101 -3.21201655
v 2.64515743 0.65991114 -3.21201655
v 2.81016025 -0.22837101 -3.21201655
v 2.52415543 -0.22837101 -3.10669435
v 2.65040605 0.67470796 -3.21201655
v 2.50610935 -0.22837101 -3.08898735
v 2.47418725 -0.22837101 -2.99631292
v 2.10334463 1.02967460 -1.08763570
v 2.81037602 -0.21262969 -3.21201655
v 2.81109475 -0.22837101 -3.19591942
v 2.42270930 1.34764900 -1.44430540
v 2.42270930 1.37976134 -1.37968634
v 2.71647902 0.67533767 -3.21201655
v 2.15899253 1.02967460 -1.24331941
v 2.38151253 -0.22837101 -2.31263862
v 2.18602566 0.12124349 -1.15892370
v 2.09967780 1.02967460 -1.06302991
v 2.81044775 -0.20570353 -3.21201655
v 2.81188579 -0.14242349 -3.18695095
v 2.81145426 -0.22837101 -3.18695095
v 2.81073553 -0.14242349 -3.21201655
v 2.42270930 1.36590901 -1.28517226
v 2.54385504 1.09374170 -1.37968634
v 2.79333644 0.61819666 -2.61595746
v 2.79297693 0.61819666 -2.71116123
v 2.76393064 0.67014300 -3.16855386
v 2.73696938 0.67030042 -3.21201655
v 2.54313631 -0.22837101 -2.31263862
v 2.61553614 0.12140092 -0.86273374
v 2.30781855 0.12124349 -0.92091394
v 2.25770662 0.12124349 -0.93448161
v 2.19702586 0.12124349 -1.00921897
v 2.18530664 0.12124349 -1.03704426
v 2.18343736 0.12124349 -1.09430457
v 2.18415638 0.12124349 -1.11845049
v 2.10514190 1.02967460 -1.02899562
v 2.80915374 0.04788899 -3.21201655
v 2.80944124 0.14296651 -3.18695095
v 2.83410168 -0.22837101 -2.52075342
v 2.47425927 1.14332677 -1.23642054
v 2.57376411 0.96985760 -1.32104626
v 2.14410987 1.02967460 -1.00255010
v 2.19393431 0.96119988 -0.94827929
v 2.29250465 0.78678615 -0.93425167
v 2.56441770 1.03612848 -1.37968634
v 2.56786877 1.04494363 -1.47489025
v 2.78463704 0.62701181 -2.51546426
v 2.81857216 0.52327656 -2.52075342
v 2.78715333 0.61819666 -3.09174690
v 2.77960419 0.62716924 -3.19476944
v 2.77946044 0.62402097 -3.21201655
v 2.76953876 0.64432726 -3.21201655
v 2.73617863 -0.22837101 -2.38392647
v 2.63674552 0.12140092 -0.90412677
v 2.18336548 0.96119988 -0.94827929
v 2.24677828 0.71343161 -0.92459331
v 2.24893520 0.61835409 -0.92114388
v 2.25317716 0.52343399 -0.91930422
v 2.33082548 0.14280908 -0.90964580
v 2.79714702 -0.22837101 -2.43129869
v 2.25260189 0.14280908 -0.93080223
v 2.20500639 0.14280908 -0.98737265
v 2.18415638 0.83951955 -0.94712945
v 2.18156808 0.90358666 -0.94574975
v 2.80807521 0.16799518 -3.21201655
v 2.80829097 0.23804403 -3.18695095
v 2.80879423 0.42819904 -3.09174690
v 2.80958498 0.52327656 -2.99631292
v 2.57743094 0.98858968 -1.37968634
v 2.80685293 0.52327656 -3.09174690
v 2.80383339 0.52327656 -3.18695095
v 2.80275486 0.52327656 -3.21201655
v 2.25137975 0.42819904 -0.92137382
v 2.80721244 0.23804403 -3.21201655
v 2.80692495 0.33312155 -3.18695095
v 2.80541518 0.42819904 -3.18695095
v 2.80433665 0.42819904 -3.21201655
v 2.80541518 0.35815023 -3.21201655
vn -0.27916297 -0.63365779 -0.72148863
vn -0.61148510 0.13643702 -0.77940421
vn 0.55455247 -0.58393938 -0.59286285
vn -0.49112446 -0.69994752 -0.51852698
vn -0.40793446 0.53446117 -0.74023019
vn -0.66476195 -0.63484539 -0.39378024
vn -0.72579735 -0.65762189 -0.20187042
vn -0.93815367 0.29750209 -0.17708812
vn 0.68754036 -0.00770539 -0.72610528
vn 0.70575220 -0.70768914 -0.03301378
vn -0.73389517 0.60190738 -0.31481009
vn 0.08629695 0.98946268 -0.11626022
vn 0.07916900 0.59890089 -0.79690024
vn -0.81955124 0.49238804 -0.29306958
vn -0.64034373 -0.76807138 0.00512573
vn -0.97287718 -0.21885129 -0.07492739
vn -0.94517379 0.32536359 0.02801857
vn 0.69052949 -0.00392950 -0.72329356
vn 0.99922522 0.00213121 -0.03929904
vn 0.70553178 -0.70819627 -0.02613328
vn 0.69216562 0.00134325 -0.72173746
vn 0.23332420 0.88448775 0.40403123
vn 0.92623871 0.35433611 0.12856038
vn 0.93730204 0.34840987 0.00868604
vn 0.93989789 0.34131925 -0.00965008
vn 0.73343645 0.65598545 -0.17819668
vn 0.27066946 0.56921869 -0.77635567
vn 0.02541852 -0.99121094 0.12982594
vn 0.43928997 -0.42733002 0.79019831
vn -0.17101830 -0.69827750 0.69509804
vn -0.38590439 -0.66099030 0.64356012
vn -0.69675654 -0.60317331 0.38821680
vn -0.82980449 -0.51490138 0.21517684
vn -0.94432281 -0.32881900 0.01151060
vn -0.96598082 -0.25639193 -0.03382643
vn -0.80322281 0.39037781 0.44993141
vn 0.69138137 0.00593832 -0.72246559
vn 0.99923405 0.01030732 -0.03775001
vn 0.72720422 -0.68485119 0.04639912
vn 0.83508091 0.29324615 0.46545308
vn 0.93041282 0.24319933 0.27420079
vn -0.30844717 0.58029900 0.75373299
vn 0.19081036 0.37989467 0.90513615
vn 0.42921489 0.30255341 0.85102057
vn 0.93992355 0.31098349 0.14082962
vn 0.93603497 0.34743723 0.05590983
vn 0.94154945 0.33179234 0.05829649
vn 0.98717178 0.15019059 0.05417253
vn 0.95440296 0.29743073 -0.02549395
vn 0.94830896 0.31200497 -0.05799151
vn 0.66870294 0.21893462 -0.71056598
vn 0.55177931 0.38150828 -0.74161380
vn 0.08271978 -0.98821739 0.12877821
vn 0.87606266 -0.33418545 0.34761228
vn -0.30988721 0.29230797 0.90472425
vn -0.12602981 0.05755225 0.99035561
vn -0.22233548 0.01749178 0.97481330
vn -0.27366549 -0.00192531 0.96182301
vn -0.20166282 -0.14791948 0.96822101
vn 0.29829114 -0.94335128 0.14529539
vn -0.53491636 -0.15337521 0.83086734
vn -0.81654270 -0.16966504 0.55178962
vn -0.70366985 -0.04982450 0.70877800
vn -0.50619620 0.01069655 0.86235201
vn 0.69199555 0.00784830 -0.72185910
vn 0.99923862 0.01294911 -0.03680350
vn 0.99940253 0.01660782 -0.03031099
vn 0.99311376 0.11497076 -0.02251185
vn 0.96378153 0.23771825 0.12089330
vn 0.99323062 0.11222758 -0.02996510
vn 0.99262876 0.11477064 -0.03893385
vn 0.70852104 0.08523617 -0.70052318
vn -0.36254346 -0.02448871 0.93164508
vn 0.69191725 0.00926575 -0.72191735
vn 0.99910595 0.01489110 -0.03956711
vn 0.99909839 0.01624342 -0.03922451
vn 0.69174034 0.01121909 -0.72205917
vn 0.69101305 0.01056455 -0.72276508
f 1//1 2//2 5//5
f 1//1 5//5 13//13
f 1//1 13//13 27//27
f 1//1 27//27 52//52
f 1//1 52//52 51//51
f 1//1 51//51 72//72
f 1//1 72//72 77//77
f 1//1 77//77 78//78
f 1//1 78//78 74//74
f 1//1 74//74 65//65
f 1//1 65//65 37//37
f 1//1 37//37 21//21
f 1//1 21//21 18//18
f 1//1 18//18 9//9
f 1//1 9//9 3//3
f 1//1 3//3 10//10
f 1//1 10//10 20//20
f 1//1 20//20 39//39
f 1//1 39//39 60//60
f 1//1 60//60 53//53
f 1//1 53//53 28//28
f 1//1 28//28 15//15
f 1//1 15//15 7//7
f 1//1 7//7 6//6
f 1//1 6//6 4//4
f 1//1 4//4 2//2
f 2//2 4//4 6//6
f 2//2 6//6 7//7
f 2//2 7//7 8//8
f 2//2 8//8 5//5
f 3//3 9//9 10//10
f 5//5 11//11 12//12
f 5//5 12//12 13//13
f 5//5 8//8 14//14
f 5//5 14//14 11//11
f 7//7 15//15 16//16
f 7//7 16//16 17//17
f 7//7 17//17 8//8
f 8//8 17//17 12//12
f 8//8 12//12 11//11
f 8//8 11//11 14//14
f 9//9 18//18 10//10
f 10//10 19//19 20//20
f 10//10 18//18 21//21
f 10//10 21//21 19//19
f 12//12 17//17 22//22
f 12//12 22//22 23//23
f 12//12 23//23 24//24
f 12//12 24//24 25//25
f 12//12 25//25 26//26
f 12//12 26//26 27//27
f 12//12 27//27 13//13
f 15//15 28//28 29//29
f 15//15 29//29 30//30
f 15//15 30//30 31//31
f 15//15 31//31 32//32
f 15//15 32//32 33//33
f 15//15 33//33 34//34
f 15//15 34//34 35//35
f 15//15 35//35 16//16
f 16//16 35//35 17//17
f 17//17 35//35 34//34
f 17//17 34//34 33//33
f 17//17 33//33 36//36
f 17//17 36//36 22//22
f 19//19 21//21 37//37
f 19//19 37//37 38//38
f 19//19 38//38 39//39
f 19//19 39//39 20//20
f 22//22 40//40 41//41
f 22//22 41//41 23//23
f 22//22 36//36 42//42
f 22//22 42//42 43//43
f 22//22 43//43 44//44
f 22//22 44//44 29//29
f 22//22 29//29 40//40
f 23//23 41//41 45//45
f 23//23 45//45 46//46
f 23//23 46//46 24//24
f 24//24 46//46 47//47
f 24//24 47//47 48//48
f 24//24 48//48 25//25
f 25//25 48//48 49//49
f 25//25 49//49 26//26
f 26//26 49//49 50//50
f 26//26 50//50 51//51
f 26//26 51//51 52//52
f 26//26 52//52 27//27
f 28//28 53//53 29//29
f 29//29 54//54 40//40
f 29//29 44//44 43//43
f 29//29 43//43 55//55
f 29//29 55//55 56//56
f 29//29 56//56 57//57
f 29//29 57//57 58//58
f 29//29 58//58 59//59
f 29//29 59//59 30//30
f 29//29 53//53 60//60
f 29//29 60//60 54//54
f 30//30 59//59 61//61
f 30//30 61//61 31//31
f 31//31 61//61 62//62
f 31//31 62//62 32//32
f 32//32 36//36 33//33
f 32//32 62//62 36//36
f 36//36 62//62 63//63
f 36//36 63//63 64//64
f 36//36 64//64 55//55
f 36//36 55//55 42//42
f 37//37 65//65 38//38
f 38//38 65//65 66//66
f 38//38 66//66 39//39
f 39//39 66//66 67//67
f 39//39 67//67 68//68
f 39//39 68//68 48//48
f 39//39 48//48 54//54
f 39//39 54//54 60//60
f 40//40 54//54 41//41
f 41//41 54//54 48//48
f 41//41 48//48 69//69
f 41//41 69//69 45//45
f 42//42 55//55 43//43
f 45//45 69//69 48//48
f 45//45 48//48 47//47
f 45//45 47//47 46//46
f 48//48 68//68 49//49
f 49//49 68//68 70//70
f 49//49 70//70 71//71
f 49//49 71//71 72//72
f 49//49 72//72 51//51
f 49//49 51//51 50//50
f 55//55 64//64 56//56
f 56//56 64//64 57//57
f 57//57 64//64 58//58
f 58//58 64//64 73//73
f 58//58 73//73 59//59
f 59//59 73//73 61//61
f 61//61 64//64 63//63
f 61//61 63//63 62//62
f 61//61 73//73 64//64
f 65//65 74//74 66//66
f 66//66 74//74 75//75
f 66//66 75//75 67//67
f 67//67 70//70 68//68
f 67//67 75//75 76//76
f 67//67 76//76 71//71
f 67//67 71//71 70//70
f 71//71 76//76 77//77
f 71//71 77//77 72//72
f 74//74 78//78 75//75
f 75//75 78//78 77//77
f 75//75 77//77 76//76

