# https://github.com/mikedh/trimesh
v 0.11167771 -1.32167526 -4.36959457
v 1.18964995 -1.47269817 -3.56725055
v 0.11167771 -1.29138557 -2.31309736
v 0.11167771 -1.22042604 -4.36959457
v 1.43324863 -1.35298593 -4.36959457
v 1.37930202 -1.47448481 -3.66228363
v 1.28459585 -1.47967502 -3.56725055
v 2.17219658 -1.00329343 -2.31289591
v 0.11167771 -1.20017625 -2.31309736
v 1.37930202 -1.48163191 -3.56725055
v 2.33043988 -1.33511846 -2.36061376
v 2.33043988 -1.32618473 -2.31309736
v 0.18432577 -1.21617188 -4.36959457
v 0.11167771 -1.21200279 -4.04301958
v 2.33067960 -0.61242062 -2.42625081
v 2.33067960 -0.61888697 -2.52128389
v 2.44768361 -0.65479217 -3.28215159
v 2.46230925 -0.66117340 -3.37718467
v 2.47237921 -0.66576785 -3.42550642
v 2.42586522 -0.70107750 -3.56745185
v 2.46758395 -0.75646668 -3.72208191
v 1.47544681 -1.35366653 -4.36959457
v 2.04488275 -1.35034830 -4.23328676
v 1.47424792 -1.46886931 -3.66228363
v 1.47424792 -1.48061093 -3.56725055
v 2.17219658 -0.99920940 -2.31289591
v 2.54958282 -1.00329343 -2.31289591
v 0.11167771 -1.20017625 -2.33121802
v 2.17411477 -0.98168230 -2.31289591
v 2.18274612 -0.91472168 -2.31289591
v 2.18969929 -0.87898667 -2.31289591
v 2.19401497 -0.86179987 -2.31289591
v 2.21055852 -0.81415320 -2.31289591
v 2.25731238 -0.71520130 -2.31289591
v 2.27889091 -0.69078242 -2.31289591
v 2.31389633 -0.66134358 -2.31289591
v 2.33907138 -0.64892135 -2.31289591
v 2.38678412 -1.33350180 -2.36927134
v 2.42035065 -1.31903763 -2.31309736
v 0.65857595 -1.20085699 -4.36959457
v 0.11167771 -1.21081170 -3.94778519
v 0.11167771 -1.20621718 -3.56725055
v 2.42226899 -0.64687941 -2.31289591
v 2.42946173 -0.64687941 -2.31289591
v 2.42586522 -0.61403720 -2.42625081
v 2.48508681 -0.65479217 -3.28215159
v 2.47861308 -0.66117340 -3.37718467
v 2.47381782 -0.66576785 -3.42550642
v 2.49371816 -0.73774835 -3.66248493
v 2.47885294 -0.75646668 -3.72208191
v 1.55720581 -1.19090214 -4.36959457
v 1.55097194 -1.34303122 -4.36959457
v 2.09882921 -1.33579907 -4.28724612
v 2.10841973 -1.34294603 -4.23328676
v 2.14030823 -1.38029762 -3.94778519
v 2.39925185 -1.33911730 -2.99705264
v 2.50330868 -1.27156121 -2.31309736
v 2.53831411 -1.18920057 -2.31309736
v 2.54502742 -1.09407732 -2.31309736
v 2.55413822 -0.92186871 -2.31289591
v 2.43545574 -1.32303661 -2.42625081
v 2.42130982 -1.32056923 -2.33504348
v 2.50474729 -1.27334784 -2.33121802
v 2.44336807 -0.65011259 -2.31289591
v 2.43377755 -0.64432683 -2.32256029
v 2.47645517 -0.66202418 -2.31289591
v 2.48364820 -0.65606838 -2.34873462
v 2.48844318 -0.65062307 -2.42625081
v 2.53255969 -0.71358471 -2.42625081
v 2.52248944 -0.71358471 -2.99705264
v 2.51793404 -0.71358471 -3.18691749
v 2.51553656 -0.71358471 -3.28215159
v 2.49851342 -0.72838919 -3.56745185
v 2.52153056 -0.80870788 -3.66248493
v 2.49707482 -0.80402830 -3.75530311
v 2.48988179 -0.83253122 -3.82617532
v 2.19617288 -1.19090214 -4.36959457
v 2.12184649 -1.25828812 -4.36959457
v 2.17051825 -1.22365921 -4.36959457
v 2.17795086 -1.22799857 -4.35469533
v 2.19065832 -1.24101620 -4.29127303
v 2.19857051 -1.34524329 -4.01241559
v 2.44432696 -1.31742111 -3.09208572
v 2.39685408 -1.33826644 -3.09208572
v 2.44696459 -1.31869740 -2.99705264
v 2.54023188 -1.18920057 -2.33121802
v 2.54598630 -1.09407732 -2.33121802
v 2.55102114 -1.00329343 -2.33101671
v 2.55653570 -0.90383105 -2.33101671
v 2.56109139 -0.80870788 -2.33101671
v 2.55821417 -0.82674554 -2.31289591
v 2.50474729 -1.27547499 -2.42625081
v 2.50378813 -0.69469620 -2.31289591
v 2.51529669 -0.70439574 -2.32256029
v 2.55989264 -0.80870788 -2.42625081
v 2.52632582 -0.80870788 -3.56745185
v 2.52344861 -0.90383105 -3.75771932
v 2.49851342 -0.90383105 -3.83624216
v 2.49132039 -0.99895415 -3.82536982
v 2.49060137 -1.00329343 -3.82436303
v 2.48053113 -1.05527932 -3.81147738
v 2.48172987 -1.25097105 -3.44000306
v 2.48820360 -1.26330807 -3.37698337
v 2.42586522 -1.29759661 -3.37698337
v 2.49036151 -1.26594571 -3.28235318
v 2.49539635 -1.27113578 -2.99705264
v 2.49971217 -1.27462413 -2.71155136
v 2.53975272 -1.18920057 -2.42625081
v 2.55102114 -1.00337849 -2.33121802
v 2.55006226 -1.00337849 -2.42625081
v 2.55030212 -0.99895415 -2.42625081
v 2.55533696 -0.90383105 -2.42625081
v 2.55701543 -0.80870788 -2.31289591
v 2.49851342 -1.27317773 -2.80678546
v 2.51385809 -0.70711843 -2.31289591
v 2.51793404 -0.71596703 -2.31289591
v 2.52632582 -0.90383105 -3.66248493
v 2.52680526 -1.18920057 -2.80678546
v 2.51697516 -0.99895415 -3.66248493
v 2.51122074 -0.99895415 -3.75771932
v 2.50978213 -1.00329343 -3.75771932
v 2.48676499 -1.06855234 -3.75751801
v 2.50666534 -1.18920057 -3.37698337
v 2.51026157 -1.18920057 -3.28235318
vn -0.59865465 -0.54518112 -0.58684764
vn -0.09143424 -0.99580781 -0.00256778
vn -0.59362406 -0.54269557 0.59421545
vn -0.62143522 0.50069922 -0.60259319
vn -0.01272498 -0.64471121 -0.76432031
vn 0.00162442 -0.99216038 -0.12496059
vn -0.04291424 -0.99903293 0.00956956
vn -0.00002956 -0.00029960 0.99999995
vn -0.63843207 0.49158278 0.59224223
vn -0.00736961 -0.99963965 0.02581215
vn 0.02302758 -0.98902353 0.14595268
vn 0.01718356 -0.64761736 0.76177194
vn -0.02935417 0.52411509 -0.85114141
vn -0.78818692 0.61529020 -0.01339229
vn -0.11727922 0.98490039 0.12734524
vn -0.17218400 0.98267414 -0.06858715
vn -0.09940193 0.99249148 -0.07127357
vn -0.09482090 0.99092629 -0.09525802
vn -0.07074838 0.98416038 -0.16255159
vn -0.02673628 0.96245932 -0.27010594
vn -0.02327685 0.89614714 -0.44314613
vn 0.01409427 -0.65278819 -0.75740935
vn 0.07674130 -0.98311700 -0.16610758
vn 0.06608629 -0.98906485 -0.13184581
vn 0.06006884 -0.99818413 -0.00449195
vn -0.00005088 0.00000306 1.00000000
vn 0.18247549 -0.01038000 0.98315561
vn -0.79204894 0.61045587 -0.00145303
vn -0.00004977 0.00000600 1.00000000
vn -0.00005080 0.00000853 1.00000000
vn -0.00005111 0.00001173 1.00000000
vn -0.00005239 0.00001640 1.00000000
vn -0.00005391 0.00002332 1.00000000
vn -0.00006217 0.00004870 1.00000000
vn -0.00006639 0.00007543 0.99999999
vn -0.00009385 0.00018229 0.99999998
vn -0.08023376 0.60650436 0.79102150
vn 0.15627340 -0.98242658 0.10206198
vn 0.22808481 -0.66828192 0.70807951
vn -0.01464102 0.49396080 -0.86936090
vn -0.79137838 0.61127986 -0.00756241
vn -0.79117686 0.61155959 -0.00583486
vn -0.00425825 0.59631866 0.80273652
vn 0.05993188 0.61301343 0.78779610
vn 0.23806673 0.96635422 0.09738462
vn 0.52377770 0.84961587 -0.06172350
vn 0.48501328 0.86870300 -0.10058431
vn 0.38623522 0.90660855 -0.16995086
vn 0.59883586 0.75624067 -0.26362031
vn 0.34848699 0.82613677 -0.44278082
vn -0.00408913 0.47553794 -0.87968571
vn 0.05906612 -0.41804232 -0.90650527
vn 0.34038933 -0.85350313 -0.39454722
vn 0.29060885 -0.94115117 -0.17257167
vn 0.25652625 -0.96196425 -0.09390985
vn 0.27339043 -0.96190297 -0.00059317
vn 0.54505342 -0.48018684 0.68726805
vn 0.68638409 -0.16647632 0.70792833
vn 0.72582748 -0.04335192 0.68650935
vn 0.67776637 -0.03488173 0.73444947
vn 0.40480090 -0.91395827 0.02857464
vn 0.31854423 -0.94465105 0.07851100
vn 0.75135923 -0.65526774 0.07799674
vn 0.19136327 0.58995749 0.78442990
vn 0.18313682 0.94316841 0.27729814
vn 0.38001108 0.55055802 0.74328826
vn 0.61444468 0.76923154 0.17532991
vn 0.67618296 0.73551829 0.04230188
vn 0.89804710 0.43888276 0.02988843
vn 0.93076522 0.36509357 -0.01956500
vn 0.93656271 0.34973619 -0.02312757
vn 0.93965091 0.33962598 -0.04135654
vn 0.89508283 0.43778671 -0.08467307
vn 0.96459275 0.23449786 -0.12071283
vn 0.90268051 0.36048659 -0.23498365
vn 0.63364440 0.56590968 -0.52748555
vn 0.54528654 0.16672092 -0.82150272
vn 0.22493475 -0.45441612 -0.86192247
vn 0.37066748 -0.38574375 -0.84487122
vn 0.68852363 -0.61232517 -0.38857831
vn 0.73245311 -0.62386693 -0.27258485
vn 0.56730934 -0.79912120 -0.19891060
vn 0.54714905 -0.83593728 -0.04285768
vn 0.31352297 -0.94896319 -0.03423756
vn 0.55482156 -0.83182131 -0.01569540
vn 0.97275374 -0.22667051 0.04868915
vn 0.99811571 -0.05728396 0.02199059
vn 0.99772888 -0.05533457 0.03840791
vn 0.99812798 -0.05003598 0.03517006
vn 0.98018151 0.17023449 0.10131353
vn 0.66757667 -0.01024768 0.74447053
vn 0.77945010 -0.62646193 0.00173156
vn 0.46782503 0.38905604 0.79358373
vn 0.83836085 0.51098051 0.18986837
vn 0.99325007 0.11476612 -0.01682388
vn 0.98887619 0.14330819 -0.03983260
vn 0.98265590 0.02846959 -0.18323989
vn 0.90646539 0.04854690 -0.41948026
vn 0.91954081 -0.16748827 -0.35551705
vn 0.91113004 -0.24232258 -0.33334938
vn 0.87905943 -0.37780619 -0.29071808
vn 0.82520863 -0.52842255 -0.19950020
vn 0.79413577 -0.59930292 -0.10091771
vn 0.46219730 -0.88160157 -0.09566776
vn 0.84743472 -0.52984792 -0.03340010
vn 0.83844007 -0.54450630 -0.02304638
vn 0.82279963 -0.56809488 -0.01640080
vn 0.97577056 -0.21833811 -0.01415204
vn 0.99844352 -0.05537327 0.00665894
vn 0.99834637 -0.05492196 -0.01697335
vn 0.99840502 -0.05366238 -0.01754338
vn 0.99856999 -0.05033824 -0.01800088
vn 0.64538816 0.15645930 0.74765942
vn 0.85655350 -0.51568984 -0.01949578
vn 0.54386738 0.32887929 0.77204060
vn 0.57840603 0.24876249 0.77689361
vn 0.99919985 -0.02670304 -0.02977591
vn 0.98375367 -0.17636714 -0.03351643
vn 0.99137432 -0.12203419 -0.04779755
vn 0.96453100 -0.19533293 -0.17755281
vn 0.93150315 -0.31420858 -0.18323441
vn 0.92020042 -0.34426698 -0.18631004
vn 0.98057645 -0.18643499 -0.06092463
vn 0.98390999 -0.17524265 -0.03480143
f 1//1 2//2 3//3
f 1//1 3//3 9//9
f 1//1 9//9 28//28
f 1//1 28//28 42//42
f 1//1 42//42 41//41
f 1//1 41//41 14//14
f 1//1 14//14 4//4
f 1//1 4//4 13//13
f 1//1 13//13 40//40
f 1//1 40//40 51//51
f 1//1 51//51 77//77
f 1//1 77//77 79//79
f 1//1 79//79 78//78
f 1//1 78//78 52//52
f 1//1 52//52 22//22
f 1//1 22//22 5//5
f 1//1 5//5 6//6
f 1//1 6//6 7//7
f 1//1 7//7 2//2
f 2//2 7//7 3//3
f 3//3 8//8 26//26
f 3//3 26//26 9//9
f 3//3 7//7 10//10
f 3//3 10//10 11//11
f 3//3 11//11 12//12
f 3//3 12//12 8//8
f 4//4 14//14 15//15
f 4//4 15//15 16//16
f 4//4 16//16 17//17
f 4//4 17//17 18//18
f 4//4 18//18 19//19
f 4//4 19//19 20//20
f 4//4 20//20 21//21
f 4//4 21//21 13//13
f 5//5 22//22 6//6
f 6//6 22//22 23//23
f 6//6 23//23 24//24
f 6//6 24//24 25//25
f 6//6 25//25 10//10
f 6//6 10//10 7//7
f 8//8 12//12 27//27
f 8//8 27//27 60//60
f 8//8 60//60 91//91
f 8//8 91//91 113//113
f 8//8 113//113 116//116
f 8//8 116//116 115//115
f 8//8 115//115 93//93
f 8//8 93//93 66//66
f 8//8 66//66 64//64
f 8//8 64//64 44//44
f 8//8 44//44 43//43
f 8//8 43//43 37//37
f 8//8 37//37 36//36
f 8//8 36//36 35//35
f 8//8 35//35 34//34
f 8//8 34//34 33//33
f 8//8 33//33 32//32
f 8//8 32//32 31//31
f 8//8 31//31 30//30
f 8//8 30//30 29//29
f 8//8 29//29 26//26
f 9//9 26//26 29//29
f 9//9 29//29 30//30
f 9//9 30//30 31//31
f 9//9 31//31 32//32
f 9//9 32//32 33//33
f 9//9 33//33 34//34
f 9//9 34//34 35//35
f 9//9 35//35 36//36
f 9//9 36//36 37//37
f 9//9 37//37 15//15
f 9//9 15//15 28//28
f 10//10 25//25 11//11
f 11//11 38//38 12//12
f 11//11 25//25 38//38
f 12//12 38//38 39//39
f 12//12 39//39 27//27
f 13//13 21//21 40//40
f 14//14 41//41 15//15
f 15//15 41//41 42//42
f 15//15 42//42 28//28
f 15//15 37//37 43//43
f 15//15 43//43 44//44
f 15//15 44//44 45//45
f 15//15 45//45 46//46
f 15//15 46//46 17//17
f 15//15 17//17 16//16
f 17//17 46//46 47//47
f 17//17 47//47 18//18
f 18//18 47//47 48//48
f 18//18 48//48 19//19
f 19//19 48//48 20//20
f 20//20 48//48 49//49
f 20//20 49//49 50//50
f 20//20 50//50 21//21
f 21//21 50//50 77//77
f 21//21 77//77 51//51
f 21//21 51//51 40//40
f 22//22 52//52 53//53
f 22//22 53//53 23//23
f 23//23 53//53 54//54
f 23//23 54//54 55//55
f 23//23 55//55 24//24
f 24//24 55//55 25//25
f 25//25 55//55 56//56
f 25//25 56//56 38//38
f 27//27 39//39 57//57
f 27//27 57//57 58//58
f 27//27 58//58 59//59
f 27//27 59//59 60//60
f 38//38 56//56 61//61
f 38//38 61//61 62//62
f 38//38 62//62 39//39
f 39//39 62//62 61//61
f 39//39 61//61 63//63
f 39//39 63//63 57//57
f 44//44 64//64 65//65
f 44//44 65//65 45//45
f 45//45 65//65 64//64
f 45//45 64//64 66//66
f 45//45 66//66 67//67
f 45//45 67//67 68//68
f 45//45 68//68 46//46
f 46//46 68//68 69//69
f 46//46 69//69 70//70
f 46//46 70//70 71//71
f 46//46 71//71 72//72
f 46//46 72//72 73//73
f 46//46 73//73 47//47
f 47//47 73//73 49//49
f 47//47 49//49 48//48
f 49//49 73//73 74//74
f 49//49 74//74 75//75
f 49//49 75//75 76//76
f 49//49 76//76 50//50
f 50//50 76//76 77//77
f 52//52 78//78 53//53
f 53//53 78//78 79//79
f 53//53 79//79 80//80
f 53//53 80//80 81//81
f 53//53 81//81 82//82
f 53//53 82//82 54//54
f 54//54 82//82 55//55
f 55//55 82//82 83//83
f 55//55 83//83 84//84
f 55//55 84//84 56//56
f 56//56 84//84 85//85
f 56//56 85//85 61//61
f 57//57 63//63 58//58
f 58//58 86//86 59//59
f 58//58 63//63 86//86
f 59//59 87//87 88//88
f 59//59 88//88 89//89
f 59//59 89//89 60//60
f 59//59 86//86 87//87
f 60//60 89//89 90//90
f 60//60 90//90 91//91
f 61//61 85//85 92//92
f 61//61 92//92 63//63
f 63//63 92//92 86//86
f 66//66 93//93 94//94
f 66//66 94//94 67//67
f 67//67 94//94 68//68
f 68//68 94//94 69//69
f 69//69 94//94 90//90
f 69//69 90//90 95//95
f 69//69 95//95 70//70
f 70//70 95//95 71//71
f 71//71 95//95 72//72
f 72//72 95//95 96//96
f 72//72 96//96 74//74
f 72//72 74//74 73//73
f 74//74 96//96 97//97
f 74//74 97//97 76//76
f 74//74 76//76 75//75
f 76//76 97//97 98//98
f 76//76 98//98 77//77
f 77//77 80//80 79//79
f 77//77 98//98 99//99
f 77//77 99//99 100//100
f 77//77 100//100 101//101
f 77//77 101//101 80//80
f 80//80 101//101 102//102
f 80//80 102//102 81//81
f 81//81 102//102 82//82
f 82//82 102//102 103//103
f 82//82 103//103 104//104
f 82//82 104//104 83//83
f 83//83 85//85 84//84
f 83//83 104//104 103//103
f 83//83 103//103 105//105
f 83//83 105//105 85//85
f 85//85 105//105 106//106
f 85//85 106//106 107//107
f 85//85 107//107 92//92
f 86//86 92//92 108//108
f 86//86 108//108 87//87
f 87//87 108//108 109//109
f 87//87 109//109 88//88
f 88//88 109//109 89//89
f 89//89 109//109 110//110
f 89//89 110//110 111//111
f 89//89 111//111 112//112
f 89//89 112//112 95//95
f 89//89 95//95 90//90
f 90//90 94//94 113//113
f 90//90 113//113 91//91
f 92//92 107//107 114//114
f 92//92 114//114 108//108
f 93//93 115//115 94//94
f 94//94 115//115 116//116
f 94//94 116//116 113//113
f 95//95 112//112 117//117
f 95//95 117//117 96//96
f 96//96 117//117 97//97
f 97//97 117//117 108//108
f 97//97 108//108 118//118
f 97//97 118//118 119//119
f 97//97 119//119 120//120
f 97//97 120//120 99//99
f 97//97 99//99 98//98
f 99//99 120//120 100//100
f 100//100 120//120 101//101
f 101//101 120//120 121//121
f 101//101 121//121 122//122
f 101//101 122//122 102//102
f 102//102 122//122 121//121
f 102//102 121//121 120//120
f 102//102 120//120 103//103
f 103//103 120//120 123//123
f 103//103 123//123 124//124
f 103//103 124//124 118//118
f 103//103 118//118 108//108
f 103//103 108//108 105//105
f 105//105 108//108 106//106
f 106//106 108//108 114//114
f 106//106 114//114 107//107
f 108//108 110//110 109//109
f 108//108 117//117 110//110
f 110//110 117//117 111//111
f 111//111 117//117 112//112
f 118//118 124//124 119//119
f 119//119 124//124 123//123
f 119//119 123//123 120//120

