# https://github.com/mikedh/trimesh
v -0.52316712 -1.29693826 -3.85303876
v -0.61834998 -1.28054215 -4.04329460
v -0.41529773 -1.29091024 -3.85303876
v -0.41529773 -1.29211579 -3.75968018
v -0.52014652 -1.29018696 -2.52124817
v -0.52316712 -1.29018696 -2.52124817
v -0.69232139 -1.25811815 -4.04329460
v -0.68393082 -1.25136671 -4.13828628
v -0.61707461 -1.25643018 -4.14454652
v -0.12995060 -1.16384059 -4.41591265
v -0.61834998 -1.26631613 -2.71123182
v -0.06242312 -1.16384059 -4.31520510
v -0.04060760 -1.16384059 -4.23327825
v -0.03805687 -1.16384059 -4.15107893
v -0.03792262 -1.16384059 -4.13719754
v -0.52014652 -1.24365085 -1.83561981
v -0.66741811 -1.23834638 -1.80404660
v -0.61687324 -1.26414603 -2.52124817
v -0.72366864 -1.18915804 -4.04329460
v -0.70393401 -1.18915804 -4.13828628
v -0.66990179 -1.24003421 -4.18864006
v -0.27802770 -1.16384059 -4.41591265
v -0.15774022 -0.24638297 -4.41591265
v -0.08329893 -0.42794553 -4.30023497
v -0.05920114 -0.52318754 -4.23327825
v -0.17660226 -0.99867410 -2.73028471
v -0.17754201 -1.06184725 -2.73055689
v -0.21607160 -1.13635297 -2.70850998
v -0.64788486 -1.23834638 -1.80404660
v -0.22848966 -1.13635297 -2.65244034
v -0.52014652 -1.20844753 -1.78553822
v -0.66768661 -1.14551551 -1.70987132
v -0.67057303 -1.18192446 -1.76757407
v -0.67762111 -1.09391607 -1.76049742
v -0.72225902 0.33278476 -4.23327825
v -0.71413695 0.33278476 -4.32826994
v -0.67976903 -0.99867410 -1.76049742
v -0.71910417 -0.90367320 -3.66251073
v -0.70004079 -0.04794207 -4.32826994
v -0.67607725 -0.04794207 -4.40339246
v -0.66271939 -0.04914767 -4.41591265
v -0.15854572 -0.23746156 -4.41591265
v -0.08967577 -0.33294467 -4.29261382
v -0.09437450 -0.26060898 -4.28308766
v -0.06833012 -0.42794553 -4.23327825
v -0.09390463 -0.09206684 -4.18918442
v -0.09390463 -0.09206684 -4.18101890
v -0.18492573 -0.94394008 -2.74933760
v -0.56908044 -0.17814630 -2.08956645
v -0.57062430 -0.47351702 -1.90257682
v -0.52014652 -1.19470379 -1.78336075
v -0.65379182 -1.14551551 -1.70987132
v -0.64506563 -1.03026064 -1.63556549
v -0.65083834 -1.05750712 -1.63556549
v -0.66795510 -1.06015943 -1.63556549
v -0.67037159 -1.08523581 -1.67312675
v -0.67225108 -1.00132641 -1.65951755
v -0.72165490 0.52302759 -4.23327825
v -0.71494244 0.99875526 -4.32826994
v -0.71883567 0.33278476 -3.94803044
v -0.69963804 1.09375616 -4.41591265
v -0.67896353 -0.90367320 -1.76049742
v -0.71709043 0.33278476 -3.85303876
v -0.17230629 -0.17235945 -4.41591265
v -0.11410916 -0.23239807 -4.32037660
v -0.52444249 1.09134499 -4.41591265
v -0.52591923 1.09520285 -4.41591265
v -0.56908044 -0.09254908 -2.17557606
v -0.61834998 -0.12534126 -2.12467791
v -0.61834998 -0.17284169 -2.08820553
v -0.64130658 -0.56393662 -1.80295786
v -0.62378707 -0.90367320 -1.68809673
v -0.57049005 -1.03146626 -1.71123224
v -0.57049005 -1.04906793 -1.71123224
v -0.66480025 -1.06015943 -1.63556549
v -0.64506563 -1.02206265 -1.63556549
v -0.66916335 -1.01965142 -1.63556549
v -0.67258677 -0.90367320 -1.68809673
v -0.72098366 0.61826960 -4.23327825
v -0.69319401 1.09279168 -4.32963086
v -0.68460207 1.15909941 -4.41591265
v -0.71782880 0.90375443 -4.23327825
v -0.66701536 -0.09351355 -2.17938663
v -0.67607725 -0.61818837 -1.85576143
v -0.55283625 1.13739868 -4.41591265
v -0.61834998 -0.09182572 -2.17230985
v -0.64358889 1.15427708 -4.36202076
v -0.66748523 -0.17935189 -2.09011081
v -0.66862635 -0.56393662 -1.80295786
v -0.63969559 -0.83495430 -1.70524419
v -0.61727598 -1.00132641 -1.66768307
v -0.67003604 -0.83495430 -1.70524419
v -0.67077434 -0.61818837 -1.79778636
v -0.68117871 1.15427708 -4.36202076
v -0.61687324 1.16633299 -4.41591265
v -0.66842498 -0.14583637 -2.14509172
v -0.67157983 -0.52849215 -1.86038842
v -0.61553074 1.16633299 -4.41591265
vn -0.04704182 -0.99825946 -0.03556848
vn -0.10649301 -0.98790372 -0.11271861
vn 0.17052696 -0.98343835 -0.06139678
vn 0.19817814 -0.98010980 0.01049808
vn 0.21568946 -0.97528148 0.04800094
vn -0.12580681 -0.99168574 0.02705617
vn -0.66029064 -0.74945872 -0.04824836
vn -0.61887490 -0.74298160 -0.25489647
vn -0.01900872 -0.96414542 -0.26469281
vn 0.40834459 -0.53950099 -0.73633782
vn -0.29120525 -0.95659355 0.01132609
vn 0.74130370 -0.57736678 -0.34222277
vn 0.81262895 -0.56895544 -0.12618994
vn 0.82070618 -0.57109292 -0.01715352
vn 0.83119106 -0.55495006 0.03393901
vn 0.47251928 -0.82533431 0.30910968
vn -0.60908411 -0.72335602 0.32522703
vn -0.28315567 -0.95897375 0.01386383
vn -0.97584717 -0.20521614 -0.07489078
vn -0.93584984 -0.15574087 -0.31611684
vn -0.53912976 -0.61828784 -0.57189095
vn -0.14065261 -0.55245172 -0.82159232
vn 0.52483162 0.04209616 -0.85016450
vn 0.92701621 0.06064152 -0.37008588
vn 0.99362244 0.05256490 -0.09975658
vn 0.96880472 0.08543436 0.23263358
vn 0.95942672 -0.19846410 0.20028073
vn 0.75281149 -0.64467502 0.13292469
vn 0.02297387 -0.88540137 0.46425921
vn 0.82004303 -0.53097470 0.21353055
vn 0.61507288 -0.49827357 0.61107185
vn -0.63372680 -0.53071199 0.56279226
vn -0.98928908 -0.11209802 0.09349411
vn -0.99696993 -0.05469102 0.05531593
vn -0.99927872 -0.00137946 -0.03794906
vn -0.97507384 -0.01517846 -0.22136084
vn -0.99882657 -0.00719345 0.04789290
vn -0.99984838 -0.00208746 0.01728732
vn -0.96157799 -0.03892145 -0.27175888
vn -0.83703155 -0.06178654 -0.54365486
vn -0.38446947 -0.05098300 -0.92172879
vn 0.54201822 0.08530427 -0.83602597
vn 0.94223585 0.09476821 -0.32126405
vn 0.94790426 0.12379970 -0.29351514
vn 0.98057332 0.09429316 -0.17200225
vn 0.96139464 0.22085685 -0.16414201
vn 0.96695778 0.23551123 0.09760697
vn 0.94521499 0.23644108 0.22508717
vn 0.60503548 0.49436547 0.62412728
vn 0.74494503 0.32255724 0.58396381
vn 0.85167030 -0.02613833 0.52342572
vn 0.05503208 -0.67484736 0.73590251
vn 0.39844530 -0.03522947 0.91651526
vn 0.29914455 -0.28700083 0.91002366
vn -0.59798576 -0.28359417 0.74965817
vn -0.98899040 -0.08893485 0.11827332
vn -0.99333818 0.00787682 0.11496616
vn -0.99979215 0.00462752 -0.01985574
vn -0.99415909 0.10703292 -0.01384374
vn -0.99985426 0.00638845 0.01583154
vn -0.72519619 0.12576188 -0.67695970
vn -0.99810684 0.02075827 0.05789495
vn -0.99966706 0.01128555 0.02320348
vn 0.53719693 0.13699572 -0.83225695
vn 0.90316176 0.16941236 -0.39445949
vn 0.69057960 0.26010021 -0.67486865
vn 0.71063450 0.38877764 -0.58638772
vn 0.57962776 0.66137056 0.47604689
vn -0.02258810 0.71830301 0.69536362
vn -0.00962881 0.60085362 0.79930108
vn 0.30928321 0.41928959 0.85354563
vn 0.60170530 0.26090978 0.75490186
vn 0.82374995 0.09841948 0.55834543
vn 0.75420521 -0.04116462 0.65534722
vn 0.03377321 -0.36526020 0.93029262
vn 0.36610639 0.13617255 0.92055589
vn -0.62602352 0.12333573 0.76998886
vn -0.97775156 0.07013546 0.19769397
vn -0.99992785 0.00869980 -0.00828265
vn -0.96210822 0.24426491 0.12117107
vn -0.54732931 0.62483785 -0.55678388
vn -0.99800562 0.05480217 0.03132893
vn -0.70332912 0.58515127 0.40364111
vn -0.99748152 0.03661521 0.06074488
vn 0.54732633 0.67510525 -0.49463805
vn -0.02909385 0.84260567 0.53774458
vn 0.17238210 0.90560903 0.38750058
vn -0.72018796 0.43892232 0.53728624
vn -0.64000677 0.36537494 0.67593823
vn 0.36371141 0.31770687 0.87565767
vn 0.70757861 0.16226502 0.68775182
vn -0.90842296 0.14589201 0.39176937
vn -0.99371899 0.04693751 0.10158467
vn -0.57665644 0.76994370 0.27322893
vn -0.01871880 0.78185873 -0.62317456
vn -0.99654562 0.06225446 0.05496549
vn -0.99466665 0.06324685 0.08147446
vn 0.22555744 0.81776908 -0.52950692
f 1//1 2//2 3//3
f 1//1 3//3 4//4
f 1//1 4//4 5//5
f 1//1 5//5 6//6
f 1//1 6//6 2//2
f 2//2 7//7 8//8
f 2//2 8//8 9//9
f 2//2 9//9 10//10
f 2//2 10//10 3//3
f 2//2 6//6 11//11
f 2//2 11//11 7//7
f 3//3 10//10 12//12
f 3//3 12//12 13//13
f 3//3 13//13 4//4
f 4//4 13//13 14//14
f 4//4 14//14 15//15
f 4//4 15//15 5//5
f 5//5 16//16 6//6
f 5//5 15//15 16//16
f 6//6 16//16 17//17
f 6//6 17//17 18//18
f 6//6 18//18 11//11
f 7//7 19//19 8//8
f 7//7 11//11 17//17
f 7//7 17//17 19//19
f 8//8 20//20 21//21
f 8//8 21//21 9//9
f 8//8 19//19 20//20
f 9//9 21//21 22//22
f 9//9 22//22 10//10
f 10//10 22//22 41//41
f 10//10 41//41 61//61
f 10//10 61//61 81//81
f 10//10 81//81 95//95
f 10//10 95//95 98//98
f 10//10 98//98 85//85
f 10//10 85//85 67//67
f 10//10 67//67 66//66
f 10//10 66//66 64//64
f 10//10 64//64 42//42
f 10//10 42//42 23//23
f 10//10 23//23 12//12
f 11//11 18//18 17//17
f 12//12 23//23 24//24
f 12//12 24//24 25//25
f 12//12 25//25 13//13
f 13//13 25//25 14//14
f 14//14 25//25 15//15
f 15//15 25//25 26//26
f 15//15 26//26 27//27
f 15//15 27//27 28//28
f 15//15 28//28 16//16
f 16//16 29//29 17//17
f 16//16 28//28 30//30
f 16//16 30//30 31//31
f 16//16 31//31 29//29
f 17//17 29//29 52//52
f 17//17 52//52 32//32
f 17//17 32//32 33//33
f 17//17 33//33 34//34
f 17//17 34//34 19//19
f 19//19 35//35 36//36
f 19//19 36//36 20//20
f 19//19 34//34 37//37
f 19//19 37//37 38//38
f 19//19 38//38 35//35
f 20//20 36//36 39//39
f 20//20 39//39 40//40
f 20//20 40//40 21//21
f 21//21 40//40 41//41
f 21//21 41//41 22//22
f 23//23 42//42 24//24
f 24//24 42//42 43//43
f 24//24 43//43 25//25
f 25//25 43//43 44//44
f 25//25 44//44 45//45
f 25//25 45//45 46//46
f 25//25 46//46 47//47
f 25//25 47//47 26//26
f 26//26 48//48 49//49
f 26//26 49//49 50//50
f 26//26 50//50 51//51
f 26//26 51//51 27//27
f 26//26 47//47 48//48
f 27//27 51//51 31//31
f 27//27 31//31 30//30
f 27//27 30//30 28//28
f 29//29 31//31 52//52
f 31//31 51//51 53//53
f 31//31 53//53 54//54
f 31//31 54//54 52//52
f 32//32 52//52 75//75
f 32//32 75//75 55//55
f 32//32 55//55 56//56
f 32//32 56//56 33//33
f 33//33 56//56 34//34
f 34//34 56//56 57//57
f 34//34 57//57 37//37
f 35//35 58//58 59//59
f 35//35 59//59 36//36
f 35//35 38//38 60//60
f 35//35 60//60 58//58
f 36//36 59//59 61//61
f 36//36 61//61 40//40
f 36//36 40//40 39//39
f 37//37 57//57 62//62
f 37//37 62//62 63//63
f 37//37 63//63 38//38
f 38//38 63//63 60//60
f 40//40 61//61 41//41
f 42//42 64//64 65//65
f 42//42 65//65 43//43
f 43//43 65//65 44//44
f 44//44 46//46 45//45
f 44//44 65//65 46//46
f 46//46 65//65 64//64
f 46//46 64//64 66//66
f 46//46 66//66 47//47
f 47//47 66//66 67//67
f 47//47 67//67 68//68
f 47//47 68//68 48//48
f 48//48 68//68 49//49
f 49//49 68//68 69//69
f 49//49 69//69 70//70
f 49//49 70//70 71//71
f 49//49 71//71 50//50
f 50//50 71//71 72//72
f 50//50 72//72 73//73
f 50//50 73//73 51//51
f 51//51 73//73 74//74
f 51//51 74//74 53//53
f 52//52 54//54 75//75
f 53//53 76//76 77//77
f 53//53 77//77 55//55
f 53//53 55//55 75//75
f 53//53 75//75 54//54
f 53//53 74//74 73//73
f 53//53 73//73 76//76
f 55//55 77//77 57//57
f 55//55 57//57 56//56
f 57//57 78//78 62//62
f 57//57 77//77 78//78
f 58//58 79//79 59//59
f 58//58 60//60 79//79
f 59//59 80//80 81//81
f 59//59 81//81 61//61
f 59//59 79//79 82//82
f 59//59 82//82 83//83
f 59//59 83//83 80//80
f 60//60 63//63 79//79
f 62//62 78//78 84//84
f 62//62 84//84 82//82
f 62//62 82//82 63//63
f 63//63 82//82 79//79
f 67//67 85//85 68//68
f 68//68 86//86 69//69
f 68//68 85//85 87//87
f 68//68 87//87 86//86
f 69//69 86//86 83//83
f 69//69 83//83 88//88
f 69//69 88//88 70//70
f 70//70 88//88 89//89
f 70//70 89//89 71//71
f 71//71 89//89 77//77
f 71//71 77//77 76//76
f 71//71 76//76 90//90
f 71//71 90//90 72//72
f 72//72 90//90 76//76
f 72//72 76//76 91//91
f 72//72 91//91 73//73
f 73//73 91//91 76//76
f 77//77 89//89 92//92
f 77//77 92//92 78//78
f 78//78 92//92 89//89
f 78//78 89//89 93//93
f 78//78 93//93 84//84
f 80//80 94//94 81//81
f 80//80 83//83 94//94
f 81//81 94//94 95//95
f 82//82 84//84 88//88
f 82//82 88//88 96//96
f 82//82 96//96 83//83
f 83//83 96//96 88//88
f 83//83 86//86 94//94
f 84//84 93//93 89//89
f 84//84 89//89 97//97
f 84//84 97//97 88//88
f 85//85 98//98 87//87
f 86//86 87//87 94//94
f 87//87 98//98 95//95
f 87//87 95//95 94//94
f 88//88 97//97 89//89

