# https://github.com/mikedh/trimesh
v 1.26408663 -0.42811533 -0.61840229
v 1.27873567 -0.42811533 -0.52324835
v 1.29471656 -0.32413650 -0.61156550
v 1.30917549 -0.33551135 -0.71249151
v 1.32604410 -0.36893811 -0.76746554
v 1.37176706 -0.52330137 -0.90375202
v 1.42294377 -0.77278086 -0.95710096
v 1.41685592 -0.80613780 -0.89859640
v 1.32547336 -0.68129340 -0.59452976
v 1.32839055 -0.76657003 -0.48648688
v 1.32839055 -0.76657003 -0.46799406
v 1.31710243 -0.52330137 -0.46003654
v 1.31830727 -0.42811533 -0.46362302
v 1.32579049 -0.37382304 -0.47174864
v 1.30486307 -0.35253877 -0.52324835
v 1.32363428 -0.27975359 -0.63868837
v 1.32363428 -0.27975359 -0.68010104
v 1.42617808 -0.37996405 -0.95194541
v 1.41228989 -0.42811533 -0.96690781
v 1.40315797 -0.52330137 -0.97783536
v 1.41863149 -0.71346400 -0.96298510
v 1.47145704 -0.80613780 -0.98018897
v 1.50107237 -0.87033951 -0.96707587
v 1.43765631 -0.83621492 -0.92684004
v 1.42484636 -0.85889488 -0.86340406
v 1.47462784 -0.71346400 -1.00507022
v 1.41127529 -0.87703885 -0.71355622
v 1.40360197 -0.88297048 -0.61840229
v 1.41051431 -0.87334027 -0.54274985
v 1.37950389 -0.78638879 -0.45140656
v 1.37950389 -0.71346400 -0.43840556
v 1.37950389 -0.52330137 -0.44103940
v 1.34424443 -0.37382304 -0.47174864
v 1.37734769 -0.42616138 -0.45998051
v 1.35166414 -0.27975359 -0.63868837
v 1.35166414 -0.27975359 -0.68010104
v 1.42922201 -0.37996405 -0.95194541
v 1.46644715 -0.42483548 -0.97430491
v 1.47462784 -0.52330137 -1.00949725
v 1.47462784 -0.61841760 -1.01073016
v 1.56975194 -0.80858023 -1.00378131
v 1.91194491 -0.90481304 -1.00658325
v 1.91194491 -0.96461834 -0.97968458
v 1.91194491 -0.97138736 -0.96707587
v 1.66481266 -0.96015211 -0.87152968
v 1.61706037 -0.95135929 -0.85628708
v 1.59765506 -0.95938447 -0.80859809
v 1.55015638 -0.94054266 -0.80859809
v 1.47145704 -0.87829494 -0.89859640
v 1.47462784 -0.90188210 -0.80859809
v 1.48274517 -0.92840014 -0.70890499
v 1.56975194 -0.71346400 -1.01084222
v 1.51984358 -0.95212693 -0.67410491
v 1.51984358 -0.95212693 -0.66345747
v 1.48274517 -0.92791169 -0.62641584
v 1.47462784 -0.88429639 -0.53305513
v 1.45585678 -0.78938955 -0.45101431
v 1.77826396 -0.95561614 -0.56382044
v 1.45528604 -0.71346400 -0.44557853
v 1.44558339 -0.52330137 -0.45673024
v 1.43657821 -0.45651764 -0.46558438
v 1.40766049 -0.39315335 -0.48945691
v 1.37734769 -0.34932866 -0.52201552
v 1.38178684 -0.30006086 -0.61156550
v 1.52314112 -0.37982448 -0.75956412
v 1.52472659 -0.37856840 -0.80859809
v 1.52459971 -0.37870796 -0.86189103
v 1.49263807 -0.39092024 -0.92532694
v 1.54280018 -0.45435430 -0.96886909
v 1.91194491 -0.81269751 -0.99195711
v 1.91194491 -0.89232164 -1.00691951
v 1.91194491 -0.98387884 -0.90660995
v 1.76000012 -0.99267166 -0.80859809
v 1.66481266 -0.97990112 -0.80859809
v 1.76000012 -0.96985214 -0.89209595
v 1.52789739 -0.94870748 -0.73748482
v 1.56366394 -0.96329244 -0.70890499
v 1.66481266 -0.98625145 -0.71355622
v 1.56975194 -0.95826795 -0.65000818
v 1.71484790 -0.95073121 -0.57177796
v 1.81536222 -0.95561614 -0.56382044
v 1.75194631 -0.91290804 -0.53765033
v 1.83546515 -0.90376627 -0.54493537
v 1.66481266 -0.96650251 -0.62882552
v 1.75194631 -0.96552548 -0.60943609
v 1.76000012 -0.98862413 -0.71355622
v 1.83191385 -0.80858023 -0.54790543
v 1.43505624 -0.36586761 -0.55283682
v 1.81060609 -0.75917286 -0.56779922
v 1.44482241 -0.35051500 -0.61840229
v 1.91194491 -0.73391084 -0.80826183
v 1.91194491 -0.72993313 -0.87141761
v 1.91194491 -0.73000294 -0.89282440
v 1.91194491 -0.80146226 -0.98170201
v 1.91194491 -0.97515576 -0.80624448
v 1.91194491 -0.95701179 -0.74874863
v 1.91194491 -0.90376627 -0.71030596
v 1.91194491 -0.85749915 -0.71299583
v 1.91194491 -0.81967598 -0.72313887
v 1.91194491 -0.80139244 -0.73793314
v 1.91194491 -0.75163612 -0.78674291
vn -0.99593618 0.03954505 -0.08091542
vn -0.93845837 0.10261770 0.32979614
vn -0.88460823 0.45809905 0.08725563
vn -0.88672726 0.30832131 -0.34446007
vn -0.88982863 0.19338219 -0.41328966
vn -0.93115588 -0.03439055 -0.36299590
vn -0.78812323 -0.25277170 -0.56122031
vn -0.93274465 -0.27482581 -0.23336281
vn -0.95157475 -0.25136919 -0.17697179
vn -0.93089945 -0.36162207 -0.05153345
vn -0.76889569 -0.37527100 0.51765925
vn -0.63955098 -0.00964894 0.76868813
vn -0.53700498 0.13610462 0.83252699
vn -0.38768955 0.52462220 0.75793691
vn -0.68946642 0.59508812 0.41292395
vn -0.42263421 0.88496464 0.19549403
vn -0.52783558 0.81994046 -0.22155642
vn -0.35703875 0.66004378 -0.66095804
vn -0.59252908 0.28211560 -0.75453302
vn -0.71852224 0.03120263 -0.69480370
vn -0.78177743 -0.11458485 -0.61293912
vn -0.44320957 -0.32127107 -0.83686927
vn -0.38475329 -0.64347833 -0.66174055
vn -0.74125306 -0.50885062 -0.43773845
vn -0.77297000 -0.59015240 -0.23288953
vn -0.33996552 -0.12330008 -0.93231997
vn -0.76018685 -0.63676438 -0.12902355
vn -0.70612017 -0.70801333 0.01055604
vn -0.46913543 -0.79863687 0.37694974
vn -0.25890679 -0.48140432 0.83738710
vn -0.17880403 -0.06523922 0.98171939
vn -0.02291271 0.08513149 0.99610624
vn 0.12652859 0.60224811 0.78821807
vn 0.13565567 0.27009228 0.95323014
vn 0.21730104 0.95375750 0.20767015
vn 0.21283715 0.96861573 -0.12838970
vn 0.13207505 0.76601029 -0.62911399
vn 0.09533865 0.45796365 -0.88384378
vn -0.09473997 0.17749045 -0.97955167
vn -0.23823023 -0.02221625 -0.97095458
vn -0.11474854 -0.23561341 -0.96504875
vn 0.63706011 -0.19881703 -0.74473231
vn 0.57218397 -0.57579851 -0.58400478
vn 0.61163085 -0.73264686 -0.29855700
vn -0.21702314 -0.90800056 -0.35837961
vn -0.29773442 -0.90295600 -0.30987847
vn -0.31564536 -0.92277120 -0.22104594
vn -0.38177633 -0.89050823 -0.24747108
vn -0.48752534 -0.82730943 -0.27906657
vn -0.49908957 -0.84461431 -0.19374280
vn -0.52223580 -0.84570069 -0.10981851
vn -0.01875155 -0.03092992 -0.99934565
vn -0.38932222 -0.92049908 -0.03331138
vn -0.32922680 -0.93141553 0.15516062
vn -0.35553151 -0.90093399 0.24882783
vn -0.16284360 -0.80325971 0.57293613
vn 0.07086508 -0.32865656 0.94178713
vn -0.02285204 -0.82909491 0.55864068
vn 0.18464388 -0.00132439 0.98280460
vn 0.27842257 0.12664772 0.95207207
vn 0.40598899 0.35535408 0.84195987
vn 0.47796541 0.58877142 0.65184145
vn 0.30631787 0.80099075 0.51437650
vn 0.41296313 0.85637005 0.30998676
vn 0.62062076 0.77600817 0.11243308
vn 0.59163393 0.80607900 0.01435038
vn 0.50659697 0.83583535 -0.21151545
vn 0.40215941 0.79925403 -0.44661035
vn 0.42296837 0.56369186 -0.70947111
vn 0.75194739 0.22050037 -0.62125253
vn 0.69993032 0.02508245 -0.71377056
vn 0.67140007 -0.73610419 -0.08586368
vn -0.04153937 -0.99504330 -0.09035107
vn -0.20210447 -0.96239077 -0.18154279
vn -0.15672703 -0.94175518 -0.29754631
vn -0.39490972 -0.90553713 -0.15507682
vn -0.25853524 -0.96462603 -0.05153781
vn -0.12371725 -0.98912833 0.07949338
vn -0.17462234 -0.93766503 0.30048516
vn -0.13519239 -0.87593889 0.46309187
vn 0.34627695 -0.73894200 0.57797663
vn 0.10517239 -0.39227752 0.91381460
vn 0.60412099 -0.21596093 0.76707151
vn -0.11476509 -0.94647697 0.30167917
vn -0.02509926 -0.97427634 0.22395455
vn 0.05460128 -0.99024437 0.12819827
vn 0.66349426 0.22491602 0.71357420
vn 0.59128934 0.69320339 0.41212374
vn 0.68097933 0.54938023 0.48419884
vn 0.64476665 0.72767476 0.23402011
vn 0.89800619 0.41909717 0.13394942
vn 0.91167602 0.41075494 0.01127897
vn 0.87037749 0.45391605 -0.19079635
vn 0.86803025 0.35299221 -0.34917042
vn 0.75208007 -0.65376669 0.08345471
vn 0.86282026 -0.46287680 0.20319021
vn 0.96194254 -0.09622890 0.25574705
vn 0.97355138 0.03659863 0.22551773
vn 0.96485463 0.13285368 0.22672768
vn 0.96196031 0.18619534 0.19990911
vn 0.94923992 0.23900831 0.20449599
f 1//1 2//2 3//3
f 1//1 3//3 4//4
f 1//1 4//4 5//5
f 1//1 5//5 6//6
f 1//1 6//6 7//7
f 1//1 7//7 8//8
f 1//1 8//8 9//9
f 1//1 9//9 10//10
f 1//1 10//10 11//11
f 1//1 11//11 2//2
f 2//2 12//12 13//13
f 2//2 13//13 14//14
f 2//2 14//14 15//15
f 2//2 15//15 3//3
f 2//2 11//11 12//12
f 3//3 15//15 16//16
f 3//3 16//16 17//17
f 3//3 17//17 4//4
f 4//4 17//17 18//18
f 4//4 18//18 19//19
f 4//4 19//19 5//5
f 5//5 19//19 20//20
f 5//5 20//20 6//6
f 6//6 20//20 21//21
f 6//6 21//21 7//7
f 7//7 22//22 23//23
f 7//7 23//23 24//24
f 7//7 24//24 25//25
f 7//7 25//25 8//8
f 7//7 21//21 26//26
f 7//7 26//26 22//22
f 8//8 25//25 10//10
f 8//8 10//10 9//9
f 10//10 25//25 27//27
f 10//10 27//27 28//28
f 10//10 28//28 11//11
f 11//11 28//28 29//29
f 11//11 29//29 30//30
f 11//11 30//30 31//31
f 11//11 31//31 12//12
f 12//12 31//31 32//32
f 12//12 32//32 13//13
f 13//13 32//32 14//14
f 14//14 33//33 35//35
f 14//14 35//35 16//16
f 14//14 16//16 15//15
f 14//14 32//32 34//34
f 14//14 34//34 33//33
f 16//16 35//35 36//36
f 16//16 36//36 17//17
f 17//17 36//36 37//37
f 17//17 37//37 18//18
f 18//18 37//37 38//38
f 18//18 38//38 19//19
f 19//19 38//38 39//39
f 19//19 39//39 20//20
f 20//20 39//39 40//40
f 20//20 40//40 26//26
f 20//20 26//26 21//21
f 22//22 41//41 23//23
f 22//22 26//26 41//41
f 23//23 25//25 24//24
f 23//23 41//41 42//42
f 23//23 42//42 43//43
f 23//23 43//43 44//44
f 23//23 44//44 45//45
f 23//23 45//45 46//46
f 23//23 46//46 47//47
f 23//23 47//47 48//48
f 23//23 48//48 49//49
f 23//23 49//49 25//25
f 25//25 49//49 50//50
f 25//25 50//50 51//51
f 25//25 51//51 27//27
f 26//26 40//40 52//52
f 26//26 52//52 41//41
f 27//27 51//51 28//28
f 28//28 51//51 53//53
f 28//28 53//53 54//54
f 28//28 54//54 55//55
f 28//28 55//55 29//29
f 29//29 55//55 56//56
f 29//29 56//56 30//30
f 30//30 57//57 31//31
f 30//30 56//56 58//58
f 30//30 58//58 57//57
f 31//31 59//59 32//32
f 31//31 57//57 59//59
f 32//32 60//60 61//61
f 32//32 61//61 34//34
f 32//32 59//59 60//60
f 33//33 34//34 61//61
f 33//33 61//61 62//62
f 33//33 62//62 63//63
f 33//33 63//63 35//35
f 35//35 63//63 64//64
f 35//35 64//64 65//65
f 35//35 65//65 66//66
f 35//35 66//66 36//36
f 36//36 66//66 67//67
f 36//36 67//67 37//37
f 37//37 67//67 68//68
f 37//37 68//68 69//69
f 37//37 69//69 38//38
f 38//38 69//69 39//39
f 39//39 52//52 40//40
f 39//39 69//69 70//70
f 39//39 70//70 71//71
f 39//39 71//71 52//52
f 41//41 52//52 42//42
f 42//42 71//71 70//70
f 42//42 70//70 94//94
f 42//42 94//94 93//93
f 42//42 93//93 92//92
f 42//42 92//92 91//91
f 42//42 91//91 101//101
f 42//42 101//101 100//100
f 42//42 100//100 99//99
f 42//42 99//99 98//98
f 42//42 98//98 97//97
f 42//42 97//97 96//96
f 42//42 96//96 95//95
f 42//42 95//95 72//72
f 42//42 72//72 44//44
f 42//42 44//44 43//43
f 42//42 52//52 71//71
f 44//44 72//72 73//73
f 44//44 73//73 74//74
f 44//44 74//74 75//75
f 44//44 75//75 45//45
f 45//45 75//75 74//74
f 45//45 74//74 46//46
f 46//46 74//74 47//47
f 47//47 74//74 76//76
f 47//47 76//76 48//48
f 48//48 76//76 49//49
f 49//49 76//76 50//50
f 50//50 76//76 51//51
f 51//51 76//76 53//53
f 53//53 77//77 54//54
f 53//53 76//76 77//77
f 54//54 77//77 78//78
f 54//54 78//78 79//79
f 54//54 79//79 55//55
f 55//55 79//79 56//56
f 56//56 79//79 80//80
f 56//56 80//80 58//58
f 57//57 58//58 81//81
f 57//57 81//81 82//82
f 57//57 82//82 83//83
f 57//57 83//83 59//59
f 58//58 80//80 84//84
f 58//58 84//84 85//85
f 58//58 85//85 86//86
f 58//58 86//86 81//81
f 59//59 83//83 87//87
f 59//59 87//87 60//60
f 60//60 87//87 61//61
f 61//61 87//87 62//62
f 62//62 88//88 63//63
f 62//62 87//87 89//89
f 62//62 89//89 88//88
f 63//63 88//88 64//64
f 64//64 88//88 90//90
f 64//64 90//90 65//65
f 65//65 90//90 91//91
f 65//65 91//91 92//92
f 65//65 92//92 66//66
f 66//66 92//92 93//93
f 66//66 93//93 67//67
f 67//67 69//69 68//68
f 67//67 93//93 69//69
f 69//69 93//93 94//94
f 69//69 94//94 70//70
f 72//72 95//95 86//86
f 72//72 86//86 73//73
f 73//73 78//78 74//74
f 73//73 86//86 78//78
f 74//74 78//78 77//77
f 74//74 77//77 76//76
f 78//78 86//86 85//85
f 78//78 85//85 84//84
f 78//78 84//84 79//79
f 79//79 84//84 80//80
f 81//81 86//86 95//95
f 81//81 95//95 96//96
f 81//81 96//96 83//83
f 81//81 83//83 82//82
f 83//83 96//96 97//97
f 83//83 97//97 98//98
f 83//83 98//98 87//87
f 87//87 98//98 99//99
f 87//87 99//99 100//100
f 87//87 100//100 101//101
f 87//87 101//101 91//91
f 87//87 91//91 89//89
f 88//88 89//89 91//91
f 88//88 91//91 90//90

