# https://github.com/mikedh/trimesh
v -1.51043877 -1.09197732 4.22329788
v -1.33872816 -0.99886506 3.88622934
v -1.33459947 -1.06394583 3.89511757
v -1.33227060 -1.09197732 3.89951306
v -1.51043877 -1.09197732 4.49580464
v -1.51043877 -0.52689321 4.11302533
v -1.34169242 -0.90368837 3.87812251
v -1.28907824 -0.99886506 3.83876043
v -1.24112209 -1.09197732 3.80398891
v -1.29638284 -1.09197732 3.86015070
v -1.11472114 -1.09197732 4.50586496
v -0.78072190 -1.06601018 4.79507361
v -0.80866989 -1.06601018 4.79390152
v -0.86784754 -1.06601018 4.78042274
v -0.89113749 -1.06601018 4.77368335
v -1.51043877 -1.08795729 4.50586496
v -1.51043877 -0.50244718 4.13021574
v -1.33512881 -0.66118353 3.89648501
v -1.33936340 -0.71355239 3.88622934
v -1.34190421 -0.80851176 3.87695041
v -1.29331283 -0.80851176 3.82948151
v -1.29161905 -0.90368837 3.83055607
v -1.24006341 -1.09197732 3.80320752
v -1.01817368 -1.09197732 4.50586496
v -0.71360449 -1.06601018 4.79624571
v -0.71360449 -0.99886506 4.80093408
v -0.80866989 -0.99886506 4.79702710
v -0.88764404 -0.99886506 4.77397651
v -1.51043877 -0.35566219 4.50586496
v -1.51043877 -0.46268158 4.15873610
v -1.28420855 -0.64618994 3.88066204
v -1.27880953 -0.71920220 3.83749081
v -1.24355701 -0.75451312 3.80359821
v -1.24578013 -0.80851176 3.80310998
v -1.23254716 -1.09197732 3.80320752
v -1.01817368 -1.09197732 4.30758933
v -0.42893762 -1.06601018 4.78979948
v -0.42893762 -0.99886506 4.79605064
v -0.61843319 -0.71344373 4.79819919
v -0.71360449 -0.23788653 4.79536678
v -0.80866989 -0.04764193 4.78472041
v -0.86742409 -0.04764193 4.76577186
v -0.86594196 0.01798215 4.76469730
v -1.01806779 0.01798215 4.63928564
v -1.01806779 0.01798215 4.53389709
v -0.99880062 0.01798215 4.53262718
v -1.20618712 -0.64423426 3.87802497
v -1.23349995 -0.75451312 3.80359821
v -1.23265306 -0.80851176 3.80310998
v -1.18586135 -1.09197732 3.83123964
v -1.02240820 -1.09197732 4.23355355
v -0.42936107 -1.06601018 4.68001516
v -0.42893762 -1.06601018 4.76166982
v -0.42893762 -0.90368837 4.79565994
v -0.61843319 -0.23788653 4.79351082
v -0.71360449 -0.14281854 4.79399905
v -0.71360449 -0.04764193 4.79233873
v -0.74314036 0.01798215 4.78882245
v -0.80866989 0.01798215 4.78296256
v -0.97159377 0.01798215 4.53712020
v -0.91114572 0.01798215 4.54766875
v -0.42893762 0.01798215 4.69701022
v -1.13949323 -0.73778117 3.89726641
v -1.12657781 -1.09197732 3.87948995
v -1.12774239 -1.09197732 3.87851320
v -1.18480274 -1.09197732 3.83202104
v -1.14277496 -0.67443876 3.90205231
v -1.03066552 -1.09197732 4.13334132
v -0.42893762 -0.99886506 4.70052650
v -1.04114602 -1.09197732 4.08206325
v -1.05247342 -1.09197732 4.04299406
v -1.09100774 -1.09197732 3.94815406
v -1.09164291 -1.09197732 3.94688415
v -0.42893762 -0.23788653 4.78618567
v -0.52326196 -0.14281854 4.78970195
v -0.52326196 -0.23788653 4.79087404
v -0.61843319 -0.14281854 4.79214367
v -0.61843319 -0.04764193 4.79048334
v -0.71360449 0.01798215 4.79116664
v -0.42893762 0.01798215 4.78169236
v -0.42893762 -0.14281854 4.78481794
v -0.52326196 -0.04764193 4.78823669
v -0.61843319 0.01798215 4.78911562
v -0.52326196 0.01798215 4.78686896
v -0.42893762 -0.04764193 4.78306009
vn -0.72342407 -0.67151543 -0.16038906
vn -0.79197456 -0.10016812 -0.60228120
vn -0.80262753 -0.14107858 -0.57955662
vn -0.55204694 -0.73691854 -0.39012208
vn -0.68431490 -0.72083618 0.11003779
vn -0.86385753 0.22141617 -0.45246552
vn -0.77658276 -0.05354052 -0.62773612
vn -0.68616643 -0.08274843 -0.72272286
vn -0.44692525 -0.71469190 -0.53802724
vn -0.47679491 -0.74939987 -0.45941969
vn -0.00093667 -0.99893367 0.04615896
vn -0.02480420 -0.69032851 0.72307075
vn -0.09422045 -0.66880678 0.73744152
vn -0.19935771 -0.63226809 0.74866119
vn -0.26338399 -0.58744969 0.76520046
vn -0.70886383 -0.45575336 0.53833163
vn -0.86180324 0.29483442 -0.41275639
vn -0.54287975 0.38460010 -0.74656838
vn -0.68639227 0.14324741 -0.71298376
vn -0.75375761 0.02682487 -0.65660482
vn -0.60191548 0.04863294 -0.79707753
vn -0.61544005 -0.03777516 -0.78727796
vn -0.22708769 -0.65065221 -0.72462603
vn 0.01426987 -0.99917200 0.03810092
vn 0.00093710 -0.69707932 0.71699341
vn -0.00954284 -0.02891984 0.99953618
vn -0.15544821 -0.01059448 0.98778723
vn -0.33103576 0.01365232 0.94351944
vn -0.82304449 0.40786830 0.39527359
vn -0.77372425 0.49534002 -0.39495449
vn -0.22049847 0.60213823 -0.76733955
vn -0.47997411 0.32276885 -0.81574820
vn -0.24092440 0.26479964 -0.93372190
vn -0.25494079 0.00690836 -0.96693199
vn 0.20263180 -0.65172653 -0.73088500
vn 0.02300840 -0.99973485 -0.00091542
vn 0.59482290 -0.59092173 0.54497452
vn 0.70333429 -0.03038213 0.71020969
vn 0.01521897 0.00774880 0.99985416
vn -0.03248212 0.01243651 0.99939494
vn -0.19554896 0.01912416 0.98050745
vn -0.34535870 0.01980602 0.93826174
vn -0.27507642 0.70522602 0.65344413
vn -0.40898337 0.85948882 0.30661307
vn -0.26611031 0.91298900 -0.30925132
vn 0.02860341 0.91000821 -0.41360235
vn 0.20234234 0.56988689 -0.79642106
vn 0.31031320 0.24569547 -0.91833515
vn 0.30705133 0.01044535 -0.95163563
vn 0.40349862 -0.69296377 -0.59748647
vn 0.02338009 -0.99972509 -0.00176713
vn 0.73625698 -0.61859589 -0.27434428
vn 0.72263437 -0.69122975 -0.00099671
vn 0.71313206 0.00405175 0.70101801
vn 0.02314414 0.01211764 0.99965870
vn -0.03136713 0.01552464 0.99938736
vn -0.03017601 0.01757872 0.99939001
vn -0.05742642 0.71299165 0.69881693
vn -0.14279649 0.69276283 0.70688671
vn 0.06780048 0.91543439 -0.39671522
vn 0.10885149 0.90306108 -0.41549013
vn 0.68444165 0.64813561 -0.33385605
vn 0.70454091 0.07323724 -0.70587422
vn 0.51470011 -0.67655974 -0.52664098
vn 0.45897961 -0.69508910 -0.55334335
vn 0.44285511 -0.69377502 -0.56793977
vn 0.65521517 0.16802665 -0.73651892
vn 0.02673936 -0.99963099 -0.00478473
vn 0.99994882 -0.00080992 -0.01008498
vn 0.02974582 -0.99952391 -0.00819435
vn 0.03579536 -0.99926102 -0.01400380
vn 0.04393404 -0.99880085 -0.02160227
vn 0.04584870 -0.99866728 -0.02369743
vn 0.72509868 0.00982525 0.68857488
vn 0.03861326 0.01456334 0.99914810
vn 0.03178514 0.01199091 0.99942280
vn 0.02231172 0.01565153 0.99962854
vn 0.02185809 0.01884880 0.99958339
vn -0.02097405 0.70252504 0.71134989
vn 0.59240345 0.58557037 0.55332223
vn 0.72497492 0.01078238 0.68869086
vn 0.03906711 0.01874268 0.99906080
vn 0.01579977 0.71420536 0.69975787
vn 0.02757477 0.71096999 0.70268151
vn 0.72595993 0.01351582 0.68760418
f 1//1 2//2 3//3
f 1//1 3//3 4//4
f 1//1 4//4 10//10
f 1//1 10//10 9//9
f 1//1 9//9 23//23
f 1//1 23//23 35//35
f 1//1 35//35 50//50
f 1//1 50//50 66//66
f 1//1 66//66 65//65
f 1//1 65//65 64//64
f 1//1 64//64 73//73
f 1//1 73//73 72//72
f 1//1 72//72 71//71
f 1//1 71//71 70//70
f 1//1 70//70 68//68
f 1//1 68//68 51//51
f 1//1 51//51 36//36
f 1//1 36//36 24//24
f 1//1 24//24 11//11
f 1//1 11//11 5//5
f 1//1 5//5 16//16
f 1//1 16//16 29//29
f 1//1 29//29 30//30
f 1//1 30//30 17//17
f 1//1 17//17 6//6
f 1//1 6//6 2//2
f 2//2 7//7 8//8
f 2//2 8//8 9//9
f 2//2 9//9 10//10
f 2//2 10//10 3//3
f 2//2 6//6 7//7
f 3//3 10//10 4//4
f 5//5 11//11 12//12
f 5//5 12//12 13//13
f 5//5 13//13 14//14
f 5//5 14//14 15//15
f 5//5 15//15 16//16
f 6//6 17//17 18//18
f 6//6 18//18 19//19
f 6//6 19//19 20//20
f 6//6 20//20 7//7
f 7//7 20//20 21//21
f 7//7 21//21 22//22
f 7//7 22//22 8//8
f 8//8 22//22 9//9
f 9//9 22//22 23//23
f 11//11 24//24 25//25
f 11//11 25//25 12//12
f 12//12 25//25 26//26
f 12//12 26//26 27//27
f 12//12 27//27 13//13
f 13//13 27//27 14//14
f 14//14 27//27 15//15
f 15//15 27//27 28//28
f 15//15 28//28 29//29
f 15//15 29//29 16//16
f 17//17 30//30 18//18
f 18//18 31//31 32//32
f 18//18 32//32 19//19
f 18//18 30//30 31//31
f 19//19 32//32 21//21
f 19//19 21//21 20//20
f 21//21 32//32 33//33
f 21//21 33//33 34//34
f 21//21 34//34 23//23
f 21//21 23//23 22//22
f 23//23 34//34 49//49
f 23//23 49//49 35//35
f 24//24 36//36 53//53
f 24//24 53//53 37//37
f 24//24 37//37 25//25
f 25//25 37//37 38//38
f 25//25 38//38 26//26
f 26//26 38//38 39//39
f 26//26 39//39 40//40
f 26//26 40//40 27//27
f 27//27 40//40 41//41
f 27//27 41//41 28//28
f 28//28 41//41 42//42
f 28//28 42//42 29//29
f 29//29 42//42 43//43
f 29//29 43//43 44//44
f 29//29 44//44 45//45
f 29//29 45//45 30//30
f 30//30 45//45 31//31
f 31//31 45//45 46//46
f 31//31 46//46 47//47
f 31//31 47//47 33//33
f 31//31 33//33 32//32
f 33//33 47//47 48//48
f 33//33 48//48 49//49
f 33//33 49//49 34//34
f 35//35 49//49 50//50
f 36//36 51//51 52//52
f 36//36 52//52 53//53
f 37//37 53//53 69//69
f 37//37 69//69 62//62
f 37//37 62//62 80//80
f 37//37 80//80 85//85
f 37//37 85//85 81//81
f 37//37 81//81 74//74
f 37//37 74//74 54//54
f 37//37 54//54 38//38
f 38//38 54//54 39//39
f 39//39 55//55 40//40
f 39//39 54//54 55//55
f 40//40 55//55 77//77
f 40//40 77//77 56//56
f 40//40 56//56 41//41
f 41//41 56//56 57//57
f 41//41 57//57 58//58
f 41//41 58//58 59//59
f 41//41 59//59 43//43
f 41//41 43//43 42//42
f 43//43 59//59 58//58
f 43//43 58//58 79//79
f 43//43 79//79 83//83
f 43//43 83//83 84//84
f 43//43 84//84 80//80
f 43//43 80//80 62//62
f 43//43 62//62 61//61
f 43//43 61//61 60//60
f 43//43 60//60 46//46
f 43//43 46//46 45//45
f 43//43 45//45 44//44
f 46//46 60//60 47//47
f 47//47 60//60 61//61
f 47//47 61//61 62//62
f 47//47 62//62 48//48
f 48//48 63//63 64//64
f 48//48 64//64 65//65
f 48//48 65//65 66//66
f 48//48 66//66 50//50
f 48//48 50//50 49//49
f 48//48 62//62 67//67
f 48//48 67//67 63//63
f 51//51 68//68 52//52
f 52//52 69//69 53//53
f 52//52 68//68 70//70
f 52//52 70//70 71//71
f 52//52 71//71 72//72
f 52//52 72//72 73//73
f 52//52 73//73 64//64
f 52//52 64//64 62//62
f 52//52 62//62 69//69
f 54//54 74//74 75//75
f 54//54 75//75 76//76
f 54//54 76//76 55//55
f 55//55 76//76 75//75
f 55//55 75//75 77//77
f 56//56 77//77 78//78
f 56//56 78//78 57//57
f 57//57 78//78 79//79
f 57//57 79//79 58//58
f 62//62 64//64 63//63
f 62//62 63//63 67//67
f 74//74 81//81 75//75
f 75//75 81//81 82//82
f 75//75 82//82 77//77
f 77//77 82//82 78//78
f 78//78 82//82 84//84
f 78//78 84//84 83//83
f 78//78 83//83 79//79
f 80//80 84//84 82//82
f 80//80 82//82 85//85
f 81//81 85//85 82//82

