# https://github.com/mikedh/trimesh
v -0.45385413 -0.04762869 0.20853229
v -0.46184433 0.23776423 0.20358988
v -0.52320536 0.23776423 0.20806604
v -0.53009194 -0.04456362 0.20582796
v -0.50298712 -0.10847619 0.20284386
v -0.45981365 -0.10847619 0.20284386
v -0.28252877 -0.76008928 0.00384157
v -0.27771699 -0.42803906 0.00953002
v -0.46537588 0.29566016 0.20023277
v -0.28027738 -0.35731521 0.00645266
v -0.52320536 0.29509254 0.19995300
v -0.57322125 0.28805421 0.19314553
v -0.57450147 0.23776423 0.19473082
v -0.57211766 -0.01084774 0.19183996
v -0.56642299 -0.07430623 0.18521898
v -0.66822055 -0.31565283 0.09690824
v -0.59238003 -0.76008928 0.01624425
v -0.55843283 -0.76008928 0.02678185
v -0.52320536 -0.76008928 0.03489489
v -0.47469043 -0.76008928 0.03694644
v -0.42811781 -0.76008928 0.03881150
v -0.32618784 -0.76008928 0.01838907
v -0.29219644 -0.76008928 0.00729195
v -0.25785191 -0.76008928 -0.23759089
v -0.26853491 -0.42803906 -0.04763419
v -0.35218901 0.23515321 -0.04390406
v -0.31435705 0.23776423 -0.14275241
v -0.36556484 0.31234781 -0.07318556
v -0.38825517 0.37580629 -0.11169911
v -0.45164692 0.38806659 -0.08372316
v -0.52320536 0.38829366 -0.08288387
v -0.28058641 -0.16682621 -0.08847906
v -0.57719429 0.38329869 -0.09025088
v -0.66733766 0.28896238 -0.09230245
v -0.67272329 0.10596583 0.02575606
v -0.65917093 0.04750228 0.07816436
v -0.66822055 -0.28148288 0.09690824
v -0.69051357 -0.34153569 0.05699588
v -0.60875768 -0.76008928 -0.01546183
v -0.68420088 -0.42803906 0.02846041
v -0.25948526 -0.76008928 -0.27395963
v -0.26133934 -0.42803906 -0.23787066
v -0.26257539 -0.42803906 -0.14275241
v -0.27546562 -0.15161434 -0.14275241
v -0.35964947 0.33289519 -0.21493037
v -0.37699831 0.38261760 -0.19422817
v -0.35483770 0.33959294 -0.14312542
v -0.27696654 -0.16217183 -0.20625782
v -0.27188991 -0.35890451 -0.31154065
v -0.41094555 -0.04762869 -0.74414213
v -0.37699831 0.38261760 -0.17511127
v -0.42321775 0.39238043 -0.14312542
v -0.52320536 0.39964579 -0.14275241
v -0.58284480 0.38625026 -0.14275241
v -0.63043275 0.34402029 -0.14275241
v -0.67144310 0.29645481 -0.14275241
v -0.67625488 0.23651548 -0.13501240
v -0.70578763 -0.04762869 -0.23787066
v -0.69713530 -0.33290810 -0.04763419
v -0.66826471 -0.76008928 -0.20588481
v -0.70883361 -0.14275967 -0.23787066
v -0.62469392 -0.76008928 -0.04763419
v -0.66698446 -0.76008928 -0.18704768
v -0.26698985 -0.76008928 -0.31601680
v -0.43866838 0.04909158 -0.74414213
v -0.42811781 0.38965589 -0.20672409
v -0.46210918 0.20098326 -0.58449268
v -0.45928392 0.29974693 -0.40759144
v -0.41063654 -0.10336773 -0.74414213
v -0.52320536 0.39181281 -0.21148000
v -0.58046099 0.38545561 -0.20056938
v -0.67188455 0.29645481 -0.20318047
v -0.69841548 0.04750228 -0.23787066
v -0.68031616 0.04750228 -0.29699315
v -0.68464233 -0.04762869 -0.29951100
v -0.68773247 -0.14275967 -0.30417364
v -0.68949826 -0.23777711 -0.30976883
v -0.67157558 -0.76008928 -0.27601120
v -0.70878945 -0.23777711 -0.23787066
v -0.46652366 -0.76008928 -0.57656617
v -0.45080815 -0.50829871 -0.74414213
v -0.42361504 -0.42531453 -0.74414213
v -0.41491855 -0.33563259 -0.74414213
v -0.41403565 -0.30566293 -0.74414213
v -0.41244646 -0.24016106 -0.74414213
v -0.41174013 -0.20099616 -0.74414213
v -0.41081310 -0.14275967 -0.74414213
v -0.47914904 0.04909158 -0.74414213
v -0.46003437 0.11039316 -0.68688466
v -0.48700676 0.20098326 -0.58449268
v -0.49945556 0.29974693 -0.40759144
v -0.58995210 0.30337963 -0.30911609
v -0.61692448 0.33164644 -0.23358101
v -0.67360618 0.11970193 -0.29195748
v -0.67775579 0.23776423 -0.22024580
v -0.48828698 0.11039316 -0.68688466
v -0.49565913 0.04182621 -0.74414213
v -0.50060331 0.02082474 -0.74414213
v -0.68309733 0.14785523 -0.24458488
v -0.51186021 -0.04762869 -0.74414213
v -0.51344941 -0.07827948 -0.74414213
v -0.52329368 -0.33290810 -0.74414213
v -0.52324952 -0.36355886 -0.74414213
v -0.60994962 -0.76008928 -0.47986263
v -0.64853200 -0.76008928 -0.37579208
v -0.66989803 -0.76008928 -0.30053679
v -0.49420234 -0.76008928 -0.57964352
v -0.49663031 -0.50829871 -0.74414213
v -0.52121888 -0.42803906 -0.74414213
v -0.59445483 -0.76008928 -0.51175524
v -0.52492703 -0.76008928 -0.57311581
v -0.51495032 -0.46232253 -0.74414213
v -0.54761737 -0.76008928 -0.55931431
v -0.55710848 -0.76008928 -0.55287985
vn 0.40803323 -0.01581268 0.91283013
vn 0.50861268 0.06485891 0.85854905
vn -0.09074564 0.05101645 0.99456651
vn -0.22419519 -0.08182159 0.97110336
vn -0.15468164 -0.17448119 0.97243504
vn 0.23172011 -0.15755315 0.95993895
vn 0.62829057 -0.64151886 0.44011875
vn 0.90059495 0.00188473 0.43465526
vn 0.43224357 0.54588209 0.71775918
vn 0.92809935 0.06888214 0.36590552
vn -0.09663090 0.63898817 0.76312292
vn -0.53996745 0.50762018 0.67138432
vn -0.56402413 0.02743474 0.82530244
vn -0.50885239 -0.03971162 0.85993734
vn -0.41097995 -0.15108232 0.89903816
vn -0.64587689 -0.14014300 0.75046851
vn -0.43757173 -0.72421452 0.53295808
vn -0.16599971 -0.77763213 0.60640940
vn -0.08761069 -0.77129432 0.63042005
vn -0.02521627 -0.78977351 0.61288004
vn 0.05452085 -0.76544205 0.64119104
vn 0.16870597 -0.76774195 0.61815094
vn 0.20770846 -0.77061579 0.60250187
vn 0.72181107 -0.69197346 0.01270908
vn 0.99350284 0.01839149 0.11231142
vn 0.91010148 0.19940490 0.36325333
vn 0.97060428 0.23319678 0.05955323
vn 0.86145509 0.39181496 0.32307300
vn 0.58416110 0.76684607 0.26590020
vn 0.14836721 0.95890953 0.24182572
vn -0.05912683 0.96608777 0.25135320
vn 0.98261700 0.09105678 0.16177913
vn -0.42742418 0.87830024 0.21423646
vn -0.89719932 0.39796101 0.19146909
vn -0.96367786 0.11803206 0.23956923
vn -0.90492069 0.07304229 0.41926528
vn -0.82323389 0.02187636 0.56728069
vn -0.93430717 -0.10055098 0.34199358
vn -0.54687435 -0.79020061 0.27660702
vn -0.93014258 -0.17949365 0.32033858
vn 0.72117483 -0.68800142 -0.08099941
vn 0.99818003 0.03099319 -0.05173056
vn 0.99890493 0.02435630 0.03994631
vn 0.99584776 0.08190155 0.03974146
vn 0.89944095 0.36156007 -0.24552046
vn 0.59902341 0.77594137 -0.19770164
vn 0.89097805 0.43674134 0.12415763
vn 0.99022836 0.09578197 -0.10135877
vn 0.97971063 0.05725108 -0.19206614
vn 0.62980531 0.09473391 -0.77095445
vn 0.60745914 0.79217833 0.05871016
vn 0.17793221 0.98125168 0.07406265
vn -0.06553831 0.99733116 0.03217587
vn -0.46255389 0.88594566 0.03382587
vn -0.71041002 0.70086166 0.06411352
vn -0.91325161 0.40106623 0.07153576
vn -0.99344251 0.08567652 0.07570670
vn -0.99197631 0.05230098 -0.11509829
vn -0.99768655 -0.04478592 0.05114462
vn -0.67656794 -0.73545781 0.03684607
vn -0.99388665 0.02336865 -0.10790385
vn -0.59192905 -0.77267476 0.22933319
vn -0.67420840 -0.73235205 0.09541233
vn 0.69288164 -0.68517811 -0.22460184
vn 0.47603431 0.37932968 -0.79341057
vn 0.12478426 0.95834301 -0.25691938
vn 0.36610885 0.75426754 -0.54501815
vn 0.17858521 0.86862038 -0.46217524
vn 0.58716421 0.00212902 -0.80946504
vn -0.06733650 0.95637743 -0.28426748
vn -0.43274748 0.86830559 -0.24243560
vn -0.87407587 0.44041214 -0.20500859
vn -0.98907954 0.08963628 -0.11699147
vn -0.93897268 0.08631777 -0.33298580
vn -0.93809015 0.04950259 -0.34283577
vn -0.94039495 0.04048189 -0.33766632
vn -0.94998138 -0.00228493 -0.31229819
vn -0.69355899 -0.72031157 -0.01127733
vn -0.99452300 -0.02409206 -0.10170334
vn 0.32013962 -0.81444609 -0.48392994
vn 0.39086684 -0.30948549 -0.86685745
vn 0.54710140 -0.09191975 -0.83200410
vn 0.57099458 -0.02700335 -0.82050961
vn 0.57167128 -0.01461872 -0.82035251
vn 0.57446328 -0.01118243 -0.81845397
vn 0.57539629 -0.00942487 -0.81782045
vn 0.58158233 -0.00394779 -0.81347797
vn -0.08599247 0.39582386 -0.91429140
vn 0.17324894 0.72047711 -0.67148905
vn -0.34440084 0.74920469 -0.56575648
vn -0.17329570 0.86517837 -0.47056879
vn -0.61141572 0.64011111 -0.46521885
vn -0.62198300 0.65220878 -0.43331380
vn -0.92914103 0.15117220 -0.33740764
vn -0.96324493 0.15646702 -0.21835125
vn -0.39870514 0.65648946 -0.64035599
vn -0.49587546 0.28453744 -0.82045474
vn -0.55179689 0.10819011 -0.82693113
vn -0.95532084 0.12857982 -0.26613778
vn -0.57134422 0.05734726 -0.81870451
vn -0.56548253 0.02604011 -0.82434909
vn -0.57039637 0.00918131 -0.82131826
vn -0.57221969 -0.01069302 -0.82003066
vn -0.64908506 -0.71434728 -0.26152734
vn -0.66788970 -0.71072383 -0.22089587
vn -0.69927753 -0.70337347 -0.12758015
vn -0.02907292 -0.86073690 -0.50821920
vn -0.32086585 -0.30138171 -0.89789430
vn -0.57089830 -0.03674407 -0.82019815
vn -0.58188734 -0.73695582 -0.34395239
vn -0.21565920 -0.84282718 -0.49308564
vn -0.49410101 -0.11577287 -0.86166167
vn -0.28998869 -0.84778797 -0.44402941
vn -0.40829274 -0.80484416 -0.43072372
f 1//1 2//2 3//3
f 1//1 3//3 4//4
f 1//1 4//4 5//5
f 1//1 5//5 6//6
f 1//1 6//6 7//7
f 1//1 7//7 8//8
f 1//1 8//8 2//2
f 2//2 9//9 3//3
f 2//2 8//8 10//10
f 2//2 10//10 9//9
f 3//3 9//9 11//11
f 3//3 11//11 12//12
f 3//3 12//12 13//13
f 3//3 13//13 4//4
f 4//4 14//14 15//15
f 4//4 15//15 16//16
f 4//4 16//16 5//5
f 4//4 13//13 14//14
f 5//5 16//16 17//17
f 5//5 17//17 18//18
f 5//5 18//18 19//19
f 5//5 19//19 20//20
f 5//5 20//20 21//21
f 5//5 21//21 6//6
f 6//6 21//21 22//22
f 6//6 22//22 23//23
f 6//6 23//23 7//7
f 7//7 23//23 22//22
f 7//7 22//22 21//21
f 7//7 21//21 20//20
f 7//7 20//20 19//19
f 7//7 19//19 18//18
f 7//7 18//18 17//17
f 7//7 17//17 39//39
f 7//7 39//39 62//62
f 7//7 62//62 63//63
f 7//7 63//63 60//60
f 7//7 60//60 78//78
f 7//7 78//78 106//106
f 7//7 106//106 105//105
f 7//7 105//105 104//104
f 7//7 104//104 110//110
f 7//7 110//110 114//114
f 7//7 114//114 113//113
f 7//7 113//113 111//111
f 7//7 111//111 107//107
f 7//7 107//107 80//80
f 7//7 80//80 64//64
f 7//7 64//64 41//41
f 7//7 41//41 24//24
f 7//7 24//24 25//25
f 7//7 25//25 8//8
f 8//8 25//25 10//10
f 9//9 26//26 27//27
f 9//9 27//27 28//28
f 9//9 28//28 29//29
f 9//9 29//29 30//30
f 9//9 30//30 31//31
f 9//9 31//31 11//11
f 9//9 10//10 26//26
f 10//10 25//25 32//32
f 10//10 32//32 27//27
f 10//10 27//27 26//26
f 11//11 31//31 33//33
f 11//11 33//33 12//12
f 12//12 34//34 35//35
f 12//12 35//35 36//36
f 12//12 36//36 37//37
f 12//12 37//37 13//13
f 12//12 33//33 34//34
f 13//13 37//37 16//16
f 13//13 16//16 14//14
f 14//14 16//16 15//15
f 16//16 37//37 38//38
f 16//16 38//38 17//17
f 17//17 38//38 40//40
f 17//17 40//40 39//39
f 24//24 41//41 42//42
f 24//24 42//42 43//43
f 24//24 43//43 25//25
f 25//25 43//43 44//44
f 25//25 44//44 32//32
f 27//27 45//45 46//46
f 27//27 46//46 47//47
f 27//27 47//47 28//28
f 27//27 32//32 44//44
f 27//27 44//44 48//48
f 27//27 48//48 49//49
f 27//27 49//49 50//50
f 27//27 50//50 45//45
f 28//28 47//47 29//29
f 29//29 47//47 51//51
f 29//29 51//51 52//52
f 29//29 52//52 30//30
f 30//30 52//52 53//53
f 30//30 53//53 31//31
f 31//31 53//53 33//33
f 33//33 53//53 54//54
f 33//33 54//54 55//55
f 33//33 55//55 34//34
f 34//34 55//55 56//56
f 34//34 56//56 57//57
f 34//34 57//57 35//35
f 35//35 57//57 58//58
f 35//35 58//58 38//38
f 35//35 38//38 36//36
f 36//36 38//38 37//37
f 38//38 59//59 60//60
f 38//38 60//60 40//40
f 38//38 58//58 61//61
f 38//38 61//61 59//59
f 39//39 40//40 62//62
f 40//40 60//60 63//63
f 40//40 63//63 62//62
f 41//41 64//64 49//49
f 41//41 49//49 42//42
f 42//42 49//49 48//48
f 42//42 48//48 44//44
f 42//42 44//44 43//43
f 45//45 50//50 65//65
f 45//45 65//65 46//46
f 46//46 66//66 52//52
f 46//46 52//52 51//51
f 46//46 51//51 47//47
f 46//46 65//65 67//67
f 46//46 67//67 68//68
f 46//46 68//68 66//66
f 49//49 64//64 50//50
f 50//50 69//69 87//87
f 50//50 87//87 86//86
f 50//50 86//86 85//85
f 50//50 85//85 84//84
f 50//50 84//84 83//83
f 50//50 83//83 82//82
f 50//50 82//82 81//81
f 50//50 81//81 108//108
f 50//50 108//108 112//112
f 50//50 112//112 109//109
f 50//50 109//109 103//103
f 50//50 103//103 102//102
f 50//50 102//102 101//101
f 50//50 101//101 100//100
f 50//50 100//100 98//98
f 50//50 98//98 97//97
f 50//50 97//97 88//88
f 50//50 88//88 65//65
f 50//50 64//64 69//69
f 52//52 66//66 53//53
f 53//53 66//66 70//70
f 53//53 70//70 71//71
f 53//53 71//71 54//54
f 54//54 71//71 55//55
f 55//55 71//71 72//72
f 55//55 72//72 56//56
f 56//56 72//72 73//73
f 56//56 73//73 57//57
f 57//57 73//73 58//58
f 58//58 73//73 74//74
f 58//58 74//74 75//75
f 58//58 75//75 76//76
f 58//58 76//76 77//77
f 58//58 77//77 61//61
f 59//59 78//78 60//60
f 59//59 61//61 79//79
f 59//59 79//79 78//78
f 61//61 77//77 79//79
f 64//64 80//80 81//81
f 64//64 81//81 82//82
f 64//64 82//82 83//83
f 64//64 83//83 84//84
f 64//64 84//84 85//85
f 64//64 85//85 86//86
f 64//64 86//86 87//87
f 64//64 87//87 69//69
f 65//65 88//88 96//96
f 65//65 96//96 89//89
f 65//65 89//89 67//67
f 66//66 68//68 70//70
f 67//67 89//89 96//96
f 67//67 96//96 90//90
f 67//67 90//90 91//91
f 67//67 91//91 68//68
f 68//68 91//91 70//70
f 70//70 91//91 71//71
f 71//71 92//92 93//93
f 71//71 93//93 72//72
f 71//71 91//91 90//90
f 71//71 90//90 92//92
f 72//72 94//94 95//95
f 72//72 95//95 73//73
f 72//72 93//93 92//92
f 72//72 92//92 90//90
f 72//72 90//90 96//96
f 72//72 96//96 97//97
f 72//72 97//97 98//98
f 72//72 98//98 94//94
f 73//73 95//95 99//99
f 73//73 99//99 94//94
f 73//73 94//94 74//74
f 74//74 100//100 75//75
f 74//74 94//94 100//100
f 75//75 100//100 101//101
f 75//75 101//101 76//76
f 76//76 101//101 77//77
f 77//77 101//101 102//102
f 77//77 102//102 103//103
f 77//77 103//103 104//104
f 77//77 104//104 105//105
f 77//77 105//105 106//106
f 77//77 106//106 79//79
f 78//78 79//79 106//106
f 80//80 107//107 81//81
f 81//81 107//107 108//108
f 88//88 97//97 96//96
f 94//94 99//99 95//95
f 94//94 98//98 100//100
f 103//103 109//109 104//104
f 104//104 109//109 110//110
f 107//107 111//111 108//108
f 108//108 111//111 113//113
f 108//108 113//113 114//114
f 108//108 114//114 110//110
f 108//108 110//110 112//112
f 109//109 112//112 110//110

