# https://github.com/mikedh/trimesh
v 0.11167760 1.47842864 0.38251507
v 0.11167760 1.36945860 0.38251507
v 0.11167760 1.47878163 0.33347245
v 0.11156699 1.48580866 1.56914222
v 0.11156699 1.46197369 1.66368806
v 0.11156699 1.44739015 1.69301249
v 0.11156699 1.43263012 1.71576411
v 0.11156699 1.35551072 1.76480672
v 0.11156699 1.29046780 1.80222055
v 0.11156699 1.25840522 1.81587158
v 0.11156699 1.23570024 1.81890515
v 0.11156699 1.18926620 1.82345545
v 0.11167760 1.36568034 0.14336943
v 0.11156699 1.17390587 1.82345545
v 0.11167760 1.47878163 0.26926210
v 0.11156699 1.48630298 1.37903920
v 0.11156699 1.48626768 1.41038587
v -0.08375218 1.52609857 4.42372093
v -0.03619428 1.50236950 4.42372093
v 0.01844200 1.45480547 4.42372093
v 0.03779694 1.37938099 4.42372093
v 0.03846054 1.28435896 4.42372093
v 0.11167760 1.37193037 -0.23734213
v 0.11156699 1.17390587 1.70211308
v 0.03823935 1.17390587 4.42372093
v 0.11167760 1.47864043 0.23842094
v -0.14281245 1.53022995 4.42372093
v -0.08651716 1.52514507 4.48692010
v -0.37462952 1.52493328 1.59947770
v -0.05189945 1.49301204 4.51826692
v 0.00948342 1.44216408 4.51877244
v 0.02231300 1.37938099 4.51877244
v 0.02651576 1.28435896 4.51877244
v 0.02839596 1.17390587 4.51877244
v 0.03702274 1.17390587 4.43888896
v 0.11167760 1.37796861 -0.33391036
v 0.09774202 1.17390587 1.69806845
v -0.14270184 1.18866591 0.71418416
v -0.05543862 1.21130036 0.23842094
v 0.11167760 1.47101332 -0.14229062
v -0.90362812 1.53453783 4.51877244
v -0.14281245 1.52705192 4.50107679
v -0.42827038 1.52652230 1.58178191
v -0.14281245 1.51688230 4.54860240
v -0.04769665 1.44834351 4.58348846
v 0.00107782 1.42909896 4.56781491
v 0.00428523 1.37938099 4.57236549
v 0.00782441 1.28435896 4.57691579
v 0.00926223 1.17390587 4.57792684
v 0.11167760 1.39763688 -0.42744529
v -0.06395483 1.21571413 0.14336943
v -0.07855400 1.22542473 0.04781240
v -0.05057223 1.17390587 1.67278879
v -0.14270184 1.19283266 0.61913265
v -0.13772484 1.17390587 1.66924954
v -0.18738414 1.17390587 1.69655159
v -0.24721860 1.17390587 1.74963884
v -0.29986409 1.17390587 1.80727651
v -0.32530200 1.17390587 1.85682465
v -1.01809883 1.21179468 1.75975076
v 0.11167760 1.46765866 -0.30155249
v -0.99885442 1.53460857 4.51877244
v -1.01820941 1.52765229 4.57792684
v -0.99885442 1.52768758 4.57742131
v -0.90362812 1.52758155 4.57691579
v -0.80851232 1.52684013 4.57590445
v -0.33315458 1.52313233 4.56781491
v -0.24257340 1.52645170 4.52332274
v -0.27752292 1.52249681 4.56680386
v -0.21403867 1.52048406 4.55871432
v -0.99874385 1.48775066 0.42902963
v -0.52316496 1.52567484 1.57773728
v -0.14281245 1.46931827 4.60270098
v -0.14281245 1.37938099 4.64062048
v -0.04769665 1.37938099 4.60725127
v -0.04769665 1.28435896 4.61432948
v -0.04769665 1.17390587 4.61432948
v 0.11167760 1.42217811 -0.48053253
v -0.08961396 1.23315787 -0.00527484
v -0.10100571 1.23315787 -0.00527484
v -0.12909806 1.21571413 0.14336943
v -0.11527309 1.22542473 0.04781240
v -1.01820941 1.17390587 4.59764516
v -1.01820941 1.40487556 2.53078028
v -1.01809883 1.41257341 0.26926210
v 0.11167760 1.45717135 -0.40014324
v -1.01809883 1.48722104 0.42902963
v -1.01820941 1.53436134 4.51877244
v -1.01820941 1.53319605 4.53040122
v -1.01820941 1.52048406 4.58753323
v -1.01820941 1.48972811 4.62545273
v -0.80851232 1.48429024 4.62343035
v -0.71339652 1.43545502 4.66539462
v -0.24257340 1.48308965 4.59966754
v -0.69370975 1.52313233 1.60352247
v -0.61828072 1.52426232 1.58936578
v -0.61828072 1.43111170 4.66337223
v -0.56419746 1.42768658 4.66134985
v -0.23792821 1.37938099 4.64668763
v -0.44795713 1.34615326 4.66236090
v -0.43523815 1.28435896 4.66286642
v -0.14281245 1.28435896 4.63960914
v -0.14281245 1.17390587 4.63404780
v 0.11167760 1.43111170 -0.48053253
v 0.09497701 1.42683912 -0.47547643
v -1.01820941 1.17390587 4.68207922
v -1.01820941 1.49142302 2.53078028
v -1.01809883 1.45402861 0.26926210
v 0.11167760 1.45032095 -0.42744529
v -1.01820941 1.49403613 2.61622568
v -1.01820941 1.44216408 4.66893358
v -1.01820941 1.42892246 4.67146177
v -1.01820941 1.37938099 4.68056236
v -0.71339652 1.37938099 4.67247282
v -0.61828072 1.37938099 4.66893358
v -0.61828072 1.28435896 4.67247282
v -0.44961614 1.22616629 4.66236090
v -0.61164475 1.17390587 4.66640567
v 0.09497701 1.42705091 -0.47547643
v -0.71339652 1.17390587 4.67095596
v -1.01820941 1.18923090 4.68258474
v -1.01820941 1.28435896 4.68460713
v -0.71339652 1.28435896 4.67550626
v -1.01820941 1.26507911 4.68460713
vn 0.99999401 0.00346146 0.00004440
vn 0.99999997 -0.00024117 0.00002465
vn 0.99997297 0.00735248 0.00000011
vn 0.78771846 0.61602555 0.00348595
vn 0.99808956 0.05966906 0.01602612
vn 0.99948708 0.02843818 0.01472601
vn 0.99966165 0.02057958 0.01590811
vn 0.99986432 0.00863642 0.01402711
vn 0.99986854 0.00747833 0.01438682
vn 0.99987493 0.00453165 0.01515246
vn 0.99989789 0.00165875 0.01419354
vn 0.99989459 0.00071437 0.01450164
vn 0.99999994 -0.00033281 -0.00000511
vn 0.71016333 -0.70396584 0.01000692
vn 0.99974361 0.02264280 -0.00010359
vn 0.73689439 0.67599381 -0.00436095
vn 0.77648942 0.63012985 0.00074453
vn 0.26150530 0.96507837 0.01545055
vn 0.56637012 0.82040429 0.07849644
vn 0.84420890 0.52833109 0.09043003
vn 0.98821275 0.12711611 0.08530565
vn 0.99757689 0.00408898 0.06945231
vn 0.99999974 -0.00072058 -0.00004464
vn 0.70574371 -0.70842877 -0.00738174
vn 0.71110347 -0.70203138 0.03852019
vn 0.72074170 0.69308264 -0.01295572
vn 0.03678828 0.99922284 0.01415409
vn 0.31616039 0.92898059 0.19245176
vn 0.05050180 0.99867318 -0.01007225
vn 0.50527843 0.79031666 0.34654478
vn 0.83235080 0.50929554 0.21865542
vn 0.96820238 0.10856229 0.22538498
vn 0.97419695 0.02643568 0.22414605
vn 0.71592631 -0.68061709 0.15559529
vn 0.70700075 -0.70399629 0.06737338
vn 0.82074386 -0.56060519 -0.11000613
vn 0.00206948 -0.99996356 -0.00828230
vn -0.00287408 -0.99935546 -0.03578267
vn 0.28775420 -0.95533118 -0.06737848
vn 0.71955115 0.69428679 -0.01456036
vn 0.00423094 0.99826075 0.05880111
vn 0.05099532 0.99121743 0.12201424
vn 0.01162569 0.99980313 -0.01607938
vn 0.19148070 0.87077824 0.45285804
vn 0.38293978 0.56564441 0.73034480
vn 0.71961456 0.40807667 0.56180808
vn 0.79124906 0.08230612 0.60592956
vn 0.79716727 0.03588702 0.60269102
vn 0.61405828 -0.63417137 0.46985008
vn 0.65866654 -0.69229540 -0.29476340
vn 0.27252836 -0.95802466 -0.08897776
vn 0.20405398 -0.96806895 -0.14561760
vn 0.00092262 -0.99996676 -0.00810087
vn -0.03359101 -0.99834954 -0.04658164
vn -0.00262702 -0.99995561 -0.00904880
vn -0.00655563 -0.99994371 -0.00834277
vn -0.00863080 -0.99992884 -0.00823501
vn -0.01799512 -0.99978900 -0.00990597
vn -0.02718665 -0.99958618 -0.00940013
vn -0.72322340 -0.69012967 -0.02586412
vn 0.68589622 0.72527662 -0.05933134
vn -0.00461191 0.99847751 0.05496712
vn -0.65192154 0.70401106 0.28172101
vn 0.00159722 0.99165543 0.12890678
vn 0.00915043 0.92044860 0.39075650
vn 0.01366265 0.91741747 0.39769149
vn 0.01699151 0.91349209 0.40650152
vn 0.01395752 0.99566753 0.09193131
vn 0.03885688 0.88777281 0.45863884
vn 0.08996477 0.89172078 0.44355428
vn -0.02037723 0.99881118 -0.04428319
vn -0.01169324 0.99978455 -0.01714982
vn 0.18870773 0.57231179 0.79802795
vn 0.18663694 0.18843138 0.96418892
vn 0.42211779 0.16561874 0.89128391
vn 0.42243041 0.02686696 0.90599708
vn 0.28767347 -0.67355100 0.68086197
vn 0.47426567 -0.45681022 -0.75259318
vn 0.13285069 -0.96129309 -0.24138413
vn -0.15061970 -0.93734903 -0.31415046
vn -0.10981462 -0.98915024 -0.09758353
vn -0.12581219 -0.98055414 -0.15061498
vn -0.70707743 -0.70713574 -0.00074508
vn -0.99999998 -0.00019026 -0.00003380
vn -0.75799066 -0.50227125 -0.41614151
vn 0.64843303 0.74575062 -0.15293989
vn -0.70726796 0.70431115 -0.06097411
vn -0.70005479 0.71329486 0.03367099
vn -0.70743724 0.70244114 0.07816011
vn -0.69967317 0.56324185 0.43956350
vn -0.68423057 0.52863825 0.50236453
vn 0.02534086 0.69124960 0.72217161
vn 0.02889692 0.42480482 0.90482365
vn 0.05827001 0.63285171 0.77207727
vn -0.04020698 0.99910266 -0.01331442
vn -0.01726401 0.99972843 -0.01565339
vn 0.04426007 0.38116540 0.92344679
vn 0.06201491 0.32000186 0.94538509
vn 0.06314056 0.09715876 0.99326404
vn 0.05850146 0.05585402 0.99672359
vn 0.06527524 -0.00394205 0.99785951
vn 0.15882460 -0.02424367 0.98700911
vn 0.10046674 -0.71147005 0.69549752
vn 0.47502393 0.48863406 -0.73183948
vn -0.43511462 -0.35369352 -0.82799527
vn -0.57023181 -0.58440442 0.57732760
vn -0.99999958 0.00091254 -0.00004011
vn -0.73101070 0.52541628 -0.43538614
vn 0.62686025 0.74118998 -0.24017419
vn -0.99999902 0.00139814 -0.00002971
vn -0.64303081 0.34486793 0.68379638
vn -0.70077186 0.13130134 0.70119809
vn -0.68389288 0.07915639 0.72527567
vn 0.03004484 0.07832178 0.99647529
vn 0.04276047 0.07211642 0.99647918
vn 0.04121346 -0.00528139 0.99913641
vn 0.06484317 -0.07566062 0.99502303
vn 0.03226331 -0.72830009 0.68449840
vn -0.42749689 0.37550006 -0.82234185
vn 0.02644605 -0.72269448 0.69066149
vn -0.69482512 -0.02179374 0.71884844
vn -0.69213659 0.01460774 0.72161871
vn 0.03133381 0.00239091 0.99950612
vn -0.69313115 -0.00999066 0.72074226
f 1//1 2//2 13//13
f 1//1 13//13 23//23
f 1//1 23//23 36//36
f 1//1 36//36 50//50
f 1//1 50//50 78//78
f 1//1 78//78 104//104
f 1//1 104//104 109//109
f 1//1 109//109 86//86
f 1//1 86//86 61//61
f 1//1 61//61 40//40
f 1//1 40//40 26//26
f 1//1 26//26 15//15
f 1//1 15//15 3//3
f 1//1 3//3 4//4
f 1//1 4//4 5//5
f 1//1 5//5 6//6
f 1//1 6//6 7//7
f 1//1 7//7 8//8
f 1//1 8//8 9//9
f 1//1 9//9 10//10
f 1//1 10//10 11//11
f 1//1 11//11 12//12
f 1//1 12//12 14//14
f 1//1 14//14 2//2
f 2//2 14//14 13//13
f 3//3 15//15 16//16
f 3//3 16//16 17//17
f 3//3 17//17 4//4
f 4//4 17//17 18//18
f 4//4 18//18 19//19
f 4//4 19//19 20//20
f 4//4 20//20 21//21
f 4//4 21//21 5//5
f 5//5 21//21 6//6
f 6//6 21//21 7//7
f 7//7 21//21 8//8
f 8//8 21//21 9//9
f 9//9 21//21 10//10
f 10//10 21//21 22//22
f 10//10 22//22 11//11
f 11//11 22//22 12//12
f 12//12 22//22 14//14
f 13//13 14//14 24//24
f 13//13 24//24 23//23
f 14//14 22//22 25//25
f 14//14 25//25 35//35
f 14//14 35//35 34//34
f 14//14 34//34 49//49
f 14//14 49//49 77//77
f 14//14 77//77 103//103
f 14//14 103//103 118//118
f 14//14 118//118 120//120
f 14//14 120//120 106//106
f 14//14 106//106 83//83
f 14//14 83//83 59//59
f 14//14 59//59 58//58
f 14//14 58//58 57//57
f 14//14 57//57 56//56
f 14//14 56//56 55//55
f 14//14 55//55 53//53
f 14//14 53//53 37//37
f 14//14 37//37 24//24
f 15//15 26//26 16//16
f 16//16 26//26 18//18
f 16//16 18//18 17//17
f 18//18 27//27 28//28
f 18//18 28//28 19//19
f 18//18 26//26 29//29
f 18//18 29//29 27//27
f 19//19 28//28 30//30
f 19//19 30//30 31//31
f 19//19 31//31 20//20
f 20//20 31//31 21//21
f 21//21 31//31 32//32
f 21//21 32//32 33//33
f 21//21 33//33 34//34
f 21//21 34//34 22//22
f 22//22 34//34 35//35
f 22//22 35//35 25//25
f 23//23 24//24 36//36
f 24//24 37//37 38//38
f 24//24 38//38 39//39
f 24//24 39//39 36//36
f 26//26 40//40 29//29
f 27//27 41//41 42//42
f 27//27 42//42 28//28
f 27//27 29//29 43//43
f 27//27 43//43 41//41
f 28//28 42//42 44//44
f 28//28 44//44 30//30
f 29//29 40//40 43//43
f 30//30 44//44 45//45
f 30//30 45//45 46//46
f 30//30 46//46 31//31
f 31//31 46//46 32//32
f 32//32 46//46 47//47
f 32//32 47//47 48//48
f 32//32 48//48 33//33
f 33//33 48//48 34//34
f 34//34 48//48 49//49
f 36//36 39//39 51//51
f 36//36 51//51 52//52
f 36//36 52//52 50//50
f 37//37 53//53 38//38
f 38//38 54//54 39//39
f 38//38 53//53 55//55
f 38//38 55//55 56//56
f 38//38 56//56 57//57
f 38//38 57//57 58//58
f 38//38 58//58 59//59
f 38//38 59//59 60//60
f 38//38 60//60 54//54
f 39//39 54//54 51//51
f 40//40 61//61 43//43
f 41//41 62//62 63//63
f 41//41 63//63 64//64
f 41//41 64//64 65//65
f 41//41 65//65 66//66
f 41//41 66//66 67//67
f 41//41 67//67 68//68
f 41//41 68//68 42//42
f 41//41 43//43 62//62
f 42//42 68//68 69//69
f 42//42 69//69 70//70
f 42//42 70//70 44//44
f 43//43 61//61 71//71
f 43//43 71//71 72//72
f 43//43 72//72 62//62
f 44//44 70//70 73//73
f 44//44 73//73 45//45
f 45//45 73//73 74//74
f 45//45 74//74 75//75
f 45//45 75//75 46//46
f 46//46 75//75 47//47
f 47//47 75//75 76//76
f 47//47 76//76 48//48
f 48//48 76//76 49//49
f 49//49 76//76 77//77
f 50//50 52//52 79//79
f 50//50 79//79 80//80
f 50//50 80//80 78//78
f 51//51 54//54 81//81
f 51//51 81//81 82//82
f 51//51 82//82 52//52
f 52//52 82//82 80//80
f 52//52 80//80 79//79
f 54//54 60//60 81//81
f 59//59 83//83 60//60
f 60//60 84//84 85//85
f 60//60 85//85 81//81
f 60//60 83//83 84//84
f 61//61 86//86 87//87
f 61//61 87//87 71//71
f 62//62 88//88 89//89
f 62//62 89//89 63//63
f 62//62 72//72 88//88
f 63//63 90//90 65//65
f 63//63 65//65 64//64
f 63//63 89//89 88//88
f 63//63 88//88 110//110
f 63//63 110//110 107//107
f 63//63 107//107 84//84
f 63//63 84//84 83//83
f 63//63 83//83 106//106
f 63//63 106//106 121//121
f 63//63 121//121 124//124
f 63//63 124//124 122//122
f 63//63 122//122 113//113
f 63//63 113//113 112//112
f 63//63 112//112 111//111
f 63//63 111//111 91//91
f 63//63 91//91 90//90
f 65//65 90//90 91//91
f 65//65 91//91 66//66
f 66//66 91//91 67//67
f 67//67 91//91 69//69
f 67//67 69//69 68//68
f 69//69 91//91 92//92
f 69//69 92//92 93//93
f 69//69 93//93 94//94
f 69//69 94//94 73//73
f 69//69 73//73 70//70
f 71//71 87//87 95//95
f 71//71 95//95 96//96
f 71//71 96//96 72//72
f 72//72 96//96 88//88
f 73//73 94//94 97//97
f 73//73 97//97 98//98
f 73//73 98//98 74//74
f 74//74 98//98 99//99
f 74//74 99//99 100//100
f 74//74 100//100 101//101
f 74//74 101//101 102//102
f 74//74 102//102 77//77
f 74//74 77//77 76//76
f 74//74 76//76 75//75
f 77//77 102//102 103//103
f 78//78 80//80 85//85
f 78//78 85//85 105//105
f 78//78 105//105 119//119
f 78//78 119//119 104//104
f 80//80 82//82 85//85
f 81//81 85//85 82//82
f 84//84 107//107 108//108
f 84//84 108//108 85//85
f 85//85 108//108 119//119
f 85//85 119//119 105//105
f 86//86 109//109 108//108
f 86//86 108//108 87//87
f 87//87 108//108 107//107
f 87//87 107//107 110//110
f 87//87 110//110 88//88
f 87//87 88//88 95//95
f 88//88 96//96 95//95
f 91//91 111//111 93//93
f 91//91 93//93 92//92
f 93//93 97//97 94//94
f 93//93 111//111 112//112
f 93//93 112//112 113//113
f 93//93 113//113 114//114
f 93//93 114//114 97//97
f 97//97 114//114 115//115
f 97//97 115//115 98//98
f 98//98 115//115 100//100
f 98//98 100//100 99//99
f 100//100 115//115 116//116
f 100//100 116//116 101//101
f 101//101 117//117 102//102
f 101//101 116//116 117//117
f 102//102 117//117 103//103
f 103//103 117//117 118//118
f 104//104 119//119 108//108
f 104//104 108//108 109//109
f 106//106 120//120 116//116
f 106//106 116//116 121//121
f 113//113 122//122 114//114
f 114//114 122//122 123//123
f 114//114 123//123 116//116
f 114//114 116//116 115//115
f 116//116 120//120 117//117
f 116//116 123//123 121//121
f 117//117 120//120 118//118
f 121//121 123//123 124//124
f 122//122 124//124 123//123

