# https://github.com/mikedh/trimesh
v 0.11167771 -0.86410210 1.36045313
v 0.24441438 -0.86410210 1.28573477
v 1.46141288 -1.31084148 1.55545291
v 1.46141288 -1.31112444 1.55676776
v 1.46141288 -1.31169036 1.56963059
v 0.11167771 -0.86410210 1.64955121
v 0.11167771 0.26873201 1.39006620
v 0.33216802 -0.86410210 1.24834688
v 0.11167771 0.33748291 1.39275302
v 1.47444086 -1.31253923 1.55545291
v 0.33315129 -0.86410210 1.24800396
v 1.47444086 -1.31451966 1.56963059
v 1.46141288 -1.27745640 1.66052746
v 0.11167771 -0.69010281 1.74530742
v 0.61853512 0.23789313 1.35284984
v 0.11167771 1.15485497 1.71758108
v 2.01448248 1.55943857 1.54664903
v 1.55531186 -1.32074388 1.55545291
v 1.56956878 -1.32442205 1.56963059
v 2.62138385 0.12104484 1.54664903
v 2.59311611 -0.14858325 1.55545291
v 2.58451254 -0.16951973 1.55545291
v 2.48840150 -0.40321630 1.55545291
v 2.00612486 -1.05677442 1.55545291
v 1.99973378 -1.06413048 1.55545291
v 1.77285245 -1.25765161 1.55545291
v 1.76326590 -1.26331020 1.55545291
v 1.66469670 -1.31055853 1.55545291
v 1.56956878 -1.32215867 1.55545291
v 0.90391895 0.33295612 1.36028174
v 2.40580979 1.54246307 1.54664903
v 2.58623326 1.26576184 1.54664903
v 2.60393146 1.20945971 1.54664903
v 2.60933942 1.18880604 1.54664903
v 2.61523873 1.11694292 1.54664903
v 2.61745107 1.02187992 1.54664903
v 2.61941760 0.92681693 1.54664903
v 2.62089222 0.83175394 1.54664903
v 2.62113803 0.80883696 1.54664903
v 2.62162967 0.71349108 1.54664903
v 2.62212130 0.52336506 1.54664903
v 2.62212130 0.33295612 1.54664903
v 2.62187548 0.23789313 1.54664903
v 1.47444086 -1.27915387 1.66109919
v 1.46141288 -1.18890067 1.69597164
v 0.11167771 -0.62191779 1.76863204
v 0.11167771 1.15485497 1.82282716
v 2.01448248 1.55830674 1.56974485
v 2.04520838 1.56085308 1.54664903
v 1.66469670 -1.31253923 1.56963059
v 1.66469670 -1.27377823 1.65155219
v 1.56956878 -1.28085162 1.65824083
v 2.62236712 -0.04757881 1.55545291
v 2.59311611 -0.14830032 1.56928752
v 2.48987612 -0.40519676 1.56963059
v 2.00489593 -1.05507689 1.56963059
v 2.48520589 -0.39755777 1.63080014
v 1.99948797 -1.04800371 1.61965250
v 1.76351172 -1.26302724 1.56277041
v 2.16319650 1.56396533 1.54664903
v 2.23546436 1.56566280 1.54664903
v 2.25857038 1.56594575 1.54664903
v 2.33059228 1.56509716 1.54664903
v 2.40507234 1.54133124 1.56974485
v 2.45325091 1.46777065 1.56740095
v 2.58500418 1.26349846 1.56974485
v 2.60786452 1.18880604 1.56974485
v 2.61597618 1.09374305 1.56974485
v 2.62089222 0.90361706 1.56974485
v 2.62212130 0.80883696 1.56974485
v 2.62285875 0.52336506 1.56974485
v 1.47444086 -1.18890067 1.69557145
v 1.71533329 -0.76140009 1.80773483
v 1.71164619 -0.76140009 1.80773483
v 1.70255127 -0.71301979 1.81162225
v 0.11167771 0.40425336 1.83197396
v 2.01448248 1.18880604 1.73839012
v 2.01448248 1.28415199 1.73398825
v 2.01448248 1.33055187 1.72541303
v 2.01448248 1.35488342 1.72049657
v 2.01448248 1.38685400 1.70677636
v 2.01448248 1.45192698 1.67836388
v 2.04520838 1.47427783 1.66738764
v 2.01448248 1.47427783 1.66733050
v 2.01448248 1.51728264 1.64389163
v 2.04520838 1.53765335 1.63274384
v 2.01448248 1.53680448 1.63217226
v 2.01448248 1.55179955 1.58958211
v 1.72664041 -0.64143962 1.81276556
v 0.96365046 0.58447698 1.81076472
v 2.04520838 1.55972153 1.56974485
v 1.73450625 -1.25736865 1.63846070
v 1.66469670 -1.18890067 1.68379481
v 2.62212130 -0.04757881 1.56963059
v 2.58574163 -0.12029068 1.63514488
v 2.49552989 -0.33305074 1.64131906
v 2.42572005 -0.33305074 1.67876408
v 2.42522870 -0.42867958 1.65155219
v 2.01694036 -0.99877468 1.63611680
v 2.23546436 1.56424829 1.56974485
v 2.33059228 1.56311674 1.56974485
v 2.39204436 1.53142884 1.62479763
v 2.57566344 1.24652296 1.62765599
v 2.58500418 1.18880604 1.64280544
v 2.59213285 1.09374305 1.65349590
v 2.59385328 0.99868006 1.65469634
v 2.59557399 0.90361706 1.65543960
v 2.59631144 0.80883696 1.65532520
v 1.72516552 -0.71301979 1.81162225
v 1.95008046 -0.99877468 1.66395755
v 2.14033644 1.18880604 1.73255900
v 2.14033644 1.28415199 1.72827153
v 2.37852503 1.33168342 1.71249308
v 2.14033644 1.34752737 1.71769534
v 2.14033644 1.47427783 1.66664452
v 2.23546436 1.53963377 1.63240092
v 2.14033644 1.53878490 1.63308691
v 2.47684842 1.09374305 1.71295040
v 2.47734005 1.18880604 1.71323634
v 2.47488189 1.23803507 1.71283614
v 2.33059228 1.18880604 1.72284047
v 2.23546436 1.18880604 1.72792847
v 2.59459073 -0.04757881 1.64509221
v 2.59631144 0.52336506 1.65212378
v 2.59581981 0.33295612 1.64989428
v 2.59557399 0.23789313 1.64869369
v 2.52084811 -0.04757881 1.67573419
v 2.33059228 1.53821927 1.63040008
v 2.52502699 1.18880604 1.69036919
v 2.52428954 1.09374305 1.70105950
v 2.59606562 0.71349108 1.65452481
v 2.59606562 0.61814513 1.65349590
v 2.47365281 1.04168472 1.71243595
v 2.23546436 1.28415199 1.72375526
v 2.33059228 1.28415199 1.71912459
v 2.41637960 1.27538128 1.71443678
v 2.52084811 0.90361706 1.69980179
v 2.51175320 1.00547027 1.70346053
vn -0.75183632 -0.50090524 -0.42876111
vn -0.39039725 -0.48641029 -0.78166170
vn -0.16393035 -0.87917044 -0.44742170
vn -0.22195079 -0.96621401 -0.13102799
vn -0.25372386 -0.95558449 0.14994162
vn -0.70560296 -0.58672964 0.39733209
vn -0.84022579 0.02089039 -0.54183412
vn -0.32326244 -0.45864027 -0.82773819
vn -0.70913382 0.14728215 -0.68951953
vn -0.09713034 -0.88290987 -0.45938640
vn -0.14352596 -0.38940707 -0.90981451
vn -0.14276706 -0.98223304 0.12180237
vn -0.17124889 -0.71362493 0.67927409
vn -0.72740725 -0.26418327 0.63331342
vn -0.03232803 0.13681154 -0.99006944
vn -0.68197836 0.59777355 -0.42139328
vn -0.10070109 0.78347309 -0.61321221
vn -0.08804026 -0.87755741 -0.47131933
vn 0.01934275 -0.99075792 0.13425570
vn 0.68285731 -0.01391445 -0.73041925
vn 0.73000212 -0.25222397 -0.63520074
vn 0.66189036 -0.27200717 -0.69850788
vn 0.64430287 -0.35292167 -0.67846894
vn 0.64347878 -0.51644261 -0.56499742
vn 0.58939705 -0.60236254 -0.53830334
vn 0.52710237 -0.67697450 -0.51368143
vn 0.38862899 -0.71047821 -0.58667557
vn 0.24015349 -0.75572051 -0.60927237
vn 0.02850258 -0.82626118 -0.56256561
vn 0.01862613 0.11575373 -0.99310329
vn 0.48815976 0.64927238 -0.58321988
vn 0.71552585 0.34264069 -0.60878577
vn 0.74481820 0.21987407 -0.63000099
vn 0.76940931 0.13405598 -0.62453047
vn 0.76451795 0.05166831 -0.64252836
vn 0.74062200 0.01706931 -0.67170506
vn 0.73641426 0.01426382 -0.67638050
vn 0.73751738 0.00945216 -0.67526200
vn 0.73748466 0.00594896 -0.67533769
vn 0.74066817 0.00219283 -0.67186744
vn 0.74102600 0.00099494 -0.67147560
vn 0.74103174 -0.00013755 -0.67146998
vn 0.70394736 -0.00187745 -0.71024967
vn -0.06530208 -0.70073507 0.71042664
vn -0.03503392 -0.31181795 0.94949576
vn -0.69718850 -0.12757156 0.70544574
vn -0.61589968 0.51476968 0.59638894
vn -0.11394259 0.97803708 0.17452954
vn -0.02760851 0.77662025 -0.62936377
vn 0.26286795 -0.95584363 0.13139023
vn 0.19216953 -0.66701892 0.71983097
vn 0.05577550 -0.66968610 0.74054684
vn 0.78933758 -0.12618277 -0.60085280
vn 0.93996434 -0.32072805 0.11662143
vn 0.86888173 -0.49484581 -0.01312104
vn 0.75687101 -0.63353705 0.16055242
vn 0.74375371 -0.41068356 0.52741771
vn 0.61741698 -0.59234404 0.51761454
vn 0.52778792 -0.83386369 0.16158977
vn -0.01866228 0.77898949 -0.62675920
vn -0.01361522 0.77929347 -0.62651122
vn 0.00454996 0.78498749 -0.61949491
vn 0.12247787 0.78895368 -0.60212230
vn 0.59602321 0.78563874 0.16591594
vn 0.83240360 0.54092016 0.12045592
vn 0.88966174 0.42095545 0.17691379
vn 0.96864819 0.17754797 0.17377402
vn 0.98872594 0.04696669 0.14217996
vn 0.99259904 0.01704562 0.12023557
vn 0.99215662 0.00728475 0.12478852
vn 0.99075240 0.00017761 0.13568214
vn 0.03804777 -0.30912040 0.95026151
vn 0.14132172 -0.19576129 0.97041521
vn -0.01454513 -0.16619327 0.98598592
vn -0.01188296 -0.05527396 0.99840051
vn -0.69736491 -0.00765867 0.71667533
vn 0.04518747 0.04287583 0.99805799
vn 0.03937023 0.11395220 0.99270584
vn 0.03327084 0.18991136 0.98123734
vn 0.02581271 0.29995335 0.95360458
vn 0.01258708 0.39675251 0.91783931
vn 0.00578408 0.42020157 0.90741236
vn 0.00250350 0.45221563 0.89190513
vn -0.00437999 0.46256701 0.88657351
vn -0.00965233 0.48625467 0.87376383
vn -0.01954604 0.76702950 0.64131404
vn -0.06887177 0.80290113 0.59212030
vn -0.09558623 0.94208726 0.32145740
vn 0.08738701 -0.00807715 0.99614169
vn 0.03745191 0.02992015 0.99885041
vn -0.03270175 0.98123360 0.19002950
vn 0.41564794 -0.66259441 0.62306134
vn 0.16307900 -0.31617265 0.93458017
vn 0.97819345 -0.12552315 0.16547358
vn 0.77471373 -0.24207859 0.58413748
vn 0.51492820 -0.20488416 0.83238899
vn 0.34134236 -0.15796958 0.92656948
vn 0.40862988 -0.29816099 0.86262486
vn 0.45892229 -0.37911134 0.80353278
vn -0.00585271 0.97631132 0.21629135
vn 0.12900814 0.96820701 0.21431771
vn 0.43652981 0.67690229 0.59265927
vn 0.78925074 0.36597452 0.49309829
vn 0.80703789 0.19475243 0.55745972
vn 0.81208495 0.06385364 0.58003513
vn 0.81083348 0.02026764 0.58492588
vn 0.80228912 0.01049154 0.59684344
vn 0.78844799 -0.00166248 0.61509918
vn 0.12328110 -0.07329215 0.98966157
vn 0.32417911 -0.31425241 0.89227424
vn 0.04767117 0.03991535 0.99806524
vn 0.04596052 0.07410359 0.99619089
vn 0.16373393 0.26397854 0.95052961
vn 0.03916339 0.28442369 0.95789843
vn 0.02528848 0.41442228 0.90973330
vn 0.01376124 0.73489456 0.67804175
vn -0.00564221 0.74849378 0.66311781
vn 0.19251351 -0.00672999 0.98127125
vn 0.19779297 0.01483863 0.98013150
vn 0.35576444 0.19934444 0.91306816
vn 0.05590270 0.03409196 0.99785401
vn 0.05072305 0.03731846 0.99801528
vn 0.72540978 -0.08661138 0.68284633
vn 0.77249918 -0.00809336 0.63496418
vn 0.76427376 -0.00994783 0.64481521
vn 0.76245526 -0.01039015 0.64695751
vn 0.29956292 -0.05577023 0.95244514
vn 0.08443185 0.71082666 0.69828126
vn 0.56000068 0.16499194 0.81189710
vn 0.42387393 0.02797825 0.90528896
vn 0.59831308 -0.00862028 0.80121604
vn 0.65263817 -0.00922293 0.75761359
vn 0.18861142 -0.02170390 0.98181193
vn 0.04782086 0.06858977 0.99649817
vn 0.05287871 0.06431451 0.99652771
vn 0.07140472 0.07221983 0.99482946
vn 0.33361692 -0.01943324 0.94250841
vn 0.24545506 -0.01247950 0.96932764
f 1//1 2//2 3//3
f 1//1 3//3 4//4
f 1//1 4//4 5//5
f 1//1 5//5 6//6
f 1//1 6//6 14//14
f 1//1 14//14 46//46
f 1//1 46//46 76//76
f 1//1 76//76 47//47
f 1//1 47//47 16//16
f 1//1 16//16 9//9
f 1//1 9//9 7//7
f 1//1 7//7 2//2
f 2//2 8//8 3//3
f 2//2 7//7 9//9
f 2//2 9//9 8//8
f 3//3 10//10 4//4
f 3//3 8//8 11//11
f 3//3 11//11 10//10
f 4//4 10//10 12//12
f 4//4 12//12 5//5
f 5//5 12//12 13//13
f 5//5 13//13 6//6
f 6//6 13//13 14//14
f 8//8 9//9 11//11
f 9//9 15//15 11//11
f 9//9 16//16 17//17
f 9//9 17//17 15//15
f 10//10 18//18 19//19
f 10//10 19//19 12//12
f 10//10 11//11 18//18
f 11//11 20//20 21//21
f 11//11 21//21 22//22
f 11//11 22//22 23//23
f 11//11 23//23 24//24
f 11//11 24//24 25//25
f 11//11 25//25 26//26
f 11//11 26//26 27//27
f 11//11 27//27 28//28
f 11//11 28//28 29//29
f 11//11 29//29 18//18
f 11//11 15//15 30//30
f 11//11 30//30 31//31
f 11//11 31//31 32//32
f 11//11 32//32 33//33
f 11//11 33//33 34//34
f 11//11 34//34 35//35
f 11//11 35//35 36//36
f 11//11 36//36 37//37
f 11//11 37//37 38//38
f 11//11 38//38 39//39
f 11//11 39//39 40//40
f 11//11 40//40 41//41
f 11//11 41//41 42//42
f 11//11 42//42 43//43
f 11//11 43//43 20//20
f 12//12 19//19 44//44
f 12//12 44//44 13//13
f 13//13 45//45 14//14
f 13//13 44//44 45//45
f 14//14 45//45 46//46
f 15//15 17//17 30//30
f 16//16 47//47 17//17
f 17//17 48//48 91//91
f 17//17 91//91 49//49
f 17//17 49//49 30//30
f 17//17 47//47 48//48
f 18//18 29//29 19//19
f 19//19 29//29 28//28
f 19//19 28//28 50//50
f 19//19 50//50 51//51
f 19//19 51//51 52//52
f 19//19 52//52 44//44
f 20//20 53//53 21//21
f 20//20 43//43 53//53
f 21//21 53//53 54//54
f 21//21 54//54 55//55
f 21//21 55//55 22//22
f 22//22 55//55 23//23
f 23//23 55//55 24//24
f 24//24 56//56 25//25
f 24//24 55//55 57//57
f 24//24 57//57 56//56
f 25//25 56//56 58//58
f 25//25 58//58 26//26
f 26//26 59//59 27//27
f 26//26 58//58 59//59
f 27//27 50//50 28//28
f 27//27 59//59 50//50
f 30//30 49//49 60//60
f 30//30 60//60 61//61
f 30//30 61//61 62//62
f 30//30 62//62 63//63
f 30//30 63//63 31//31
f 31//31 63//63 64//64
f 31//31 64//64 65//65
f 31//31 65//65 32//32
f 32//32 65//65 66//66
f 32//32 66//66 33//33
f 33//33 66//66 67//67
f 33//33 67//67 34//34
f 34//34 67//67 68//68
f 34//34 68//68 35//35
f 35//35 68//68 69//69
f 35//35 69//69 36//36
f 36//36 69//69 37//37
f 37//37 69//69 38//38
f 38//38 69//69 70//70
f 38//38 70//70 39//39
f 39//39 70//70 40//40
f 40//40 70//70 41//41
f 41//41 70//70 71//71
f 41//41 71//71 42//42
f 42//42 71//71 53//53
f 42//42 53//53 43//43
f 44//44 52//52 45//45
f 45//45 52//52 72//72
f 45//45 72//72 73//73
f 45//45 73//73 74//74
f 45//45 74//74 46//46
f 46//46 74//74 75//75
f 46//46 75//75 76//76
f 47//47 77//77 78//78
f 47//47 78//78 79//79
f 47//47 79//79 80//80
f 47//47 80//80 81//81
f 47//47 81//81 82//82
f 47//47 82//82 83//83
f 47//47 83//83 84//84
f 47//47 84//84 85//85
f 47//47 85//85 86//86
f 47//47 86//86 87//87
f 47//47 87//87 88//88
f 47//47 88//88 48//48
f 47//47 76//76 89//89
f 47//47 89//89 90//90
f 47//47 90//90 77//77
f 48//48 88//88 91//91
f 49//49 91//91 60//60
f 50//50 59//59 92//92
f 50//50 92//92 51//51
f 51//51 92//92 93//93
f 51//51 93//93 52//52
f 52//52 93//93 72//72
f 53//53 94//94 54//54
f 53//53 71//71 94//94
f 54//54 94//94 95//95
f 54//54 95//95 57//57
f 54//54 57//57 55//55
f 56//56 57//57 58//58
f 57//57 96//96 97//97
f 57//57 97//97 98//98
f 57//57 98//98 99//99
f 57//57 99//99 58//58
f 57//57 95//95 96//96
f 58//58 99//99 92//92
f 58//58 92//92 59//59
f 60//60 100//100 61//61
f 60//60 91//91 100//100
f 61//61 100//100 62//62
f 62//62 100//100 63//63
f 63//63 100//100 101//101
f 63//63 101//101 64//64
f 64//64 102//102 103//103
f 64//64 103//103 66//66
f 64//64 66//66 65//65
f 64//64 101//101 102//102
f 66//66 103//103 67//67
f 67//67 103//103 104//104
f 67//67 104//104 105//105
f 67//67 105//105 68//68
f 68//68 105//105 69//69
f 69//69 106//106 107//107
f 69//69 107//107 70//70
f 69//69 105//105 106//106
f 70//70 107//107 108//108
f 70//70 108//108 71//71
f 71//71 108//108 94//94
f 72//72 93//93 73//73
f 73//73 109//109 75//75
f 73//73 75//75 74//74
f 73//73 93//93 110//110
f 73//73 110//110 97//97
f 73//73 97//97 109//109
f 75//75 109//109 76//76
f 76//76 109//109 89//89
f 77//77 90//90 111//111
f 77//77 111//111 112//112
f 77//77 112//112 78//78
f 78//78 112//112 113//113
f 78//78 113//113 79//79
f 79//79 113//113 114//114
f 79//79 114//114 80//80
f 80//80 114//114 115//115
f 80//80 115//115 81//81
f 81//81 115//115 82//82
f 82//82 115//115 83//83
f 83//83 115//115 116//116
f 83//83 116//116 117//117
f 83//83 117//117 84//84
f 84//84 117//117 85//85
f 85//85 117//117 86//86
f 86//86 117//117 100//100
f 86//86 100//100 91//91
f 86//86 91//91 88//88
f 86//86 88//88 87//87
f 89//89 109//109 118//118
f 89//89 118//118 119//119
f 89//89 119//119 120//120
f 89//89 120//120 121//121
f 89//89 121//121 122//122
f 89//89 122//122 90//90
f 90//90 122//122 111//111
f 92//92 99//99 110//110
f 92//92 110//110 93//93
f 94//94 123//123 95//95
f 94//94 108//108 124//124
f 94//94 124//124 125//125
f 94//94 125//125 126//126
f 94//94 126//126 123//123
f 95//95 123//123 96//96
f 96//96 123//123 97//97
f 97//97 110//110 98//98
f 97//97 123//123 127//127
f 97//97 127//127 109//109
f 98//98 110//110 99//99
f 100//100 117//117 116//116
f 100//100 116//116 101//101
f 101//101 116//116 128//128
f 101//101 128//128 102//102
f 102//102 128//128 113//113
f 102//102 113//113 120//120
f 102//102 120//120 103//103
f 103//103 120//120 104//104
f 104//104 120//120 129//129
f 104//104 129//129 105//105
f 105//105 130//130 106//106
f 105//105 129//129 130//130
f 106//106 130//130 107//107
f 107//107 130//130 108//108
f 108//108 130//130 131//131
f 108//108 131//131 132//132
f 108//108 132//132 124//124
f 109//109 127//127 133//133
f 109//109 133//133 118//118
f 111//111 122//122 135//135
f 111//111 135//135 134//134
f 111//111 134//134 112//112
f 112//112 134//134 113//113
f 113//113 134//134 135//135
f 113//113 135//135 136//136
f 113//113 136//136 120//120
f 113//113 128//128 115//115
f 113//113 115//115 114//114
f 115//115 128//128 116//116
f 118//118 133//133 137//137
f 118//118 137//137 138//138
f 118//118 138//138 130//130
f 118//118 130//130 119//119
f 119//119 130//130 120//120
f 120//120 130//130 129//129
f 120//120 136//136 135//135
f 120//120 135//135 121//121
f 121//121 135//135 122//122
f 123//123 126//126 130//130
f 123//123 130//130 137//137
f 123//123 137//137 127//127
f 124//124 132//132 130//130
f 124//124 130//130 125//125
f 125//125 130//130 126//126
f 127//127 137//137 133//133
f 130//130 138//138 137//137
f 130//130 132//132 131//131

