# https://github.com/mikedh/trimesh
v -1.80931903 -0.85638858 2.28306624
v -1.80709081 -0.85638858 2.28306624
v -1.83054556 -0.85638858 2.28596060
v -2.28122885 -0.81423237 2.25380021
v -1.85523167 -0.61834487 2.25605140
v -1.78715431 -0.52326203 2.26634279
v -1.76979776 -0.85638858 2.32616135
v -1.85329675 -0.85638858 2.29271446
v -2.28122885 -0.37390622 2.25380021
v -2.26387230 -0.78966230 2.25380021
v -1.85523167 -0.52326203 2.25519388
v -1.90911902 -0.85638858 2.31779962
v -1.94260064 -0.85638858 2.34106229
v -2.16477588 -0.85638858 2.59234322
v -2.20201038 -0.85638858 2.63511667
v -2.21385492 -0.85638858 2.66674135
v -2.22927656 -0.85638858 2.70897865
v -2.28122885 -0.85638858 3.13317588
v -1.79331120 -0.46150024 2.27331085
v -1.70922588 -0.46646472 2.37140047
v -1.73420515 -0.53251785 2.33623825
v -1.70922588 -0.50710635 2.37140047
v -1.71256821 -0.57038270 2.37869004
v -1.72804826 -0.80859476 2.42607333
v -1.73596428 -0.85638858 2.42607333
v -2.19772986 -0.08041155 2.63822553
v -2.14249392 -0.04465031 2.61389085
v -2.12097408 -0.07233371 2.55010564
v -2.27161225 -0.37390622 2.25380021
v -2.28122885 -0.44004348 3.34886590
v -2.19925437 -0.07813966 2.71133701
v -2.22470274 -0.73025656 2.25380021
v -2.20429715 -0.69542089 2.25380021
v -2.16835269 -0.63307010 2.25380021
v -2.16090590 -0.61405351 2.25380021
v -2.15340028 -0.54513947 2.25380021
v -2.15240355 -0.52326203 2.25380021
v -2.17427510 -0.46015395 2.25380021
v -2.28122885 -0.85638858 3.14625461
v -1.73696115 -0.39847629 2.42607333
v -2.04533256 -0.07309100 2.55096330
v -1.99326303 -0.08857353 2.56361306
v -1.71356494 -0.38198406 2.48031735
v -1.70148578 -0.44601771 2.42607333
v -1.68248747 -0.52326203 2.52126858
v -1.69990258 -0.53251785 2.41663959
v -1.71403404 -0.74649638 2.52126858
v -1.71579317 -0.73841854 2.61635638
v -1.73332565 -0.80859476 2.61635638
v -1.73983425 -0.80859476 2.71144447
v -1.76147133 -0.85638858 2.71144447
v -2.10062719 0.00322772 2.65291213
v -2.08186335 0.00322772 2.65291213
v -2.28122885 -0.70417189 3.34886590
v -2.15539403 -0.46612818 3.34886590
v -2.04533256 -0.07426901 2.77415739
v -2.08186335 0.00322772 2.67424541
v -2.10062719 0.00322772 2.67424541
v -2.13563332 -0.03009336 2.70812099
v -2.19339065 -0.08722721 2.76493800
v -2.26809413 -0.85638858 3.18838474
v -2.04826435 -0.02681173 2.61925089
v -1.98446737 -0.07443732 2.61624921
v -1.70998813 -0.37819758 2.54367359
v -1.69562206 -0.41951233 2.51569391
v -1.68764749 -0.42809502 2.61635638
v -1.68225286 -0.52326203 2.61635638
v -1.69052073 -0.52326203 2.71144447
v -1.72071871 -0.70745348 2.70683463
v -1.76774546 -0.85638858 2.76751099
v -1.71532408 -0.64796361 2.73545763
v -1.76364087 -0.80859476 2.80642510
v -2.23484698 -0.71123996 3.34886590
v -2.24153165 -0.85638858 3.24359360
v -2.22370600 -0.85638858 3.28025679
v -2.18823063 -0.85638858 3.32967664
v -2.14044162 -0.85638858 3.34028983
v -2.09740209 -0.85638858 3.34254102
v -2.08831341 -0.85638858 3.34296971
v -2.12208819 -0.47874980 3.34886590
v -1.99414253 -0.08958327 2.76257964
v -2.04826435 -0.02773733 2.70812099
v -1.98511239 -0.07519462 2.71133701
v -1.70752543 -0.37558911 2.61635638
v -1.70752543 -0.37558911 2.71144447
v -1.69140023 -0.42809502 2.71144447
v -1.70371401 -0.42809502 2.77876694
v -1.70412441 -0.52326203 2.77898157
v -1.71051592 -0.58460308 2.76418751
v -1.77753785 -0.85638858 2.80642510
v -1.79020334 -0.85638858 2.84812654
v -2.15433861 -0.69129780 3.34886590
v -2.06597276 -0.85638858 3.34211205
v -2.08115964 -0.59461623 3.34886590
v -2.11329268 -0.63853944 3.34886590
v -2.10766357 -0.49372744 3.34886590
v -1.87264691 -0.36086388 2.96840696
v -1.70998813 -0.37819758 2.76386599
v -1.79594983 -0.37121361 2.88210957
v -1.73262194 -0.42809502 2.82615022
v -1.98030423 -0.85638858 3.26267569
v -1.72916237 -0.52326203 2.82636457
v -2.01677634 -0.85638858 3.31155967
v -2.08115964 -0.53756651 3.34886590
v -2.09511532 -0.51064042 3.34886590
v -1.78017648 -0.42809502 2.89154330
v -1.99918530 -0.85638858 3.29129840
vn -0.00217219 -0.88608612 -0.46351556
vn 0.33300968 -0.66363782 -0.66984282
vn -0.03094473 -0.97732510 -0.20947093
vn -0.59909880 -0.52076351 -0.60818253
vn 0.11692147 -0.04890214 -0.99193646
vn 0.51590610 0.03849102 -0.85577996
vn 0.60936659 -0.70358174 -0.36557501
vn -0.03890580 -0.99159765 -0.12337112
vn -0.64313287 0.32795783 -0.69197094
vn 0.00317094 -0.00222161 -0.99999250
vn 0.08804555 0.07908629 -0.99297197
vn -0.04388112 -0.99508136 -0.08881180
vn -0.05028298 -0.99677428 -0.06255128
vn -0.05084895 -0.99771462 -0.04449626
vn -0.09153037 -0.99492701 -0.04174245
vn -0.09510547 -0.99485618 -0.03487304
vn -0.18492889 -0.98240363 -0.02616146
vn -0.70708996 -0.70712238 -0.00131399
vn 0.44485913 0.40366180 -0.79947327
vn 0.85224172 0.29057815 -0.43502689
vn 0.81268698 -0.03737918 -0.58150036
vn 0.91680373 -0.02705027 -0.39842090
vn 0.93852135 -0.10048540 -0.33027316
vn 0.97154316 -0.14523418 -0.18711207
vn 0.67210585 -0.73245891 -0.10852502
vn -0.79605892 0.58385491 -0.15938518
vn -0.53913516 0.74607077 -0.39078343
vn -0.22095183 0.76748235 -0.60178994
vn 0.03325108 0.38680793 -0.92156063
vn -0.58383618 0.42345266 0.69269269
vn -0.81791857 0.57111698 0.06953143
vn 0.00301032 -0.00195000 -0.99999357
vn 0.00281010 -0.00164121 -0.99999470
vn 0.00286484 -0.00152093 -0.99999474
vn 0.00271347 -0.00081380 -0.99999599
vn 0.00239798 -0.00019251 -0.99999711
vn 0.00262786 0.00043767 -0.99999645
vn 0.00311526 0.00290767 -0.99999092
vn -0.70898273 -0.70384201 0.04415796
vn 0.59234819 0.65420609 -0.47025314
vn 0.18940010 0.74687124 -0.63742526
vn 0.49905724 0.73206489 -0.46370559
vn 0.79150419 0.55549559 -0.25484459
vn 0.95256639 0.23080269 -0.19836177
vn 0.99703697 -0.01820950 -0.07473745
vn 0.98085008 -0.04908336 -0.18847797
vn 0.98437562 -0.17607752 -0.00115557
vn 0.97916724 -0.19189960 0.06637810
vn 0.95991862 -0.27373072 0.06023071
vn 0.94780929 -0.28428810 0.14435315
vn 0.54277017 -0.83809283 0.05478087
vn -0.29010713 0.92106002 -0.25978125
vn 0.26438316 0.93260079 -0.24567726
vn -0.70366683 -0.12452809 0.69953252
vn 0.13353199 0.45814367 0.87879098
vn 0.25698111 0.78494093 0.56376275
vn 0.27470746 0.93245006 0.23467572
vn -0.27906704 0.93335322 0.22577279
vn -0.47938927 0.81918966 0.31482413
vn -0.63882130 0.70772035 0.30172712
vn -0.53324564 -0.82446974 0.18946961
vn 0.41666547 0.83376800 -0.36224412
vn 0.65410531 0.74315737 -0.14093745
vn 0.84653737 0.52875053 -0.06162275
vn 0.96480973 0.24795837 -0.08751481
vn 0.97843230 0.20644357 -0.00716115
vn 0.99791757 -0.05199689 0.03816861
vn 0.98740284 -0.07479477 0.13943229
vn 0.97462595 -0.17161608 0.14370869
vn 0.59200130 -0.79534536 0.13023140
vn 0.96498974 -0.17161810 0.19834824
vn 0.92875834 -0.20217193 0.31069995
vn -0.00161070 -0.02446673 0.99969935
vn -0.46304838 -0.85765381 0.22364290
vn -0.45573804 -0.84947384 0.26588913
vn -0.29744350 -0.76875628 0.56616353
vn -0.06479761 -0.73923315 0.67032501
vn -0.03240785 -0.74083197 0.67090813
vn 0.00956662 -0.71228473 0.70182543
vn 0.28227240 0.42268801 0.86119518
vn 0.52610031 0.72281702 0.44805582
vn 0.41366456 0.82767312 0.37926091
vn 0.65771424 0.73523960 0.16381305
vn 0.85042181 0.52556880 -0.02366802
vn 0.86300512 0.50366060 0.03934671
vn 0.98453922 0.14366601 0.10021282
vn 0.92490476 0.11771405 0.36151707
vn 0.94271027 -0.06885724 0.32642919
vn 0.95742949 -0.16330884 0.23803150
vn 0.58770403 -0.79231679 0.16382331
vn 0.60613777 -0.75419482 0.25256124
vn 0.01231485 -0.01671136 0.99978451
vn 0.22777411 -0.65673484 0.71890076
vn 0.20721280 -0.00262726 0.97829236
vn 0.01592757 -0.01182587 0.99980321
vn 0.36300187 0.31014099 0.87865933
vn 0.63041777 0.55023206 0.54755650
vn 0.84450515 0.45556088 0.28155878
vn 0.70748782 0.48249744 0.51638861
vn 0.82148817 0.18443879 0.53957346
vn 0.62591834 -0.67704816 0.38708142
vn 0.87294129 -0.01060630 0.48770996
vn 0.50076639 -0.65761081 0.56283305
vn 0.47616808 0.14403241 0.86747831
vn 0.40499516 0.25328024 0.87853744
vn 0.77609975 0.26944242 0.57014906
vn 0.59993456 -0.66001538 0.45217056
f 1//1 2//2 7//7
f 1//1 7//7 25//25
f 1//1 25//25 51//51
f 1//1 51//51 70//70
f 1//1 70//70 90//90
f 1//1 90//90 91//91
f 1//1 91//91 101//101
f 1//1 101//101 107//107
f 1//1 107//107 103//103
f 1//1 103//103 93//93
f 1//1 93//93 79//79
f 1//1 79//79 78//78
f 1//1 78//78 77//77
f 1//1 77//77 76//76
f 1//1 76//76 75//75
f 1//1 75//75 74//74
f 1//1 74//74 61//61
f 1//1 61//61 39//39
f 1//1 39//39 18//18
f 1//1 18//18 17//17
f 1//1 17//17 16//16
f 1//1 16//16 15//15
f 1//1 15//15 14//14
f 1//1 14//14 13//13
f 1//1 13//13 12//12
f 1//1 12//12 8//8
f 1//1 8//8 3//3
f 1//1 3//3 4//4
f 1//1 4//4 2//2
f 2//2 4//4 5//5
f 2//2 5//5 6//6
f 2//2 6//6 7//7
f 3//3 8//8 4//4
f 4//4 9//9 29//29
f 4//4 29//29 38//38
f 4//4 38//38 37//37
f 4//4 37//37 36//36
f 4//4 36//36 35//35
f 4//4 35//35 34//34
f 4//4 34//34 33//33
f 4//4 33//33 32//32
f 4//4 32//32 10//10
f 4//4 10//10 11//11
f 4//4 11//11 5//5
f 4//4 8//8 12//12
f 4//4 12//12 13//13
f 4//4 13//13 14//14
f 4//4 14//14 15//15
f 4//4 15//15 16//16
f 4//4 16//16 17//17
f 4//4 17//17 18//18
f 4//4 18//18 39//39
f 4//4 39//39 54//54
f 4//4 54//54 30//30
f 4//4 30//30 9//9
f 5//5 11//11 6//6
f 6//6 19//19 20//20
f 6//6 20//20 21//21
f 6//6 21//21 7//7
f 6//6 11//11 19//19
f 7//7 21//21 22//22
f 7//7 22//22 23//23
f 7//7 23//23 24//24
f 7//7 24//24 25//25
f 9//9 26//26 27//27
f 9//9 27//27 28//28
f 9//9 28//28 29//29
f 9//9 30//30 31//31
f 9//9 31//31 26//26
f 10//10 32//32 11//11
f 11//11 29//29 19//19
f 11//11 32//32 33//33
f 11//11 33//33 34//34
f 11//11 34//34 35//35
f 11//11 35//35 36//36
f 11//11 36//36 37//37
f 11//11 37//37 38//38
f 11//11 38//38 29//29
f 19//19 40//40 20//20
f 19//19 29//29 41//41
f 19//19 41//41 42//42
f 19//19 42//42 40//40
f 20//20 40//40 43//43
f 20//20 43//43 44//44
f 20//20 44//44 45//45
f 20//20 45//45 46//46
f 20//20 46//46 22//22
f 20//20 22//22 21//21
f 22//22 46//46 23//23
f 23//23 46//46 24//24
f 24//24 46//46 45//45
f 24//24 45//45 47//47
f 24//24 47//47 25//25
f 25//25 47//47 48//48
f 25//25 48//48 49//49
f 25//25 49//49 50//50
f 25//25 50//50 51//51
f 26//26 52//52 27//27
f 26//26 31//31 52//52
f 27//27 52//52 28//28
f 28//28 52//52 53//53
f 28//28 53//53 41//41
f 28//28 41//41 29//29
f 30//30 54//54 73//73
f 30//30 73//73 92//92
f 30//30 92//92 95//95
f 30//30 95//95 94//94
f 30//30 94//94 104//104
f 30//30 104//104 105//105
f 30//30 105//105 96//96
f 30//30 96//96 80//80
f 30//30 80//80 55//55
f 30//30 55//55 56//56
f 30//30 56//56 57//57
f 30//30 57//57 58//58
f 30//30 58//58 59//59
f 30//30 59//59 60//60
f 30//30 60//60 31//31
f 31//31 60//60 59//59
f 31//31 59//59 58//58
f 31//31 58//58 52//52
f 39//39 61//61 54//54
f 40//40 42//42 43//43
f 41//41 62//62 42//42
f 41//41 53//53 62//62
f 42//42 62//62 63//63
f 42//42 63//63 43//43
f 43//43 63//63 64//64
f 43//43 64//64 65//65
f 43//43 65//65 44//44
f 44//44 65//65 45//45
f 45//45 65//65 66//66
f 45//45 66//66 67//67
f 45//45 67//67 47//47
f 47//47 67//67 48//48
f 48//48 67//67 68//68
f 48//48 68//68 69//69
f 48//48 69//69 50//50
f 48//48 50//50 49//49
f 50//50 70//70 51//51
f 50//50 69//69 71//71
f 50//50 71//71 72//72
f 50//50 72//72 70//70
f 52//52 58//58 57//57
f 52//52 57//57 53//53
f 53//53 57//57 63//63
f 53//53 63//63 62//62
f 54//54 61//61 74//74
f 54//54 74//74 75//75
f 54//54 75//75 76//76
f 54//54 76//76 77//77
f 54//54 77//77 78//78
f 54//54 78//78 79//79
f 54//54 79//79 73//73
f 55//55 80//80 56//56
f 56//56 81//81 82//82
f 56//56 82//82 57//57
f 56//56 80//80 81//81
f 57//57 82//82 83//83
f 57//57 83//83 63//63
f 63//63 84//84 64//64
f 63//63 83//83 85//85
f 63//63 85//85 84//84
f 64//64 84//84 65//65
f 65//65 84//84 66//66
f 66//66 84//84 85//85
f 66//66 85//85 86//86
f 66//66 86//86 67//67
f 67//67 86//86 68//68
f 68//68 86//86 87//87
f 68//68 87//87 88//88
f 68//68 88//88 89//89
f 68//68 89//89 71//71
f 68//68 71//71 69//69
f 70//70 72//72 90//90
f 71//71 89//89 72//72
f 72//72 91//91 90//90
f 72//72 89//89 88//88
f 72//72 88//88 91//91
f 73//73 79//79 92//92
f 79//79 93//93 94//94
f 79//79 94//94 95//95
f 79//79 95//95 92//92
f 80//80 96//96 97//97
f 80//80 97//97 81//81
f 81//81 98//98 83//83
f 81//81 83//83 82//82
f 81//81 97//97 99//99
f 81//81 99//99 98//98
f 83//83 98//98 85//85
f 85//85 98//98 86//86
f 86//86 98//98 87//87
f 87//87 98//98 100//100
f 87//87 100//100 101//101
f 87//87 101//101 102//102
f 87//87 102//102 88//88
f 88//88 102//102 101//101
f 88//88 101//101 91//91
f 93//93 103//103 104//104
f 93//93 104//104 94//94
f 96//96 105//105 97//97
f 97//97 105//105 99//99
f 98//98 99//99 100//100
f 99//99 105//105 104//104
f 99//99 104//104 106//106
f 99//99 106//106 100//100
f 100//100 106//106 104//104
f 100//100 104//104 107//107
f 100//100 107//107 101//101
f 103//103 107//107 104//104

