# https://github.com/mikedh/trimesh
v 2.71645124 0.67532250 -3.21208261
v 2.65039811 0.67479642 -3.21208261
v 2.73698668 0.67023628 -3.21208261
v 2.30242661 1.14711863 -4.46108897
v 2.23580742 1.14887252 -4.46062513
v 2.46169797 0.67304254 -3.41491676
v 2.44544745 0.61814577 -3.40022988
v 2.64522378 0.65988832 -3.21208261
v 2.18123479 1.14571547 -4.46727266
v 1.98493491 1.17377772 -4.64088756
v 2.76956853 0.64445413 -3.21208261
v 2.75752212 0.66497462 -3.23248962
v 2.47358249 1.04644539 -4.37466797
v 2.42757998 1.07363070 -4.41455456
v 2.30242661 1.14711863 -4.48103213
v 2.14064888 1.18640572 -4.61398726
v 2.05171570 1.17939017 -4.61831612
v 2.39839362 0.52308501 -3.47258208
v 2.43574550 0.52308501 -3.38817099
v 2.41634189 -0.22845628 -3.27284006
v 2.43275403 -0.22845628 -3.26820216
v 2.64045375 -0.22845628 -3.21208261
v 1.98493491 1.18272251 -4.67304412
v 1.98493491 0.80844265 -4.59497180
v 2.37155187 -0.22845628 -3.33437040
v 2.77943209 0.62393358 -3.21208261
v 2.47358249 1.04644539 -4.37667788
v 2.39701909 1.07152602 -4.48721610
v 2.19643429 1.15185407 -4.68664908
v 2.14687424 1.17500546 -4.71463130
v 2.04549034 1.20306764 -4.70906570
v 2.24389228 -0.41401768 -3.88876292
v 2.35368440 -0.48066550 -3.88876292
v 2.35425032 -0.48136702 -3.88953581
v 2.81023539 -0.22845628 -3.21208261
v 1.98493491 1.19061507 -4.70906570
v 1.98493491 0.71320656 -4.59373478
v 1.98493491 -0.39332184 -4.60471145
v 1.98493491 -0.49066267 -4.61723391
v 1.98493491 -0.50714923 -4.62712837
v 2.80279739 0.52308501 -3.21208261
v 2.79964431 0.52308501 -3.28227067
v 2.77862376 0.61060407 -3.28227067
v 2.77102387 0.59288978 -3.34720218
v 2.76196892 0.10460717 -3.53519463
v 2.51554279 0.61832120 -4.32844289
v 2.50430499 0.61797034 -4.36972074
v 2.49419902 0.61797034 -4.40667001
v 2.40324445 0.99873960 -4.49680123
v 2.19821298 1.07205217 -4.76657651
v 2.18269013 1.13536751 -4.75003452
v 2.11930497 1.15939584 -4.76673131
v 2.04549034 1.16220203 -4.76874094
v 1.98493491 1.15694037 -4.76549457
v 2.39055132 -0.48136702 -3.88953581
v 2.36589257 -0.58326800 -4.25330760
v 2.45215792 -0.57432313 -4.17229767
v 2.80635450 -0.22845628 -3.28227067
v 2.81047780 -0.21267130 -3.21208261
v 2.47778660 -0.57432313 -4.17229767
v 2.47705908 -0.57379698 -4.23336444
v 1.98493491 -0.50609686 -4.67211671
v 2.27566581 -0.57748012 -4.48087761
v 2.33282560 -0.58870502 -4.33771869
v 2.80441433 0.42784885 -3.21208261
v 2.80134206 0.42784885 -3.28227067
v 2.80417164 0.23807809 -3.28227067
v 2.80530347 0.14301733 -3.28227067
v 2.80627369 0.04795657 -3.28227067
v 2.80748661 -0.14251574 -3.28227067
v 2.76196892 0.08513901 -3.53519463
v 2.49419902 0.52308501 -4.40574232
v 2.49290530 -0.33263726 -4.40048605
v 2.29288641 -0.39402335 -4.67026132
v 2.29288641 -0.36122566 -4.67026132
v 2.51748324 -0.42787341 -4.32844289
v 2.19691940 0.99873960 -4.76503073
v 2.14064888 0.99873960 -4.78373715
v 2.14687424 1.09976363 -4.77894444
v 2.04549034 1.09380039 -4.79146717
v 1.98493491 1.13221053 -4.77384269
v 2.42968203 -0.58852966 -4.31993997
v 2.42264806 -0.58063717 -4.22640730
v 2.47390600 -0.57116615 -4.28252684
v 2.48967141 -0.52433730 -4.31993997
v 2.81088211 -0.14251574 -3.21208261
v 2.14064888 -0.33281269 -4.70798377
v 2.14064888 -0.42243639 -4.68386599
v 2.23572662 -0.40945761 -4.67891905
v 2.23572662 -0.45716340 -4.64336103
v 2.29765644 -0.57748012 -4.48087761
v 1.98493491 -0.43103047 -4.68742197
v 2.32999588 -0.58502188 -4.42754087
v 2.40033407 -0.58730192 -4.39832162
v 2.41108676 -0.58782807 -4.36956622
v 2.80546536 0.35769329 -3.21208261
v 2.80724392 0.23807809 -3.21208261
v 2.80837575 0.14301733 -3.21208261
v 2.50341557 -0.37332751 -4.36972074
v 2.49064163 -0.42804884 -4.39600267
v 2.48247583 -0.49329350 -4.38657205
v 2.29498847 -0.49013645 -4.58306743
v 2.50107110 -0.42804884 -4.36972074
v 2.50115191 -0.42787341 -4.36956622
v 2.04549034 0.99873960 -4.78698351
v 1.98493491 1.05924875 -4.78296426
v 1.98493491 1.09380039 -4.78451004
v 2.46388083 -0.55678427 -4.34591257
v 2.04549034 -0.33281269 -4.70612838
v 1.98493491 -0.33281269 -4.70040827
vn 0.08971054 0.60987167 0.78740623
vn -0.25678889 0.53679229 0.80368744
vn 0.26838204 0.59087188 0.76081634
vn 0.26435081 0.95092336 0.16082105
vn -0.03025652 0.95079226 0.30834820
vn -0.67569342 0.51408458 0.52835163
vn -0.79535318 0.24009119 0.55656943
vn -0.39076069 0.11033579 0.91385562
vn -0.16059073 0.91716274 0.36472337
vn -0.76505244 0.58265268 0.27424554
vn 0.62946806 0.38953831 0.67233166
vn 0.70050109 0.70073993 0.13513617
vn 0.62490265 0.77722909 0.07356370
vn 0.58507880 0.79650485 -0.15252155
vn 0.44242644 0.88849495 -0.12180136
vn 0.10718955 0.98930620 0.09891225
vn -0.15071299 0.93825939 0.31137585
vn -0.91088609 0.12088852 0.39455355
vn -0.81329727 0.13383357 0.56624741
vn -0.50466447 -0.45290249 0.73497831
vn -0.22352502 -0.54521117 0.80794885
vn -0.10284371 -0.54276748 0.83356262
vn -0.76140065 0.62784863 0.16147801
vn -0.98606095 0.01601006 0.16561243
vn -0.81228211 -0.34185274 0.47258277
vn 0.70806868 0.25683888 0.65777848
vn 0.82732417 0.50097145 -0.25409119
vn 0.75410429 0.48021213 -0.44802123
vn 0.56386368 0.77280016 -0.29126904
vn 0.37022279 0.88522500 -0.28162348
vn -0.02842705 0.98408701 -0.17539858
vn -0.65987377 -0.66876056 0.34252870
vn -0.47949610 -0.79486610 0.37184859
vn -0.26321885 -0.90627613 0.33072559
vn 0.62043880 -0.47750653 0.62212797
vn -0.70622012 0.69787008 -0.11929164
vn -0.98867354 0.00091771 0.15007928
vn -0.98800341 -0.01179301 0.15398115
vn -0.98087997 -0.07848227 0.17808712
vn -0.78250933 -0.61658445 0.08661849
vn 0.73867624 0.09072625 0.66792676
vn 0.98414783 0.12055794 -0.13007241
vn 0.94593327 0.30608602 -0.10733872
vn 0.95731783 0.22985817 -0.17523641
vn 0.97186671 0.02014826 -0.23466816
vn 0.96345845 0.06160251 -0.26067784
vn 0.96288992 0.06005884 -0.26312722
vn 0.89121785 0.03154250 -0.45247743
vn 0.82028063 0.09579000 -0.56388293
vn 0.57532269 0.15553608 -0.80300208
vn 0.55994379 0.54943350 -0.62014981
vn 0.22327370 0.62724966 -0.74612782
vn -0.02450309 0.60571333 -0.79530558
vn -0.67753717 0.44742831 -0.58373907
vn 0.01683763 -0.94401335 0.32947729
vn -0.19931603 -0.96430215 0.17434015
vn -0.04785296 -0.97355076 0.22340323
vn 0.94261427 -0.31602516 -0.10773317
vn 0.72681408 -0.00890742 0.68677650
vn 0.37954974 -0.91706506 0.12220340
vn 0.60312335 -0.79608617 -0.04989030
vn -0.58182277 -0.58933544 -0.56050514
vn -0.10785580 -0.98171962 -0.15682386
vn -0.19242620 -0.97707140 0.09112429
vn 0.72252750 0.01154553 0.69124577
vn 0.99383062 0.01656151 -0.10966502
vn 0.99407225 0.01354771 -0.10787408
vn 0.99416341 0.01103115 -0.10731931
vn 0.99421468 0.00836230 -0.10708524
vn 0.99309507 -0.00470712 -0.11721789
vn 0.97107750 -0.01885613 -0.23801876
vn 0.93516857 -0.00346572 -0.35418602
vn 0.88250576 -0.01748165 -0.46997656
vn 0.52038325 -0.26994675 -0.81014197
vn 0.75544142 0.00061421 -0.65521590
vn 0.94714821 -0.14812880 -0.28454898
vn 0.39503179 -0.03089632 -0.91814776
vn 0.17625078 -0.02643444 -0.98399029
vn 0.24159691 0.19428247 -0.95072880
vn -0.01389362 0.13106770 -0.99127606
vn -0.73151822 0.20612463 -0.64991825
vn 0.25210396 -0.96542515 -0.06631646
vn 0.00702817 -0.99478281 0.10177307
vn 0.69407902 -0.70407541 -0.15010704
vn 0.89387120 -0.38678408 -0.22669883
vn 0.72532449 0.00041598 0.68840701
vn 0.09126671 -0.13078741 -0.98720061
vn 0.08153475 -0.27803464 -0.95710440
vn 0.20117277 -0.38041499 -0.90267046
vn 0.26012529 -0.65445112 -0.70994969
vn 0.19188259 -0.88612576 -0.42185568
vn -0.70688458 -0.13046359 -0.69519309
vn -0.02739633 -0.99542188 -0.09156815
vn 0.37842604 -0.85657657 -0.35081378
vn 0.26482248 -0.95737694 -0.11531886
vn 0.72234678 0.01077829 0.69144700
vn 0.72266156 0.00967434 0.69113434
vn 0.72256800 0.00777962 0.69125608
vn 0.93721550 -0.02144549 -0.34809078
vn 0.86780497 -0.11229170 -0.48405073
vn 0.81766162 -0.34843163 -0.45828471
vn 0.41109319 -0.64898918 -0.64016828
vn 0.91647485 -0.16675694 -0.36368388
vn 0.92820333 -0.05032619 -0.36865410
vn -0.04421289 -0.05404578 -0.99755916
vn -0.74549785 -0.03289207 -0.66569593
vn -0.71423750 0.07989715 -0.69532815
vn 0.72275353 -0.59979203 -0.34333200
vn -0.05005019 -0.11086261 -0.99257466
vn -0.73197754 -0.06546713 -0.67817618
f 1//1 2//2 8//8
f 1//1 8//8 22//22
f 1//1 22//22 35//35
f 1//1 35//35 59//59
f 1//1 59//59 86//86
f 1//1 86//86 98//98
f 1//1 98//98 97//97
f 1//1 97//97 96//96
f 1//1 96//96 65//65
f 1//1 65//65 41//41
f 1//1 41//41 26//26
f 1//1 26//26 11//11
f 1//1 11//11 3//3
f 1//1 3//3 4//4
f 1//1 4//4 5//5
f 1//1 5//5 2//2
f 2//2 6//6 7//7
f 2//2 7//7 8//8
f 2//2 5//5 9//9
f 2//2 9//9 10//10
f 2//2 10//10 6//6
f 3//3 11//11 12//12
f 3//3 12//12 4//4
f 4//4 13//13 14//14
f 4//4 14//14 15//15
f 4//4 15//15 16//16
f 4//4 16//16 5//5
f 4//4 12//12 13//13
f 5//5 16//16 17//17
f 5//5 17//17 9//9
f 6//6 10//10 7//7
f 7//7 18//18 19//19
f 7//7 19//19 8//8
f 7//7 10//10 18//18
f 8//8 19//19 20//20
f 8//8 20//20 21//21
f 8//8 21//21 22//22
f 9//9 17//17 10//10
f 10//10 17//17 23//23
f 10//10 23//23 36//36
f 10//10 36//36 54//54
f 10//10 54//54 81//81
f 10//10 81//81 107//107
f 10//10 107//107 106//106
f 10//10 106//106 110//110
f 10//10 110//110 92//92
f 10//10 92//92 62//62
f 10//10 62//62 40//40
f 10//10 40//40 39//39
f 10//10 39//39 38//38
f 10//10 38//38 37//37
f 10//10 37//37 24//24
f 10//10 24//24 25//25
f 10//10 25//25 18//18
f 11//11 26//26 27//27
f 11//11 27//27 12//12
f 12//12 27//27 13//13
f 13//13 27//27 14//14
f 14//14 27//27 28//28
f 14//14 28//28 15//15
f 15//15 29//29 30//30
f 15//15 30//30 16//16
f 15//15 28//28 29//29
f 16//16 30//30 31//31
f 16//16 31//31 17//17
f 17//17 31//31 23//23
f 18//18 25//25 19//19
f 19//19 25//25 20//20
f 20//20 25//25 32//32
f 20//20 32//32 33//33
f 20//20 33//33 34//34
f 20//20 34//34 21//21
f 21//21 34//34 22//22
f 22//22 34//34 55//55
f 22//22 55//55 35//35
f 23//23 31//31 36//36
f 24//24 37//37 25//25
f 25//25 38//38 39//39
f 25//25 39//39 40//40
f 25//25 40//40 32//32
f 25//25 37//37 38//38
f 26//26 41//41 42//42
f 26//26 42//42 43//43
f 26//26 43//43 27//27
f 27//27 43//43 44//44
f 27//27 44//44 42//42
f 27//27 42//42 45//45
f 27//27 45//45 46//46
f 27//27 46//46 47//47
f 27//27 47//47 48//48
f 27//27 48//48 49//49
f 27//27 49//49 28//28
f 28//28 49//49 50//50
f 28//28 50//50 51//51
f 28//28 51//51 29//29
f 29//29 51//51 30//30
f 30//30 52//52 31//31
f 30//30 51//51 52//52
f 31//31 52//52 53//53
f 31//31 53//53 54//54
f 31//31 54//54 36//36
f 32//32 40//40 34//34
f 32//32 34//34 33//33
f 34//34 40//40 56//56
f 34//34 56//56 57//57
f 34//34 57//57 60//60
f 34//34 60//60 55//55
f 35//35 58//58 59//59
f 35//35 55//55 60//60
f 35//35 60//60 61//61
f 35//35 61//61 58//58
f 40//40 62//62 63//63
f 40//40 63//63 64//64
f 40//40 64//64 56//56
f 41//41 65//65 66//66
f 41//41 66//66 42//42
f 42//42 44//44 43//43
f 42//42 66//66 45//45
f 45//45 67//67 68//68
f 45//45 68//68 69//69
f 45//45 69//69 70//70
f 45//45 70//70 71//71
f 45//45 71//71 48//48
f 45//45 48//48 47//47
f 45//45 47//47 46//46
f 45//45 66//66 67//67
f 48//48 72//72 73//73
f 48//48 73//73 74//74
f 48//48 74//74 75//75
f 48//48 75//75 50//50
f 48//48 50//50 49//49
f 48//48 71//71 76//76
f 48//48 76//76 72//72
f 50//50 77//77 78//78
f 50//50 78//78 79//79
f 50//50 79//79 51//51
f 50//50 75//75 74//74
f 50//50 74//74 77//77
f 51//51 79//79 52//52
f 52//52 79//79 80//80
f 52//52 80//80 53//53
f 53//53 81//81 54//54
f 53//53 80//80 81//81
f 56//56 64//64 82//82
f 56//56 82//82 83//83
f 56//56 83//83 57//57
f 57//57 83//83 60//60
f 58//58 71//71 70//70
f 58//58 70//70 59//59
f 58//58 61//61 84//84
f 58//58 84//84 85//85
f 58//58 85//85 76//76
f 58//58 76//76 71//71
f 59//59 70//70 86//86
f 60//60 83//83 82//82
f 60//60 82//82 61//61
f 61//61 82//82 84//84
f 62//62 87//87 88//88
f 62//62 88//88 89//89
f 62//62 89//89 90//90
f 62//62 90//90 91//91
f 62//62 91//91 63//63
f 62//62 92//92 87//87
f 63//63 91//91 93//93
f 63//63 93//93 64//64
f 64//64 93//93 94//94
f 64//64 94//94 95//95
f 64//64 95//95 82//82
f 65//65 96//96 66//66
f 66//66 96//96 67//67
f 67//67 96//96 97//97
f 67//67 97//97 98//98
f 67//67 98//98 68//68
f 68//68 98//98 69//69
f 69//69 98//98 86//86
f 69//69 86//86 70//70
f 72//72 76//76 99//99
f 72//72 99//99 73//73
f 73//73 99//99 100//100
f 73//73 100//100 74//74
f 74//74 100//100 101//101
f 74//74 101//101 94//94
f 74//74 94//94 102//102
f 74//74 102//102 90//90
f 74//74 90//90 89//89
f 74//74 89//89 87//87
f 74//74 87//87 78//78
f 74//74 78//78 77//77
f 76//76 85//85 101//101
f 76//76 101//101 103//103
f 76//76 103//103 100//100
f 76//76 100//100 104//104
f 76//76 104//104 99//99
f 78//78 105//105 80//80
f 78//78 80//80 79//79
f 78//78 87//87 105//105
f 80//80 106//106 107//107
f 80//80 107//107 81//81
f 80//80 105//105 106//106
f 82//82 95//95 84//84
f 84//84 95//95 94//94
f 84//84 94//94 108//108
f 84//84 108//108 85//85
f 85//85 108//108 101//101
f 87//87 89//89 88//88
f 87//87 92//92 109//109
f 87//87 109//109 105//105
f 90//90 102//102 91//91
f 91//91 102//102 94//94
f 91//91 94//94 93//93
f 92//92 110//110 109//109
f 94//94 101//101 108//108
f 99//99 104//104 100//100
f 100//100 103//103 101//101
f 105//105 109//109 110//110
f 105//105 110//110 106//106

