# https://github.com/mikedh/trimesh
v -2.69110863 0.09525861 -0.99907600
v -2.68833235 0.09525861 -0.90392086
v -2.68671286 1.09490096 -1.17826309
v -2.68671286 1.09351984 -1.17939974
v -2.68694421 -0.23758720 -0.99907600
v -2.68694421 -0.23758720 -0.90392086
v -2.68671286 -0.23758720 -0.87314974
v -2.68740692 0.09525861 -0.87314974
v -2.68578743 1.10014916 -1.17826309
v -2.62517316 1.09351984 -1.28429772
v -2.68648150 1.07252708 -1.17826309
v -2.67144361 1.16533725 -1.17826309
v -2.57797701 1.16948054 -1.34072489
v -2.67514531 -0.23758720 -1.07531370
v -2.67028683 -0.30498505 -1.06167374
v -2.67283175 -0.33481686 -0.99314905
v -2.67861538 -0.33260710 -0.90392086
v -2.68023487 -0.33260710 -0.87314974
v -2.44217330 -1.19607265 -0.81404312
v -0.49603519 0.04194804 -0.74430062
v -0.47937780 0.04940599 -0.74430062
v -0.52333476 1.09379607 -0.92210751
v -0.57215020 1.23715458 -0.95101126
v -2.61823247 1.28217851 -1.17826309
v -2.65455487 1.21201852 -1.17826309
v -2.66565970 1.18881596 -1.17826309
v -2.42482185 -1.12038831 -0.81404312
v -2.58491770 1.09351984 -1.34713894
v -2.58422363 0.99849995 -1.34648952
v -2.68277979 0.99849995 -1.17826309
v -2.56664082 1.23301129 -1.32911468
v -2.52893056 1.19627395 -1.36256511
v -2.64391276 -0.23758720 -1.12289127
v -2.38687995 -0.87786653 -1.34226755
v -2.37878247 -1.14220968 -1.14237696
v -2.66427184 -0.38149813 -0.95750654
v -2.66820462 -0.38647010 -0.87314974
v -2.43962838 -1.19938734 -0.81404312
v -0.59065836 -0.75964415 -0.74511249
v -0.51199850 -0.04699500 -0.74430062
v -0.50089353 0.02123149 -0.74430062
v -0.43889106 0.04940599 -0.74430062
v -0.42639802 1.19240681 -0.93574748
v -0.39331461 1.24019298 -0.94662697
v -0.68204262 1.34515681 -1.03439373
v -2.61753840 1.28217851 -1.18142950
v -0.71350660 1.44459630 -1.12394669
v -1.01819792 1.52525267 -1.23241702
v -1.01819792 1.52608127 -1.25027896
v -2.57658915 1.28217851 -1.26164563
v -2.52060173 1.09351984 -1.37441887
v -2.52060173 0.99849995 -1.37287635
v -2.52060173 0.90348005 -1.37125246
v -2.41070910 -0.61849542 -1.35606998
v -2.53494555 1.28217851 -1.31230830
v -2.52060173 1.28217851 -1.32383742
v -2.50301892 1.26394799 -1.35298466
v -2.42551592 1.18881596 -1.39658387
v -2.39451471 -0.80825899 -1.34705785
v -2.33066117 -0.80825899 -1.37320113
v -1.91908492 -1.18889096 -1.44148220
v -1.90589789 -1.23861063 -1.43011554
v -2.36628950 -0.94139728 -1.32123920
v -2.00815576 -1.24358267 -1.34104967
v -2.39844749 -1.24883086 -0.81404312
v -0.57168748 -0.75964415 -0.74511249
v -0.49696054 -0.50800718 -0.74430062
v -0.51523742 -0.46187835 -0.74430062
v -0.52148398 -0.42735077 -0.74430062
v -0.52356611 -0.36326757 -0.74430062
v -0.52356611 -0.33260710 -0.74430062
v -0.51361793 -0.07765549 -0.74430062
v -2.33320609 -1.25905095 -0.81404312
v -1.85476895 -1.29330234 -0.81404312
v -0.41112877 -0.04699500 -0.74430062
v -0.35652956 1.18881596 -0.94199913
v -0.36994803 1.24019298 -0.94662697
v -0.64109323 1.34515681 -1.03439373
v -0.32784186 1.41946010 -1.14838500
v -0.32784186 1.45702618 -1.19320210
v -0.71350660 1.48354329 -1.18914258
v -0.32784186 1.48354329 -1.28421649
v -0.32784186 1.47719020 -1.47436431
v -0.42824887 1.47829510 -1.47436431
v -0.42824887 1.45288289 -1.55522992
v -2.42551592 1.28217851 -1.35793727
v -2.42551592 0.90348005 -1.39414825
v -2.42551592 0.80818400 -1.39276791
v -2.33066117 -0.61849542 -1.38229435
v -2.42551592 1.27610172 -1.36280880
v -0.42824887 1.37885576 -1.57374128
v -1.95772089 1.09738691 -1.44002077
v -1.85476895 -1.09387106 -1.46551450
v -1.85476895 -1.18889096 -1.45877567
v -1.85476895 -1.23999182 -1.43198297
v -1.85476895 -1.25766989 -1.37929040
v -1.94268286 -1.25104065 -1.37539321
v -1.95008627 -1.27451937 -1.28421649
v -0.56081387 -0.75964415 -0.74681754
v -0.45115274 -0.50800718 -0.74430062
v -1.28448485 -1.29164499 -0.81396196
v -1.18916753 -1.27286202 -0.81396196
v -1.13086669 -1.24496372 -0.81396196
v -1.95008627 -1.28087246 -1.18914258
v -1.95008627 -1.28391085 -1.09414984
v -1.85476895 -1.29219744 -0.90383970
v -1.47488798 -1.29578829 -1.09414984
v -0.41089742 -0.10279157 -0.74430062
v -0.36925396 -0.04699500 -0.83515263
v -0.32784186 1.18881596 -0.96424529
v -0.32784186 1.24930831 -1.00475926
v -0.32784186 1.41642170 -1.14578692
v -0.32784186 1.45067309 -1.56188752
v -0.32784186 1.44818714 -1.56188752
v -0.61865200 0.33280833 -1.55311894
v -0.67001229 -0.14229110 -1.52543299
v -0.66677337 -0.19256327 -1.52234781
v -0.66445988 -0.19256327 -1.52234781
v -1.18916753 -1.18861480 -1.38627277
v -1.80387138 -1.23888692 -1.43052140
v -1.28448485 -1.25656500 -1.35550165
v -1.28448485 -1.28335840 -1.28421649
v -1.28726098 -1.28335840 -1.28421649
v -1.85476895 -1.27590042 -1.28421649
v -1.37980202 -1.29468339 -1.18914258
v -1.85476895 -1.28418701 -1.18914258
v -0.36879125 -0.75964415 -0.84278448
v -0.42385317 -0.42486479 -0.74430062
v -1.28448485 -1.29136884 -0.99899477
v -1.18916753 -1.28335840 -1.18898020
v -1.18916753 -1.28197735 -1.09414984
v -1.10958225 -1.25684129 -1.18898020
v -1.11351524 -1.25490765 -1.09414984
v -0.35398464 -0.75964415 -0.90392086
v -0.36115662 -0.75964415 -0.87339329
v -1.85476895 -1.28943520 -1.09414984
v -0.41112877 -0.14229110 -0.74430062
v -0.34542459 0.04774867 -0.90392086
v -0.32784186 1.15898416 -0.96570672
v -0.32784186 1.38106555 -1.55661012
v -0.63993644 -0.04699500 -1.52997974
v -0.65428033 -0.14229110 -1.52543299
v -0.63392132 -0.42735077 -1.45000723
v -0.65242948 -0.52292308 -1.43425628
v -0.66492259 -0.57181415 -1.42727391
v -1.12994127 -1.24468756 -1.34234878
v -1.18916753 -1.25214541 -1.35257879
v -1.18916753 -1.27534797 -1.28421649
v -1.28726098 -1.29081639 -1.18898020
v -1.28448485 -1.29109254 -1.09414984
v -0.41251684 -0.23979696 -0.74430062
v -0.41413634 -0.30526124 -0.74430062
v -0.41506176 -0.33536931 -0.74430062
v -1.11698551 -1.25297415 -1.28421649
v -0.36115662 -0.75964415 -0.95937384
v -0.34449924 -0.23731098 -0.99899477
v -0.34033489 0.04774867 -0.99899477
v -0.32784186 1.09490096 -0.99387976
v -0.32784186 1.10125405 -1.08952200
v -0.36902260 -0.75964415 -1.00768212
v -0.38313506 -0.75964415 -1.05753299
v -0.39146376 -0.75964415 -1.08513771
v -0.41644983 -0.75964415 -1.13003596
v -0.44120462 -0.75964415 -1.17184904
v -0.65219820 -0.75964415 -1.34389144
vn -0.99953494 -0.00431187 -0.03018802
vn -0.99955342 0.00381928 0.02963724
vn -0.97823952 0.14357534 0.14977838
vn -0.95488074 0.05655178 -0.29155561
vn -0.99462624 -0.06791211 -0.07814467
vn -0.99917788 -0.04037018 0.00371624
vn -0.78921136 -0.02555386 0.61358979
vn -0.69964464 0.09374932 0.70831380
vn -0.97330817 0.21049489 0.09145006
vn -0.85546538 0.05891061 -0.51449832
vn -0.94414589 -0.02979799 -0.32817773
vn -0.96994640 0.23069111 0.07736667
vn -0.68220444 0.18091037 -0.70842681
vn -0.92959976 -0.08559896 -0.35849282
vn -0.93370844 -0.18820303 -0.30457867
vn -0.97016840 -0.21718886 -0.10771385
vn -0.98209211 -0.18023612 -0.05486377
vn -0.82575904 -0.11595045 0.55197600
vn -0.73298322 -0.37345336 0.56856678
vn -0.03432578 0.05753826 0.99775302
vn -0.01731106 0.09102023 0.99569857
vn -0.04569106 0.17200129 0.98403653
vn -0.05274585 0.39502453 0.91715511
vn -0.53829248 0.71032343 0.45352160
vn -0.85940525 0.42701274 0.28121653
vn -0.91356257 0.34197792 0.22012392
vn -0.07373179 0.02141433 0.99704817
vn -0.64953920 0.04907546 -0.75874267
vn -0.65746304 -0.03100107 -0.75284878
vn -0.87290922 -0.04476643 -0.48582452
vn -0.66429177 0.38023376 -0.64353611
vn -0.39178973 0.18895801 -0.90044194
vn -0.80725344 -0.09596327 -0.58235121
vn -0.66025706 -0.26090080 -0.70426656
vn -0.69440593 -0.59827040 -0.39984114
vn -0.96092567 -0.25985566 -0.09537769
vn -0.93342823 -0.22587005 0.27873727
vn -0.62848523 -0.50269302 0.59355375
vn -0.01223559 -0.05818355 0.99823092
vn -0.02019684 0.00280779 0.99979208
vn -0.02121814 0.00458710 0.99976435
vn 0.19580601 0.10069808 0.97545882
vn -0.00155212 0.19281131 0.98123462
vn -0.00656154 0.44298767 0.89650369
vn -0.04715870 0.61958904 0.78350844
vn -0.58412780 0.78232358 -0.21625106
vn 0.00880885 0.76188203 0.64765591
vn -0.05621060 0.91959471 0.38882636
vn -0.07177142 0.98193034 -0.17510477
vn -0.53303361 0.78765756 -0.30898339
vn -0.31549701 0.02302549 -0.94864718
vn -0.31002783 -0.01569236 -0.95059797
vn -0.32606573 -0.02661999 -0.94497223
vn -0.56680362 -0.06940614 -0.82092414
vn -0.39973020 0.82203553 -0.40555314
vn -0.32773460 0.81732839 -0.47388220
vn -0.32555736 0.51712009 -0.79158020
vn -0.17958133 0.16925190 -0.96907396
vn -0.61457023 -0.11063363 -0.78106571
vn -0.29913551 -0.09083344 -0.94987748
vn -0.30683175 -0.21991136 -0.92600933
vn -0.23151817 -0.69312425 -0.68262589
vn -0.60018140 -0.45037024 -0.66102113
vn -0.39277007 -0.81432389 -0.42732690
vn -0.44869071 -0.71978269 0.52970702
vn 0.08604818 -0.14833341 0.98518674
vn -0.00160875 -0.00162703 0.99999738
vn -0.00313065 -0.00065633 0.99999488
vn -0.00507575 -0.00022191 0.99998709
vn -0.00605057 -0.00001051 0.99998170
vn -0.00804960 0.00030238 0.99996756
vn -0.00989499 0.00052003 0.99995091
vn -0.10369591 -0.76361452 0.63729116
vn -0.03091364 -0.75399802 0.65614887
vn 0.54013759 0.01358232 0.84146712
vn 0.44930516 0.15967619 0.87899283
vn 0.33318336 0.45159819 0.82767622
vn 0.01027603 0.66164583 0.74974609
vn 0.73382131 0.50843713 0.45055296
vn 0.69437992 0.63599092 0.33667800
vn 0.06013754 0.88428685 0.46305534
vn 0.69857880 0.71047723 0.08491033
vn 0.68997214 0.71226712 -0.12889529
vn -0.00514315 0.96907550 -0.24671082
vn -0.06327518 0.68432776 -0.72642396
vn -0.15449530 0.78862465 -0.59514903
vn -0.19176971 -0.01109876 -0.98137719
vn -0.20826661 -0.01807625 -0.97790504
vn -0.25296869 -0.03255309 -0.96692664
vn -0.15556407 0.49455850 -0.85510918
vn 0.00199280 0.08463296 -0.99641020
vn -0.08974243 0.01039492 -0.99591076
vn -0.11294065 -0.05307062 -0.99218341
vn -0.06917012 -0.25614127 -0.96416137
vn -0.00904919 -0.75772437 -0.65251199
vn -0.02777002 -0.96518805 -0.26007857
vn -0.20537692 -0.92391557 -0.32280077
vn -0.13864862 -0.97522812 -0.17235623
vn 0.29952722 -0.30925878 0.90257545
vn 0.26164050 -0.09398622 0.96057839
vn 0.06613124 -0.76147091 0.64481681
vn 0.22987440 -0.74211361 0.62962303
vn 0.38297328 -0.71204015 0.58849834
vn -0.07663560 -0.99546814 -0.05630417
vn -0.07120226 -0.99717792 -0.02379989
vn -0.03880852 -0.99916408 -0.01284663
vn -0.00282217 -0.99996582 -0.00777077
vn 0.54137560 -0.00080511 0.84078048
vn 0.92764294 0.00233648 0.37346100
vn 0.88374482 0.13645559 0.44763263
vn 0.91375666 0.25174091 0.31886560
vn 0.91061587 0.26843299 0.31420132
vn 0.60220789 0.49325001 -0.62773409
vn 0.74575615 -0.01137194 -0.66612194
vn 0.09475287 -0.04482387 -0.99449118
vn -0.00173086 -0.05922814 -0.99824297
vn -0.00041803 -0.06194623 -0.99807940
vn 0.30367011 -0.14022151 -0.94240246
vn 0.18160946 -0.33685957 -0.92387425
vn 0.06146610 -0.69635558 -0.71506002
vn 0.04582989 -0.88518057 -0.46298487
vn 0.04603685 -0.97550617 -0.21510073
vn -0.00201941 -0.98185430 -0.18962611
vn -0.01393510 -0.98757379 -0.15653699
vn 0.00906001 -0.99805243 -0.06171917
vn -0.02678654 -0.99748458 -0.06562768
vn 0.74221707 -0.44368891 0.50224892
vn 0.40712181 -0.05119488 0.91193800
vn 0.05927588 -0.99824019 -0.00169862
vn 0.19834998 -0.97952521 -0.03446219
vn 0.23995472 -0.97054373 0.02160072
vn 0.44593790 -0.89469515 -0.02569010
vn 0.44741332 -0.89329943 0.04286558
vn 0.88380552 -0.46444243 0.05640056
vn 0.85417340 -0.47718789 0.20659021
vn -0.03555887 -0.99888388 -0.03108954
vn 0.53719706 -0.00339625 0.84344993
vn 0.97682554 -0.00440693 0.21399167
vn 0.99718178 -0.00445288 0.07489102
vn 0.79523486 -0.05572229 -0.60373550
vn 0.26690017 -0.08568603 -0.95990739
vn 0.34177315 -0.11404378 -0.93283714
vn 0.56428604 -0.20226022 -0.80041993
vn 0.51461725 -0.24071386 -0.82293738
vn 0.42272003 -0.27375692 -0.86392414
vn 0.38163282 -0.71832689 -0.58168966
vn 0.14489277 -0.75304167 -0.64182110
vn 0.17344814 -0.96696299 -0.18681090
vn 0.05843811 -0.99747226 -0.04042377
vn 0.05931804 -0.99823356 -0.00333736
vn 0.51923421 -0.00775724 0.85459678
vn 0.50081590 -0.01262434 0.86546176
vn 0.49189277 -0.01792431 0.87047126
vn 0.45057184 -0.87887536 -0.15672622
vn 0.86664145 -0.48340035 -0.12351805
vn 0.99968551 -0.02048014 -0.01447243
vn 0.99982728 -0.01339690 0.01288117
vn 0.99989648 -0.00834286 0.01172320
vn 0.99997115 -0.00706254 -0.00279650
vn 0.85913605 -0.47890152 -0.18038455
vn 0.84201990 -0.48079185 -0.24462560
vn 0.82141417 -0.46752801 -0.32664404
vn 0.77297342 -0.45637756 -0.44071716
vn 0.71270525 -0.43670790 -0.54894211
vn 0.50143457 -0.40175029 -0.76626371
f 1//1 2//2 3//3
f 1//1 3//3 4//4
f 1//1 4//4 5//5
f 1//1 5//5 6//6
f 1//1 6//6 7//7
f 1//1 7//7 2//2
f 2//2 8//8 3//3
f 2//2 7//7 8//8
f 3//3 9//9 4//4
f 3//3 8//8 9//9
f 4//4 10//10 11//11
f 4//4 11//11 5//5
f 4//4 9//9 12//12
f 4//4 12//12 13//13
f 4//4 13//13 10//10
f 5//5 14//14 15//15
f 5//5 15//15 16//16
f 5//5 16//16 17//17
f 5//5 17//17 18//18
f 5//5 18//18 6//6
f 5//5 11//11 14//14
f 6//6 18//18 7//7
f 7//7 18//18 19//19
f 7//7 19//19 8//8
f 8//8 20//20 21//21
f 8//8 21//21 22//22
f 8//8 22//22 23//23
f 8//8 23//23 24//24
f 8//8 24//24 25//25
f 8//8 25//25 26//26
f 8//8 26//26 12//12
f 8//8 12//12 9//9
f 8//8 19//19 27//27
f 8//8 27//27 20//20
f 10//10 28//28 29//29
f 10//10 29//29 11//11
f 10//10 13//13 28//28
f 11//11 29//29 30//30
f 11//11 30//30 14//14
f 12//12 26//26 13//13
f 13//13 26//26 31//31
f 13//13 31//31 32//32
f 13//13 32//32 28//28
f 14//14 33//33 34//34
f 14//14 34//34 15//15
f 14//14 30//30 29//29
f 14//14 29//29 33//33
f 15//15 34//34 35//35
f 15//15 35//35 19//19
f 15//15 19//19 16//16
f 16//16 19//19 36//36
f 16//16 36//36 37//37
f 16//16 37//37 17//17
f 17//17 37//37 18//18
f 18//18 37//37 19//19
f 19//19 37//37 36//36
f 19//19 35//35 38//38
f 19//19 38//38 39//39
f 19//19 39//39 40//40
f 19//19 40//40 41//41
f 19//19 41//41 27//27
f 20//20 41//41 40//40
f 20//20 40//40 72//72
f 20//20 72//72 71//71
f 20//20 71//71 70//70
f 20//20 70//70 69//69
f 20//20 69//69 68//68
f 20//20 68//68 67//67
f 20//20 67//67 100//100
f 20//20 100//100 128//128
f 20//20 128//128 153//153
f 20//20 153//153 152//152
f 20//20 152//152 151//151
f 20//20 151//151 137//137
f 20//20 137//137 108//108
f 20//20 108//108 75//75
f 20//20 75//75 42//42
f 20//20 42//42 21//21
f 20//20 27//27 41//41
f 21//21 42//42 43//43
f 21//21 43//43 22//22
f 22//22 43//43 23//23
f 23//23 43//43 44//44
f 23//23 44//44 45//45
f 23//23 45//45 24//24
f 24//24 46//46 25//25
f 24//24 45//45 47//47
f 24//24 47//47 48//48
f 24//24 48//48 49//49
f 24//24 49//49 46//46
f 25//25 46//46 50//50
f 25//25 50//50 31//31
f 25//25 31//31 26//26
f 28//28 51//51 29//29
f 28//28 32//32 51//51
f 29//29 51//51 52//52
f 29//29 52//52 53//53
f 29//29 53//53 54//54
f 29//29 54//54 33//33
f 31//31 50//50 55//55
f 31//31 55//55 56//56
f 31//31 56//56 57//57
f 31//31 57//57 32//32
f 32//32 57//57 58//58
f 32//32 58//58 51//51
f 33//33 54//54 59//59
f 33//33 59//59 34//34
f 34//34 59//59 60//60
f 34//34 60//60 61//61
f 34//34 61//61 62//62
f 34//34 62//62 63//63
f 34//34 63//63 35//35
f 35//35 62//62 64//64
f 35//35 64//64 65//65
f 35//35 65//65 38//38
f 35//35 63//63 62//62
f 38//38 65//65 39//39
f 39//39 66//66 100//100
f 39//39 100//100 67//67
f 39//39 67//67 68//68
f 39//39 68//68 69//69
f 39//39 69//69 70//70
f 39//39 70//70 71//71
f 39//39 71//71 72//72
f 39//39 72//72 40//40
f 39//39 65//65 73//73
f 39//39 73//73 74//74
f 39//39 74//74 66//66
f 42//42 75//75 76//76
f 42//42 76//76 77//77
f 42//42 77//77 43//43
f 43//43 77//77 44//44
f 44//44 77//77 78//78
f 44//44 78//78 45//45
f 45//45 78//78 47//47
f 46//46 49//49 50//50
f 47//47 78//78 77//77
f 47//47 77//77 79//79
f 47//47 79//79 80//80
f 47//47 80//80 81//81
f 47//47 81//81 48//48
f 48//48 81//81 80//80
f 48//48 80//80 82//82
f 48//48 82//82 49//49
f 49//49 82//82 83//83
f 49//49 83//83 84//84
f 49//49 84//84 85//85
f 49//49 85//85 86//86
f 49//49 86//86 56//56
f 49//49 56//56 55//55
f 49//49 55//55 50//50
f 51//51 87//87 88//88
f 51//51 88//88 52//52
f 51//51 58//58 87//87
f 52//52 88//88 53//53
f 53//53 88//88 89//89
f 53//53 89//89 54//54
f 54//54 89//89 60//60
f 54//54 60//60 59//59
f 56//56 86//86 57//57
f 57//57 86//86 90//90
f 57//57 90//90 58//58
f 58//58 90//90 85//85
f 58//58 85//85 91//91
f 58//58 91//91 92//92
f 58//58 92//92 93//93
f 58//58 93//93 87//87
f 60//60 93//93 94//94
f 60//60 94//94 61//61
f 60//60 89//89 93//93
f 61//61 94//94 62//62
f 62//62 94//94 95//95
f 62//62 95//95 96//96
f 62//62 96//96 97//97
f 62//62 97//97 64//64
f 64//64 97//97 98//98
f 64//64 98//98 65//65
f 65//65 98//98 73//73
f 66//66 99//99 100//100
f 66//66 74//74 101//101
f 66//66 101//101 102//102
f 66//66 102//102 103//103
f 66//66 103//103 99//99
f 73//73 98//98 104//104
f 73//73 104//104 105//105
f 73//73 105//105 74//74
f 74//74 105//105 106//106
f 74//74 106//106 107//107
f 74//74 107//107 101//101
f 75//75 108//108 109//109
f 75//75 109//109 110//110
f 75//75 110//110 76//76
f 76//76 110//110 77//77
f 77//77 110//110 111//111
f 77//77 111//111 112//112
f 77//77 112//112 79//79
f 79//79 112//112 111//111
f 79//79 111//111 110//110
f 79//79 110//110 139//139
f 79//79 139//139 158//158
f 79//79 158//158 159//159
f 79//79 159//159 140//140
f 79//79 140//140 114//114
f 79//79 114//114 113//113
f 79//79 113//113 83//83
f 79//79 83//83 82//82
f 79//79 82//82 80//80
f 83//83 113//113 84//84
f 84//84 113//113 85//85
f 85//85 113//113 91//91
f 85//85 90//90 86//86
f 87//87 93//93 88//88
f 88//88 93//93 89//89
f 91//91 113//113 114//114
f 91//91 114//114 115//115
f 91//91 115//115 93//93
f 91//91 93//93 92//92
f 93//93 115//115 116//116
f 93//93 116//116 117//117
f 93//93 117//117 118//118
f 93//93 118//118 94//94
f 94//94 119//119 120//120
f 94//94 120//120 95//95
f 94//94 118//118 119//119
f 95//95 120//120 121//121
f 95//95 121//121 122//122
f 95//95 122//122 96//96
f 96//96 122//122 123//123
f 96//96 123//123 124//124
f 96//96 124//124 98//98
f 96//96 98//98 97//97
f 98//98 124//124 125//125
f 98//98 125//125 126//126
f 98//98 126//126 104//104
f 99//99 127//127 100//100
f 99//99 103//103 127//127
f 100//100 127//127 128//128
f 101//101 107//107 125//125
f 101//101 125//125 129//129
f 101//101 129//129 130//130
f 101//101 130//130 131//131
f 101//101 131//131 102//102
f 102//102 131//131 132//132
f 102//102 132//132 133//133
f 102//102 133//133 103//103
f 103//103 133//133 134//134
f 103//103 134//134 135//135
f 103//103 135//135 127//127
f 104//104 126//126 136//136
f 104//104 136//136 105//105
f 105//105 136//136 106//106
f 106//106 136//136 107//107
f 107//107 136//136 125//125
f 108//108 137//137 127//127
f 108//108 127//127 109//109
f 109//109 138//138 110//110
f 109//109 127//127 138//138
f 110//110 138//138 139//139
f 114//114 140//140 141//141
f 114//114 141//141 115//115
f 115//115 141//141 142//142
f 115//115 142//142 116//116
f 116//116 142//142 118//118
f 116//116 118//118 117//117
f 118//118 143//143 144//144
f 118//118 144//144 145//145
f 118//118 145//145 119//119
f 118//118 142//142 143//143
f 119//119 146//146 147//147
f 119//119 147//147 120//120
f 119//119 145//145 146//146
f 120//120 147//147 121//121
f 121//121 147//147 122//122
f 122//122 147//147 148//148
f 122//122 148//148 130//130
f 122//122 130//130 149//149
f 122//122 149//149 125//125
f 122//122 125//125 123//123
f 123//123 125//125 124//124
f 125//125 149//149 150//150
f 125//125 150//150 129//129
f 125//125 136//136 126//126
f 127//127 151//151 152//152
f 127//127 152//152 153//153
f 127//127 153//153 128//128
f 127//127 135//135 138//138
f 127//127 137//137 151//151
f 129//129 150//150 130//130
f 130//130 150//150 149//149
f 130//130 148//148 154//154
f 130//130 154//154 132//132
f 130//130 132//132 131//131
f 132//132 154//154 155//155
f 132//132 155//155 134//134
f 132//132 134//134 133//133
f 134//134 155//155 140//140
f 134//134 140//140 156//156
f 134//134 156//156 157//157
f 134//134 157//157 139//139
f 134//134 139//139 138//138
f 134//134 138//138 135//135
f 139//139 157//157 158//158
f 140//140 159//159 157//157
f 140//140 157//157 156//156
f 140//140 155//155 160//160
f 140//140 160//160 161//161
f 140//140 161//161 162//162
f 140//140 162//162 163//163
f 140//140 163//163 164//164
f 140//140 164//164 143//143
f 140//140 143//143 142//142
f 140//140 142//142 141//141
f 143//143 164//164 144//144
f 144//144 164//164 145//145
f 145//145 164//164 165//165
f 145//145 165//165 146//146
f 146//146 154//154 148//148
f 146//146 148//148 147//147
f 146//146 165//165 164//164
f 146//146 164//164 163//163
f 146//146 163//163 162//162
f 146//146 162//162 154//154
f 154//154 162//162 161//161
f 154//154 161//161 160//160
f 154//154 160//160 155//155
f 157//157 159//159 158//158

