# https://github.com/mikedh/trimesh
v -1.01820941 1.53195209 4.42549183
v -2.14224144 1.54263063 4.42549183
v -1.01820941 1.43119633 4.42549183
v -1.01820941 1.49966765 1.56988930
v -1.30289782 1.52478556 2.27431509
v -2.14899345 1.54255975 4.42549183
v -1.37949355 1.52524686 2.27260515
v -1.10321746 1.42502328 4.42549183
v -1.01820941 1.42537812 4.40269471
v -1.01820941 1.49363650 1.51460673
v -1.03868658 1.49367194 1.51460673
v -1.09414112 1.49977411 1.56988930
v -1.18922169 1.50378301 1.66506656
v -2.14899345 1.45929438 4.42549183
v -1.47468483 1.52386326 2.27573981
v -1.52615456 1.52294081 2.27858952
v -2.04538983 1.49910003 1.66506656
v -2.14899345 1.49636827 1.66506656
v -1.85511797 1.50232839 1.66506656
v -1.95019854 1.50151240 1.66506656
v -1.18922169 1.42122731 4.42549183
v -1.28264194 1.41775044 4.42549183
v -1.18922169 1.20265128 1.85542120
v -1.09414112 1.20850508 1.85542120
v -1.01820941 1.21332997 1.85542120
v -1.01820941 1.40125353 1.51460673
v -1.09414112 1.49374297 1.51460673
v -2.04538983 1.48891794 1.51460673
v -1.85511797 1.49466527 1.56988930
v -1.89363727 1.42952892 4.42549183
v -2.14899345 1.42718743 4.18811865
v -2.14047054 1.48810209 1.51460673
v -2.14899345 1.48785372 1.51460673
v -1.28441298 1.41775044 4.42549183
v -2.14047054 1.18022969 1.85542120
v -2.04538983 1.18086826 1.85542120
v -1.56976555 1.18970212 1.85542120
v -1.47468483 1.19250477 1.85542120
v -1.01820941 1.21173358 1.76024381
v -1.43494808 1.39841530 1.51460673
v -1.01820941 1.23160089 1.70695597
v -1.47468483 1.22908192 1.70496123
v -1.84615234 1.42530709 4.42549183
v -2.14899345 1.18022969 1.85542120
v -2.14899345 1.40203393 1.51460673
v -1.37783322 1.41810527 4.42549183
v -2.14047054 1.20211924 1.76024381
v -2.04538983 1.20240305 1.76024381
v -1.47468483 1.20460264 1.76024381
v -1.09414112 1.20956943 1.76024381
v -1.47468483 1.39820238 1.51460673
v -1.85511797 1.22975600 1.70581620
v -1.62510922 1.39816693 1.51460673
v -1.53002865 1.39802503 1.51460673
v -1.75992669 1.42271723 4.42549183
v -2.14899345 1.20222557 1.76024381
v -1.66484612 1.42112084 4.42549183
v -1.72018993 1.39866367 1.51460673
v -2.14047054 1.23152987 1.70838083
v -2.14899345 1.23160089 1.70866577
v -2.14899345 1.20481543 1.75568444
vn 0.57969815 0.57590540 0.57643996
vn -0.00192330 0.71250030 0.70166917
vn 0.60771234 -0.47269234 0.63815959
vn 0.69965871 0.71275221 -0.04961826
vn 0.02917827 0.99944036 -0.01635828
vn -0.57964106 0.57793777 0.57445990
vn -0.00218761 0.99978917 -0.02041650
vn 0.03035769 -0.65234008 0.75731818
vn 0.70718632 -0.69838020 0.11023890
vn 0.58371076 0.54178510 -0.60477322
vn 0.00100102 0.66773114 -0.74440186
vn -0.00078010 0.99714600 -0.07549329
vn 0.00082397 0.99926184 -0.03840700
vn -0.61181698 -0.49727965 0.61513651
vn -0.01646101 0.99968715 -0.01883166
vn -0.02150479 0.99961104 -0.01775684
vn -0.02582619 0.99898726 -0.03684383
vn -0.71198415 0.70172610 -0.02567184
vn -0.00683731 0.99844052 -0.05540550
vn -0.01635321 0.99874219 -0.04739842
vn 0.02519298 -0.67162236 0.74046520
vn 0.01387547 -0.67941483 0.73362318
vn 0.04379208 -0.99859219 0.02993129
vn 0.06213517 -0.99685198 0.04924781
vn 0.72201574 -0.69101268 0.03456511
vn 0.62645918 -0.31912668 -0.71113083
vn -0.00126742 0.66840848 -0.74379331
vn -0.00554307 0.67896571 -0.73414905
vn -0.00672089 0.99673948 -0.08040674
vn -0.06373842 -0.66662033 0.74266732
vn -0.73697491 -0.67160190 0.07628151
vn -0.01636232 0.68733613 -0.72615516
vn -0.58773539 0.55015196 -0.59321154
vn -0.00101677 -0.67404341 0.73869104
vn 0.00225808 -0.99776556 -0.06677419
vn 0.00939836 -0.99833484 -0.05691420
vn 0.02143938 -0.99968483 -0.01306125
vn 0.03109846 -0.99942977 0.01315401
vn 0.68228047 -0.71916356 -0.13151858
vn 0.00252453 -0.40996455 -0.91209796
vn 0.67336398 -0.63204587 -0.38353483
vn 0.00349756 -0.84080625 -0.54132487
vn -0.03875783 -0.67595893 0.73591940
vn -0.67314920 -0.73788467 -0.04895277
vn -0.62670989 -0.31893398 -0.71099636
vn -0.00440232 -0.67378771 0.73891186
vn -0.00706690 -0.93266820 -0.36066618
vn 0.00315987 -0.94772543 -0.31907135
vn 0.00895560 -0.95714687 -0.28946446
vn 0.02161444 -0.97534848 -0.21960909
vn 0.00175619 -0.40999994 -0.91208386
vn -0.00457333 -0.82269412 -0.56846589
vn -0.00139831 -0.41070729 -0.91176618
vn 0.00022011 -0.41047534 -0.91187167
vn -0.01534223 -0.67319440 0.73930637
vn -0.68036213 -0.68276547 -0.26634317
vn -0.00893823 -0.67306719 0.73952732
vn -0.00251777 -0.41024287 -0.91197283
vn -0.01783123 -0.81406501 -0.58049996
vn -0.69446071 -0.58652823 -0.41678408
vn -0.71269012 -0.60992377 -0.34650509
f 1//1 2//2 6//6
f 1//1 6//6 14//14
f 1//1 14//14 30//30
f 1//1 30//30 43//43
f 1//1 43//43 55//55
f 1//1 55//55 57//57
f 1//1 57//57 46//46
f 1//1 46//46 34//34
f 1//1 34//34 22//22
f 1//1 22//22 21//21
f 1//1 21//21 8//8
f 1//1 8//8 3//3
f 1//1 3//3 9//9
f 1//1 9//9 25//25
f 1//1 25//25 39//39
f 1//1 39//39 41//41
f 1//1 41//41 26//26
f 1//1 26//26 10//10
f 1//1 10//10 4//4
f 1//1 4//4 5//5
f 1//1 5//5 2//2
f 2//2 5//5 7//7
f 2//2 7//7 6//6
f 3//3 8//8 9//9
f 4//4 10//10 11//11
f 4//4 11//11 12//12
f 4//4 12//12 13//13
f 4//4 13//13 7//7
f 4//4 7//7 5//5
f 6//6 7//7 15//15
f 6//6 15//15 16//16
f 6//6 16//16 17//17
f 6//6 17//17 18//18
f 6//6 18//18 33//33
f 6//6 33//33 45//45
f 6//6 45//45 60//60
f 6//6 60//60 61//61
f 6//6 61//61 56//56
f 6//6 56//56 44//44
f 6//6 44//44 31//31
f 6//6 31//31 14//14
f 7//7 13//13 19//19
f 7//7 19//19 20//20
f 7//7 20//20 15//15
f 8//8 21//21 9//9
f 9//9 21//21 22//22
f 9//9 22//22 23//23
f 9//9 23//23 24//24
f 9//9 24//24 25//25
f 10//10 26//26 40//40
f 10//10 40//40 51//51
f 10//10 51//51 54//54
f 10//10 54//54 53//53
f 10//10 53//53 58//58
f 10//10 58//58 45//45
f 10//10 45//45 33//33
f 10//10 33//33 32//32
f 10//10 32//32 28//28
f 10//10 28//28 27//27
f 10//10 27//27 11//11
f 11//11 27//27 12//12
f 12//12 19//19 13//13
f 12//12 27//27 28//28
f 12//12 28//28 29//29
f 12//12 29//29 19//19
f 14//14 31//31 30//30
f 15//15 20//20 16//16
f 16//16 20//20 17//17
f 17//17 20//20 32//32
f 17//17 32//32 18//18
f 18//18 32//32 33//33
f 19//19 29//29 28//28
f 19//19 28//28 32//32
f 19//19 32//32 20//20
f 22//22 34//34 44//44
f 22//22 44//44 35//35
f 22//22 35//35 36//36
f 22//22 36//36 37//37
f 22//22 37//37 38//38
f 22//22 38//38 23//23
f 23//23 38//38 39//39
f 23//23 39//39 24//24
f 24//24 39//39 25//25
f 26//26 41//41 42//42
f 26//26 42//42 40//40
f 30//30 31//31 44//44
f 30//30 44//44 43//43
f 34//34 46//46 44//44
f 35//35 44//44 47//47
f 35//35 47//47 48//48
f 35//35 48//48 49//49
f 35//35 49//49 36//36
f 36//36 49//49 50//50
f 36//36 50//50 37//37
f 37//37 50//50 39//39
f 37//37 39//39 38//38
f 39//39 50//50 41//41
f 40//40 42//42 51//51
f 41//41 50//50 49//49
f 41//41 49//49 42//42
f 42//42 52//52 53//53
f 42//42 53//53 54//54
f 42//42 54//54 51//51
f 42//42 49//49 48//48
f 42//42 48//48 47//47
f 42//42 47//47 52//52
f 43//43 44//44 55//55
f 44//44 56//56 47//47
f 44//44 46//46 57//57
f 44//44 57//57 55//55
f 45//45 58//58 52//52
f 45//45 52//52 59//59
f 45//45 59//59 60//60
f 47//47 56//56 59//59
f 47//47 59//59 52//52
f 52//52 58//58 53//53
f 56//56 61//61 59//59
f 59//59 61//61 60//60

