# https://github.com/mikedh/trimesh
v -2.04524226 -0.80857534 0.87668572
v -2.04524226 -0.88926715 0.91942827
v -2.10736176 -0.80857534 0.88953976
v -2.23556331 -0.71339808 0.89121185
v -2.23556331 -0.61822083 0.89089841
v -1.76013579 -0.80857534 0.89110737
v -1.76013579 -0.90365980 0.88943528
v -1.76013579 -0.91378108 0.89591461
v -2.01611048 -0.91378108 0.93594006
v -2.10736176 -0.87663873 0.93008782
v -2.14045637 -0.80857534 0.89643714
v -2.22678083 -0.80300407 0.92987879
v -2.29114940 -0.76771880 0.94273290
v -2.30742898 -0.71339808 0.92757961
v -2.32038835 -0.61822083 0.91984632
v -2.32402980 -0.52322922 0.92392200
v -2.32413698 -0.42823764 0.93113282
v -2.23556331 -0.52322922 0.90532006
v -1.78744691 -0.25385428 1.02738201
v -1.66492168 -0.80736823 0.92266797
v -1.66063761 -0.90625980 0.92015976
v -2.23213591 -0.42619480 0.93008782
v -1.66438624 -0.91378108 0.92235439
v -1.74846164 -0.91378108 0.89737767
v -2.22645960 -0.91387401 1.32072786
v -2.24488122 -0.91387401 1.32271339
v -2.32724299 -0.91387401 1.37036772
v -2.33602533 -0.91387401 1.37768310
v -2.05991539 -0.91378108 0.98474395
v -2.49849953 -0.79548271 1.09875903
v -2.10736176 -0.88796719 0.95590051
v -2.14045637 -0.86986028 0.93583558
v -2.18908078 -0.85667473 0.95025723
v -2.49849953 -0.71488375 1.07064709
v -2.37179755 -0.42823764 0.96070782
v -2.30860717 -0.36890274 0.94210588
v -2.26148204 -0.36890274 0.94210588
v -1.79912106 -0.17752673 1.11004560
v -1.41740808 -0.55758590 1.22782278
v -1.60901421 -0.83819641 0.94221036
v -1.85513555 -0.24484725 1.02351530
v -1.85513555 -0.19721218 1.05058216
v -1.88694494 0.01199216 1.21967143
v -1.60901421 -0.87626731 0.94221036
v -1.65292615 -0.91378108 0.92893827
v -2.10736176 -0.91387401 1.35699115
v -2.34148758 -0.91387401 1.38635698
v -2.38925532 -0.91387401 1.51427132
v -2.49849953 -0.79223274 1.15958098
v -2.49849953 -0.61942794 1.09666889
v -2.38539938 -0.36899560 1.02226126
v -2.32895662 -0.33723887 1.00156932
v -2.00325814 0.00539938 1.23074890
v -1.95024249 0.01319926 1.21925338
v -1.42608338 -0.47457273 1.32950623
v -1.41141039 -0.52480778 1.29251144
v -1.40830437 -0.59974251 1.28436010
v -1.41740808 -0.58377125 1.22782278
v -1.87944783 0.01923491 1.28436010
v -1.50512494 -0.27353973 1.59777088
v -1.95024249 0.03474186 1.28436010
v -1.54036158 -0.90365980 1.08600940
v -1.53661310 -0.91378108 1.09760948
v -1.58887897 -0.90625980 0.99414940
v -1.59723303 -0.91378108 0.98631156
v -2.10736176 -0.91387401 1.49849102
v -1.59037839 -0.91378108 0.99759812
v -1.52022634 -0.91378108 1.13512680
v -1.51615648 -0.91378108 1.18926039
v -1.51604930 -0.91378108 1.19991994
v -2.49849953 -0.45990151 1.51427132
v -2.49849953 -0.64747041 1.33619458
v -2.20943023 -0.91387401 1.51427132
v -2.02007331 -0.66000591 1.90668793
v -2.02007331 -0.61794227 1.94326465
v -2.49849953 -0.34225308 1.29303398
v -2.49849953 -0.30613213 1.36430652
v -2.28590135 -0.28421815 1.04431186
v -2.01396845 0.01542781 1.28436010
v -1.42672599 -0.37920973 1.61574580
v -1.40444872 -0.52313636 1.56965894
v -1.41087481 -0.59259257 1.56965894
v -1.88737335 0.01357068 1.35876772
v -1.49805623 -0.26666839 1.66475865
v -2.01386127 0.01496353 1.36169384
v -1.95024249 0.02146345 1.37423444
v -2.05509575 -0.91378108 1.49420625
v -1.51808430 -0.91378108 1.24966442
v -1.54046875 -0.91378108 1.29616920
v -1.54443158 -0.91378108 1.30348458
v -1.58695114 -0.91378108 1.35625951
v -1.59444825 -0.91378108 1.36158936
v -1.66535008 -0.91378108 1.39105981
v -1.67595321 -0.91378108 1.39544892
v -1.76034999 -0.91378108 1.42178429
v -1.84924489 -0.91378108 1.44602952
v -2.02007331 -0.52907912 1.94420525
v -2.49849953 -0.31736769 1.51427132
v -1.95034952 -0.68795553 1.84105867
v -1.57838301 -0.60020678 1.86133270
v -1.61576168 -0.57105001 1.90282122
v -2.49849953 -0.31411775 1.47654490
v -1.42672599 -0.37920973 1.61888088
v -1.42201338 -0.42814478 1.63121252
v -1.41312402 -0.52313636 1.65357656
v -1.41494467 -0.58757836 1.64897835
v -1.56981474 -0.26211845 1.74460060
v -1.50715994 -0.27242546 1.72777522
v -1.45189494 -0.34169596 1.65629372
v -1.95024249 -0.00871471 1.42178429
v -2.49849953 -0.31653200 1.50507490
v -1.68880555 -0.27613969 1.81566404
v -1.50812378 -0.59045688 1.83374344
v -2.02007331 -0.52490063 1.94169719
v -1.61576168 -0.56993572 1.90282122
v -1.73775134 -0.27613969 1.81566404
v -1.57838301 -0.53223624 1.88296524
v -1.43925695 -0.42814478 1.67865776
v -1.43165267 -0.52313636 1.70123089
v -1.51679909 -0.46287289 1.81921717
v -1.50748117 -0.52313636 1.83593793
v -1.49484304 -0.33306035 1.74083836
v -1.62529380 -0.30455360 1.80322792
v -1.46442604 -0.52313636 1.75985822
vn -0.06692122 -0.18385106 -0.98067341
vn -0.19470305 -0.60411518 -0.77274548
vn -0.18985681 -0.35682138 -0.91467639
vn -0.28261441 -0.17738413 -0.94268975
vn -0.13467083 0.07235153 -0.98824543
vn 0.19044190 0.12234800 -0.97404458
vn 0.09816627 -0.27326317 -0.95691725
vn -0.00348427 -0.86038389 -0.50963460
vn -0.12173161 -0.90568680 -0.40609463
vn -0.25575871 -0.63579657 -0.72825147
vn -0.25817209 -0.39864746 -0.88001556
vn -0.39714064 -0.49181112 -0.77485556
vn -0.45417788 -0.45111056 -0.76825889
vn -0.50455030 -0.24738336 -0.82718225
vn -0.49284255 -0.03836083 -0.86927249
vn -0.44412724 0.04159000 -0.89499791
vn -0.33477959 0.18050221 -0.92484679
vn -0.00094798 0.18994334 -0.98179460
vn 0.43673563 0.46291006 -0.77134704
vn 0.36520717 0.16333196 -0.91648589
vn 0.38760016 -0.22385990 -0.89423311
vn 0.09965546 0.24694916 -0.96389050
vn 0.21165277 -0.82309343 -0.52699176
vn 0.13866334 -0.83184464 -0.53740764
vn -0.00000258 -0.99999999 -0.00012606
vn -0.00009313 -0.99999998 -0.00019039
vn -0.00021720 -0.99999994 -0.00026829
vn -0.16414900 -0.98054343 -0.10765540
vn -0.16782041 -0.97532595 -0.14344200
vn -0.78361119 -0.51866049 -0.34197192
vn -0.31850117 -0.90318078 -0.28778721
vn -0.32254540 -0.74078359 -0.58924030
vn -0.38094518 -0.72895806 -0.56877141
vn -0.87847660 -0.07872627 -0.47125474
vn -0.69299132 0.23726221 -0.68078607
vn -0.31064464 0.49049062 -0.81419829
vn 0.02980288 0.37790231 -0.92536568
vn 0.69973212 0.57175652 -0.42833334
vn 0.86392878 0.25379384 -0.43498936
vn 0.61451562 0.09680407 -0.78294286
vn 0.07878757 0.41600691 -0.90594192
vn 0.11611044 0.58918668 -0.79961080
vn 0.35507297 0.80963649 -0.46734563
vn 0.66774705 -0.19318002 -0.71888480
vn 0.34096411 -0.81873901 -0.46196309
vn 0.00007266 -1.00000000 -0.00005935
vn -0.20531310 -0.97440959 -0.09150126
vn -0.55198504 -0.74463829 0.37526835
vn -0.94587288 -0.32051947 0.05090930
vn -0.95134320 0.11311959 -0.28661835
vn -0.72412485 0.52700852 -0.44486540
vn -0.50679581 0.71852280 -0.47632237
vn -0.36295275 0.82865755 -0.42613608
vn -0.08732241 0.82523934 -0.55799179
vn 0.82654982 0.50294256 -0.25271363
vn 0.94777909 0.26702862 -0.17438609
vn 0.98609587 -0.14574772 -0.07982817
vn 0.93381363 -0.07401537 -0.35001974
vn 0.45073231 0.89123023 -0.05048825
vn 0.74641423 0.64059447 -0.18029010
vn -0.03898531 0.99627850 -0.07687200
vn 0.88043429 -0.16803779 -0.44339458
vn 0.58997773 -0.75793757 -0.27831083
vn 0.83293531 -0.29556021 -0.46782789
vn 0.47018494 -0.81797357 -0.33142927
vn 0.00194314 -0.99992356 0.01221019
vn 0.49371947 -0.82351778 -0.27939139
vn 0.63370527 -0.75053075 -0.18740657
vn 0.59375674 -0.80412502 -0.02891173
vn 0.58492902 -0.81107376 0.00417026
vn -0.90703479 -0.06569186 0.41589960
vn -0.98509270 -0.12524175 0.11792743
vn 0.01464312 -0.95740015 0.28839301
vn -0.05087098 -0.73455556 0.67663895
vn -0.24457950 -0.31538282 0.91690487
vn -0.90937365 0.35317716 -0.21978504
vn -0.85682924 0.50843582 -0.08565438
vn -0.51868899 0.75714322 -0.39710939
vn -0.43516388 0.89137856 -0.12679375
vn 0.91900499 0.38807803 -0.06946410
vn 0.99874112 0.03785665 0.03290978
vn 0.97134651 -0.23309859 0.04637896
vn 0.32001677 0.91731657 0.23689569
vn 0.71712496 0.69493365 0.05290575
vn -0.35360332 0.89046630 0.28641660
vn 0.00148443 0.93607124 0.35180738
vn 0.05229377 -0.95814842 0.28145508
vn 0.57051275 -0.81738559 0.07997497
vn 0.38527732 -0.90280461 0.19106340
vn 0.35604468 -0.90955963 0.21432094
vn 0.26296237 -0.93064403 0.25446507
vn 0.16466199 -0.94619839 0.27855884
vn 0.11182129 -0.95648131 0.26951718
vn 0.10265365 -0.95477908 0.27903250
vn 0.08322440 -0.95735104 0.27668155
vn 0.07119682 -0.95914612 0.27380600
vn -0.28272834 0.19980539 0.93815910
vn -0.79414967 0.44030761 0.41887410
vn 0.16199027 -0.83487904 0.52605717
vn 0.28002573 -0.72448988 0.62984125
vn 0.28096448 -0.34598343 0.89518402
vn -0.87945101 0.47451470 0.03743959
vn 0.93764003 0.31833840 0.13961318
vn 0.96456047 0.14592325 0.21983972
vn 0.96868596 0.04895452 0.24341522
vn 0.90481459 -0.32852395 0.27089216
vn 0.25423924 0.81254706 0.52452806
vn 0.61206544 0.61752680 0.49400056
vn 0.88860462 0.38748193 0.24543751
vn -0.13329925 0.80003547 0.58495688
vn -0.87941315 0.47421342 0.04188246
vn 0.16590924 0.62613541 0.76185863
vn 0.64367975 -0.42913240 0.63365744
vn -0.28284298 0.54919972 0.78637111
vn 0.26108742 0.11672445 0.95823210
vn -0.09154249 0.66724627 0.73919036
vn 0.40628529 0.17757744 0.89632501
vn 0.89306102 0.19009625 0.40780564
vn 0.90132903 0.03828245 0.43143996
vn 0.55619041 0.32962063 0.76289086
vn 0.70796698 0.12210435 0.69561001
vn 0.79963116 0.25828969 0.54210372
vn 0.37605663 0.41817510 0.82686819
vn 0.86914220 0.07791372 0.48838642
f 1//1 2//2 3//3
f 1//1 3//3 4//4
f 1//1 4//4 5//5
f 1//1 5//5 6//6
f 1//1 6//6 7//7
f 1//1 7//7 2//2
f 2//2 7//7 8//8
f 2//2 8//8 9//9
f 2//2 9//9 10//10
f 2//2 10//10 11//11
f 2//2 11//11 3//3
f 3//3 11//11 4//4
f 4//4 11//11 12//12
f 4//4 12//12 13//13
f 4//4 13//13 14//14
f 4//4 14//14 15//15
f 4//4 15//15 5//5
f 5//5 15//15 16//16
f 5//5 16//16 17//17
f 5//5 17//17 18//18
f 5//5 18//18 6//6
f 6//6 19//19 20//20
f 6//6 20//20 21//21
f 6//6 21//21 7//7
f 6//6 18//18 22//22
f 6//6 22//22 19//19
f 7//7 21//21 23//23
f 7//7 23//23 24//24
f 7//7 24//24 8//8
f 8//8 24//24 25//25
f 8//8 25//25 26//26
f 8//8 26//26 9//9
f 9//9 26//26 27//27
f 9//9 27//27 28//28
f 9//9 28//28 29//29
f 9//9 29//29 30//30
f 9//9 30//30 31//31
f 9//9 31//31 32//32
f 9//9 32//32 10//10
f 10//10 32//32 11//11
f 11//11 32//32 12//12
f 12//12 32//32 33//33
f 12//12 33//33 30//30
f 12//12 30//30 13//13
f 13//13 30//30 14//14
f 14//14 30//30 34//34
f 14//14 34//34 15//15
f 15//15 34//34 35//35
f 15//15 35//35 16//16
f 16//16 35//35 17//17
f 17//17 35//35 36//36
f 17//17 36//36 18//18
f 18//18 36//36 37//37
f 18//18 37//37 22//22
f 19//19 38//38 39//39
f 19//19 39//39 40//40
f 19//19 40//40 20//20
f 19//19 22//22 37//37
f 19//19 37//37 41//41
f 19//19 41//41 42//42
f 19//19 42//42 43//43
f 19//19 43//43 38//38
f 20//20 40//40 21//21
f 21//21 40//40 44//44
f 21//21 44//44 45//45
f 21//21 45//45 23//23
f 23//23 45//45 46//46
f 23//23 46//46 25//25
f 23//23 25//25 24//24
f 25//25 46//46 66//66
f 25//25 66//66 73//73
f 25//25 73//73 48//48
f 25//25 48//48 47//47
f 25//25 47//47 28//28
f 25//25 28//28 27//27
f 25//25 27//27 26//26
f 28//28 47//47 30//30
f 28//28 30//30 29//29
f 30//30 47//47 48//48
f 30//30 48//48 49//49
f 30//30 49//49 72//72
f 30//30 72//72 71//71
f 30//30 71//71 98//98
f 30//30 98//98 111//111
f 30//30 111//111 102//102
f 30//30 102//102 77//77
f 30//30 77//77 76//76
f 30//30 76//76 50//50
f 30//30 50//50 34//34
f 30//30 33//33 32//32
f 30//30 32//32 31//31
f 34//34 50//50 35//35
f 35//35 50//50 51//51
f 35//35 51//51 36//36
f 36//36 51//51 52//52
f 36//36 52//52 53//53
f 36//36 53//53 54//54
f 36//36 54//54 42//42
f 36//36 42//42 37//37
f 37//37 42//42 41//41
f 38//38 43//43 39//39
f 39//39 55//55 56//56
f 39//39 56//56 57//57
f 39//39 57//57 58//58
f 39//39 58//58 44//44
f 39//39 44//44 40//40
f 39//39 43//43 55//55
f 42//42 54//54 43//43
f 43//43 59//59 60//60
f 43//43 60//60 55//55
f 43//43 54//54 61//61
f 43//43 61//61 59//59
f 44//44 58//58 62//62
f 44//44 62//62 63//63
f 44//44 63//63 64//64
f 44//44 64//64 65//65
f 44//44 65//65 45//45
f 45//45 65//65 46//46
f 46//46 65//65 67//67
f 46//46 67//67 63//63
f 46//46 63//63 68//68
f 46//46 68//68 69//69
f 46//46 69//69 70//70
f 46//46 70//70 66//66
f 48//48 71//71 72//72
f 48//48 72//72 49//49
f 48//48 73//73 74//74
f 48//48 74//74 75//75
f 48//48 75//75 71//71
f 50//50 76//76 51//51
f 51//51 76//76 77//77
f 51//51 77//77 78//78
f 51//51 78//78 52//52
f 52//52 78//78 53//53
f 53//53 79//79 61//61
f 53//53 61//61 54//54
f 53//53 78//78 77//77
f 53//53 77//77 79//79
f 55//55 60//60 80//80
f 55//55 80//80 56//56
f 56//56 81//81 57//57
f 56//56 80//80 81//81
f 57//57 81//81 82//82
f 57//57 82//82 70//70
f 57//57 70//70 69//69
f 57//57 69//69 68//68
f 57//57 68//68 58//58
f 58//58 68//68 63//63
f 58//58 63//63 62//62
f 59//59 61//61 83//83
f 59//59 83//83 84//84
f 59//59 84//84 60//60
f 60//60 84//84 80//80
f 61//61 79//79 85//85
f 61//61 85//85 86//86
f 61//61 86//86 83//83
f 63//63 67//67 64//64
f 64//64 67//67 65//65
f 66//66 87//87 73//73
f 66//66 70//70 88//88
f 66//66 88//88 89//89
f 66//66 89//89 90//90
f 66//66 90//90 91//91
f 66//66 91//91 92//92
f 66//66 92//92 93//93
f 66//66 93//93 94//94
f 66//66 94//94 95//95
f 66//66 95//95 96//96
f 66//66 96//96 87//87
f 70//70 82//82 88//88
f 71//71 75//75 97//97
f 71//71 97//97 98//98
f 73//73 87//87 74//74
f 74//74 87//87 96//96
f 74//74 96//96 95//95
f 74//74 95//95 99//99
f 74//74 99//99 100//100
f 74//74 100//100 101//101
f 74//74 101//101 75//75
f 75//75 101//101 97//97
f 77//77 102//102 85//85
f 77//77 85//85 79//79
f 80//80 84//84 103//103
f 80//80 103//103 81//81
f 81//81 103//103 104//104
f 81//81 104//104 105//105
f 81//81 105//105 106//106
f 81//81 106//106 82//82
f 82//82 106//106 88//88
f 83//83 86//86 107//107
f 83//83 107//107 108//108
f 83//83 108//108 84//84
f 84//84 108//108 109//109
f 84//84 109//109 103//103
f 85//85 110//110 86//86
f 85//85 102//102 111//111
f 85//85 111//111 98//98
f 85//85 98//98 110//110
f 86//86 110//110 112//112
f 86//86 112//112 107//107
f 88//88 106//106 89//89
f 89//89 106//106 113//113
f 89//89 113//113 90//90
f 90//90 113//113 91//91
f 91//91 113//113 92//92
f 92//92 113//113 100//100
f 92//92 100//100 93//93
f 93//93 100//100 94//94
f 94//94 100//100 99//99
f 94//94 99//99 95//95
f 97//97 114//114 98//98
f 97//97 101//101 115//115
f 97//97 115//115 112//112
f 97//97 112//112 116//116
f 97//97 116//116 114//114
f 98//98 114//114 116//116
f 98//98 116//116 110//110
f 100//100 113//113 101//101
f 101//101 113//113 117//117
f 101//101 117//117 115//115
f 103//103 109//109 118//118
f 103//103 118//118 104//104
f 104//104 118//118 105//105
f 105//105 118//118 119//119
f 105//105 119//119 106//106
f 106//106 119//119 113//113
f 107//107 112//112 108//108
f 108//108 120//120 121//121
f 108//108 121//121 122//122
f 108//108 122//122 109//109
f 108//108 112//112 123//123
f 108//108 123//123 117//117
f 108//108 117//117 120//120
f 109//109 122//122 118//118
f 110//110 116//116 112//112
f 112//112 115//115 117//117
f 112//112 117//117 123//123
f 113//113 119//119 124//124
f 113//113 124//124 121//121
f 113//113 121//121 117//117
f 117//117 121//121 120//120
f 118//118 122//122 124//124
f 118//118 124//124 119//119
f 121//121 124//124 122//122

