# https://github.com/mikedh/trimesh
v 2.12104397 -1.09386851 0.82687865
v 2.26455687 -1.09386851 0.82687865
v 1.74215703 -1.09386851 1.55530421
v 1.91208398 -1.05343116 -1.41275033
v 2.32615397 -1.09386851 1.09384363
v 2.00244797 -1.05343116 -1.41275033
v 2.29032930 -1.05343116 -0.78024026
v 2.30059546 -1.05343116 -0.73867690
v 1.96320115 -1.09386851 1.55530421
v 1.91015913 -0.50098561 1.55530421
v 1.99678016 0.00174577 0.19277007
v 1.80097375 -0.46459201 -2.31222538
v 1.80086686 -0.46352159 -2.33034277
v 1.79562675 -0.45115253 -3.36143542
v 1.79562675 -0.49266028 -3.36143542
v 2.35331667 -0.48088587 -3.88843800
v 2.33310516 -1.09386851 1.18869355
v 2.30562165 -1.05343116 -0.71416516
v 2.31107554 -1.05343116 -0.65928009
v 2.39117337 -0.48076694 -3.88843800
v 2.43972393 -0.45674240 -3.88843800
v 2.47266132 -0.43699945 -3.88843800
v 2.78139578 -0.31973116 -3.28150572
v 2.00030920 -1.06413516 1.55530421
v 2.30476612 -1.09386851 1.25903181
v 1.95379038 -0.43319358 1.55530421
v 2.04565153 0.04170739 0.14268082
v 1.99603151 0.00352975 0.14268082
v 2.48036101 0.12115485 1.55530421
v 1.86727624 -0.36242823 -3.28150572
v 1.85401577 -0.39275624 -3.36143542
v 2.16638630 -0.35897915 -3.83195441
v 2.16638630 -0.36873171 -3.83248744
v 1.99656624 0.00293509 0.08513146
v 2.16638630 -0.40500637 -3.83248744
v 2.24391752 -0.41416427 -3.88843800
v 2.59318217 -0.14882389 1.55530421
v 2.58462709 -0.16987510 1.55530421
v 2.48848826 -0.40346024 1.55530421
v 2.31300039 -1.05343116 -0.61878235
v 2.77198502 -0.38990185 -2.52110811
v 2.81069725 -0.33317064 -2.52110811
v 2.49757807 -0.41571040 -3.88843800
v 2.77123651 -0.30331835 -3.34171937
v 2.80609876 -0.23802392 -3.28150572
v 2.81144576 -0.23802392 -3.18612277
v 2.00661862 -1.05699919 1.55530421
v 2.33535082 0.12115485 0.42776319
v 2.18542161 0.12115485 -1.03761379
v 2.18371053 0.12115485 -1.09463027
v 2.18435215 0.12115485 -1.11860919
v 2.62141419 0.12115485 1.55530421
v 2.18617011 0.12115485 -1.15910686
v 2.42336198 0.12115485 -2.31222538
v 1.87893281 -0.36885064 -3.35557382
v 1.87294419 -0.37562984 -3.36143542
v 2.16638630 -0.34446929 -3.79358808
v 2.27910057 -0.28393220 -3.81223836
v 2.42913681 -0.22874712 -3.88843800
v 2.24819506 -0.34387463 -3.88843800
v 2.62216269 -0.04773053 1.55530421
v 2.83454483 -0.23802392 -2.52110811
v 2.52741427 -0.33317064 -3.88843800
v 2.77979160 -0.23802392 -3.35131074
v 2.80631282 -0.22874712 -3.28150572
v 2.81112509 -0.22874712 -3.19571443
v 2.80374607 -0.22874712 -3.28949858
v 2.83401010 -0.22874712 -2.52110811
v 2.66975097 0.12115485 0.31053307
v 2.55714358 0.12115485 -2.31222538
v 2.54067474 -0.22874712 -3.88843800
v 2.54088880 -0.23707246 -3.88843800
v 2.77989849 -0.22874712 -3.35237651
v 2.56997621 0.12115485 -2.19126520
v 2.68065874 0.12079811 -0.71416516
v 2.68012402 0.12115485 -0.71309939
vn -0.01202812 -0.99986674 -0.01103757
vn 0.04787700 -0.99873318 -0.01548610
vn -0.64975451 -0.50390172 0.56912400
vn -0.52239464 -0.84541286 -0.11126964
vn 0.17033351 -0.98530014 -0.01304324
vn 0.14633478 -0.97999201 -0.13491401
vn 0.30619693 -0.94802062 -0.08660457
vn 0.35368058 -0.93226601 -0.07609298
vn 0.11101907 -0.70347880 0.70199169
vn -0.65583542 0.27044579 0.70479711
vn -0.80866475 0.58300036 0.07856144
vn -0.97025895 0.24121317 0.02034134
vn -0.97059679 0.24055878 0.00856445
vn -0.89901070 0.31864051 -0.30041303
vn -0.78496482 -0.51180603 -0.34912005
vn -0.11713759 -0.63522552 -0.76339199
vn 0.60518731 -0.78789657 0.11387416
vn 0.43505297 -0.89877447 -0.05416059
vn 0.53439188 -0.84453175 -0.03451734
vn 0.17449569 -0.66378649 -0.72728175
vn 0.32006686 -0.58152409 -0.74792175
vn 0.38458559 -0.54913674 -0.74198569
vn 0.81481317 -0.56079743 -0.14692082
vn 0.30970101 -0.34383448 0.88648922
vn 0.49386774 -0.80702780 0.32372949
vn -0.53122688 0.40384158 0.74478855
vn -0.46784835 0.88303504 0.03697352
vn -0.82269119 0.56820806 0.01785518
vn -0.25244542 0.70726480 0.66033917
vn -0.63525423 0.76469444 -0.10814099
vn -0.66838610 0.69346992 -0.26899718
vn -0.65969945 0.44551520 -0.60523784
vn -0.68821655 0.02265056 -0.72515166
vn -0.75632882 0.65398590 -0.01640595
vn -0.63808689 -0.36864629 -0.67597710
vn -0.37530383 -0.33206683 -0.86537775
vn 0.65613699 -0.20039570 0.72754781
vn 0.54838243 -0.22320649 0.80588806
vn 0.53673058 -0.24212393 0.80826746
vn 0.66809877 -0.74365163 -0.02502575
vn 0.79053474 -0.61132183 -0.03661203
vn 0.91615266 -0.40081669 -0.00320590
vn 0.51871510 -0.41308054 -0.74853131
vn 0.87780975 -0.35794946 -0.31831153
vn 0.97181020 -0.14690700 -0.18439976
vn 0.98734967 -0.15273758 -0.04256584
vn 0.32994010 -0.27278136 0.90373108
vn -0.15174890 0.98824339 0.01863504
vn -0.21125895 0.97740414 0.00712800
vn -0.31833518 0.94794523 -0.00790874
vn -0.35397315 0.93512554 -0.01559598
vn 0.55959462 0.58138188 0.59063439
vn -0.39715905 0.91724869 -0.03032390
vn -0.24750386 0.96172075 -0.11762246
vn -0.54591689 0.80974401 -0.21514970
vn -0.62392952 0.73173737 -0.27435812
vn -0.50387302 0.81225915 -0.29384868
vn -0.45994397 0.84190339 -0.28222370
vn -0.16269864 0.65512931 -0.73779045
vn -0.36878428 0.35399592 -0.85946788
vn 0.71000357 -0.09541016 0.69770469
vn 0.99531189 -0.09614121 0.01054068
vn 0.55900268 -0.14576087 -0.81625349
vn 0.91972312 -0.11327152 -0.37587091
vn 0.88125486 0.43320183 -0.18901334
vn 0.94922504 0.31060935 -0.04993647
vn 0.83431052 0.46041158 -0.30322785
vn 0.95780248 0.28727227 -0.00943636
vn 0.65022752 0.75934374 0.02452070
vn 0.34887487 0.93144422 -0.10343110
vn 0.44032931 0.53574212 -0.72047934
vn 0.56330795 -0.03294653 -0.82558990
vn 0.81116695 0.47561297 -0.34029471
vn 0.40433097 0.91405670 -0.03188766
vn 0.76074175 0.64893096 -0.01267242
vn 0.29510251 0.95546472 -0.00129781
f 1//1 2//2 5//5
f 1//1 5//5 17//17
f 1//1 17//17 25//25
f 1//1 25//25 9//9
f 1//1 9//9 3//3
f 1//1 3//3 4//4
f 1//1 4//4 6//6
f 1//1 6//6 2//2
f 2//2 6//6 7//7
f 2//2 7//7 8//8
f 2//2 8//8 5//5
f 3//3 9//9 24//24
f 3//3 24//24 47//47
f 3//3 47//47 39//39
f 3//3 39//39 38//38
f 3//3 38//38 37//37
f 3//3 37//37 61//61
f 3//3 61//61 52//52
f 3//3 52//52 29//29
f 3//3 29//29 26//26
f 3//3 26//26 10//10
f 3//3 10//10 11//11
f 3//3 11//11 12//12
f 3//3 12//12 13//13
f 3//3 13//13 14//14
f 3//3 14//14 15//15
f 3//3 15//15 4//4
f 4//4 15//15 16//16
f 4//4 16//16 6//6
f 5//5 8//8 18//18
f 5//5 18//18 19//19
f 5//5 19//19 17//17
f 6//6 16//16 20//20
f 6//6 20//20 7//7
f 7//7 20//20 21//21
f 7//7 21//21 22//22
f 7//7 22//22 8//8
f 8//8 22//22 23//23
f 8//8 23//23 18//18
f 9//9 25//25 24//24
f 10//10 26//26 11//11
f 11//11 27//27 28//28
f 11//11 28//28 12//12
f 11//11 26//26 29//29
f 11//11 29//29 27//27
f 12//12 28//28 13//13
f 13//13 28//28 14//14
f 14//14 30//30 31//31
f 14//14 31//31 32//32
f 14//14 32//32 33//33
f 14//14 33//33 35//35
f 14//14 35//35 15//15
f 14//14 28//28 34//34
f 14//14 34//34 30//30
f 15//15 35//35 16//16
f 16//16 35//35 36//36
f 16//16 36//36 60//60
f 16//16 60//60 59//59
f 16//16 59//59 71//71
f 16//16 71//71 72//72
f 16//16 72//72 63//63
f 16//16 63//63 43//43
f 16//16 43//43 22//22
f 16//16 22//22 21//21
f 16//16 21//21 20//20
f 17//17 37//37 38//38
f 17//17 38//38 39//39
f 17//17 39//39 25//25
f 17//17 19//19 40//40
f 17//17 40//40 41//41
f 17//17 41//41 42//42
f 17//17 42//42 37//37
f 18//18 23//23 19//19
f 19//19 23//23 41//41
f 19//19 41//41 40//40
f 22//22 43//43 23//23
f 23//23 43//43 44//44
f 23//23 44//44 45//45
f 23//23 45//45 46//46
f 23//23 46//46 42//42
f 23//23 42//42 41//41
f 24//24 25//25 47//47
f 25//25 39//39 47//47
f 27//27 34//34 28//28
f 27//27 29//29 48//48
f 27//27 48//48 49//49
f 27//27 49//49 50//50
f 27//27 50//50 51//51
f 27//27 51//51 34//34
f 29//29 52//52 69//69
f 29//29 69//69 76//76
f 29//29 76//76 74//74
f 29//29 74//74 70//70
f 29//29 70//70 54//54
f 29//29 54//54 53//53
f 29//29 53//53 51//51
f 29//29 51//51 50//50
f 29//29 50//50 49//49
f 29//29 49//49 48//48
f 30//30 53//53 54//54
f 30//30 54//54 55//55
f 30//30 55//55 31//31
f 30//30 34//34 53//53
f 31//31 56//56 32//32
f 31//31 55//55 56//56
f 32//32 56//56 55//55
f 32//32 55//55 57//57
f 32//32 57//57 58//58
f 32//32 58//58 59//59
f 32//32 59//59 60//60
f 32//32 60//60 33//33
f 33//33 60//60 36//36
f 33//33 36//36 35//35
f 34//34 51//51 53//53
f 37//37 42//42 61//61
f 42//42 46//46 62//62
f 42//42 62//62 61//61
f 43//43 63//63 44//44
f 44//44 64//64 45//45
f 44//44 63//63 64//64
f 45//45 65//65 66//66
f 45//45 66//66 46//46
f 45//45 64//64 67//67
f 45//45 67//67 65//65
f 46//46 66//66 62//62
f 52//52 61//61 62//62
f 52//52 62//62 68//68
f 52//52 68//68 69//69
f 54//54 59//59 55//55
f 54//54 70//70 71//71
f 54//54 71//71 59//59
f 55//55 59//59 58//58
f 55//55 58//58 57//57
f 62//62 66//66 68//68
f 63//63 72//72 64//64
f 64//64 73//73 67//67
f 64//64 72//72 73//73
f 65//65 67//67 70//70
f 65//65 70//70 74//74
f 65//65 74//74 75//75
f 65//65 75//75 66//66
f 66//66 75//75 68//68
f 67//67 73//73 70//70
f 68//68 75//75 69//69
f 69//69 75//75 76//76
f 70//70 73//73 71//71
f 71//71 73//73 72//72
f 74//74 76//76 75//75

