# https://github.com/mikedh/trimesh
v -2.66697667 -1.04911421 0.84829791
v -2.65600227 -1.04911421 0.84829791
v -2.66679295 -1.04865781 0.90364612
v -2.69292035 -0.99867828 0.90364612
v -2.66840025 -0.38660006 -0.87276967
v -2.61137031 -0.38911043 -0.87276967
v -2.65710433 -1.04865781 0.90364612
v -2.56834509 -0.95166557 0.66512141
v -2.56637062 -0.95737094 0.71335357
v -2.56591160 -0.95874030 0.76791117
v -2.66449725 -1.04683205 0.95214182
v -2.68548179 -0.99981933 0.98983124
v -2.71684364 -0.90373997 0.99852894
v -2.71665991 -0.90373997 0.90364612
v -2.76188897 -0.38363322 -0.10158379
v -2.68029300 -0.33274082 -0.87276967
v -2.67772142 0.09516622 -1.07465897
v -2.64939018 0.09516622 -1.12236392
v -2.60071714 0.09516622 -1.17823934
v -2.44753504 0.09516622 -1.17823934
v -2.66256871 -1.04683205 0.95214182
v -2.49877937 -0.79556508 1.09841937
v -2.49877937 -0.79214180 1.15930242
v -2.68148692 -0.96878184 1.06521036
v -2.69728267 -0.32863289 1.51405853
v -2.70495089 -0.23780250 1.51405853
v -2.71445579 0.14263537 1.51432207
v -2.78062346 -0.23780250 -0.04728979
v -2.77492971 -0.33296902 -0.04728979
v -2.76652687 -0.36583231 -0.08234368
v -2.76886851 -0.32954577 -0.13690127
v -2.77713383 -0.23780250 -0.14269964
v -2.81868954 0.90351117 -0.61816767
v -2.69103775 0.09516622 -0.99875278
v -2.69604282 0.61823983 -1.09389913
v -2.68111947 0.71340631 -1.16189837
v -2.67762984 0.61823983 -1.15689075
v -2.67244105 0.52307324 -1.15082870
v -2.61008452 0.14491754 -1.17823934
v -2.42384142 1.28235146 -1.17823934
v -2.35069421 0.72778401 0.99879247
v -2.64002307 -0.96878184 1.06521036
v -2.56288100 -0.86174799 1.14533356
v -2.35161254 0.72687113 1.09367514
v -2.35583707 0.72664289 1.18882149
v -2.36258695 0.73234833 1.28396784
v -2.49877937 -0.64745220 1.33588979
v -2.49877937 -0.45985774 1.51405853
v -2.52160059 -0.45574981 1.51405853
v -2.61265581 -0.42653805 1.51405853
v -2.67942059 -0.39344655 1.51405853
v -2.68300208 -0.38523074 1.51405853
v -2.71142519 0.09516622 1.51432207
v -2.70467530 0.42813496 1.51432207
v -2.81744969 0.90351117 -0.33272869
v -2.81924043 0.90351117 -0.42787501
v -2.81974567 0.90351117 -0.52302129
v -2.77933796 -0.23780250 -0.08260724
v -2.77258779 -0.33159973 -0.08260724
v -2.79600611 0.99867765 -0.52302129
v -2.68988975 1.28235146 -0.90571501
v -2.69195609 1.18901075 -1.09389913
v -2.70844052 1.09384420 -1.09389913
v -2.70720095 0.99867765 -1.09389913
v -2.70563957 0.90351117 -1.09389913
v -2.70357324 0.80857285 -1.09389913
v -2.70017548 0.71340631 -1.09389913
v -2.68387449 0.80857285 -1.16585185
v -2.67248698 0.80857285 -1.17823934
v -2.66514000 0.71340631 -1.17823934
v -2.61867108 1.28235146 -1.17823934
v -2.51452919 1.28235146 1.51432207
v -2.44142791 1.09384420 1.47426040
v -2.35161254 0.80743174 1.09367514
v -2.35583707 0.80104165 1.18882149
v -2.36258695 0.78848971 1.28396784
v -2.37131144 0.74626956 1.35407566
v -2.42875462 0.99867765 1.51432207
v -2.44404542 0.90579333 1.51432207
v -2.60765074 0.09516622 1.51432207
v -2.70219588 0.46784471 1.51432207
v -2.75091456 0.99867765 0.52279737
v -2.74430248 1.09384420 0.52279737
v -2.69452737 1.28235146 -0.33483720
v -2.69521634 1.28235146 -0.71331388
v -2.69397648 1.28235146 -0.80846022
v -2.69393055 1.28235146 -0.81030512
v -2.67666529 1.28235146 -0.99848924
v -2.66536965 1.23830555 -1.14344897
v -2.67661964 1.18901075 -1.16189837
v -2.68617047 1.10046245 -1.17823934
v -2.68713474 1.09384420 -1.17823934
v -2.68672136 1.07284824 -1.17823934
v -2.68617047 0.99867765 -1.17402233
v -2.68309394 0.99867765 -1.17823934
v -2.65508393 1.21251710 -1.17823934
v -2.64686482 1.28235146 -1.09389913
v -2.61288547 1.28235146 1.51432207
v -2.44634112 1.09726748 1.51432207
v -2.42264749 0.99867765 1.47426040
v -2.37131144 0.77502489 1.35407566
v -2.69833880 0.52307324 1.51432207
v -2.71500696 1.09384420 0.80823624
v -2.70798149 1.18901075 0.52279737
v -2.69448144 1.28235146 -0.33272869
v -2.66628799 1.18901075 -1.17823934
v -2.67166051 1.16573255 -1.17823934
v -2.67345125 1.28235146 0.40946519
v -2.67707867 1.27185352 0.42765106
vn -0.52643138 -0.83417569 -0.16438045
vn 0.34410438 -0.93114889 -0.12063965
vn -0.52080496 -0.85305583 0.03252595
vn -0.93549307 -0.35308915 -0.01344460
vn -0.56473288 -0.63473055 -0.52744090
vn 0.43550650 -0.72670259 -0.53126024
vn 0.43011108 -0.90060760 0.06253324
vn 0.72362638 -0.65463485 -0.21867346
vn 0.83715549 -0.54075028 -0.08221814
vn 0.83476966 -0.55053261 0.00857099
vn -0.45298792 -0.85393046 0.25613418
vn -0.87778208 -0.44523787 0.17681027
vn -0.97553621 -0.18363051 0.12086744
vn -0.98226659 -0.18531368 -0.02848122
vn -0.96804318 -0.23248110 -0.09404750
vn -0.95196406 -0.16623221 -0.25716002
vn -0.92354966 -0.12111492 -0.36385052
vn -0.79439310 -0.18215338 -0.57944780
vn -0.34760426 -0.26643121 -0.89899148
vn 0.64540324 -0.26071870 -0.71796965
vn 0.36552779 -0.88968715 0.27358036
vn 0.96556528 -0.26016071 -0.00032316
vn 0.86370511 -0.43462152 0.25518152
vn -0.55498121 -0.62400951 0.55009816
vn -0.65848832 -0.08101503 0.74821768
vn -0.69215517 -0.02632439 0.72126850
vn -0.69341844 -0.00052703 0.72053493
vn -0.99907586 -0.04251699 0.00630320
vn -0.99262189 -0.11732862 -0.03059041
vn -0.98078416 -0.18404592 -0.06472657
vn -0.98471665 -0.14357539 -0.09858617
vn -0.99413180 -0.07541537 -0.07755312
vn -0.99104424 0.08840040 -0.10008338
vn -0.98232378 -0.07473876 -0.17162202
vn -0.96757885 -0.04283854 -0.24890968
vn -0.86449021 -0.05144293 -0.50001030
vn -0.84237768 -0.06200346 -0.53530871
vn -0.81970867 -0.08086635 -0.56704350
vn -0.43411176 -0.05771119 -0.89900857
vn 0.57325690 0.57573998 -0.58300944
vn 0.99942308 -0.03185809 -0.01177162
vn 0.28729438 -0.76538361 0.57589050
vn 0.47657586 -0.70436084 0.52607153
vn 0.99850735 -0.04778739 0.02644670
vn 0.99708899 -0.04831699 0.05898321
vn 0.99369462 -0.04721067 0.10169638
vn 0.72577183 -0.48278577 0.49007464
vn 0.56052630 -0.33006450 0.75951807
vn -0.08498112 -0.34384842 0.93517189
vn -0.13866412 -0.33232834 0.93291486
vn -0.43701355 -0.29752948 0.84881998
vn -0.57113277 -0.16664417 0.80376432
vn -0.00883624 -0.00068381 0.99996073
vn -0.68297463 0.03048698 0.72980559
vn -0.99270031 0.11674815 0.03026498
vn -0.99368006 0.11150570 0.01290060
vn -0.99459001 0.10380448 -0.00391776
vn -0.99778600 -0.05562546 -0.03645408
vn -0.98841661 -0.13383407 -0.07156145
vn -0.95765186 0.28778687 -0.00903530
vn -0.61429707 0.78673198 -0.06076102
vn -0.95450813 0.24177210 -0.17452933
vn -0.97338366 0.08565711 -0.21257261
vn -0.97086215 -0.01461984 -0.23919229
vn -0.96951487 -0.01943169 -0.24426077
vn -0.96871268 -0.02863331 -0.24652763
vn -0.96806244 -0.03942450 -0.24759001
vn -0.87471110 -0.03840557 -0.48312060
vn -0.40289402 -0.02512144 -0.91490181
vn -0.38843809 -0.03251763 -0.92090089
vn -0.28493539 0.68677142 -0.66869787
vn 0.44521412 0.65909419 0.60611816
vn 0.95814334 0.27778753 0.06924900
vn 0.99122072 0.12988685 0.02471630
vn 0.99175091 0.11142950 0.06335304
vn 0.99044733 0.09067324 0.10388674
vn 0.96628538 -0.03794137 0.25466256
vn 0.65286130 0.08161621 0.75306767
vn 0.00077458 -0.00012864 0.99999969
vn 0.00052194 -0.00023868 0.99999984
vn -0.67638546 0.04395357 0.73523520
vn -0.99531885 0.05951737 0.07614508
vn -0.97425647 0.21726475 0.06016942
vn -0.58085494 0.81397170 0.00758981
vn -0.58053209 0.81422316 -0.00480942
vn -0.58446356 0.81131941 -0.01277330
vn -0.59085090 0.80646957 -0.02240659
vn -0.58789021 0.80305844 -0.09737686
vn -0.84011514 0.43389807 -0.32548275
vn -0.89057211 0.25556906 -0.37625226
vn -0.60948609 0.09406391 -0.78719672
vn -0.63185235 0.04139115 -0.77398280
vn -0.61019834 -0.01252615 -0.79214966
vn -0.95677014 -0.02363584 -0.28988315
vn -0.42923397 -0.02107124 -0.90294751
vn -0.44784176 0.22064673 -0.86645991
vn -0.43045754 0.89212143 -0.13720664
vn -0.50663576 0.61119578 0.60807889
vn 0.66442487 0.18927001 0.72299133
vn 0.97714984 0.17148856 0.12557814
vn 0.97471902 0.04674901 0.21848880
vn -0.67540119 0.05632434 0.73529640
vn -0.98672795 0.12549699 0.10304590
vn -0.92651686 0.37385144 0.04244542
vn -0.57377100 0.81891695 0.01272280
vn -0.48768771 0.17545073 -0.85520626
vn -0.47924853 0.10747586 -0.87107393
vn -0.55932481 0.82872938 0.01906225
vn -0.91643355 0.39742678 0.04692013
f 1//1 2//2 7//7
f 1//1 7//7 3//3
f 1//1 3//3 4//4
f 1//1 4//4 5//5
f 1//1 5//5 6//6
f 1//1 6//6 2//2
f 2//2 6//6 8//8
f 2//2 8//8 9//9
f 2//2 9//9 10//10
f 2//2 10//10 7//7
f 3//3 7//7 21//21
f 3//3 21//21 11//11
f 3//3 11//11 4//4
f 4//4 11//11 12//12
f 4//4 12//12 13//13
f 4//4 13//13 14//14
f 4//4 14//14 15//15
f 4//4 15//15 5//5
f 5//5 15//15 16//16
f 5//5 16//16 17//17
f 5//5 17//17 18//18
f 5//5 18//18 19//19
f 5//5 19//19 6//6
f 6//6 19//19 20//20
f 6//6 20//20 8//8
f 7//7 10//10 21//21
f 8//8 22//22 9//9
f 8//8 20//20 22//22
f 9//9 22//22 10//10
f 10//10 22//22 23//23
f 10//10 23//23 21//21
f 11//11 21//21 42//42
f 11//11 42//42 24//24
f 11//11 24//24 12//12
f 12//12 24//24 13//13
f 13//13 24//24 25//25
f 13//13 25//25 26//26
f 13//13 26//26 27//27
f 13//13 27//27 28//28
f 13//13 28//28 29//29
f 13//13 29//29 14//14
f 14//14 29//29 30//30
f 14//14 30//30 15//15
f 15//15 30//30 31//31
f 15//15 31//31 16//16
f 16//16 31//31 32//32
f 16//16 32//32 33//33
f 16//16 33//33 34//34
f 16//16 34//34 17//17
f 17//17 35//35 36//36
f 17//17 36//36 37//37
f 17//17 37//37 38//38
f 17//17 38//38 18//18
f 17//17 34//34 33//33
f 17//17 33//33 35//35
f 18//18 38//38 39//39
f 18//18 39//39 19//19
f 19//19 39//39 70//70
f 19//19 70//70 69//69
f 19//19 69//69 95//95
f 19//19 95//95 93//93
f 19//19 93//93 92//92
f 19//19 92//92 91//91
f 19//19 91//91 107//107
f 19//19 107//107 106//106
f 19//19 106//106 96//96
f 19//19 96//96 71//71
f 19//19 71//71 40//40
f 19//19 40//40 20//20
f 20//20 40//40 41//41
f 20//20 41//41 22//22
f 21//21 23//23 43//43
f 21//21 43//43 42//42
f 22//22 41//41 23//23
f 23//23 41//41 44//44
f 23//23 44//44 45//45
f 23//23 45//45 46//46
f 23//23 46//46 47//47
f 23//23 47//47 43//43
f 24//24 42//42 48//48
f 24//24 48//48 49//49
f 24//24 49//49 50//50
f 24//24 50//50 51//51
f 24//24 51//51 52//52
f 24//24 52//52 25//25
f 25//25 52//52 53//53
f 25//25 53//53 26//26
f 26//26 53//53 27//27
f 27//27 53//53 80//80
f 27//27 80//80 79//79
f 27//27 79//79 78//78
f 27//27 78//78 99//99
f 27//27 99//99 72//72
f 27//27 72//72 98//98
f 27//27 98//98 102//102
f 27//27 102//102 81//81
f 27//27 81//81 54//54
f 27//27 54//54 55//55
f 27//27 55//55 28//28
f 28//28 55//55 56//56
f 28//28 56//56 57//57
f 28//28 57//57 33//33
f 28//28 33//33 58//58
f 28//28 58//58 29//29
f 29//29 58//58 32//32
f 29//29 32//32 59//59
f 29//29 59//59 30//30
f 30//30 59//59 31//31
f 31//31 59//59 32//32
f 32//32 58//58 33//33
f 33//33 57//57 60//60
f 33//33 60//60 61//61
f 33//33 61//61 62//62
f 33//33 62//62 63//63
f 33//33 63//63 64//64
f 33//33 64//64 65//65
f 33//33 65//65 66//66
f 33//33 66//66 67//67
f 33//33 67//67 35//35
f 35//35 67//67 36//36
f 36//36 68//68 69//69
f 36//36 69//69 70//70
f 36//36 70//70 37//37
f 36//36 67//67 68//68
f 37//37 70//70 39//39
f 37//37 39//39 38//38
f 40//40 71//71 97//97
f 40//40 97//97 88//88
f 40//40 88//88 61//61
f 40//40 61//61 87//87
f 40//40 87//87 86//86
f 40//40 86//86 85//85
f 40//40 85//85 84//84
f 40//40 84//84 105//105
f 40//40 105//105 108//108
f 40//40 108//108 98//98
f 40//40 98//98 72//72
f 40//40 72//72 73//73
f 40//40 73//73 74//74
f 40//40 74//74 41//41
f 41//41 74//74 44//44
f 42//42 43//43 47//47
f 42//42 47//47 48//48
f 44//44 74//74 75//75
f 44//44 75//75 45//45
f 45//45 75//75 76//76
f 45//45 76//76 46//46
f 46//46 76//76 101//101
f 46//46 101//101 77//77
f 46//46 77//77 48//48
f 46//46 48//48 47//47
f 48//48 77//77 78//78
f 48//48 78//78 79//79
f 48//48 79//79 80//80
f 48//48 80//80 53//53
f 48//48 53//53 49//49
f 49//49 53//53 50//50
f 50//50 53//53 51//51
f 51//51 53//53 52//52
f 54//54 81//81 82//82
f 54//54 82//82 55//55
f 55//55 60//60 56//56
f 55//55 82//82 83//83
f 55//55 83//83 60//60
f 56//56 60//60 57//57
f 60//60 84//84 85//85
f 60//60 85//85 86//86
f 60//60 86//86 87//87
f 60//60 87//87 61//61
f 60//60 83//83 84//84
f 61//61 88//88 62//62
f 62//62 88//88 89//89
f 62//62 89//89 90//90
f 62//62 90//90 63//63
f 63//63 90//90 91//91
f 63//63 91//91 92//92
f 63//63 92//92 64//64
f 64//64 92//92 65//65
f 65//65 92//92 93//93
f 65//65 93//93 66//66
f 66//66 93//93 94//94
f 66//66 94//94 68//68
f 66//66 68//68 67//67
f 68//68 94//94 93//93
f 68//68 93//93 95//95
f 68//68 95//95 69//69
f 71//71 96//96 89//89
f 71//71 89//89 97//97
f 72//72 99//99 73//73
f 73//73 100//100 76//76
f 73//73 76//76 75//75
f 73//73 75//75 74//74
f 73//73 99//99 100//100
f 76//76 100//100 78//78
f 76//76 78//78 101//101
f 77//77 101//101 78//78
f 78//78 100//100 99//99
f 81//81 102//102 83//83
f 81//81 83//83 82//82
f 83//83 102//102 103//103
f 83//83 103//103 98//98
f 83//83 98//98 104//104
f 83//83 104//104 105//105
f 83//83 105//105 84//84
f 88//88 97//97 89//89
f 89//89 96//96 106//106
f 89//89 106//106 90//90
f 90//90 106//106 107//107
f 90//90 107//107 91//91
f 98//98 108//108 109//109
f 98//98 109//109 104//104
f 98//98 103//103 102//102
f 104//104 109//109 108//108
f 104//104 108//108 105//105

