# https://github.com/mikedh/trimesh
v 2.33316952 -1.09404132 1.18900678
v 2.29250195 -1.15134245 1.24748128
v 2.30033107 -1.16004079 1.18900678
v 2.30729020 -1.27163903 -0.61777640
v 2.32816757 -1.18913975 -0.61777640
v 2.33316952 -1.09390678 1.18861168
v 2.30468049 -1.09390678 1.25933419
v 2.30468049 -1.09404132 1.25933419
v 2.22725985 -1.21137861 1.18466076
v 2.19964082 -1.15291176 1.34190974
v 2.23313165 -1.17120508 1.28106469
v 2.21225428 -1.25029682 0.80852742
v 2.23552390 -1.30809115 -0.61777640
v 2.30011361 -1.26195438 -0.71299505
v 2.31794635 -1.18913975 -0.71299505
v 2.30946484 -1.09408611 -0.71299505
v 2.30555049 -1.05350899 -0.71299505
v 2.31098722 -1.05350899 -0.65847154
v 2.31859888 -1.09408611 -0.61777640
v 1.46153565 -0.86429851 1.70342439
v 2.31294454 -1.05350899 -0.61777640
v 2.24422287 -1.05350899 0.82670188
v 1.96281215 -1.09390678 1.55526267
v 2.19007199 -1.23778741 1.14989208
v 1.66487348 -1.31091591 1.55526267
v 1.93280088 -1.12018106 1.55526267
v 1.77295778 -1.25809844 1.55526267
v 1.76338895 -1.26343396 1.55526267
v 2.14027052 -1.27361180 0.80852742
v 0.11189517 -1.29141193 -2.31274692
v 0.90371616 -1.29145687 -2.31274692
v 0.99896961 -1.29136714 -2.31274692
v 1.28407728 -1.29073941 -2.31274692
v 1.30212762 -1.29069462 -2.31274692
v 1.38476754 -1.29038075 -2.31274692
v 2.23552390 -1.29221899 -0.71299505
v 2.04523460 -1.28006838 0.99856948
v 1.56962010 -1.32225961 1.55526267
v 2.28815254 -1.24357132 -0.76751863
v 2.29402434 -1.18913975 -0.78608825
v 2.29141463 -1.09408611 -0.78450781
v 2.29010971 -1.05350899 -0.77858136
v 2.30033107 -1.05350899 -0.73749120
v 1.46153565 -0.86429851 1.60504500
v 1.43130691 -0.86429851 1.71132637
v 1.46153565 -1.18913975 1.69591749
v 1.46153565 -1.27773681 1.66035876
v 2.14027052 -1.25482529 1.09378813
v 2.14027052 -1.26204398 0.99856948
v 0.11189517 -1.20012465 -2.31274692
v 0.11189517 -1.29145687 -2.23530771
v 1.38476754 -1.19335435 -2.31274692
v 2.01000391 -1.08601550 -1.47434900
v 2.00956899 -1.08695709 -1.47434900
v 1.95302586 -1.17797538 -1.47434900
v 1.46153565 -1.31199203 1.56948613
v 0.42831911 -1.28755599 0.99856948
v 0.52357249 -1.29401257 0.99856948
v 0.11189517 -1.28621095 0.71330877
v 0.11189517 -1.28867691 0.61809013
v 0.11189517 -1.29047049 -0.45934215
v 2.00717674 -1.05350899 -1.47434900
v 0.99592497 -0.86429851 1.37509791
v 1.42804481 -0.86429851 1.71211656
v 1.37911320 -1.18913975 1.69828819
v 1.42478271 -0.86429851 1.71251165
v 1.32235275 -1.11713210 1.71132637
v 1.25885035 -1.15040086 1.71369693
v 1.28799191 -1.18488021 1.70105383
v 1.37911320 -1.26809696 1.65640770
v 0.11189517 -0.86429851 1.36008427
v 0.24455402 -0.86429851 1.28541070
v 1.86103458 -1.05350899 -1.47434900
v 0.41026884 -1.19779322 -2.31274692
v 0.52357249 -1.19721029 -2.31274692
v 0.11189517 -1.16183423 1.44700584
v 0.11189517 -1.18286257 1.37904898
v 0.27456536 -1.24123990 1.24945674
v 0.42831911 -1.27639177 1.09378813
v 0.11189517 -1.24841365 1.04914214
v 0.11189517 -1.27562951 0.80813233
v 0.33328320 -0.86429851 1.24787637
v 1.33540114 -1.05386765 1.71251165
v 1.18904144 -0.86429851 1.72357437
v 1.28799191 -1.08888506 1.71409202
v 1.22383713 -1.15040086 1.71369693
v 1.18904144 -0.90384445 1.72238910
v 1.18904144 -0.99898768 1.71922836
v 0.11189517 -0.97733161 1.64178915
v 1.28407728 -1.25446663 1.65166659
v 0.11189517 -0.86429851 1.64929604
v 0.33219581 -0.86429851 1.24827146
v 0.11189517 -1.22124273 1.19137733
v 0.11189517 -1.23684583 1.11156756
v 1.14902633 -0.86429851 1.72120382
v 0.11189517 -0.90384445 1.65917349
v 1.13336823 -0.99898768 1.71646271
v 1.19121615 -1.09363772 1.71527729
v 1.13902250 -1.06180373 1.71409202
v 0.11189517 -0.86810965 1.65048132
vn 0.96061541 0.16136634 0.22622763
vn 0.71874617 -0.55815683 0.41456591
vn 0.75287586 -0.64700080 0.12069762
vn 0.77450561 -0.63097275 -0.04488257
vn 0.99578210 -0.07700224 -0.04988659
vn 0.79727627 0.60090422 0.05713728
vn 0.71285604 0.51725621 0.47358450
vn 0.81323348 -0.12680722 0.56795355
vn 0.47698418 -0.85475405 0.20464995
vn 0.58228434 -0.47708505 0.65828171
vn 0.45365721 -0.79092054 0.41065781
vn 0.45687976 -0.88802732 0.05165621
vn 0.25589342 -0.96603167 -0.03607460
vn 0.76587275 -0.60803143 -0.20913324
vn 0.97717812 -0.07879793 -0.19726585
vn 0.98305387 0.09102731 -0.15911980
vn 0.72619443 0.67747160 -0.11693536
vn 0.73339686 0.67687534 -0.06299856
vn 0.99255261 0.11426377 -0.04222678
vn 0.26112309 0.70702030 0.65721917
vn 0.73072430 0.68234325 -0.02120583
vn 0.30124423 0.95336722 0.01851658
vn 0.54961918 0.08328472 0.83125352
vn 0.37989247 -0.91404898 0.14211325
vn 0.23667305 -0.87455134 0.42325622
vn 0.40272718 -0.46312430 0.78951042
vn 0.39286959 -0.59090840 0.70461390
vn 0.36108859 -0.70180542 0.61407180
vn 0.22268947 -0.97393603 0.04310474
vn -0.57820332 -0.57495447 -0.57888537
vn 0.00016250 -0.70367711 -0.71051988
vn 0.00092793 -0.70340972 -0.71078400
vn 0.00161431 -0.70305000 -0.71113858
vn 0.00205921 -0.70304146 -0.71114588
vn 0.35853317 -0.61498285 -0.70231764
vn 0.36594166 -0.91383701 -0.17603584
vn 0.15837344 -0.98605662 0.05109004
vn 0.04797765 -0.97088407 0.23469611
vn 0.82458847 -0.43665291 -0.35970556
vn 0.92891798 -0.10097795 -0.35625108
vn 0.94273871 0.05996080 -0.32809821
vn 0.69636266 0.68009352 -0.22924192
vn 0.70870228 0.68549304 -0.16685431
vn 0.10542191 0.99434475 -0.01283481
vn 0.17474257 0.69676353 0.69569075
vn 0.17850345 -0.21787363 0.95951425
vn 0.06699596 -0.69523889 0.71564966
vn 0.21768845 -0.97263785 0.08116246
vn 0.23567835 -0.96977044 0.06325349
vn -0.58914619 0.53739056 -0.60342204
vn -0.71400335 -0.70014221 -0.00031336
vn 0.34754318 0.55759568 -0.75385728
vn 0.86532894 -0.12837468 -0.48448506
vn 0.79112189 -0.41755990 -0.44695624
vn 0.73185705 -0.54257019 -0.41231402
vn -0.08550285 -0.96646166 0.24215927
vn -0.08434857 -0.99191808 0.09478317
vn -0.06074516 -0.99616289 0.06300412
vn -0.71823118 -0.69489671 0.03553215
vn -0.71462662 -0.69947537 0.00655748
vn -0.71502511 -0.69909856 0.00054293
vn 0.59979382 0.69749040 -0.39211543
vn 0.01075318 0.99942449 -0.03217225
vn 0.12719388 0.68289024 0.71936266
vn 0.02024332 -0.34114177 0.93979386
vn 0.06403785 0.68734027 0.72350709
vn 0.07095146 -0.04727912 0.99635866
vn 0.02001255 -0.18272706 0.98295998
vn -0.06128312 -0.45947105 0.88607603
vn -0.12648731 -0.78041982 0.61232824
vn -0.70314047 0.71071549 -0.02183965
vn -0.02418828 0.99859401 -0.04716909
vn -0.01000411 0.99329101 -0.11520802
vn -0.00478229 0.64939209 -0.76043872
vn -0.00325430 0.64766561 -0.76191776
vn -0.71600368 -0.60760521 0.34373628
vn -0.74727290 -0.64111413 0.17480242
vn -0.13217181 -0.97242441 0.19214937
vn -0.09564728 -0.98804974 0.12086899
vn -0.74116489 -0.66562558 0.08727649
vn -0.74279305 -0.66535866 0.07454083
vn -0.00992725 0.99889012 -0.04604311
vn 0.06053431 -0.02900427 0.99774463
vn -0.00584619 0.68601006 0.72756857
vn 0.04764392 -0.02695156 0.99850071
vn -0.07452634 -0.30836067 0.94834568
vn -0.01828605 -0.03036928 0.99937147
vn -0.02260383 -0.03593913 0.99909832
vn -0.69893850 -0.34090003 0.62870672
vn -0.14505836 -0.74285178 0.65355130
vn -0.60973993 0.64823388 0.45608120
vn -0.01879105 0.99877611 -0.04575129
vn -0.76950509 -0.62634536 0.12471331
vn -0.76722823 -0.63031084 0.11861317
vn -0.04221115 0.70182920 0.71109352
vn -0.68816765 0.00955890 0.72548875
vn -0.05528141 -0.03655679 0.99780137
vn -0.04393068 -0.05094783 0.99773464
vn -0.05745893 -0.05236465 0.99697363
vn -0.72348837 0.18437202 0.66526051
f 1//1 2//2 3//3
f 1//1 3//3 4//4
f 1//1 4//4 5//5
f 1//1 5//5 6//6
f 1//1 6//6 7//7
f 1//1 7//7 8//8
f 1//1 8//8 2//2
f 2//2 9//9 3//3
f 2//2 8//8 10//10
f 2//2 10//10 11//11
f 2//2 11//11 9//9
f 3//3 9//9 12//12
f 3//3 12//12 4//4
f 4//4 13//13 14//14
f 4//4 14//14 5//5
f 4//4 12//12 13//13
f 5//5 14//14 15//15
f 5//5 15//15 16//16
f 5//5 16//16 17//17
f 5//5 17//17 18//18
f 5//5 18//18 19//19
f 5//5 19//19 6//6
f 6//6 20//20 7//7
f 6//6 19//19 21//21
f 6//6 21//21 22//22
f 6//6 22//22 20//20
f 7//7 20//20 23//23
f 7//7 23//23 8//8
f 8//8 23//23 10//10
f 9//9 24//24 12//12
f 9//9 11//11 25//25
f 9//9 25//25 24//24
f 10//10 23//23 26//26
f 10//10 26//26 27//27
f 10//10 27//27 28//28
f 10//10 28//28 11//11
f 11//11 28//28 25//25
f 12//12 29//29 13//13
f 12//12 24//24 29//29
f 13//13 30//30 31//31
f 13//13 31//31 32//32
f 13//13 32//32 33//33
f 13//13 33//33 34//34
f 13//13 34//34 35//35
f 13//13 35//35 36//36
f 13//13 36//36 14//14
f 13//13 29//29 37//37
f 13//13 37//37 25//25
f 13//13 25//25 38//38
f 13//13 38//38 30//30
f 14//14 36//36 35//35
f 14//14 35//35 39//39
f 14//14 39//39 15//15
f 15//15 39//39 40//40
f 15//15 40//40 41//41
f 15//15 41//41 42//42
f 15//15 42//42 43//43
f 15//15 43//43 16//16
f 16//16 43//43 17//17
f 17//17 43//43 44//44
f 17//17 44//44 18//18
f 18//18 44//44 21//21
f 18//18 21//21 19//19
f 20//20 45//45 46//46
f 20//20 46//46 23//23
f 20//20 22//22 21//21
f 20//20 21//21 44//44
f 20//20 44//44 63//63
f 20//20 63//63 82//82
f 20//20 82//82 92//92
f 20//20 92//92 72//72
f 20//20 72//72 71//71
f 20//20 71//71 91//91
f 20//20 91//91 95//95
f 20//20 95//95 84//84
f 20//20 84//84 66//66
f 20//20 66//66 64//64
f 20//20 64//64 45//45
f 23//23 46//46 47//47
f 23//23 47//47 26//26
f 24//24 25//25 48//48
f 24//24 48//48 49//49
f 24//24 49//49 29//29
f 25//25 37//37 49//49
f 25//25 49//49 48//48
f 25//25 28//28 47//47
f 25//25 47//47 38//38
f 26//26 47//47 27//27
f 27//27 47//47 28//28
f 29//29 49//49 37//37
f 30//30 50//50 74//74
f 30//30 74//74 75//75
f 30//30 75//75 52//52
f 30//30 52//52 35//35
f 30//30 35//35 34//34
f 30//30 34//34 33//33
f 30//30 33//33 32//32
f 30//30 32//32 31//31
f 30//30 38//38 51//51
f 30//30 51//51 61//61
f 30//30 61//61 60//60
f 30//30 60//60 59//59
f 30//30 59//59 81//81
f 30//30 81//81 80//80
f 30//30 80//80 94//94
f 30//30 94//94 93//93
f 30//30 93//93 77//77
f 30//30 77//77 76//76
f 30//30 76//76 89//89
f 30//30 89//89 96//96
f 30//30 96//96 100//100
f 30//30 100//100 91//91
f 30//30 91//91 71//71
f 30//30 71//71 50//50
f 35//35 52//52 53//53
f 35//35 53//53 54//54
f 35//35 54//54 55//55
f 35//35 55//55 39//39
f 38//38 47//47 56//56
f 38//38 56//56 57//57
f 38//38 57//57 58//58
f 38//38 58//58 59//59
f 38//38 59//59 60//60
f 38//38 60//60 61//61
f 38//38 61//61 51//51
f 39//39 55//55 54//54
f 39//39 54//54 53//53
f 39//39 53//53 40//40
f 40//40 53//53 41//41
f 41//41 53//53 62//62
f 41//41 62//62 42//42
f 42//42 62//62 44//44
f 42//42 44//44 43//43
f 44//44 62//62 63//63
f 45//45 64//64 46//46
f 46//46 65//65 47//47
f 46//46 64//64 66//66
f 46//46 66//66 67//67
f 46//46 67//67 68//68
f 46//46 68//68 65//65
f 47//47 65//65 69//69
f 47//47 69//69 70//70
f 47//47 70//70 56//56
f 50//50 71//71 72//72
f 50//50 72//72 73//73
f 50//50 73//73 74//74
f 52//52 75//75 73//73
f 52//52 73//73 62//62
f 52//52 62//62 53//53
f 56//56 70//70 76//76
f 56//56 76//76 77//77
f 56//56 77//77 78//78
f 56//56 78//78 79//79
f 56//56 79//79 57//57
f 57//57 79//79 80//80
f 57//57 80//80 81//81
f 57//57 81//81 59//59
f 57//57 59//59 58//58
f 62//62 73//73 82//82
f 62//62 82//82 63//63
f 65//65 68//68 69//69
f 66//66 83//83 67//67
f 66//66 84//84 85//85
f 66//66 85//85 83//83
f 67//67 83//83 85//85
f 67//67 85//85 68//68
f 68//68 86//86 69//69
f 68//68 85//85 84//84
f 68//68 84//84 87//87
f 68//68 87//87 88//88
f 68//68 88//88 86//86
f 69//69 89//89 90//90
f 69//69 90//90 70//70
f 69//69 86//86 89//89
f 70//70 90//90 76//76
f 72//72 92//92 73//73
f 73//73 75//75 74//74
f 73//73 92//92 82//82
f 76//76 90//90 89//89
f 77//77 93//93 78//78
f 78//78 93//93 94//94
f 78//78 94//94 80//80
f 78//78 80//80 79//79
f 84//84 95//95 96//96
f 84//84 96//96 97//97
f 84//84 97//97 87//87
f 86//86 88//88 98//98
f 86//86 98//98 99//99
f 86//86 99//99 96//96
f 86//86 96//96 89//89
f 87//87 97//97 88//88
f 88//88 97//97 99//99
f 88//88 99//99 98//98
f 91//91 100//100 95//95
f 95//95 100//100 96//96
f 96//96 99//99 97//97

