# https://github.com/mikedh/trimesh
v -1.01820948 1.49365125 1.51432178
v -1.09421186 1.49376054 1.51432178
v -1.01820948 1.40128784 1.51432178
v -1.01820948 1.52606851 -1.25033496
v -1.01870302 1.52653293 -1.23243800
v -1.28438221 1.55916865 -1.18897396
v -1.37946732 1.56135350 -1.18897396
v -2.42589811 1.56045231 -0.90375861
v -2.42589811 1.49253160 1.51432178
v -2.51440274 1.28235146 1.51432178
v -1.01820948 1.28235146 -1.24067639
v -1.01820948 1.50837144 -1.27817486
v -1.09421186 1.53393393 -1.26539128
v -1.01870302 1.52653293 -1.24976677
v -1.18929711 1.54002419 -1.27476575
v -1.28438221 1.54491273 -1.27590212
v -1.37946732 1.54920048 -1.27533393
v -2.42589811 1.55772126 -1.18897396
v -2.52789230 1.54062498 -1.19465545
v -2.53019565 1.53958713 -0.91199693
v -2.52772785 1.53846749 -0.80518324
v -2.52098307 1.49116601 1.51432178
v -2.61277801 1.28235146 1.51432178
v -1.01820948 1.28235146 -1.38782933
v -1.01820948 1.50034230 -1.29039025
v -1.09421186 1.50293683 -1.31283240
v -1.18929711 1.50389260 -1.32249096
v -2.33081286 1.49100213 -1.31368467
v -2.42589811 1.53775740 -1.26510718
v -2.50074874 1.53224071 -1.25317588
v -2.57658660 1.52896345 -1.16681576
v -2.57658660 1.52896345 -1.12136314
v -2.56408399 1.51495334 -1.23016555
v -2.57477714 1.52625975 -0.83444339
v -2.59040505 1.45506178 1.51432178
v -2.61294274 1.28434507 1.51432178
v -2.67348131 1.28235146 0.40982268
v -1.66258429 1.28235146 -1.37760229
v -2.33081286 1.44342761 -1.33612682
v -1.95014297 1.44555787 -1.33811547
v -1.09421186 1.45536217 -1.34067230
v -1.01820948 1.45082875 -1.34152429
v -1.01820948 1.46046931 -1.33612682
v -2.42820118 1.47131145 -1.31538923
v -2.39809620 1.43741928 -1.33442255
v -2.52789230 1.47977765 -1.26880010
v -2.58662169 1.47977765 -1.19465545
v -2.66509151 1.42887129 -0.95375657
v -2.67348131 1.43905792 -0.90375861
v -2.68039081 1.44746954 -0.80859221
v -2.67808745 1.44752412 -0.61825925
v -2.57477714 1.45153884 -1.24408521
v -2.67660689 1.44654100 -0.52309277
v -2.67232991 1.44342761 -0.23759337
v -2.61606832 1.48097923 -0.14242691
v -2.66525596 1.43029132 0.14250434
v -2.66410456 1.42777886 0.19960423
v -2.60389489 1.41081910 1.51432178
v -2.67068461 1.44162510 -0.14242691
v -2.61310719 1.32405432 1.51432178
v -2.61294274 1.37946689 1.51432178
v -2.68450334 1.37946689 -0.14242691
v -2.68812254 1.37946689 -0.23759337
v -2.69453815 1.28434507 -0.33275985
v -2.69453815 1.28235146 -0.33474839
v -1.95014297 1.28235146 -1.37078465
v -2.42589811 1.28235146 -1.35800107
v -2.52098307 1.28235146 -1.32391143
v -2.64683108 1.28235146 -1.09380748
v -2.67660689 1.28235146 -0.99864100
v -2.67183629 1.37946689 -0.96540378
v -2.69009644 1.37946689 -0.90375861
v -2.69865096 1.37946689 -0.80859221
v -2.69059006 1.37946689 -0.33275985
v -2.67397492 1.44394646 -0.33275985
v -2.53545986 1.28235146 -1.31226421
v -2.57740911 1.28235146 -1.26169808
v -2.61787806 1.28235146 -1.18130389
v -2.69519621 1.28235146 -0.71342573
v -2.67973247 1.28235146 -0.97676697
v -2.68976755 1.28235146 -0.90574719
v -2.69388037 1.28235146 -0.81058071
v -2.69519621 1.28235146 -0.71541423
vn 0.57938877 0.56877577 0.58378316
vn 0.00044361 0.69768546 0.71640408
vn 0.59941552 -0.53836298 0.59233972
vn 0.76780152 0.57681698 -0.27886017
vn 0.50476681 0.86323033 0.00662274
vn 0.06219836 0.99628614 -0.05954234
vn 0.01128439 0.99815561 -0.05964940
vn -0.09484000 0.99544234 0.00999633
vn -0.00533947 0.69861559 0.71547728
vn 0.01926146 -0.71041205 0.70352236
vn 0.70672665 -0.70747019 0.00483421
vn 0.76926296 0.53627478 -0.34733826
vn 0.13135585 0.93797754 -0.32084853
vn 0.38004334 0.90482793 -0.19197257
vn 0.07002324 0.92059463 -0.38419041
vn 0.04257430 0.91347536 -0.40466058
vn 0.00289923 0.89266355 -0.45071430
vn -0.07800634 0.98928421 -0.12341706
vn -0.25388967 0.95497057 -0.15352931
vn -0.23124632 0.97284803 0.00958394
vn -0.22766353 0.97355325 0.01906273
vn -0.18279041 0.72088600 0.66851406
vn -0.53362128 -0.60067933 0.59534248
vn 0.56283155 -0.50097063 -0.65745652
vn 0.76128775 0.52001012 -0.38733763
vn 0.12680573 0.72965251 -0.67195797
vn 0.02795537 0.59502840 -0.80321834
vn -0.03719971 0.56924415 -0.82132653
vn -0.09578566 0.83107322 -0.54785254
vn -0.28177869 0.76968603 -0.57287363
vn -0.64779850 0.74412140 -0.16321901
vn -0.43414767 0.90084019 0.00166076
vn -0.64976469 0.57143915 -0.50126155
vn -0.43287857 0.90133006 0.01484131
vn -0.58467886 0.49370923 0.64374049
vn -0.69565165 -0.03014420 0.71774655
vn -0.74979768 -0.66088426 0.03217813
vn -0.01269404 -0.63708537 -0.77068871
vn -0.03333712 0.29783720 -0.95403440
vn -0.00663882 0.29930170 -0.95413543
vn 0.00355092 0.31565719 -0.94886666
vn 0.69008571 0.26440252 -0.67370099
vn 0.71069713 0.41653235 -0.56693067
vn -0.23969459 0.41732358 -0.87657717
vn -0.16058239 0.27625328 -0.94757449
vn -0.45590406 0.32028754 -0.83040194
vn -0.92909524 0.23492707 -0.28564191
vn -0.93208438 0.27323371 -0.23782777
vn -0.90427282 0.40334531 -0.14001153
vn -0.83766493 0.54569570 -0.02310115
vn -0.82570677 0.56384368 0.01698928
vn -0.78905058 0.18817090 -0.58479987
vn -0.64605491 0.76307887 0.01799143
vn -0.82430070 0.56574662 0.02142704
vn -0.56629225 0.82392779 0.02135629
vn -0.92590343 0.37626281 0.03360273
vn -0.94991314 0.30982685 0.04089430
vn -0.66323607 0.19680324 0.72207091
vn -0.85518650 0.51758406 0.02761863
vn -0.68835059 -0.00034525 0.72537807
vn -0.71085311 0.10320777 0.69572696
vn -0.99122018 0.12667553 0.03789287
vn -0.99017863 0.13712424 0.02726198
vn -0.99972532 0.00745378 0.02222003
vn -0.70501985 -0.70913600 0.00855236
vn -0.01833791 -0.64916608 -0.76042562
vn -0.15913908 -0.60463718 -0.78044130
vn -0.38529293 -0.59576216 -0.70471044
vn -0.71906272 -0.65623458 -0.22870280
vn -0.73521043 -0.64967442 -0.19336174
vn -0.94705054 0.15236367 -0.28263154
vn -0.97724515 0.14114421 -0.15833583
vn -0.99266382 0.11537469 -0.03615562
vn -0.98920963 0.14512227 0.02009561
vn -0.94934186 0.31373709 0.01786271
vn -0.52750819 -0.63483627 -0.56455117
vn -0.62881148 -0.65659927 -0.41650152
vn -0.70459364 -0.65358275 -0.27636460
vn -0.69507869 -0.71893310 0.00090193
vn -0.70033777 -0.70680834 -0.09974462
vn -0.70951214 -0.70080896 -0.07388727
vn -0.69282628 -0.72082995 -0.01989808
vn -0.69477424 -0.71922366 -0.00246597
f 1//1 2//2 9//9
f 1//1 9//9 22//22
f 1//1 22//22 35//35
f 1//1 35//35 58//58
f 1//1 58//58 61//61
f 1//1 61//61 60//60
f 1//1 60//60 36//36
f 1//1 36//36 23//23
f 1//1 23//23 10//10
f 1//1 10//10 3//3
f 1//1 3//3 11//11
f 1//1 11//11 24//24
f 1//1 24//24 42//42
f 1//1 42//42 43//43
f 1//1 43//43 25//25
f 1//1 25//25 12//12
f 1//1 12//12 4//4
f 1//1 4//4 5//5
f 1//1 5//5 6//6
f 1//1 6//6 7//7
f 1//1 7//7 8//8
f 1//1 8//8 2//2
f 2//2 8//8 9//9
f 3//3 10//10 11//11
f 4//4 12//12 13//13
f 4//4 13//13 14//14
f 4//4 14//14 5//5
f 5//5 14//14 6//6
f 6//6 14//14 13//13
f 6//6 13//13 15//15
f 6//6 15//15 16//16
f 6//6 16//16 17//17
f 6//6 17//17 7//7
f 7//7 17//17 18//18
f 7//7 18//18 8//8
f 8//8 18//18 19//19
f 8//8 19//19 20//20
f 8//8 20//20 21//21
f 8//8 21//21 22//22
f 8//8 22//22 9//9
f 10//10 23//23 37//37
f 10//10 37//37 65//65
f 10//10 65//65 79//79
f 10//10 79//79 83//83
f 10//10 83//83 82//82
f 10//10 82//82 81//81
f 10//10 81//81 80//80
f 10//10 80//80 70//70
f 10//10 70//70 69//69
f 10//10 69//69 78//78
f 10//10 78//78 77//77
f 10//10 77//77 76//76
f 10//10 76//76 68//68
f 10//10 68//68 67//67
f 10//10 67//67 66//66
f 10//10 66//66 38//38
f 10//10 38//38 24//24
f 10//10 24//24 11//11
f 12//12 25//25 26//26
f 12//12 26//26 13//13
f 13//13 26//26 15//15
f 15//15 26//26 27//27
f 15//15 27//27 16//16
f 16//16 27//27 17//17
f 17//17 27//27 28//28
f 17//17 28//28 29//29
f 17//17 29//29 18//18
f 18//18 29//29 30//30
f 18//18 30//30 19//19
f 19//19 31//31 32//32
f 19//19 32//32 20//20
f 19//19 30//30 33//33
f 19//19 33//33 31//31
f 20//20 32//32 34//34
f 20//20 34//34 21//21
f 21//21 34//34 22//22
f 22//22 34//34 35//35
f 23//23 36//36 37//37
f 24//24 38//38 39//39
f 24//24 39//39 40//40
f 24//24 40//40 41//41
f 24//24 41//41 42//42
f 25//25 43//43 26//26
f 26//26 43//43 27//27
f 27//27 43//43 42//42
f 27//27 42//42 41//41
f 27//27 41//41 40//40
f 27//27 40//40 39//39
f 27//27 39//39 28//28
f 28//28 44//44 29//29
f 28//28 39//39 45//45
f 28//28 45//45 44//44
f 29//29 44//44 30//30
f 30//30 44//44 46//46
f 30//30 46//46 33//33
f 31//31 33//33 47//47
f 31//31 47//47 48//48
f 31//31 48//48 49//49
f 31//31 49//49 50//50
f 31//31 50//50 32//32
f 32//32 50//50 51//51
f 32//32 51//51 34//34
f 33//33 46//46 52//52
f 33//33 52//52 47//47
f 34//34 51//51 53//53
f 34//34 53//53 54//54
f 34//34 54//54 55//55
f 34//34 55//55 35//35
f 35//35 56//56 57//57
f 35//35 57//57 58//58
f 35//35 55//55 54//54
f 35//35 54//54 59//59
f 35//35 59//59 56//56
f 36//36 60//60 37//37
f 37//37 60//60 61//61
f 37//37 61//61 57//57
f 37//37 57//57 62//62
f 37//37 62//62 63//63
f 37//37 63//63 64//64
f 37//37 64//64 65//65
f 38//38 66//66 39//39
f 39//39 66//66 67//67
f 39//39 67//67 45//45
f 44//44 45//45 68//68
f 44//44 68//68 46//46
f 45//45 67//67 68//68
f 46//46 68//68 52//52
f 47//47 69//69 70//70
f 47//47 70//70 71//71
f 47//47 71//71 72//72
f 47//47 72//72 48//48
f 47//47 52//52 69//69
f 48//48 72//72 49//49
f 49//49 72//72 50//50
f 50//50 73//73 51//51
f 50//50 72//72 73//73
f 51//51 73//73 74//74
f 51//51 74//74 75//75
f 51//51 75//75 54//54
f 51//51 54//54 53//53
f 52//52 68//68 76//76
f 52//52 76//76 77//77
f 52//52 77//77 78//78
f 52//52 78//78 69//69
f 54//54 75//75 74//74
f 54//54 74//74 59//59
f 56//56 59//59 63//63
f 56//56 63//63 57//57
f 57//57 61//61 58//58
f 57//57 63//63 62//62
f 59//59 74//74 63//63
f 63//63 74//74 64//64
f 64//64 74//74 73//73
f 64//64 73//73 65//65
f 65//65 73//73 79//79
f 70//70 80//80 72//72
f 70//70 72//72 71//71
f 72//72 80//80 81//81
f 72//72 81//81 73//73
f 73//73 82//82 83//83
f 73//73 83//83 79//79
f 73//73 81//81 82//82

