# https://github.com/mikedh/trimesh
v 0.11167763 -1.17707498 -0.67856887
v 0.01574177 -1.08316855 -0.67820298
v 0.06414979 -1.15625792 -0.67820298
v 0.11167763 -1.28792387 -0.67856887
v 0.11167763 -1.17681229 -0.71406125
v -0.35259913 -1.08316855 -0.67820298
v 0.11167763 -1.17641826 -0.76931235
v 0.11167763 -1.17661524 -0.86810554
v 0.11167763 -1.20623192 -3.56699226
v 0.11160431 -1.21076307 -3.94752945
v 0.01537505 -1.08316855 -0.70418196
v -0.52019348 -0.99691256 -2.03898925
v -0.17319612 -1.15625792 -0.67820298
v 0.04742702 -1.28588816 -0.67856887
v -0.09339625 -1.33192200 -4.41624891
v -0.04762869 -1.33234885 -4.41624891
v 0.04750038 -1.33106831 -4.41624891
v 0.09246112 -1.32893407 -4.41624891
v 0.11160431 -1.32801474 -4.41624891
v 0.11167763 -1.29055073 -1.60137137
v -0.11664677 -1.25545060 -0.67856887
v -0.32846845 -1.09344570 -0.67820298
v -0.63761955 -1.08316855 -1.11399114
v -0.57527592 -1.14447037 -1.13814067
v 0.11167763 -1.20918696 -3.75909044
v 0.11160431 -1.21201073 -4.04302950
v 0.11160431 -1.21785531 -4.41624891
v -0.04073423 -1.16397399 -4.23329810
v -0.06244447 -1.16397399 -4.31526010
v -0.12992230 -1.16397399 -4.41624891
v -0.52019348 -0.99750357 -2.04886854
v -0.63761955 -1.08316855 -1.17216950
v -0.08987567 -1.26490701 -0.67856887
v -0.04762869 -1.27820491 -0.67856887
v -0.33279582 -1.28519862 -1.76090442
v -0.52019348 -1.29025515 -2.52234456
v -0.52019348 -1.29409678 -3.75909044
v -0.15427299 -1.32433728 -4.41624891
v 0.11167763 -1.29426094 -3.75909044
v 0.11167763 -1.29370282 -3.37672366
v 0.11167763 -1.29064911 -1.63613211
v -0.50339734 -1.24530480 -1.78798107
v -0.52019348 -1.24376157 -1.83664589
v -0.27786008 -1.16397399 -4.41624891
v -0.52019348 -1.13659014 -3.58418976
v -0.52019348 -1.17802712 -3.75909044
v -0.27433950 -1.18420003 -4.41624891
v -0.27177241 -1.19782625 -4.41624891
v -0.21999052 -1.28188237 -4.41624891
v -0.21162913 -1.28802239 -4.41624891
v -0.41523613 -1.16397399 -4.01522136
vn 0.71853515 0.29956390 0.62766927
vn 0.30366609 0.70607347 0.63972429
vn 0.00542722 0.00208799 0.99998309
vn 0.56996356 -0.58350146 0.57850461
vn 0.92180352 0.38764723 0.00280827
vn -0.58120841 0.30958378 0.75256539
vn 0.92081345 0.39000319 0.00032468
vn 0.91908321 0.39404669 -0.00364014
vn 0.91558341 0.40209883 -0.00485278
vn 0.87492010 0.48422605 -0.00632123
vn 0.43359999 0.90107259 -0.00769668
vn -0.31510881 0.94860998 -0.02907815
vn -0.00084277 -0.00245321 0.99999664
vn -0.03656888 -0.70587427 0.70739256
vn -0.04053622 -0.71849511 -0.69434976
vn 0.00125486 -0.71379955 -0.70034893
vn 0.02162330 -0.71442559 -0.69937723
vn 0.03390578 -0.71013760 -0.70324604
vn 0.58918606 -0.56543857 -0.57718196
vn 0.99999923 -0.00124488 0.00000354
vn -0.27096649 -0.61903433 0.73713883
vn -0.00108171 -0.00255013 0.99999616
vn -0.90882144 0.25388404 0.33103848
vn -0.53770667 -0.82406492 0.17829341
vn 0.99971887 0.02370700 -0.00039236
vn 0.89066255 0.45460941 -0.00710601
vn 0.63857423 0.47684457 -0.60402169
vn 0.23176535 0.97197580 -0.03934299
vn 0.17495984 0.98117425 -0.08176885
vn 0.06210655 0.69588154 -0.71546605
vn -0.42921772 0.90092897 -0.06402456
vn -0.97704172 0.21303635 -0.00223390
vn -0.21188142 -0.64274660 0.73619500
vn -0.12186754 -0.70227161 0.70140066
vn -0.15432718 -0.98695784 0.04579667
vn -0.51512172 -0.85703744 0.01168027
vn -0.75139472 -0.64379350 -0.14469243
vn -0.19358552 -0.68810952 -0.69930675
vn 0.99999939 -0.00110022 -0.00002720
vn 0.99999936 -0.00112851 0.00000198
vn 0.99999923 -0.00124295 0.00000351
vn -0.30752241 -0.94776771 0.08465423
vn -0.49447670 -0.86700541 0.06159876
vn -0.49781808 0.53710866 -0.68094893
vn -0.69513580 0.71320979 -0.09010005
vn -0.88918961 0.40599080 -0.21098178
vn -0.55408788 -0.10018139 -0.82640808
vn -0.55985014 -0.21659492 -0.79978401
vn -0.44541931 -0.44064571 -0.77937988
vn -0.34357235 -0.51192618 -0.78733070
vn -0.57544955 0.79376638 -0.19695873
f 1//1 2//2 3//3
f 1//1 3//3 4//4
f 1//1 4//4 20//20
f 1//1 20//20 41//41
f 1//1 41//41 40//40
f 1//1 40//40 39//39
f 1//1 39//39 25//25
f 1//1 25//25 9//9
f 1//1 9//9 8//8
f 1//1 8//8 7//7
f 1//1 7//7 5//5
f 1//1 5//5 2//2
f 2//2 6//6 22//22
f 2//2 22//22 13//13
f 2//2 13//13 3//3
f 2//2 5//5 7//7
f 2//2 7//7 8//8
f 2//2 8//8 9//9
f 2//2 9//9 10//10
f 2//2 10//10 11//11
f 2//2 11//11 12//12
f 2//2 12//12 6//6
f 3//3 13//13 4//4
f 4//4 13//13 14//14
f 4//4 14//14 15//15
f 4//4 15//15 16//16
f 4//4 16//16 17//17
f 4//4 17//17 18//18
f 4//4 18//18 19//19
f 4//4 19//19 20//20
f 6//6 21//21 22//22
f 6//6 12//12 23//23
f 6//6 23//23 24//24
f 6//6 24//24 21//21
f 9//9 25//25 26//26
f 9//9 26//26 10//10
f 10//10 26//26 11//11
f 11//11 26//26 27//27
f 11//11 27//27 28//28
f 11//11 28//28 12//12
f 12//12 28//28 29//29
f 12//12 29//29 30//30
f 12//12 30//30 31//31
f 12//12 31//31 32//32
f 12//12 32//32 23//23
f 13//13 22//22 21//21
f 13//13 21//21 33//33
f 13//13 33//33 34//34
f 13//13 34//34 14//14
f 14//14 34//34 35//35
f 14//14 35//35 36//36
f 14//14 36//36 15//15
f 15//15 36//36 37//37
f 15//15 37//37 38//38
f 15//15 38//38 50//50
f 15//15 50//50 49//49
f 15//15 49//49 48//48
f 15//15 48//48 47//47
f 15//15 47//47 44//44
f 15//15 44//44 30//30
f 15//15 30//30 27//27
f 15//15 27//27 19//19
f 15//15 19//19 18//18
f 15//15 18//18 17//17
f 15//15 17//17 16//16
f 19//19 27//27 25//25
f 19//19 25//25 39//39
f 19//19 39//39 40//40
f 19//19 40//40 41//41
f 19//19 41//41 20//20
f 21//21 24//24 42//42
f 21//21 42//42 33//33
f 23//23 32//32 37//37
f 23//23 37//37 36//36
f 23//23 36//36 24//24
f 24//24 36//36 43//43
f 24//24 43//43 42//42
f 25//25 27//27 26//26
f 27//27 29//29 28//28
f 27//27 30//30 29//29
f 30//30 44//44 31//31
f 31//31 44//44 45//45
f 31//31 45//45 32//32
f 32//32 45//45 46//46
f 32//32 46//46 37//37
f 33//33 42//42 34//34
f 34//34 42//42 35//35
f 35//35 42//42 36//36
f 36//36 42//42 43//43
f 37//37 46//46 44//44
f 37//37 44//44 47//47
f 37//37 47//47 48//48
f 37//37 48//48 49//49
f 37//37 49//49 50//50
f 37//37 50//50 38//38
f 44//44 46//46 51//51
f 44//44 51//51 45//45
f 45//45 51//51 46//46

