# https://github.com/mikedh/trimesh
v -2.60986593 0.82907519 4.51889634
v -2.60893114 0.82907519 4.53950578
v -2.60098535 0.99889943 4.61403688
v -2.60768477 0.90377548 4.51889634
v -2.60955433 0.82907519 4.51401716
v -2.59724594 -0.23799165 3.87537203
v -2.59818101 -0.33283580 4.04361356
v -2.60550361 0.82907519 4.61403688
v -2.58197755 0.99889943 4.67965111
v -2.57761523 1.09402338 4.67418333
v -2.59350681 1.09402338 4.61403688
v -2.59786941 1.09402338 4.51889634
v -2.60456883 0.99889943 4.51889634
v -2.60737317 0.90377548 4.51401716
v -2.51062108 -0.23799165 3.87537203
v -2.59568825 -0.33283580 3.87537203
v -2.60425723 0.99889943 4.51401716
v -2.59771347 1.09402338 4.51401716
v -2.58073117 1.16284832 4.51401716
v -2.48584892 1.45661351 4.51401716
v -2.45422142 1.50417541 4.51401716
v -2.14885268 1.54250475 4.42543796
v -2.56935784 -0.68171685 4.09551623
v -2.58852131 -0.33283580 4.13883830
v -2.59366275 -0.40557764 3.87537203
v -2.55362192 -1.09354756 3.87562437
v -2.60098535 0.82907519 4.62842152
v -2.49036718 -0.19938251 4.58173458
v -2.58353580 0.82907519 4.68192243
v -2.57013697 0.82907519 4.69008200
v -2.52090397 0.82907519 4.71994513
v -2.52090397 0.99889943 4.71641184
v -2.52090397 1.09402338 4.71111219
v -2.57185060 1.14802017 4.66678077
v -2.48195386 1.44682126 4.67435146
v -2.57792682 1.15837196 4.61403688
v -2.58073117 1.16284832 4.51889634
v -2.16380948 -0.45481826 3.87537203
v -2.14028370 1.54250475 4.42543796
v -1.01820955 1.53187327 4.42543796
v -2.48678371 1.45857196 4.61403688
v -2.48600458 1.45689321 4.51889634
v -2.45453301 1.50445525 4.51889634
v -2.40670232 1.53327218 4.51401716
v -2.33067166 1.54474304 4.51401716
v -2.32568616 1.54502273 4.51401716
v -2.53243323 -0.80817578 4.13883830
v -2.49036718 -0.20301961 4.57988373
v -2.59210478 -0.42795975 3.87537203
v -2.52962860 -1.18139739 3.87562437
v -2.50797239 -0.90106151 4.14287627
v -2.54754569 -0.72620130 3.87537203
v -2.11582300 -1.16041412 4.47986429
v -2.01081366 -0.97436289 4.57677147
v -2.49036718 -0.13979014 4.59788559
v -2.49052284 0.52272015 4.72204804
v -2.42570985 1.09402338 4.72785236
v -2.49052284 0.64833970 4.72473982
v -2.49052284 0.74346365 4.72431936
v -2.33067166 1.37911546 4.73475024
v -2.42570985 1.37911546 4.71969251
v -2.42617738 1.47675740 4.69075509
v -2.39470581 1.52795637 4.67065032
v -2.45453301 1.50613386 4.61403688
v -2.15399413 -0.47216439 3.87537203
v -2.23095957 1.54474304 4.51401716
v -1.01820955 1.53411155 4.51889634
v -1.01820955 1.43087411 4.42543796
v -1.60323980 -1.09186895 3.97774699
v -2.13124719 -0.52420277 3.87537203
v -2.40701392 1.53327218 4.51889634
v -2.33067166 1.54502273 4.51889634
v -2.23547768 1.54474304 4.51889634
v -2.49176921 -1.25162117 3.87562437
v -2.48460255 -1.24630550 3.91861018
v -2.49737819 -1.18587382 3.94948237
v -2.49223675 -0.97716064 4.11360230
v -2.39688697 -0.72620130 3.87537203
v -2.14043950 -1.29106972 3.87562437
v -2.21335408 -1.28771236 3.87562437
v -2.42570985 -1.27232460 3.87562437
v -2.14386703 -1.18307600 4.42106373
v -2.10881199 -1.24854365 4.39750989
v -2.04524552 -1.21888735 4.45681512
v -2.04524552 -1.17132544 4.48676217
v -1.92216316 -1.05270024 4.57256538
v -1.95254429 -1.00317981 4.58551992
v -1.95036299 -0.90329973 4.60520422
v -2.42570985 -0.14286768 4.61571932
v -1.93306923 -0.88651313 4.61092434
v -1.85485741 -0.80817578 4.63666530
v -1.66493684 -0.90357950 4.63893662
v -1.56974272 -0.90357950 4.64305851
v -2.42570985 0.52272015 4.72465562
v -2.42570985 0.71324781 4.72928246
v -2.42570985 0.80837176 4.72911405
v -1.37966635 1.18914733 4.70118598
v -1.01820955 1.28427121 4.68469842
v -1.01820955 1.37939516 4.68099700
v -1.01820955 1.42863582 4.67199621
v -1.01820955 1.44206513 4.66938835
v -2.33067166 1.47423941 4.71304696
v -2.33067166 1.52991482 4.67384678
v -2.33067166 1.54278459 4.61403688
v -2.40701392 1.53271264 4.61403688
v -1.01820955 1.53299248 4.53100967
v -1.01820955 -1.26672909 4.50594151
v -1.93322503 -1.28967081 3.87562437
v -1.93322503 -1.18979058 3.87562437
v -2.13654443 -0.55190062 3.87537203
v -2.14043950 -1.30170120 4.13883830
v -2.23999594 -0.68395506 3.87537203
v -2.04524552 -1.29106972 3.87562437
v -2.14043950 -1.31261238 4.04361356
v -2.04524552 -1.25721668 4.40903433
v -2.04524552 -1.27931902 4.32836265
v -1.05248561 -1.24126953 4.56978938
v -1.66493684 -0.99870345 4.62581366
v -1.85485741 -0.90357950 4.62059822
v -1.93306923 -0.90357950 4.60798021
v -1.01820955 -0.99870345 4.64398393
v -1.01820955 -0.71333160 4.66316356
v -1.01820955 1.26468700 4.68461422
v -1.01820955 1.47983492 4.63481473
v -1.01820955 1.52040241 4.58779124
v -1.01820955 1.52739683 4.57820129
v -1.01820955 1.48962703 4.62572974
v -1.01820955 -1.26505048 4.52335477
v -2.20447350 -0.67024606 3.87537203
v -2.17985700 -0.65122124 3.87537203
v -2.15259195 -0.61680873 3.87537203
v -1.02693433 -1.24126953 4.56978938
v -1.01820955 -1.21273230 4.58501525
v -1.01820955 -1.24826395 4.55742343
v -1.01820955 -1.24015031 4.56886396
v -1.01820955 -1.22812006 4.57668726
vn -0.99995390 0.00948838 -0.00147049
vn -0.99895820 -0.00099742 0.04562367
vn -0.98615760 0.04920735 0.15834087
vn -0.99946554 0.03051500 -0.01172478
vn -0.99745612 0.02828315 -0.06543205
vn -0.67304337 0.10945236 -0.73145936
vn -0.99825643 -0.04299294 0.04044392
vn -0.98218992 -0.03005015 0.18547222
vn -0.79220900 0.04200080 0.60880279
vn -0.80427693 0.11366435 0.58328299
vn -0.97987293 0.14400898 0.13824061
vn -0.98772768 0.15609042 0.00545987
vn -0.99861284 0.05107858 -0.01278167
vn -0.99715914 0.03148862 -0.06842594
vn 0.02880870 0.15274826 -0.98784514
vn -0.70296800 -0.01556009 -0.71105125
vn -0.99358590 0.05663089 -0.09787745
vn -0.95882939 0.17817654 -0.22113191
vn -0.92193273 0.27255455 -0.27523453
vn -0.79897231 0.41448158 -0.43571582
vn -0.59455467 0.62525608 -0.50552901
vn -0.08959646 0.77670448 -0.62346020
vn -0.97387816 -0.12020790 0.19264317
vn -0.99076853 -0.06561962 0.11862459
vn -0.70740019 -0.03322308 -0.70603201
vn -0.79895827 -0.18305831 -0.57284844
vn -0.95134281 -0.05035874 0.30399153
vn -0.73930636 -0.20999031 0.63978917
vn -0.78959035 -0.03867146 0.61241456
vn -0.51935632 -0.01476699 0.85443019
vn -0.33227761 -0.00268254 0.94317782
vn -0.33843463 0.02896943 0.94054387
vn -0.41157453 0.08446604 0.90745352
vn -0.85221213 0.21316781 0.47780118
vn -0.73521261 0.39643940 0.54981654
vn -0.95986535 0.26184894 0.10046708
vn -0.96265940 0.27008417 0.01847770
vn 0.10901935 0.09330434 -0.98965099
vn 0.00527973 0.79964383 -0.60045139
vn 0.60735015 0.61151624 -0.50712295
vn -0.89589840 0.43806180 0.07394537
vn -0.90017344 0.43418745 -0.03419124
vn -0.69274466 0.71952341 -0.04889680
vn -0.34480095 0.83768785 -0.42354618
vn -0.11677458 0.97783205 -0.17380502
vn -0.02927441 0.99733346 -0.06685037
vn -0.92245122 -0.20002374 0.33026390
vn -0.83087646 -0.25655660 0.49378439
vn -0.01607134 -0.00112345 -0.99987022
vn -0.78244986 -0.28929967 -0.55143260
vn -0.83675869 -0.29772559 0.45955888
vn -0.00199873 -0.00041152 -0.99999792
vn -0.46954365 -0.46321246 0.75164019
vn -0.30320310 -0.23587998 0.92327055
vn -0.62332654 -0.17018950 0.76321659
vn -0.40056709 -0.09817883 0.91099228
vn -0.11866943 0.01532884 0.99281549
vn -0.16174481 -0.01743278 0.98667863
vn -0.10652802 0.00496412 0.99429731
vn -0.05282722 0.11447898 0.99202008
vn -0.31185138 0.15229157 0.93784647
vn -0.36136278 0.42786354 0.82846227
vn -0.28454467 0.80202182 0.52516220
vn -0.67043350 0.72861745 0.14012682
vn 0.13178238 0.06266634 -0.98929588
vn 0.00580920 0.99995825 -0.00705402
vn 0.69831794 0.71540065 0.02353647
vn 0.89654120 -0.00119703 -0.44295874
vn 0.48536467 -0.16014315 -0.85952039
vn 0.14675929 0.05255217 -0.98777527
vn -0.34248884 0.93944813 -0.01177296
vn -0.07908229 0.99680387 -0.01131542
vn 0.00587546 0.99985468 0.01600315
vn -0.53647957 -0.63576868 -0.55496653
vn -0.63278134 -0.70477897 0.32074037
vn -0.81368618 -0.36742925 0.45045594
vn -0.76938525 -0.37252296 0.51891520
vn 0.00001811 -0.00022738 -0.99999997
vn -0.01535061 -0.66599331 -0.74579975
vn -0.04173020 -0.66532180 -0.74538949
vn -0.18888038 -0.75151563 -0.63209846
vn -0.66667907 -0.53250519 0.52151438
vn -0.40684995 -0.78511561 0.46697600
vn -0.17553537 -0.66305551 0.72769824
vn -0.13950085 -0.50385519 0.85244910
vn -0.14447886 -0.41346479 0.89898428
vn -0.20307943 -0.27597101 0.93946727
vn -0.19968800 -0.17216248 0.96461639
vn -0.26813065 -0.17782062 0.94682933
vn -0.16715548 -0.15680143 0.97338192
vn -0.11335216 -0.12872137 0.98518125
vn -0.05643428 -0.11445812 0.99182383
vn -0.02707495 -0.10723305 0.99386519
vn -0.01604203 -0.04537534 0.99884119
vn -0.01970492 -0.00984925 0.99975732
vn -0.07139168 0.00201830 0.99744632
vn 0.03977715 0.00257245 0.99920526
vn 0.71749523 0.01330507 0.69643633
vn 0.70602859 0.07778290 0.70389875
vn 0.71988483 0.12867275 0.68206243
vn 0.66757391 0.33318330 0.66583328
vn -0.05768643 0.39568236 0.91657392
vn -0.01046359 0.83020181 0.55736475
vn -0.04753930 0.99303453 0.10780741
vn -0.32601371 0.94198072 0.07992115
vn 0.70916407 0.70119291 0.07358544
vn 0.70850974 -0.64701374 -0.28175730
vn 0.16967554 -0.65073938 -0.74010031
vn 0.15772700 0.02046683 -0.98727063
vn 0.00036617 -0.00007301 -0.99999993
vn -0.15621782 -0.97394397 0.16440543
vn 0.00005938 -0.00018520 -0.99999998
vn 0.00550009 -0.66395711 -0.74775043
vn -0.06798828 -0.99761989 0.01149532
vn -0.13051291 -0.88434279 0.44822339
vn -0.10006676 -0.97437448 0.20144732
vn -0.05411860 -0.69634952 0.71565950
vn -0.07896909 -0.28508559 0.95524347
vn -0.13419362 -0.18168354 0.97415767
vn -0.15767937 -0.17791915 0.97133001
vn 0.67744262 -0.12613699 0.72467990
vn 0.70071848 -0.03720322 0.71246722
vn 0.72291437 -0.00493591 0.69092001
vn 0.72303008 0.46814323 0.50800534
vn 0.71746305 0.55240754 0.42437328
vn 0.66541953 0.69740045 0.26617563
vn 0.70848295 0.51544751 0.48204332
vn 0.65942615 -0.72083295 0.21344089
vn 0.00010256 -0.00017755 -0.99999998
vn 0.00016021 -0.00015100 -0.99999998
vn 0.00032163 -0.00010818 -0.99999994
vn 0.05408634 -0.69669384 0.71532676
vn 0.66945429 -0.27244366 0.69109001
vn 0.69462290 -0.63231857 0.34303389
vn 0.72593324 -0.47528276 0.49711893
vn 0.71409567 -0.34156081 0.61106758
f 1//1 2//2 3//3
f 1//1 3//3 4//4
f 1//1 4//4 14//14
f 1//1 14//14 5//5
f 1//1 5//5 6//6
f 1//1 6//6 7//7
f 1//1 7//7 2//2
f 2//2 7//7 8//8
f 2//2 8//8 3//3
f 3//3 9//9 10//10
f 3//3 10//10 11//11
f 3//3 11//11 12//12
f 3//3 12//12 13//13
f 3//3 13//13 4//4
f 3//3 8//8 9//9
f 4//4 13//13 17//17
f 4//4 17//17 14//14
f 5//5 14//14 6//6
f 6//6 15//15 38//38
f 6//6 38//38 65//65
f 6//6 65//65 70//70
f 6//6 70//70 110//110
f 6//6 110//110 131//131
f 6//6 131//131 130//130
f 6//6 130//130 129//129
f 6//6 129//129 112//112
f 6//6 112//112 78//78
f 6//6 78//78 52//52
f 6//6 52//52 49//49
f 6//6 49//49 25//25
f 6//6 25//25 16//16
f 6//6 16//16 7//7
f 6//6 14//14 17//17
f 6//6 17//17 18//18
f 6//6 18//18 19//19
f 6//6 19//19 20//20
f 6//6 20//20 21//21
f 6//6 21//21 22//22
f 6//6 22//22 39//39
f 6//6 39//39 15//15
f 7//7 23//23 24//24
f 7//7 24//24 8//8
f 7//7 16//16 25//25
f 7//7 25//25 26//26
f 7//7 26//26 23//23
f 8//8 27//27 9//9
f 8//8 24//24 23//23
f 8//8 23//23 28//28
f 8//8 28//28 27//27
f 9//9 27//27 29//29
f 9//9 29//29 30//30
f 9//9 30//30 31//31
f 9//9 31//31 32//32
f 9//9 32//32 33//33
f 9//9 33//33 10//10
f 10//10 34//34 11//11
f 10//10 33//33 35//35
f 10//10 35//35 34//34
f 11//11 34//34 36//36
f 11//11 36//36 12//12
f 12//12 18//18 13//13
f 12//12 36//36 37//37
f 12//12 37//37 19//19
f 12//12 19//19 18//18
f 13//13 18//18 17//17
f 15//15 39//39 40//40
f 15//15 40//40 38//38
f 19//19 37//37 41//41
f 19//19 41//41 42//42
f 19//19 42//42 20//20
f 20//20 42//42 43//43
f 20//20 43//43 21//21
f 21//21 43//43 44//44
f 21//21 44//44 22//22
f 22//22 44//44 45//45
f 22//22 45//45 46//46
f 22//22 46//46 39//39
f 23//23 26//26 47//47
f 23//23 47//47 48//48
f 23//23 48//48 28//28
f 25//25 49//49 26//26
f 26//26 50//50 51//51
f 26//26 51//51 47//47
f 26//26 49//49 52//52
f 26//26 52//52 50//50
f 27//27 28//28 29//29
f 28//28 48//48 53//53
f 28//28 53//53 54//54
f 28//28 54//54 55//55
f 28//28 55//55 29//29
f 29//29 55//55 56//56
f 29//29 56//56 30//30
f 30//30 56//56 31//31
f 31//31 57//57 32//32
f 31//31 56//56 58//58
f 31//31 58//58 59//59
f 31//31 59//59 57//57
f 32//32 57//57 60//60
f 32//32 60//60 61//61
f 32//32 61//61 33//33
f 33//33 61//61 35//35
f 34//34 35//35 36//36
f 35//35 62//62 63//63
f 35//35 63//63 64//64
f 35//35 64//64 41//41
f 35//35 41//41 36//36
f 35//35 61//61 62//62
f 36//36 41//41 37//37
f 38//38 40//40 65//65
f 39//39 46//46 66//66
f 39//39 66//66 67//67
f 39//39 67//67 40//40
f 40//40 68//68 69//69
f 40//40 69//69 70//70
f 40//40 70//70 65//65
f 40//40 67//67 106//106
f 40//40 106//106 126//126
f 40//40 126//126 125//125
f 40//40 125//125 127//127
f 40//40 127//127 124//124
f 40//40 124//124 101//101
f 40//40 101//101 100//100
f 40//40 100//100 99//99
f 40//40 99//99 98//98
f 40//40 98//98 123//123
f 40//40 123//123 122//122
f 40//40 122//122 121//121
f 40//40 121//121 133//133
f 40//40 133//133 136//136
f 40//40 136//136 135//135
f 40//40 135//135 134//134
f 40//40 134//134 128//128
f 40//40 128//128 107//107
f 40//40 107//107 68//68
f 41//41 64//64 43//43
f 41//41 43//43 42//42
f 43//43 64//64 71//71
f 43//43 71//71 44//44
f 44//44 72//72 45//45
f 44//44 71//71 72//72
f 45//45 72//72 46//46
f 46//46 72//72 73//73
f 46//46 73//73 66//66
f 47//47 51//51 48//48
f 48//48 51//51 53//53
f 50//50 52//52 74//74
f 50//50 74//74 75//75
f 50//50 75//75 76//76
f 50//50 76//76 51//51
f 51//51 76//76 77//77
f 51//51 77//77 53//53
f 52//52 78//78 113//113
f 52//52 113//113 79//79
f 52//52 79//79 80//80
f 52//52 80//80 81//81
f 52//52 81//81 74//74
f 53//53 76//76 75//75
f 53//53 75//75 82//82
f 53//53 82//82 83//83
f 53//53 83//83 84//84
f 53//53 84//84 85//85
f 53//53 85//85 86//86
f 53//53 86//86 87//87
f 53//53 87//87 54//54
f 53//53 77//77 76//76
f 54//54 87//87 88//88
f 54//54 88//88 56//56
f 54//54 56//56 89//89
f 54//54 89//89 55//55
f 55//55 89//89 56//56
f 56//56 88//88 90//90
f 56//56 90//90 91//91
f 56//56 91//91 92//92
f 56//56 92//92 93//93
f 56//56 93//93 94//94
f 56//56 94//94 95//95
f 56//56 95//95 58//58
f 57//57 59//59 60//60
f 58//58 95//95 96//96
f 58//58 96//96 60//60
f 58//58 60//60 59//59
f 60//60 97//97 98//98
f 60//60 98//98 99//99
f 60//60 99//99 100//100
f 60//60 100//100 101//101
f 60//60 101//101 102//102
f 60//60 102//102 61//61
f 60//60 96//96 95//95
f 60//60 95//95 97//97
f 61//61 102//102 62//62
f 62//62 102//102 63//63
f 63//63 102//102 103//103
f 63//63 103//103 104//104
f 63//63 104//104 105//105
f 63//63 105//105 64//64
f 64//64 105//105 71//71
f 66//66 73//73 67//67
f 67//67 73//73 104//104
f 67//67 104//104 106//106
f 68//68 107//107 69//69
f 69//69 107//107 108//108
f 69//69 108//108 109//109
f 69//69 109//109 70//70
f 70//70 109//109 108//108
f 70//70 108//108 110//110
f 71//71 105//105 72//72
f 72//72 105//105 104//104
f 72//72 104//104 73//73
f 74//74 81//81 75//75
f 75//75 81//81 111//111
f 75//75 111//111 83//83
f 75//75 83//83 82//82
f 78//78 112//112 108//108
f 78//78 108//108 113//113
f 79//79 113//113 114//114
f 79//79 114//114 80//80
f 80//80 114//114 81//81
f 81//81 114//114 111//111
f 83//83 115//115 84//84
f 83//83 111//111 116//116
f 83//83 116//116 115//115
f 84//84 115//115 117//117
f 84//84 117//117 85//85
f 85//85 117//117 86//86
f 86//86 117//117 118//118
f 86//86 118//118 87//87
f 87//87 118//118 119//119
f 87//87 119//119 120//120
f 87//87 120//120 88//88
f 88//88 120//120 90//90
f 90//90 120//120 119//119
f 90//90 119//119 91//91
f 91//91 119//119 118//118
f 91//91 118//118 92//92
f 92//92 118//118 93//93
f 93//93 118//118 121//121
f 93//93 121//121 122//122
f 93//93 122//122 94//94
f 94//94 122//122 95//95
f 95//95 122//122 97//97
f 97//97 123//123 98//98
f 97//97 122//122 123//123
f 101//101 124//124 103//103
f 101//101 103//103 102//102
f 103//103 125//125 126//126
f 103//103 126//126 104//104
f 103//103 124//124 127//127
f 103//103 127//127 125//125
f 104//104 126//126 106//106
f 107//107 128//128 114//114
f 107//107 114//114 108//108
f 108//108 114//114 113//113
f 108//108 112//112 129//129
f 108//108 129//129 130//130
f 108//108 130//130 131//131
f 108//108 131//131 110//110
f 111//111 114//114 128//128
f 111//111 128//128 116//116
f 115//115 116//116 128//128
f 115//115 128//128 117//117
f 117//117 132//132 133//133
f 117//117 133//133 118//118
f 117//117 128//128 134//134
f 117//117 134//134 132//132
f 118//118 133//133 121//121
f 132//132 135//135 136//136
f 132//132 136//136 133//133
f 132//132 134//134 135//135

