# https://github.com/mikedh/trimesh
v 1.98489890 1.19082020 -4.70909576
v 1.98489890 1.18235159 -4.67312833
v 1.98489890 1.15694604 -4.76548210
v 0.71357720 1.16840343 -4.68628134
v 0.61869460 1.16715805 -4.68380504
v -0.33275974 1.16616174 -4.59932674
v -0.61425361 1.16665989 -4.41827271
v 1.98489890 1.17388312 -4.64081469
v -0.61530492 1.16616174 -4.41628350
v 1.98489890 1.13178942 -4.77376330
v -0.10646084 1.14299788 -4.66241136
v 0.11169032 1.15246266 -4.66862255
v 0.23811286 1.15694604 -4.67243823
v 0.33325828 1.16018404 -4.67536109
v -0.42790517 1.16317296 -4.58885304
v -0.61819602 1.16317296 -4.50234500
v 0.14296743 1.15370804 -4.66947483
v -0.68495555 1.15943681 -4.42383434
v -0.68442990 1.15868958 -4.41628350
v -0.61661906 1.16616174 -4.41628350
v 1.79250528 -0.82369779 -4.36988348
v 1.80985234 -0.83764594 -4.36988348
v 1.98489890 0.80849021 -4.59494231
v -0.55275077 1.13726911 -4.41628350
v 1.75465751 -0.81498017 -4.36988348
v 1.98489890 1.09368096 -4.78460246
v 0.04755914 1.09393003 -4.67548301
v -0.04732346 1.09393003 -4.66996192
v -0.14010337 1.09069211 -4.66415703
v -0.20108054 1.05706695 -4.66233028
v -0.33275974 1.09393003 -4.63509089
v 0.33325828 1.09368096 -4.69188352
v -0.42790517 1.09393003 -4.61337258
v -0.50333816 1.15196450 -4.57517267
v -0.67601927 1.15271173 -4.48253481
v -0.70019985 1.09393003 -4.42383434
v -0.69941136 1.09368096 -4.41628350
v 0.11169032 -1.21997594 -4.36988348
v 1.72522024 -0.81722179 -4.36988348
v 1.81011517 -0.83814410 -4.36988348
v 1.91288281 -0.74125400 -4.45533597
v 1.98489890 0.71309450 -4.59368403
v 1.98489890 1.05930864 -4.78293817
v 0.58768032 -1.24861963 -4.67495537
v -0.39715375 0.23736141 -4.66979975
v -0.50675499 1.09393003 -4.58008475
v -0.55432774 1.09393003 -4.55658023
v -0.67575644 1.09393003 -4.48212881
v -0.61819602 1.09393003 -4.51976053
v -0.66261477 -0.04957290 -4.41628350
v 0.11169032 -1.32134949 -4.36988348
v 1.81011517 -0.85956456 -4.36988348
v 1.91288281 -0.77388278 -4.45533597
v 1.98489890 -0.39279813 -4.60480700
v 1.98489890 -0.33227293 -4.70036772
v 0.52354914 -1.24662702 -4.67243823
v 1.85505957 -0.68595930 -4.66610541
v 1.37933236 -1.18909070 -4.61483387
v 1.37933236 -1.26979102 -4.58986806
v 1.37933236 -1.31761334 -4.53088350
v -0.04732346 -1.32408934 -4.53689140
v -0.14246889 -1.32085134 -4.53819051
v -0.39215995 0.16712228 -4.66736398
v -0.44472650 0.23736141 -4.63440079
v -0.62345272 -0.05380718 -4.45350921
v -0.29149500 -1.17240262 -4.45013980
v -0.27388526 -1.19805746 -4.42062739
v -0.27178256 -1.19755931 -4.41628350
v -0.21842753 -1.18884162 -4.58483436
v -0.20738855 -1.25609194 -4.57789253
v -0.26967994 -1.19805746 -4.51878605
v -0.29149500 -1.17240262 -4.48700033
v -0.22000450 -1.28174656 -4.41628350
v -0.21159387 -1.28797348 -4.41628350
v -0.15429635 -1.32408934 -4.41628350
v -0.09331917 -1.33181058 -4.41628350
v 1.43321319 -1.35273289 -4.36988348
v 1.65372966 -1.27028917 -4.36988348
v 1.91288281 -0.77388278 -4.50202036
v 1.98489890 -0.50662538 -4.62721541
v 1.98489890 -0.49068461 -4.61731017
v 1.98489890 -0.43040845 -4.68745854
v -0.04732346 -1.27651595 -4.59478014
v -0.14246889 -1.27352703 -4.58909659
v -0.14246889 -1.18884162 -4.61312903
v -0.04732346 -1.18884162 -4.62295289
v 1.90342073 -0.66752783 -4.66228973
v 1.47447786 -1.18884162 -4.59985438
v 1.46843268 -1.18909070 -4.60078803
v 1.47447786 -1.25982795 -4.58020638
v 1.46843268 -1.30665410 -4.52390113
v 1.46843268 -1.31063919 -4.51850196
v 1.46843268 -1.31786242 -4.50725707
v 1.44766886 -1.33604488 -4.48432102
v -0.14246889 -1.33430134 -4.49061301
v -0.19345840 -1.33330504 -4.47827230
v -0.22237002 -1.28647902 -4.43000470
v -0.22131871 -1.28647902 -4.51354934
v -0.19345840 -1.33330504 -4.46585021
v -0.14246889 -1.33430134 -4.44928752
v 1.47552917 -1.35372919 -4.36988348
v 1.62954908 -1.29071319 -4.36988348
v 1.57304012 -1.30889565 -4.42931460
v 1.63506861 -1.25883164 -4.42387489
v 1.62140128 -1.24064917 -4.47782574
v 1.90158093 -0.75993462 -4.56542990
v 1.98489890 -0.50562908 -4.67207305
v 1.59354097 -1.20577870 -4.54123528
v 1.53046117 -1.24612886 -4.57160026
v 1.47736897 -1.30964288 -4.51724339
v 1.51127446 -1.32757627 -4.46467301
v 1.54360284 -1.34003011 -4.40126347
v 1.47736897 -1.34401534 -4.42931460
v 1.55122499 -1.34301903 -4.36988348
v 1.59406662 -1.31885872 -4.36988348
v 1.56515500 -1.26182056 -4.51330579
vn 0.62928821 0.76625114 -0.12982888
vn 0.71056322 0.68296013 0.16930853
vn 0.62162701 0.48409910 -0.61581484
vn -0.02445960 0.86409599 -0.50273238
vn -0.03098572 0.86734190 -0.49674733
vn -0.05511929 0.93969956 -0.33753016
vn -0.03493855 0.99433979 0.10033781
vn 0.62331241 0.52868971 0.57616736
vn 0.01258384 0.62454063 0.78089093
vn 0.68478756 0.21347275 -0.69677499
vn -0.08037418 0.52703954 -0.84603151
vn -0.04895939 0.71102960 -0.70145554
vn -0.04596979 0.74115566 -0.66975747
vn -0.04094306 0.77637682 -0.62893776
vn -0.15187955 0.78410510 -0.60175726
vn -0.21487380 0.90833397 -0.35882956
vn -0.04615119 0.74579955 -0.66456986
vn -0.67314388 0.73928427 -0.01833238
vn -0.51459207 0.57467556 0.63635132
vn -0.05743677 0.67127647 0.73897829
vn 0.04813717 0.06460019 0.99674953
vn 0.10135568 0.06500413 0.99272428
vn 0.74287592 0.08140330 0.66446134
vn 0.05703132 0.11665206 0.99153403
vn 0.00296391 0.01637833 0.99986147
vn 0.65741196 0.09440514 -0.74759427
vn -0.05722390 0.05809496 -0.99666965
vn -0.05899841 0.05963719 -0.99647508
vn -0.06876496 0.07239466 -0.99500271
vn -0.12474629 0.08452903 -0.98858141
vn -0.19764296 0.20202203 -0.95923113
vn -0.05607693 0.05927374 -0.99666544
vn -0.28090652 0.16791711 -0.94493141
vn -0.33682552 0.52629138 -0.78074705
vn -0.67076439 0.53803423 -0.51048437
vn -0.99067311 0.06993537 -0.11694375
vn -0.70576080 0.06954916 0.70502809
vn -0.02675719 0.00474466 0.99963070
vn -0.00128644 0.01079128 0.99994094
vn 0.34066959 0.01691013 0.94003100
vn 0.76734299 0.01582130 0.64104167
vn 0.96328233 0.00335341 0.26846957
vn 0.70793677 -0.03548685 -0.70538374
vn -0.00240243 -0.52659109 -0.85011532
vn -0.33700855 -0.02320961 -0.94121547
vn -0.41659166 0.07120651 -0.90630073
vn -0.47054288 0.07168725 -0.87946025
vn -0.78175646 -0.01678273 -0.62335799
vn -0.51343568 0.03105473 -0.85756598
vn -0.93398351 -0.13222286 0.33195167
vn -0.04980371 -0.57449986 0.81698807
vn 0.43156003 -0.12081143 0.89395779
vn 0.88556898 -0.22513144 0.40630459
vn 0.97590545 -0.00565059 0.21812068
vn 0.71211543 -0.05559244 -0.69985792
vn -0.05832210 -0.41959005 -0.90583813
vn 0.11895334 -0.18518142 -0.97547832
vn 0.11005411 -0.24196600 -0.96402311
vn 0.10636198 -0.56570666 -0.81771823
vn 0.06300202 -0.85324888 -0.51768436
vn -0.01178046 -0.92068822 -0.39012104
vn -0.18118827 -0.84832180 -0.49751476
vn -0.36223015 -0.07605718 -0.92898042
vn -0.62782085 -0.05455637 -0.77644355
vn -0.66176142 -0.11009346 -0.74158699
vn -0.91295285 -0.39290434 0.11019651
vn -0.85886359 -0.42637772 0.28382278
vn -0.55480651 -0.26077636 0.79005407
vn -0.54825913 -0.15790062 -0.82126690
vn -0.53947884 -0.44703729 -0.71352663
vn -0.83850184 -0.35415108 -0.41411553
vn -0.90949000 -0.37855598 -0.17182348
vn -0.51885108 -0.42918115 0.73932206
vn -0.36662201 -0.51669469 0.77370207
vn -0.22474338 -0.69193770 0.68608501
vn -0.06644562 -0.92629190 0.37090200
vn -0.01384786 -0.58810617 0.80866517
vn 0.64388764 -0.55097760 0.53087889
vn 0.90863039 -0.40153882 -0.11470565
vn 0.98902083 -0.13271830 0.06498969
vn 0.98419891 -0.03999897 0.17248938
vn 0.73902415 -0.09348842 -0.66716056
vn -0.05962445 -0.70780624 -0.70388582
vn -0.18132214 -0.52823791 -0.82951009
vn -0.20600817 -0.15839670 -0.96564544
vn -0.09884405 -0.10732387 -0.98929846
vn 0.52412523 -0.35179516 -0.77558553
vn 0.16691415 -0.25661817 -0.95199096
vn 0.15344474 -0.25313125 -0.95518547
vn 0.19834889 -0.54812735 -0.81253562
vn 0.16752567 -0.77765813 -0.60595626
vn 0.15549858 -0.81349666 -0.56039573
vn 0.20295924 -0.84421309 -0.49609657
vn 0.10960930 -0.93167057 -0.34637515
vn -0.03664506 -0.98878234 -0.14479856
vn -0.48527830 -0.85936708 -0.16122403
vn -0.78812847 -0.58346394 0.19601875
vn -0.76338654 -0.58657235 -0.27050668
vn -0.48712742 -0.86055319 0.14884581
vn -0.04663936 -0.99397053 0.09923386
vn 0.05083755 -0.77086269 0.63496949
vn 0.52626084 -0.63376816 0.56691044
vn 0.53483492 -0.74965581 -0.38983045
vn 0.67442172 -0.63555933 -0.37579207
vn 0.66009345 -0.59592711 -0.45732650
vn 0.81203983 -0.46641885 -0.35077737
vn 0.80653823 -0.20532595 -0.55438015
vn 0.62803428 -0.51077128 -0.58709935
vn 0.39209851 -0.54643633 -0.74004466
vn 0.27215378 -0.79678207 -0.53950965
vn 0.34699660 -0.84647718 -0.40381895
vn 0.33730766 -0.90706568 -0.25190354
vn 0.09686811 -0.97819661 -0.18370620
vn 0.27305915 -0.74968986 0.60282984
vn 0.47834964 -0.66780337 0.57028088
vn 0.52571310 -0.69933171 -0.48431488
f 1//1 2//2 8//8
f 1//1 8//8 23//23
f 1//1 23//23 42//42
f 1//1 42//42 54//54
f 1//1 54//54 81//81
f 1//1 81//81 80//80
f 1//1 80//80 107//107
f 1//1 107//107 82//82
f 1//1 82//82 55//55
f 1//1 55//55 43//43
f 1//1 43//43 26//26
f 1//1 26//26 10//10
f 1//1 10//10 3//3
f 1//1 3//3 4//4
f 1//1 4//4 5//5
f 1//1 5//5 6//6
f 1//1 6//6 7//7
f 1//1 7//7 2//2
f 2//2 7//7 9//9
f 2//2 9//9 8//8
f 3//3 10//10 11//11
f 3//3 11//11 12//12
f 3//3 12//12 13//13
f 3//3 13//13 14//14
f 3//3 14//14 5//5
f 3//3 5//5 4//4
f 5//5 14//14 6//6
f 6//6 11//11 15//15
f 6//6 15//15 16//16
f 6//6 16//16 7//7
f 6//6 14//14 13//13
f 6//6 13//13 17//17
f 6//6 17//17 12//12
f 6//6 12//12 11//11
f 7//7 16//16 18//18
f 7//7 18//18 19//19
f 7//7 19//19 20//20
f 7//7 20//20 9//9
f 8//8 21//21 22//22
f 8//8 22//22 23//23
f 8//8 9//9 24//24
f 8//8 24//24 21//21
f 9//9 20//20 25//25
f 9//9 25//25 21//21
f 9//9 21//21 24//24
f 10//10 26//26 11//11
f 11//11 27//27 28//28
f 11//11 28//28 29//29
f 11//11 29//29 30//30
f 11//11 30//30 31//31
f 11//11 31//31 15//15
f 11//11 26//26 32//32
f 11//11 32//32 27//27
f 12//12 17//17 13//13
f 15//15 33//33 34//34
f 15//15 34//34 16//16
f 15//15 31//31 33//33
f 16//16 35//35 18//18
f 16//16 34//34 35//35
f 18//18 35//35 36//36
f 18//18 36//36 19//19
f 19//19 36//36 37//37
f 19//19 37//37 38//38
f 19//19 38//38 39//39
f 19//19 39//39 20//20
f 20//20 39//39 25//25
f 21//21 25//25 39//39
f 21//21 39//39 38//38
f 21//21 38//38 51//51
f 21//21 51//51 77//77
f 21//21 77//77 101//101
f 21//21 101//101 114//114
f 21//21 114//114 115//115
f 21//21 115//115 102//102
f 21//21 102//102 78//78
f 21//21 78//78 52//52
f 21//21 52//52 40//40
f 21//21 40//40 22//22
f 22//22 40//40 23//23
f 23//23 40//40 41//41
f 23//23 41//41 42//42
f 26//26 43//43 44//44
f 26//26 44//44 45//45
f 26//26 45//45 32//32
f 27//27 30//30 28//28
f 27//27 32//32 30//30
f 28//28 30//30 29//29
f 30//30 45//45 31//31
f 30//30 32//32 45//45
f 31//31 45//45 33//33
f 33//33 45//45 46//46
f 33//33 46//46 34//34
f 34//34 46//46 47//47
f 34//34 47//47 35//35
f 35//35 48//48 36//36
f 35//35 47//47 49//49
f 35//35 49//49 45//45
f 35//35 45//45 48//48
f 36//36 48//48 50//50
f 36//36 50//50 37//37
f 37//37 50//50 51//51
f 37//37 51//51 38//38
f 40//40 52//52 53//53
f 40//40 53//53 41//41
f 41//41 53//53 42//42
f 42//42 53//53 54//54
f 43//43 55//55 44//44
f 44//44 56//56 45//45
f 44//44 55//55 57//57
f 44//44 57//57 58//58
f 44//44 58//58 59//59
f 44//44 59//59 60//60
f 44//44 60//60 61//61
f 44//44 61//61 62//62
f 44//44 62//62 56//56
f 45//45 63//63 64//64
f 45//45 64//64 48//48
f 45//45 49//49 47//47
f 45//45 47//47 46//46
f 45//45 56//56 63//63
f 48//48 65//65 50//50
f 48//48 64//64 65//65
f 50//50 66//66 67//67
f 50//50 67//67 68//68
f 50//50 68//68 51//51
f 50//50 65//65 69//69
f 50//50 69//69 70//70
f 50//50 70//70 71//71
f 50//50 71//71 72//72
f 50//50 72//72 66//66
f 51//51 68//68 73//73
f 51//51 73//73 74//74
f 51//51 74//74 75//75
f 51//51 75//75 76//76
f 51//51 76//76 77//77
f 52//52 78//78 53//53
f 53//53 79//79 80//80
f 53//53 80//80 81//81
f 53//53 81//81 54//54
f 53//53 78//78 79//79
f 55//55 82//82 57//57
f 56//56 62//62 83//83
f 56//56 83//83 84//84
f 56//56 84//84 85//85
f 56//56 85//85 86//86
f 56//56 86//86 63//63
f 57//57 82//82 87//87
f 57//57 87//87 88//88
f 57//57 88//88 89//89
f 57//57 89//89 58//58
f 58//58 89//89 90//90
f 58//58 90//90 59//59
f 59//59 91//91 60//60
f 59//59 90//90 91//91
f 60//60 91//91 92//92
f 60//60 92//92 93//93
f 60//60 93//93 94//94
f 60//60 94//94 61//61
f 61//61 95//95 62//62
f 61//61 94//94 95//95
f 62//62 84//84 83//83
f 62//62 95//95 96//96
f 62//62 96//96 70//70
f 62//62 70//70 84//84
f 63//63 86//86 85//85
f 63//63 85//85 69//69
f 63//63 69//69 65//65
f 63//63 65//65 64//64
f 66//66 72//72 97//97
f 66//66 97//97 67//67
f 67//67 97//97 73//73
f 67//67 73//73 68//68
f 69//69 85//85 70//70
f 70//70 96//96 98//98
f 70//70 98//98 71//71
f 70//70 85//85 84//84
f 71//71 98//98 72//72
f 72//72 98//98 96//96
f 72//72 96//96 97//97
f 73//73 99//99 74//74
f 73//73 97//97 99//99
f 74//74 99//99 75//75
f 75//75 99//99 76//76
f 76//76 99//99 100//100
f 76//76 100//100 101//101
f 76//76 101//101 77//77
f 78//78 102//102 103//103
f 78//78 103//103 104//104
f 78//78 104//104 105//105
f 78//78 105//105 106//106
f 78//78 106//106 79//79
f 79//79 106//106 107//107
f 79//79 107//107 80//80
f 82//82 107//107 87//87
f 87//87 106//106 105//105
f 87//87 105//105 108//108
f 87//87 108//108 109//109
f 87//87 109//109 90//90
f 87//87 90//90 88//88
f 87//87 107//107 106//106
f 88//88 90//90 89//89
f 90//90 109//109 110//110
f 90//90 110//110 91//91
f 91//91 110//110 92//92
f 92//92 110//110 93//93
f 93//93 110//110 111//111
f 93//93 111//111 94//94
f 94//94 111//111 112//112
f 94//94 112//112 113//113
f 94//94 113//113 101//101
f 94//94 101//101 95//95
f 95//95 100//100 99//99
f 95//95 99//99 96//96
f 95//95 101//101 100//100
f 96//96 99//99 97//97
f 101//101 113//113 112//112
f 101//101 112//112 114//114
f 102//102 115//115 103//103
f 103//103 112//112 111//111
f 103//103 111//111 116//116
f 103//103 116//116 105//105
f 103//103 105//105 104//104
f 103//103 115//115 112//112
f 105//105 116//116 109//109
f 105//105 109//109 108//108
f 109//109 116//116 111//111
f 109//109 111//111 110//110
f 112//112 115//115 114//114

