# https://github.com/mikedh/trimesh
v 2.61488914 0.12129771 -0.73330013
v 2.46003737 0.90380171 -0.67616755
v 2.45420242 0.99884563 -0.67772977
v 2.44948938 1.09403239 -0.67683709
v 2.49257868 1.09403239 -0.67683709
v 2.63074840 0.12129771 -0.73173790
v 2.54314878 0.12129771 -0.64514636
v 2.01463232 1.39988779 -0.40590383
v 2.45614740 1.15963414 -0.67281997
v 2.01463232 1.44619495 -0.40590383
v 2.48547184 1.15963414 -0.67281997
v 2.68019631 0.12129771 -0.71187541
v 2.50903646 0.12129771 -0.55007422
v 2.48779107 0.12129771 -0.45277039
v 2.33570693 0.12129771 0.42631208
v 2.01463232 1.38145072 -0.35903727
v 2.50207932 0.12129771 -0.52284702
v 2.42585019 1.25339164 -0.59515535
v 2.01463232 1.46606127 -0.33270275
v 2.14060848 1.46906267 -0.33270275
v 2.14060848 1.44433687 -0.40010128
v 2.23583861 1.44133562 -0.39987814
v 2.49257868 1.24710306 -0.59069189
v 2.50821339 1.19050549 -0.62082040
v 2.55653911 1.18750409 -0.51704447
v 2.56581548 1.21808965 -0.46839255
v 2.61099918 0.99884563 -0.42777489
v 2.77527703 0.34011300 0.52607085
v 2.77879274 0.24635546 0.52272323
v 2.75178725 0.19876202 0.52272323
v 2.66987288 0.12129771 0.31093111
v 2.33555723 0.12129771 0.42787430
v 2.01463232 1.37258957 -0.33270275
v 2.01463232 1.56339190 1.47433723
v 2.23576390 1.58111435 1.28419296
v 2.33076962 1.57911351 1.28419296
v 2.23583861 1.47106351 -0.23740741
v 2.23583861 1.46363146 -0.33270275
v 2.29052309 1.43476110 -0.39229023
v 2.50956013 1.25610725 -0.52307016
v 2.57449305 1.24267241 -0.40501115
v 2.57838301 1.18750409 -0.43335424
v 2.59626211 1.18907624 -0.33270275
v 2.74004251 0.52334043 0.52272323
v 2.61331813 1.18921914 1.47433723
v 2.60950301 1.18921914 1.54664563
v 2.76906783 0.32396270 0.61020742
v 2.77093796 0.26164821 0.61779540
v 2.62162201 0.12129771 1.54664563
v 2.01463232 1.38859683 0.99875342
v 2.01463232 1.38302287 0.90345815
v 2.01463232 1.37716311 0.71309067
v 2.01463232 1.37630545 0.68229269
v 2.01463232 1.37473330 0.61801854
v 2.01463232 1.37416171 0.52294640
v 2.01463232 1.37401882 0.49214841
v 2.01463232 1.37373288 0.39752262
v 2.01463232 1.37344709 0.30222731
v 2.49744113 0.12129771 1.54664563
v 2.01463232 1.43862001 1.54664563
v 2.01463232 1.55953298 1.54664563
v 2.03438154 1.56039050 1.54664563
v 2.16372400 1.56396363 1.54664563
v 2.33076962 1.57797005 1.37926517
v 2.40408113 1.54838492 1.37926517
v 2.29658245 1.44133562 -0.33270275
v 2.57987918 1.24767464 -0.33270275
v 2.58309605 1.25996616 0.33302533
v 2.59042716 1.27354376 1.47433723
v 2.60396719 1.20951429 1.54664563
v 2.61541281 1.11704300 1.54664563
v 2.61773176 1.02171328 1.54664563
v 2.61982645 0.92666943 1.54664563
v 2.62109834 0.83162557 1.54664563
v 2.62132261 0.80861496 1.54664563
v 2.62169658 0.71357110 1.54664563
v 2.62229510 0.52348336 1.54664563
v 2.62229510 0.42843947 1.54664563
v 2.62214568 0.33310979 1.54664563
v 2.62192113 0.23792300 1.54664563
v 2.23576390 1.56567867 1.54664563
v 2.25880457 1.56582157 1.54664563
v 2.33076962 1.57068091 1.47433723
v 2.40580185 1.54238227 1.54664563
v 2.40767198 1.54509773 1.47433723
v 2.55908261 1.32113713 1.47433723
v 2.58638750 1.26596882 1.54664563
v 2.33076962 1.56510694 1.54664563
vn -0.23789962 -0.62856391 -0.74048037
vn -0.55293231 -0.04847182 -0.83181509
vn -0.46925273 -0.02579655 -0.88268704
vn -0.28594093 0.03876470 -0.95746284
vn 0.06989706 0.06765156 -0.99525759
vn 0.19007638 -0.64333049 -0.74161772
vn -0.55531461 -0.75815222 -0.34180534
vn -0.87971038 -0.09203834 -0.46651751
vn -0.17186959 0.32250724 -0.93083292
vn -0.65647364 0.55364239 -0.51236946
vn 0.41669542 0.34674962 -0.84031519
vn 0.66710593 -0.55758658 -0.49403126
vn -0.56809509 -0.80348499 -0.17798830
vn -0.56968667 -0.81475029 -0.10788449
vn -0.59123513 -0.80329428 -0.07182836
vn -0.98483341 -0.16213347 -0.06177286
vn -0.56919519 -0.81150412 -0.13220397
vn 0.03683982 0.69641672 -0.71669142
vn -0.69410323 0.70997413 -0.11898505
vn 0.01980641 0.97980543 -0.19896993
vn 0.03014283 0.93589133 -0.35099690
vn 0.08853635 0.86389039 -0.49583739
vn 0.49710733 0.68692852 -0.53010708
vn 0.79864880 0.35041633 -0.48925299
vn 0.90155364 0.24513282 -0.35652622
vn 0.88604895 0.35888943 -0.29345466
vn 0.97711864 0.13643197 -0.16317316
vn 0.99539938 0.09572066 -0.00419768
vn 0.97392111 -0.22657819 0.01183168
vn 0.78092373 -0.62409871 0.02566947
vn 0.36398013 -0.93139138 0.00534365
vn -0.62221962 -0.78280733 0.00744518
vn -0.98620220 -0.16064666 -0.03997350
vn -0.71690495 0.69699155 0.01581373
vn -0.04215448 0.99889389 -0.02083256
vn 0.24621086 0.96804862 -0.04756140
vn 0.08190834 0.99373009 -0.07610211
vn 0.17666971 0.96827966 -0.17669838
vn 0.33855002 0.87692958 -0.34114279
vn 0.57039388 0.78615973 -0.23791532
vn 0.81994594 0.54300007 -0.18121695
vn 0.96720525 0.16330363 -0.19454029
vn 0.97608437 0.20100532 -0.08280194
vn 0.98136327 0.19191178 -0.00979827
vn 0.97845751 0.20432635 0.02952346
vn 0.69255787 0.12975541 0.70959646
vn 0.99337603 0.05805998 0.09916200
vn 0.98898026 -0.09263169 0.11548776
vn 0.52670175 -0.58813666 0.61374305
vn -0.99154053 -0.12938401 0.01035159
vn -0.99182090 -0.12748976 0.00613754
vn -0.99206343 -0.12568356 0.00371315
vn -0.99207290 -0.12561997 0.00331521
vn -0.99202631 -0.12601447 0.00203969
vn -0.99213702 -0.12515464 0.00067087
vn -0.99213734 -0.12515300 0.00048288
vn -0.99214591 -0.12508540 0.00037654
vn -0.99213658 -0.12515963 0.00026597
vn -0.41714921 -0.65812906 0.62677960
vn -0.72350163 -0.10350281 0.68251927
vn -0.59111582 0.54665383 0.59308657
vn -0.02525127 0.68912171 0.72420553
vn -0.01804813 0.68639274 0.72700707
vn 0.17845642 0.98322461 0.03771841
vn 0.62617729 0.77959186 -0.01176980
vn 0.45438164 0.88355213 -0.11345906
vn 0.81708808 0.57187366 -0.07299032
vn 0.90677414 0.42144696 -0.01196349
vn 0.90804485 0.41722254 0.03714694
vn 0.66330026 0.18770152 0.72443143
vn 0.67320417 0.04461071 0.73810977
vn 0.65430282 0.01549346 0.75607392
vn 0.65392261 0.01269530 0.75645492
vn 0.65152521 0.00794654 0.75858537
vn 0.65083222 0.00508756 0.75920454
vn 0.64934851 0.00237264 0.76048727
vn 0.64940635 0.00119928 0.76044063
vn 0.64897892 -0.00045181 0.76080626
vn 0.64881646 -0.00126142 0.76094390
vn 0.64873488 -0.00159823 0.76101282
vn -0.01228345 0.68633844 0.72717856
vn -0.00018214 0.68291927 0.73049383
vn 0.15098194 0.98563590 0.07567247
vn 0.45218337 0.59999331 0.65995320
vn 0.62308036 0.78166765 0.02768680
vn 0.83263838 0.55266962 0.03563165
vn 0.63775052 0.29559488 0.71126503
vn 0.10828032 0.70187343 0.70402348
f 1//1 2//2 3//3
f 1//1 3//3 4//4
f 1//1 4//4 5//5
f 1//1 5//5 6//6
f 1//1 6//6 12//12
f 1//1 12//12 31//31
f 1//1 31//31 49//49
f 1//1 49//49 59//59
f 1//1 59//59 32//32
f 1//1 32//32 15//15
f 1//1 15//15 14//14
f 1//1 14//14 17//17
f 1//1 17//17 13//13
f 1//1 13//13 7//7
f 1//1 7//7 8//8
f 1//1 8//8 2//2
f 2//2 8//8 3//3
f 3//3 8//8 4//4
f 4//4 9//9 11//11
f 4//4 11//11 5//5
f 4//4 8//8 10//10
f 4//4 10//10 9//9
f 5//5 11//11 6//6
f 6//6 11//11 12//12
f 7//7 13//13 8//8
f 8//8 14//14 15//15
f 8//8 15//15 16//16
f 8//8 16//16 33//33
f 8//8 33//33 58//58
f 8//8 58//58 57//57
f 8//8 57//57 56//56
f 8//8 56//56 55//55
f 8//8 55//55 54//54
f 8//8 54//54 53//53
f 8//8 53//53 52//52
f 8//8 52//52 51//51
f 8//8 51//51 50//50
f 8//8 50//50 60//60
f 8//8 60//60 61//61
f 8//8 61//61 34//34
f 8//8 34//34 19//19
f 8//8 19//19 10//10
f 8//8 13//13 17//17
f 8//8 17//17 14//14
f 9//9 10//10 18//18
f 9//9 18//18 11//11
f 10//10 19//19 20//20
f 10//10 20//20 21//21
f 10//10 21//21 22//22
f 10//10 22//22 18//18
f 11//11 18//18 23//23
f 11//11 23//23 24//24
f 11//11 24//24 12//12
f 12//12 24//24 25//25
f 12//12 25//25 26//26
f 12//12 26//26 27//27
f 12//12 27//27 28//28
f 12//12 28//28 29//29
f 12//12 29//29 30//30
f 12//12 30//30 31//31
f 15//15 32//32 33//33
f 15//15 33//33 16//16
f 18//18 22//22 23//23
f 19//19 34//34 35//35
f 19//19 35//35 20//20
f 20//20 35//35 36//36
f 20//20 36//36 37//37
f 20//20 37//37 38//38
f 20//20 38//38 22//22
f 20//20 22//22 21//21
f 22//22 38//38 39//39
f 22//22 39//39 23//23
f 23//23 39//39 40//40
f 23//23 40//40 41//41
f 23//23 41//41 26//26
f 23//23 26//26 24//24
f 24//24 26//26 25//25
f 26//26 41//41 42//42
f 26//26 42//42 27//27
f 27//27 42//42 41//41
f 27//27 41//41 43//43
f 27//27 43//43 28//28
f 28//28 44//44 45//45
f 28//28 45//45 46//46
f 28//28 46//46 47//47
f 28//28 47//47 48//48
f 28//28 48//48 29//29
f 28//28 43//43 44//44
f 29//29 48//48 49//49
f 29//29 49//49 30//30
f 30//30 49//49 31//31
f 32//32 50//50 51//51
f 32//32 51//51 52//52
f 32//32 52//52 53//53
f 32//32 53//53 54//54
f 32//32 54//54 55//55
f 32//32 55//55 56//56
f 32//32 56//56 57//57
f 32//32 57//57 58//58
f 32//32 58//58 33//33
f 32//32 59//59 60//60
f 32//32 60//60 50//50
f 34//34 61//61 62//62
f 34//34 62//62 35//35
f 35//35 62//62 63//63
f 35//35 63//63 64//64
f 35//35 64//64 36//36
f 36//36 64//64 65//65
f 36//36 65//65 66//66
f 36//36 66//66 38//38
f 36//36 38//38 37//37
f 38//38 66//66 39//39
f 39//39 66//66 41//41
f 39//39 41//41 40//40
f 41//41 66//66 67//67
f 41//41 67//67 43//43
f 43//43 67//67 68//68
f 43//43 68//68 69//69
f 43//43 69//69 45//45
f 43//43 45//45 44//44
f 45//45 69//69 46//46
f 46//46 69//69 70//70
f 46//46 70//70 87//87
f 46//46 87//87 84//84
f 46//46 84//84 88//88
f 46//46 88//88 82//82
f 46//46 82//82 81//81
f 46//46 81//81 63//63
f 46//46 63//63 62//62
f 46//46 62//62 61//61
f 46//46 61//61 60//60
f 46//46 60//60 59//59
f 46//46 59//59 49//49
f 46//46 49//49 80//80
f 46//46 80//80 79//79
f 46//46 79//79 78//78
f 46//46 78//78 77//77
f 46//46 77//77 76//76
f 46//46 76//76 75//75
f 46//46 75//75 74//74
f 46//46 74//74 73//73
f 46//46 73//73 72//72
f 46//46 72//72 71//71
f 46//46 71//71 47//47
f 47//47 71//71 48//48
f 48//48 71//71 72//72
f 48//48 72//72 73//73
f 48//48 73//73 74//74
f 48//48 74//74 75//75
f 48//48 75//75 76//76
f 48//48 76//76 77//77
f 48//48 77//77 78//78
f 48//48 78//78 79//79
f 48//48 79//79 80//80
f 48//48 80//80 49//49
f 63//63 81//81 64//64
f 64//64 81//81 82//82
f 64//64 82//82 83//83
f 64//64 83//83 84//84
f 64//64 84//84 85//85
f 64//64 85//85 65//65
f 65//65 68//68 67//67
f 65//65 67//67 66//66
f 65//65 85//85 86//86
f 65//65 86//86 68//68
f 68//68 86//86 69//69
f 69//69 86//86 84//84
f 69//69 84//84 87//87
f 69//69 87//87 70//70
f 82//82 88//88 83//83
f 83//83 88//88 84//84
f 84//84 86//86 85//85

