# https://github.com/mikedh/trimesh
v 0.11163271 -0.91816105 1.19983417
v 0.05017854 -0.91816105 1.21719952
v -0.04761805 0.33283945 1.37790850
v 0.04752811 0.33283945 1.37854005
v 0.11167763 0.33754940 1.39306377
v 0.11167763 0.26874333 1.39053798
v 0.11167763 0.23782157 1.39369532
v 0.11167763 0.01809273 1.51020146
v 0.11163271 -0.91816105 1.65543946
v -0.05467090 -0.91816105 1.29676475
v -0.11531647 0.33283945 1.40790333
v -0.11095897 0.40696974 1.41327088
v -0.04761805 0.42069002 1.40537755
v -0.05058294 1.17387050 1.67343636
v 0.09779655 1.17387050 1.69901089
v 0.11167763 1.17387050 1.70311548
v 0.11167763 0.01809273 1.69238037
v 0.11167763 0.06437299 1.74352944
v 0.11167763 0.09918557 1.76026337
v 0.11163271 -0.69024089 1.74573966
v 0.10776936 -0.42812267 2.61622057
v 0.10179466 -0.91816105 2.42614818
v -0.11262111 -0.91816105 1.40285162
v -0.12479515 -0.33290001 1.39622110
v -0.32519504 1.17387050 1.85719409
v -0.29985867 1.17387050 1.80793940
v -0.24716441 1.17387050 1.75015996
v -0.18737239 1.17387050 1.69711638
v -0.13759809 1.17387050 1.67027902
v 0.11167763 1.17387050 1.82372622
v 0.11167763 0.14259892 1.77447152
v 0.11163271 -0.62204927 1.76910397
v 0.10794907 -0.33290001 2.61622057
v 0.10534354 -0.04743683 2.71157262
v 0.03867835 0.99878368 4.42348674
v 0.03822913 0.90356107 4.42348674
v 0.03769006 0.80854316 4.42348674
v 0.03562360 0.61830263 4.42348674
v 0.03553376 0.61830263 4.42538125
v 0.02574062 0.01809273 4.42348674
v 0.10296264 -0.42812267 2.71157262
v 0.09865006 -0.91816105 2.48424332
v -0.12421115 -0.91816105 1.44958039
v -0.16329384 -0.80839898 1.56987527
v -0.15287179 -0.33290001 1.47483921
v -0.34725206 1.17387050 1.94559977
v 0.11167763 0.40430766 1.83225097
v 0.03836389 1.17387050 4.42348674
v 0.10538846 0.52328475 2.61653642
v 0.10678107 0.42806210 2.61653642
v 0.10700569 0.33283945 2.61653642
v 0.10776936 -0.04743683 2.61622057
v 0.10790413 -0.14265949 2.61622057
v 0.10794907 -0.23767736 2.61622057
v 0.11167763 0.31789051 1.82435763
v 0.11167763 0.33283945 1.82751496
v 0.10520878 0.23782157 2.71188818
v 0.03854357 1.09380160 4.42348674
v 0.03845373 1.09236809 4.42538125
v 0.03854357 0.99878368 4.42538125
v 0.03854357 0.99714548 4.42538125
v 0.10511894 0.33283945 2.71188818
v 0.03809435 0.90192286 4.42538125
v 0.03751035 0.80690495 4.42538125
v 0.02551601 0.01809273 4.42538125
v -0.04285625 -0.91816105 3.56721397
v -0.14658262 -0.91816105 1.55566726
v -0.31010105 -0.91816105 3.66225017
v -0.31203271 -0.91816105 3.72571273
v -0.34716221 1.17387050 1.95033577
v 0.03822913 1.17387050 4.42538125
v 0.10475955 0.42806210 2.71188818
v 0.10269311 0.52328475 2.71188818
v 0.10763460 0.01809273 2.61653642
v -0.06104992 0.01809273 4.42538125
v -0.08512845 -0.91816105 3.72571273
v -0.08319678 -0.91816105 3.72287124
v -0.06271206 -0.91816105 3.67172218
v -0.05929793 -0.91816105 3.66225017
v -0.06104992 0.01891185 4.42538125
v -0.06078038 0.14505627 4.42538125
v -0.05556935 1.17387050 4.42538125
v -0.30533925 -0.80839898 3.72571273
vn 0.49057314 -0.53081106 -0.69106991
vn -0.32995113 -0.63906469 -0.69478672
vn -0.18437744 0.17945382 -0.96633394
vn 0.10696337 0.23542944 -0.96598748
vn 0.75377751 0.16973494 -0.63483031
vn 0.99999999 0.00000477 -0.00015268
vn 1.00000000 -0.00000980 -0.00007166
vn 1.00000000 -0.00002541 -0.00002068
vn 0.70745423 -0.70675578 0.00218511
vn -0.56040057 -0.65813369 -0.50280339
vn -0.68660843 0.06069108 -0.72448979
vn -0.53661549 0.19248211 -0.82158046
vn -0.07021659 0.31570752 -0.94625493
vn 0.05929236 0.80695859 -0.58762424
vn 0.13540678 0.80834711 -0.57292229
vn 0.65136232 0.66042995 -0.37357651
vn 1.00000000 -0.00003027 0.00001681
vn 1.00000000 -0.00003080 0.00005713
vn 1.00000000 -0.00003106 0.00009143
vn 0.99999608 -0.00099906 0.00261678
vn 0.99945995 -0.01459402 0.02944196
vn 0.70313101 -0.71078103 0.01992778
vn -0.66801742 -0.69312607 -0.27079324
vn -0.86182134 0.00041457 -0.50721179
vn -0.69508570 0.67577832 -0.24531518
vn -0.59941320 0.70428202 -0.38038224
vn -0.46492203 0.75731700 -0.45860492
vn -0.38093242 0.76359499 -0.52135706
vn -0.16238784 0.76358466 -0.62495492
vn 0.70815290 0.70603575 0.00574400
vn 0.99999999 -0.00003048 0.00010575
vn 0.99999621 -0.00068634 0.00266587
vn 0.99982683 -0.00127239 0.01856601
vn 0.99941654 -0.00126587 0.03413180
vn 0.99850932 -0.00070199 0.05457703
vn 0.99850619 -0.00498324 0.05441090
vn 0.99780498 -0.00728769 0.06581883
vn 0.99882788 -0.01172109 0.04696265
vn 0.69049833 -0.00903236 0.72327759
vn 0.99217124 -0.08051243 0.09546711
vn 0.99829503 -0.02722124 0.05163377
vn 0.69396819 -0.71858990 0.04512978
vn -0.65973666 -0.73470055 -0.15799570
vn -0.98249951 -0.08576194 -0.16534690
vn -0.94268836 -0.02358796 -0.33283969
vn -0.74308269 0.66290516 -0.09156895
vn 0.99999709 -0.00002247 0.00241300
vn 0.70897556 0.70422842 0.03762968
vn 0.99951472 0.01942279 0.02435342
vn 0.99984425 0.00719306 0.01611625
vn 0.99990047 0.00213282 0.01394602
vn 0.99989253 0.00149022 0.01458465
vn 0.99987335 0.00058753 0.01590400
vn 0.99987145 0.00007538 0.01603351
vn 0.99999999 -0.00003363 0.00015668
vn 0.99999748 -0.00015306 0.00223934
vn 0.99950133 0.00076240 0.03156761
vn 0.99905399 0.00196940 0.04344256
vn 0.68979636 0.00114648 0.72400253
vn 0.68166726 0.00032721 0.73166224
vn 0.68317731 -0.00234193 0.73024877
vn 0.99957087 0.00221337 0.02920930
vn 0.68335936 -0.00370052 0.73007280
vn 0.67631425 -0.00628627 0.73658640
vn 0.60463813 -0.26513661 0.75107610
vn 0.63214341 -0.76963055 0.08979713
vn -0.66692206 -0.73838875 -0.09998505
vn -0.69255998 -0.72075021 -0.02966164
vn -0.63686883 -0.67367708 0.37490970
vn -0.70926727 0.70418694 0.03256836
vn 0.55377597 0.58187452 0.59561247
vn 0.99953389 0.01067611 0.02860116
vn 0.99932859 0.02292838 0.02857711
vn 0.99986989 0.00198083 0.01600868
vn -0.50463656 -0.23152781 0.83170717
vn 0.30064727 -0.82767329 0.47388622
vn 0.51652340 -0.81855668 0.25133354
vn 0.53958116 -0.81755574 0.20113374
vn 0.61359501 -0.77729374 0.13898061
vn -0.57655513 0.00096921 0.81705767
vn -0.57817119 0.00260049 0.81591134
vn -0.51639411 0.59857508 0.61240917
vn -0.98868121 0.06426660 0.13557016
f 1//1 2//2 3//3
f 1//1 3//3 4//4
f 1//1 4//4 5//5
f 1//1 5//5 6//6
f 1//1 6//6 7//7
f 1//1 7//7 8//8
f 1//1 8//8 17//17
f 1//1 17//17 9//9
f 1//1 9//9 22//22
f 1//1 22//22 42//42
f 1//1 42//42 66//66
f 1//1 66//66 79//79
f 1//1 79//79 78//78
f 1//1 78//78 77//77
f 1//1 77//77 76//76
f 1//1 76//76 69//69
f 1//1 69//69 68//68
f 1//1 68//68 67//67
f 1//1 67//67 43//43
f 1//1 43//43 23//23
f 1//1 23//23 10//10
f 1//1 10//10 2//2
f 2//2 10//10 11//11
f 2//2 11//11 3//3
f 3//3 11//11 12//12
f 3//3 12//12 13//13
f 3//3 13//13 4//4
f 4//4 13//13 14//14
f 4//4 14//14 15//15
f 4//4 15//15 5//5
f 5//5 15//15 16//16
f 5//5 16//16 30//30
f 5//5 30//30 47//47
f 5//5 47//47 56//56
f 5//5 56//56 55//55
f 5//5 55//55 31//31
f 5//5 31//31 19//19
f 5//5 19//19 18//18
f 5//5 18//18 17//17
f 5//5 17//17 8//8
f 5//5 8//8 7//7
f 5//5 7//7 6//6
f 9//9 17//17 18//18
f 9//9 18//18 19//19
f 9//9 19//19 20//20
f 9//9 20//20 21//21
f 9//9 21//21 22//22
f 10//10 23//23 24//24
f 10//10 24//24 11//11
f 11//11 24//24 25//25
f 11//11 25//25 26//26
f 11//11 26//26 12//12
f 12//12 26//26 27//27
f 12//12 27//27 28//28
f 12//12 28//28 29//29
f 12//12 29//29 13//13
f 13//13 29//29 14//14
f 14//14 29//29 28//28
f 14//14 28//28 27//27
f 14//14 27//27 26//26
f 14//14 26//26 25//25
f 14//14 25//25 46//46
f 14//14 46//46 70//70
f 14//14 70//70 82//82
f 14//14 82//82 71//71
f 14//14 71//71 48//48
f 14//14 48//48 30//30
f 14//14 30//30 16//16
f 14//14 16//16 15//15
f 19//19 31//31 32//32
f 19//19 32//32 20//20
f 20//20 32//32 33//33
f 20//20 33//33 21//21
f 21//21 33//33 34//34
f 21//21 34//34 35//35
f 21//21 35//35 36//36
f 21//21 36//36 37//37
f 21//21 37//37 38//38
f 21//21 38//38 39//39
f 21//21 39//39 40//40
f 21//21 40//40 41//41
f 21//21 41//41 22//22
f 22//22 41//41 40//40
f 22//22 40//40 42//42
f 23//23 43//43 44//44
f 23//23 44//44 25//25
f 23//23 25//25 45//45
f 23//23 45//45 24//24
f 24//24 45//45 25//25
f 25//25 44//44 46//46
f 30//30 48//48 49//49
f 30//30 49//49 50//50
f 30//30 50//50 51//51
f 30//30 51//51 52//52
f 30//30 52//52 53//53
f 30//30 53//53 54//54
f 30//30 54//54 47//47
f 31//31 55//55 32//32
f 32//32 55//55 56//56
f 32//32 56//56 33//33
f 33//33 54//54 34//34
f 33//33 56//56 47//47
f 33//33 47//47 54//54
f 34//34 54//54 57//57
f 34//34 57//57 35//35
f 35//35 58//58 59//59
f 35//35 59//59 60//60
f 35//35 60//60 61//61
f 35//35 61//61 63//63
f 35//35 63//63 36//36
f 35//35 57//57 62//62
f 35//35 62//62 58//58
f 36//36 63//63 37//37
f 37//37 63//63 64//64
f 37//37 64//64 39//39
f 37//37 39//39 38//38
f 39//39 64//64 63//63
f 39//39 63//63 61//61
f 39//39 61//61 60//60
f 39//39 60//60 59//59
f 39//39 59//59 71//71
f 39//39 71//71 82//82
f 39//39 82//82 81//81
f 39//39 81//81 80//80
f 39//39 80//80 75//75
f 39//39 75//75 65//65
f 39//39 65//65 40//40
f 40//40 65//65 42//42
f 42//42 65//65 66//66
f 43//43 67//67 44//44
f 44//44 67//67 68//68
f 44//44 68//68 46//46
f 46//46 68//68 69//69
f 46//46 69//69 70//70
f 48//48 71//71 59//59
f 48//48 59//59 58//58
f 48//48 58//58 62//62
f 48//48 62//62 72//72
f 48//48 72//72 73//73
f 48//48 73//73 49//49
f 49//49 73//73 72//72
f 49//49 72//72 50//50
f 50//50 72//72 62//62
f 50//50 62//62 51//51
f 51//51 62//62 74//74
f 51//51 74//74 52//52
f 52//52 74//74 62//62
f 52//52 62//62 53//53
f 53//53 62//62 57//57
f 53//53 57//57 54//54
f 65//65 75//75 69//69
f 65//65 69//69 76//76
f 65//65 76//76 77//77
f 65//65 77//77 78//78
f 65//65 78//78 79//79
f 65//65 79//79 66//66
f 69//69 75//75 80//80
f 69//69 80//80 81//81
f 69//69 81//81 82//82
f 69//69 82//82 83//83
f 69//69 83//83 70//70
f 70//70 83//83 82//82

