# https://github.com/mikedh/trimesh
v -1.26953188 -1.19341999 -0.08245778
v -2.18499930 -0.94880175 0.19321352
v -1.44341783 -1.20939110 0.81586689
v -1.26953188 -1.29102152 -0.08245778
v -1.26953188 -1.18563914 -0.71340687
v -2.19291645 -0.94880175 0.19321352
v -1.76010743 -1.19219133 0.81586689
v -1.66495400 -1.19724205 0.81586689
v -1.26953188 -1.18557088 -0.73271025
v -1.26953188 -1.18546845 -0.80848794
v -2.18499930 -0.94880175 0.16290243
v -1.44341783 -1.29450236 0.81586689
v -1.44341783 -1.29709605 0.33296356
v -1.26953188 -1.29129455 -0.14260135
v -2.10538701 -1.21983375 0.77327185
v -2.04527472 -1.20983481 0.78603445
v -1.85511429 -1.19318112 0.81586689
v -2.19291645 -0.94880175 0.16290243
v -2.71120234 -1.00715795 -0.61832581
v -2.76735619 -1.03278685 -0.55291766
v -1.26953188 -1.18553671 -0.81391199
v -1.46746288 -1.29467304 0.81586689
v -2.04527472 -1.29610640 0.61820680
v -1.44341783 -1.29743727 0.17391014
v -1.26953188 -1.29160161 -0.23784195
v -1.94806856 -1.20894752 0.81586689
v -2.19628870 -1.22212024 0.59906290
v -2.10538701 -1.24798808 0.77327185
v -2.61619562 -1.03084166 -0.68516969
v -2.71120234 -1.02882820 -0.68373391
v -2.76163833 -1.04278593 -0.66921651
v -2.76720960 -1.03340118 -0.61832581
v -2.76735619 -1.06336418 -0.55291766
v -1.26953188 -1.28876920 -0.81391199
v -2.04527472 -1.12148144 -0.81391199
v -1.47464698 -1.29467304 0.81586689
v -1.56261632 -1.29385394 0.81586689
v -1.56980056 -1.29375158 0.81586689
v -1.85526101 -1.29433182 0.71344735
v -1.75292333 -1.29061197 0.81586689
v -1.95041445 -1.29194298 0.71344735
v -2.04527472 -1.28573193 0.71344735
v -2.14893178 -1.27057978 0.62570476
v -2.52089546 -1.28402554 -0.42800412
v -2.52089546 -1.28590262 -0.52308518
v -2.42574188 -1.28992952 -0.42800412
v -2.23543501 -1.29272777 -0.61832581
v -2.14042816 -1.29378575 -0.61832581
v -1.85540759 -1.29361507 -0.80848794
v -1.28448669 -1.29170411 -0.81391199
v -1.26953188 -1.29143107 -0.60348929
v -1.94806856 -1.26163868 0.81586689
v -2.19628870 -1.25232219 0.59906290
v -2.12488687 -1.25914749 0.71344735
v -2.04527472 -1.25709987 0.78603445
v -1.94586940 -1.26266249 0.81586689
v -2.23543501 -1.11496327 -0.81391199
v -2.32531034 -1.11274504 -0.81391199
v -2.33073517 -1.11267685 -0.81391199
v -2.42280967 -1.11970686 -0.81391199
v -2.42515555 -1.12079893 -0.81391199
v -2.76163833 -1.05493491 -0.66921651
v -2.44230967 -1.19618421 -0.81391199
v -2.76720960 -1.06547999 -0.61832581
v -2.67073650 -1.24242546 -0.46022958
v -2.68774404 -1.18952960 -0.42848271
v -2.67190944 -1.15809907 -0.37344414
v -1.26953188 -1.29061197 -0.69857036
v -1.84807677 -1.28405970 0.81586689
v -2.61824835 -1.25658796 -0.42848271
v -2.61868809 -1.25866960 -0.52164938
v -2.42574188 -1.28917875 -0.52308518
v -2.40096406 -1.25051344 -0.80848794
v -2.33073517 -1.29044129 -0.71340687
v -1.85540759 -1.29351271 -0.81391199
v -2.74169858 -1.11301808 -0.61832581
v -2.71325506 -1.08964150 -0.68804130
v -2.68290568 -1.15284364 -0.67894794
v -2.43996379 -1.19969922 -0.81391199
v -2.67073650 -1.24242546 -0.48894532
v -2.58863188 -1.24979683 -0.59088628
v -2.39861817 -1.24914841 -0.81391199
v -2.35448692 -1.25604189 -0.81391199
v -2.33337422 -1.25931803 -0.81391199
v -2.69419508 -1.16625530 -0.61832581
vn 0.80483602 0.58785379 0.08165113
vn 0.09979110 0.98290604 0.15471731
vn 0.55783837 0.50308156 0.66009491
vn 0.73958823 -0.66930051 0.07103577
vn 0.79153050 0.61111940 0.00354293
vn -0.29478790 0.91562680 0.27336360
vn 0.01914880 0.57941977 0.81480431
vn 0.03134781 0.57688007 0.81622711
vn 0.79104018 0.61176308 0.00116562
vn 0.78652757 0.61752916 -0.00566760
vn 0.11768444 0.99214223 -0.04247548
vn 0.51706059 -0.58445931 0.62534444
vn 0.02335363 -0.99971884 0.00410465
vn 0.72184704 -0.69204871 0.00233286
vn -0.55969357 0.40702935 0.72185193
vn -0.22620397 0.72851725 0.64660219
vn -0.03688951 0.56793464 0.82224656
vn -0.04558919 0.99863159 -0.02562377
vn -0.18594933 0.97378261 -0.13103538
vn -0.81935482 0.53631375 0.20254687
vn 0.61443442 0.51373751 -0.59878553
vn 0.00264429 -0.70597587 0.70823095
vn -0.11189277 -0.99177600 0.06213198
vn 0.01738829 -0.99984879 0.00021694
vn 0.71846517 -0.69556294 -0.00002259
vn -0.15797782 0.47575254 0.86527598
vn -0.88782310 0.06148925 0.45605835
vn -0.56065022 -0.46223784 0.68702803
vn 0.04714275 0.92714898 -0.37171538
vn -0.24274629 0.71246827 -0.65837922
vn -0.72703312 0.42068045 -0.54263322
vn -0.83296663 0.54489595 -0.09620291
vn -0.96467067 -0.19064188 0.18184105
vn 0.62490999 -0.50895136 -0.59199326
vn 0.04595847 0.58174928 -0.81206871
vn -0.00069635 -0.70457634 0.70962786
vn -0.00689533 -0.69493630 0.71903824
vn -0.01008092 -0.69054728 0.72321700
vn -0.01702291 -0.99847006 0.05260943
vn -0.01754539 -0.68824964 0.72526174
vn -0.05040484 -0.99305561 0.10630103
vn -0.18501010 -0.95838744 0.21740466
vn -0.34934330 -0.92129407 0.17081130
vn -0.18337973 -0.98187366 0.04791640
vn -0.18288177 -0.97979400 -0.08098138
vn -0.03663693 -0.99931834 0.00453811
vn -0.01378055 -0.99988528 -0.00628666
vn -0.00770398 -0.99994365 -0.00730338
vn -0.00248453 -0.99991664 -0.01267018
vn 0.06883883 -0.72066061 -0.68986194
vn 0.71784207 -0.69620562 -0.00071304
vn -0.18658839 -0.25868367 0.94776977
vn -0.77513946 -0.50597598 0.37834789
vn -0.45489508 -0.84467195 0.28213431
vn -0.22735830 -0.80652855 0.54572879
vn -0.12166270 -0.50142225 0.85660605
vn 0.01684972 0.50816695 -0.86109374
vn 0.01141114 0.49903844 -0.86650472
vn 0.00086148 0.49064834 -0.87135726
vn -0.05912311 0.41389444 -0.90840291
vn -0.19201944 0.21512170 -0.95752347
vn -0.80736186 -0.19292102 -0.55762740
vn -0.29900754 -0.11936785 -0.94675541
vn -0.96336717 -0.25706283 -0.07643555
vn -0.65979113 -0.73985893 0.13147025
vn -0.88173512 -0.35116143 0.31500607
vn -0.89354310 -0.17734094 0.41246929
vn 0.75435998 -0.65643487 -0.00585531
vn -0.05822864 -0.65142638 0.75647412
vn -0.29702716 -0.95117874 0.08386819
vn -0.34848077 -0.92400074 -0.15742866
vn -0.03214273 -0.99944498 -0.00875130
vn -0.31082817 -0.89170593 -0.32900817
vn -0.10359118 -0.98197128 -0.15811788
vn -0.00539590 -0.70198875 -0.71216759
vn -0.81942990 -0.54560956 -0.17562700
vn -0.51529747 -0.29275583 -0.80545797
vn -0.59285629 -0.59473377 -0.54296700
vn -0.27509049 -0.21756246 -0.93647840
vn -0.62453351 -0.77538281 -0.09348478
vn -0.39305786 -0.86551817 -0.31045743
vn -0.21052103 -0.57344307 -0.79173477
vn -0.09117632 -0.58742648 -0.80412499
vn -0.06885553 -0.60115042 -0.79616398
vn -0.70323721 -0.65880106 -0.26727998
f 1//1 2//2 3//3
f 1//1 3//3 12//12
f 1//1 12//12 4//4
f 1//1 4//4 14//14
f 1//1 14//14 25//25
f 1//1 25//25 51//51
f 1//1 51//51 68//68
f 1//1 68//68 34//34
f 1//1 34//34 21//21
f 1//1 21//21 10//10
f 1//1 10//10 9//9
f 1//1 9//9 5//5
f 1//1 5//5 2//2
f 2//2 6//6 7//7
f 2//2 7//7 8//8
f 2//2 8//8 3//3
f 2//2 5//5 9//9
f 2//2 9//9 10//10
f 2//2 10//10 11//11
f 2//2 11//11 18//18
f 2//2 18//18 6//6
f 3//3 8//8 7//7
f 3//3 7//7 17//17
f 3//3 17//17 26//26
f 3//3 26//26 52//52
f 3//3 52//52 56//56
f 3//3 56//56 69//69
f 3//3 69//69 40//40
f 3//3 40//40 38//38
f 3//3 38//38 37//37
f 3//3 37//37 36//36
f 3//3 36//36 22//22
f 3//3 22//22 12//12
f 4//4 12//12 13//13
f 4//4 13//13 14//14
f 6//6 15//15 16//16
f 6//6 16//16 17//17
f 6//6 17//17 7//7
f 6//6 18//18 19//19
f 6//6 19//19 20//20
f 6//6 20//20 15//15
f 10//10 21//21 11//11
f 11//11 21//21 19//19
f 11//11 19//19 18//18
f 12//12 22//22 13//13
f 13//13 22//22 23//23
f 13//13 23//23 24//24
f 13//13 24//24 25//25
f 13//13 25//25 14//14
f 15//15 26//26 16//16
f 15//15 20//20 27//27
f 15//15 27//27 53//53
f 15//15 53//53 28//28
f 15//15 28//28 52//52
f 15//15 52//52 26//26
f 16//16 26//26 17//17
f 19//19 21//21 29//29
f 19//19 29//29 30//30
f 19//19 30//30 31//31
f 19//19 31//31 32//32
f 19//19 32//32 20//20
f 20//20 32//32 64//64
f 20//20 64//64 33//33
f 20//20 33//33 53//53
f 20//20 53//53 27//27
f 21//21 34//34 50//50
f 21//21 50//50 75//75
f 21//21 75//75 84//84
f 21//21 84//84 83//83
f 21//21 83//83 82//82
f 21//21 82//82 79//79
f 21//21 79//79 63//63
f 21//21 63//63 61//61
f 21//21 61//61 60//60
f 21//21 60//60 59//59
f 21//21 59//59 58//58
f 21//21 58//58 57//57
f 21//21 57//57 35//35
f 21//21 35//35 29//29
f 22//22 36//36 23//23
f 23//23 36//36 37//37
f 23//23 37//37 38//38
f 23//23 38//38 39//39
f 23//23 39//39 40//40
f 23//23 40//40 41//41
f 23//23 41//41 42//42
f 23//23 42//42 43//43
f 23//23 43//43 44//44
f 23//23 44//44 45//45
f 23//23 45//45 46//46
f 23//23 46//46 47//47
f 23//23 47//47 48//48
f 23//23 48//48 24//24
f 24//24 48//48 49//49
f 24//24 49//49 50//50
f 24//24 50//50 51//51
f 24//24 51//51 25//25
f 28//28 53//53 54//54
f 28//28 54//54 42//42
f 28//28 42//42 55//55
f 28//28 55//55 56//56
f 28//28 56//56 52//52
f 29//29 35//35 57//57
f 29//29 57//57 58//58
f 29//29 58//58 59//59
f 29//29 59//59 30//30
f 30//30 59//59 60//60
f 30//30 60//60 61//61
f 30//30 61//61 31//31
f 31//31 62//62 64//64
f 31//31 64//64 32//32
f 31//31 61//61 63//63
f 31//31 63//63 62//62
f 33//33 65//65 66//66
f 33//33 66//66 67//67
f 33//33 67//67 53//53
f 33//33 64//64 65//65
f 34//34 68//68 50//50
f 38//38 40//40 39//39
f 40//40 69//69 42//42
f 40//40 42//42 41//41
f 42//42 69//69 55//55
f 42//42 54//54 43//43
f 43//43 54//54 53//53
f 43//43 53//53 65//65
f 43//43 65//65 70//70
f 43//43 70//70 44//44
f 44//44 70//70 71//71
f 44//44 71//71 45//45
f 45//45 72//72 46//46
f 45//45 71//71 73//73
f 45//45 73//73 74//74
f 45//45 74//74 72//72
f 46//46 72//72 74//74
f 46//46 74//74 47//47
f 47//47 74//74 48//48
f 48//48 74//74 49//49
f 49//49 74//74 75//75
f 49//49 75//75 50//50
f 50//50 68//68 51//51
f 53//53 67//67 66//66
f 53//53 66//66 65//65
f 55//55 69//69 56//56
f 62//62 76//76 64//64
f 62//62 63//63 77//77
f 62//62 77//77 78//78
f 62//62 78//78 76//76
f 63//63 79//79 77//77
f 64//64 76//76 65//65
f 65//65 76//76 80//80
f 65//65 80//80 71//71
f 65//65 71//71 70//70
f 71//71 81//81 73//73
f 71//71 80//80 81//81
f 73//73 78//78 82//82
f 73//73 82//82 83//83
f 73//73 83//83 84//84
f 73//73 84//84 74//74
f 73//73 81//81 78//78
f 74//74 84//84 75//75
f 76//76 85//85 80//80
f 76//76 78//78 85//85
f 77//77 79//79 78//78
f 78//78 79//79 82//82
f 78//78 81//81 80//80
f 78//78 80//80 85//85

