# https://github.com/mikedh/trimesh
v 2.27299188 1.42226331 -1.90533325
v 2.27299188 1.43411140 -1.90533325
v 2.29264272 1.42226331 -1.90533325
v 2.42266138 1.05113589 -1.69366900
v -0.20382322 1.42440392 -1.61860090
v -0.20382322 1.42903360 -1.61860090
v -0.14244798 1.43336473 -1.62164058
v -0.04742397 1.43973682 -1.62643016
v 0.04786925 1.44541200 -1.63131190
v 0.11193635 1.44844870 -1.63453558
v 0.14289318 1.44989241 -1.63600934
v 2.23907391 1.46462806 -1.85688448
v 2.29264272 1.43411140 -1.90533325
v 2.38389783 1.37940069 -1.82197545
v 2.38093698 1.32185232 -1.81202783
v 2.42266138 1.09773218 -1.71577488
v 2.42266138 1.03943707 -1.66474717
v -0.32738134 1.10166495 -1.08944034
v -0.32738134 1.38134213 -1.55661225
v -0.32738134 1.44854835 -1.56195457
v -0.32738134 1.45098766 -1.56195457
v 0.04786925 1.47100014 -1.56959954
v 0.11193635 1.47443519 -1.56959954
v 0.14289318 1.47607793 -1.56959954
v 2.23557451 1.50754043 -1.75989465
v 2.32682976 1.45556759 -1.85439754
v 2.38309035 1.43655085 -1.82225189
v 2.42266138 1.14497561 -1.69836658
v 2.42266138 1.03087447 -1.62237746
v -0.32738134 1.09514352 -0.99383220
v -0.32738134 1.47587890 -1.48016254
v -0.32738134 1.47752164 -1.47445192
v 0.23818640 1.47901511 -1.56959954
v 0.85274663 1.52232570 -1.33297402
v 1.09394066 1.52581051 -1.34596117
v 1.18869547 1.52700528 -1.35075076
v 2.04525728 1.53626479 -1.37958059
v 2.23557451 1.53835564 -1.37958059
v 2.30125678 1.52650741 -1.47445192
v 2.33059851 1.48827462 -1.75989465
v 2.37959109 1.52307250 -1.34117158
v 2.38658990 1.44257448 -1.75989465
v 2.42266138 1.37979890 -1.37958059
v 2.42266138 1.34798795 -1.44414833
v 2.42266138 1.24150358 -1.61675884
v 2.42266138 1.19874048 -1.67441849
v 2.42266138 1.02982905 -1.37156718
v 2.25441773 1.02982905 -1.34375053
v 2.20704026 1.02982905 -1.31621032
v 2.19385010 1.02982905 -1.30073608
v -0.32738134 1.15961160 -0.96573926
v 2.17204560 1.02982905 -1.26868258
v 2.15885545 1.02982905 -1.24316858
v 2.10313312 1.02982905 -1.08759821
v 2.09963357 1.02982905 -1.06309739
v 2.10501743 1.02982905 -1.02892538
v 2.14405005 1.02982905 -1.00258250
v -0.32738134 1.48394363 -1.28443311
v 0.56848223 1.52237560 -1.23828684
v 2.23557451 1.53053985 -1.30045979
v 2.33059851 1.52735373 -1.31243390
v 2.33490554 1.52964377 -1.37562003
v 0.56848223 1.52237560 -1.23644478
v 0.90389265 1.52362013 -1.23533946
v 2.37959109 1.52307250 -1.32892117
v 2.39816510 1.48145442 -1.37562003
v 2.39762668 1.46293541 -1.47445192
v 2.42266138 1.37940069 -1.37672535
v 2.42266138 1.02982905 -1.19711460
v -0.32738134 1.18928194 -0.96435764
v 2.20973233 1.02982905 -1.00516144
v 2.14055050 1.09414785 -1.00626676
v -0.32738134 1.45880346 -1.19831207
v 2.23557451 1.51485836 -1.25293205
v 1.14481754 1.52217642 -1.23681322
v 2.33059851 1.50649493 -1.26472187
v -0.32738134 1.45730999 -1.19333819
v -0.32738134 1.41982400 -1.14838946
v -0.32738134 1.41673740 -1.14571830
v -0.32738134 1.24971772 -1.00488514
v 2.38712832 1.44177792 -1.22732604
v 2.39493490 1.47388756 -1.29207793
v 2.42266138 1.36625817 -1.28507784
v 2.42266138 1.20202625 -1.21940478
v 2.14055050 1.17056375 -1.02717532
v 2.23557451 1.46731630 -1.21249669
v 2.19788792 1.15687360 -1.03647821
v 2.39305059 1.37940069 -1.22170743
v 2.33059851 1.45895288 -1.21737842
v 2.41916183 1.37940069 -1.28434096
vn -0.06053842 -0.26339155 -0.96278761
vn -0.04457130 0.47067327 -0.88118106
vn 0.30494066 -0.19399008 -0.93240498
vn 0.60401538 -0.60343592 -0.52060591
vn -0.22592569 -0.32779110 -0.91733886
vn -0.21557799 0.44634837 -0.86850403
vn -0.08456736 0.78106577 -0.61869591
vn -0.08064242 0.79611474 -0.59974838
vn -0.07207415 0.83281090 -0.54884545
vn -0.06513209 0.86508428 -0.49738014
vn -0.05781042 0.88192639 -0.46782882
vn 0.00636160 0.88161738 -0.47192195
vn 0.30064671 0.44160186 -0.84533978
vn 0.81410678 -0.05430038 -0.57817093
vn 0.64926348 -0.18906468 -0.73668954
vn 0.78924106 -0.23936386 -0.56551171
vn 0.65597845 -0.72038857 -0.22523893
vn -0.68754415 -0.69883184 -0.19727416
vn -0.71143661 -0.43256112 -0.55384910
vn -0.83698558 -0.01946674 -0.54687858
vn -0.68620841 0.50878015 -0.51986611
vn -0.05382041 0.94484392 -0.32306863
vn -0.05043182 0.94699594 -0.31726224
vn -0.03996779 0.96272583 -0.26750991
vn 0.06516357 0.96695882 -0.24646369
vn 0.36421393 0.79832412 -0.47961111
vn 0.80444500 0.41869754 -0.42137943
vn 0.99590509 0.03263169 -0.08431033
vn 0.66995524 -0.73718106 -0.08788661
vn -0.60756280 -0.67463717 0.41920416
vn -0.72456513 0.66108446 -0.19486589
vn -0.69653060 0.70914190 -0.10937499
vn -0.02974355 0.98597243 -0.16423666
vn -0.02109609 0.99636510 -0.08253203
vn -0.01707645 0.99748705 -0.06876024
vn -0.01425737 0.99827068 -0.05702962
vn -0.01182853 0.99870453 -0.04949081
vn 0.03228168 0.99947159 0.00380043
vn 0.14353513 0.98545571 -0.09096542
vn 0.38399931 0.90068971 -0.20323037
vn 0.60262541 0.79745786 -0.03005959
vn 0.91809704 0.38657669 -0.08750019
vn 0.99141010 0.13039859 -0.01011082
vn 0.99680640 0.07086369 -0.03681498
vn 0.99733416 0.06065801 -0.04056089
vn 0.99605532 0.05048344 -0.07297416
vn 0.70650336 -0.70770782 -0.00162878
vn -0.00150706 -0.99999436 -0.00300260
vn -0.01141292 -0.99988558 -0.00992826
vn -0.01473264 -0.99982417 -0.01160089
vn -0.66741142 -0.16430193 0.72633799
vn -0.01457226 -0.99985145 -0.00920433
vn -0.01435359 -0.99987490 -0.00664452
vn -0.01444611 -0.99988809 -0.00388694
vn -0.01472637 -0.99989156 0.00007147
vn -0.01668302 -0.99972216 0.01665147
vn 0.01763120 -0.68410801 0.72916758
vn -0.69100556 0.71762497 0.08675088
vn -0.02683911 0.99896224 -0.03679817
vn 0.03239386 0.97735612 0.20910682
vn 0.12847418 0.96405649 0.23257145
vn 0.14680279 0.98838423 -0.03931367
vn -0.01776382 0.91733056 0.39772993
vn 0.00211854 0.88548856 0.46465635
vn 0.59223018 0.78456438 0.18363591
vn 0.94023070 0.34008551 -0.01755200
vn 0.96598152 0.25276700 -0.05466752
vn 0.99294107 0.11743739 0.01662826
vn 0.71766275 -0.60478651 0.34524404
vn -0.63632664 0.20909524 0.74254130
vn 0.31338810 -0.57148654 0.75841350
vn 0.09721251 0.18234795 0.97841655
vn -0.72575150 0.65962081 0.19541020
vn 0.05990035 0.82642111 0.55985721
vn 0.01054434 0.83251700 0.55389915
vn 0.25832039 0.79277215 0.55207146
vn -0.67949861 0.64271671 0.35383170
vn -0.69375381 0.51017769 0.50835458
vn -0.70601541 0.45974112 0.53868390
vn -0.69090589 0.43132074 0.58018227
vn 0.66491998 0.41775270 0.61916404
vn 0.90113873 0.37720091 0.21370181
vn 0.97793679 0.13132593 0.16245963
vn 0.90916895 0.06773373 0.41088193
vn 0.11314496 0.38300679 0.91679006
vn 0.05896728 0.58467616 0.80912091
vn 0.32931250 0.30790936 0.89260579
vn 0.68548553 0.12833016 0.71668749
vn 0.22052254 0.56987246 0.79159029
vn 0.95374776 0.24742952 0.17071570
f 1//1 2//2 13//13
f 1//1 13//13 3//3
f 1//1 3//3 4//4
f 1//1 4//4 5//5
f 1//1 5//5 6//6
f 1//1 6//6 2//2
f 2//2 6//6 7//7
f 2//2 7//7 8//8
f 2//2 8//8 9//9
f 2//2 9//9 10//10
f 2//2 10//10 11//11
f 2//2 11//11 12//12
f 2//2 12//12 13//13
f 3//3 13//13 14//14
f 3//3 14//14 15//15
f 3//3 15//15 16//16
f 3//3 16//16 4//4
f 4//4 16//16 28//28
f 4//4 28//28 46//46
f 4//4 46//46 45//45
f 4//4 45//45 44//44
f 4//4 44//44 43//43
f 4//4 43//43 68//68
f 4//4 68//68 83//83
f 4//4 83//83 84//84
f 4//4 84//84 69//69
f 4//4 69//69 47//47
f 4//4 47//47 29//29
f 4//4 29//29 17//17
f 4//4 17//17 18//18
f 4//4 18//18 19//19
f 4//4 19//19 5//5
f 5//5 19//19 20//20
f 5//5 20//20 21//21
f 5//5 21//21 6//6
f 6//6 21//21 7//7
f 7//7 21//21 8//8
f 8//8 21//21 9//9
f 9//9 21//21 10//10
f 10//10 21//21 11//11
f 11//11 21//21 22//22
f 11//11 22//22 23//23
f 11//11 23//23 24//24
f 11//11 24//24 25//25
f 11//11 25//25 12//12
f 12//12 25//25 26//26
f 12//12 26//26 13//13
f 13//13 26//26 27//27
f 13//13 27//27 14//14
f 14//14 27//27 16//16
f 14//14 16//16 15//15
f 16//16 27//27 28//28
f 17//17 29//29 18//18
f 18//18 30//30 51//51
f 18//18 51//51 70//70
f 18//18 70//70 80//80
f 18//18 80//80 79//79
f 18//18 79//79 78//78
f 18//18 78//78 77//77
f 18//18 77//77 73//73
f 18//18 73//73 58//58
f 18//18 58//58 32//32
f 18//18 32//32 31//31
f 18//18 31//31 21//21
f 18//18 21//21 20//20
f 18//18 20//20 19//19
f 18//18 29//29 30//30
f 21//21 31//31 22//22
f 22//22 31//31 32//32
f 22//22 32//32 23//23
f 23//23 32//32 24//24
f 24//24 32//32 33//33
f 24//24 33//33 25//25
f 25//25 33//33 32//32
f 25//25 32//32 34//34
f 25//25 34//34 35//35
f 25//25 35//35 36//36
f 25//25 36//36 37//37
f 25//25 37//37 38//38
f 25//25 38//38 39//39
f 25//25 39//39 40//40
f 25//25 40//40 26//26
f 26//26 40//40 27//27
f 27//27 41//41 42//42
f 27//27 42//42 43//43
f 27//27 43//43 44//44
f 27//27 44//44 45//45
f 27//27 45//45 46//46
f 27//27 46//46 28//28
f 27//27 40//40 41//41
f 29//29 47//47 48//48
f 29//29 48//48 49//49
f 29//29 49//49 50//50
f 29//29 50//50 30//30
f 30//30 50//50 52//52
f 30//30 52//52 53//53
f 30//30 53//53 54//54
f 30//30 54//54 55//55
f 30//30 55//55 56//56
f 30//30 56//56 57//57
f 30//30 57//57 51//51
f 32//32 58//58 59//59
f 32//32 59//59 34//34
f 34//34 59//59 35//35
f 35//35 59//59 36//36
f 36//36 59//59 37//37
f 37//37 59//59 38//38
f 38//38 60//60 61//61
f 38//38 61//61 62//62
f 38//38 62//62 39//39
f 38//38 59//59 63//63
f 38//38 63//63 64//64
f 38//38 64//64 60//60
f 39//39 62//62 40//40
f 40//40 62//62 41//41
f 41//41 62//62 65//65
f 41//41 65//65 66//66
f 41//41 66//66 42//42
f 42//42 66//66 67//67
f 42//42 67//67 43//43
f 43//43 67//67 66//66
f 43//43 66//66 68//68
f 47//47 69//69 71//71
f 47//47 71//71 57//57
f 47//47 57//57 56//56
f 47//47 56//56 55//55
f 47//47 55//55 54//54
f 47//47 54//54 53//53
f 47//47 53//53 52//52
f 47//47 52//52 50//50
f 47//47 50//50 49//49
f 47//47 49//49 48//48
f 51//51 57//57 70//70
f 57//57 71//71 72//72
f 57//57 72//72 70//70
f 58//58 73//73 63//63
f 58//58 63//63 59//59
f 60//60 74//74 61//61
f 60//60 64//64 75//75
f 60//60 75//75 74//74
f 61//61 76//76 65//65
f 61//61 65//65 62//62
f 61//61 74//74 76//76
f 63//63 73//73 77//77
f 63//63 77//77 78//78
f 63//63 78//78 64//64
f 64//64 78//78 79//79
f 64//64 79//79 80//80
f 64//64 80//80 75//75
f 65//65 76//76 81//81
f 65//65 81//81 82//82
f 65//65 82//82 66//66
f 66//66 82//82 83//83
f 66//66 83//83 68//68
f 69//69 84//84 71//71
f 70//70 72//72 85//85
f 70//70 85//85 86//86
f 70//70 86//86 80//80
f 71//71 87//87 72//72
f 71//71 84//84 88//88
f 71//71 88//88 81//81
f 71//71 81//81 87//87
f 72//72 87//87 85//85
f 74//74 86//86 89//89
f 74//74 89//89 76//76
f 74//74 75//75 86//86
f 75//75 80//80 86//86
f 76//76 89//89 81//81
f 81//81 88//88 84//84
f 81//81 84//84 83//83
f 81//81 83//83 90//90
f 81//81 90//90 82//82
f 81//81 89//89 87//87
f 82//82 90//90 83//83
f 85//85 87//87 89//89
f 85//85 89//89 86//86

