# https://github.com/mikedh/trimesh
v 0.11141148 -0.91829814 1.65571831
v 0.10156295 -0.91829814 2.42607928
v 0.10262758 -1.09416692 2.42607928
v 0.11141148 -0.97733189 1.64275667
v 0.11141148 -0.91829814 1.20032822
v -2.43857792 -0.82253781 3.87477294
v 0.09836875 -0.91829814 2.48440720
v 0.09943353 -1.09416692 2.48872784
v 0.09836875 -1.14999634 2.48570348
v 0.09916730 -1.15332386 2.42607928
v 0.11141148 -1.18290241 1.38006485
v 0.11141148 -1.16188930 1.44789809
v 0.11141148 -0.92211871 1.18779853
v -1.74864338 -0.91398466 0.89788702
v -2.27647513 -0.85661470 2.12795872
v -1.80720266 -0.85661470 2.28393198
v -1.76993753 -0.85661470 2.32627376
v -2.51284165 -0.82253781 3.34852510
v -2.43964255 -0.82253781 3.86613166
v -0.08529435 -0.91829814 3.72614454
v -0.08343109 -0.91829814 3.72268809
v -0.06293534 -0.91829814 3.67170517
v -0.05947506 -0.91829814 3.66219999
v -0.04297206 -0.91829814 3.56671497
v -2.54691229 -0.82253781 3.87477294
v -0.71347549 -1.06612898 4.79592249
v -0.42919691 -1.06612898 4.78944167
v -0.03312339 -1.18912621 3.66219999
v 0.06695970 -1.20077278 2.42607928
v 0.11141148 -1.28618061 0.71382989
v -0.06453244 -1.26695463 3.66219999
v 0.11141148 -1.27564326 0.80888296
v 0.11141148 -1.24840642 1.04953978
v 0.11141148 -1.23682144 1.11175625
v 0.11141148 -1.22123111 1.19168708
v 0.11141148 -1.18456621 0.38200869
v -1.76008900 -0.91398466 0.89702298
v -2.40610409 -0.85661470 2.12795872
v -2.60414070 -0.82253781 3.34852510
v -0.04829553 -1.15757582 3.72614454
v -0.04510147 -1.18912621 3.72614454
v -2.57060223 -0.82253781 3.81169229
v -2.57379643 -0.99908443 3.82508602
v -2.55463155 -0.99624982 3.87477294
v -1.93310496 -1.09207181 4.50557888
v -0.89101650 -1.06612898 4.77345539
v -0.86785888 -1.06612898 4.77993621
v -0.80876728 -1.06612898 4.79332993
v -0.78055242 -1.06612898 4.79462621
v -0.71347549 -1.09422851 4.79376203
v -0.80876728 -1.09422851 4.79203366
v -0.42919691 -1.09422851 4.78684912
v -0.06000738 -1.23639020 3.72614454
v -0.07038837 -1.26220970 3.72614454
v 0.11141148 -1.28864544 0.61877696
v -0.14305507 -1.30306496 3.66219999
v -0.14305507 -1.29579367 3.72614454
v 0.11141148 -1.28870710 0.38200869
v 0.09331137 -1.18462780 0.38200869
v -0.00171433 -1.18549050 0.38200869
v -0.04776321 -1.18622993 0.38200869
v -0.14305507 -1.18783213 0.38200869
v -0.19203191 -1.18931100 0.38200869
v -0.23781462 -1.19079001 0.38200869
v -0.28705762 -1.19282345 0.38200869
v -0.39219809 -1.19738353 0.38200869
v -2.01588649 -0.91398466 0.93634026
v -2.05927349 -0.91398466 0.98516300
v -2.33556672 -0.91398466 1.37876857
v -2.34089033 -0.91398466 1.38740985
v -2.38880253 -0.91398466 1.51486715
v -2.57299774 -0.85661470 2.65463851
v -2.60547157 -0.82253781 3.37660883
v -2.58763784 -0.85661470 2.71123834
v -2.59961564 -0.85661470 2.80585918
v -0.42919691 -1.15554231 4.76697457
v -2.58231409 -0.82253781 3.75725292
v -2.57086846 -1.09404366 3.81774101
v -2.55755951 -1.09404366 3.86526776
v -2.55436560 -1.08319825 3.87477294
v -2.58417742 -0.90400188 3.75725292
v -2.58417742 -0.99908443 3.75725292
v -1.93310496 -1.11061995 4.50557888
v -0.89261352 -1.09422851 4.77345539
v -0.80876728 -1.16515530 4.77172702
v -0.71347549 -1.16053362 4.77172702
v -0.88196638 -1.16022557 4.76654248
v -0.42919691 -1.20323761 4.72463293
v -0.42919691 -1.25173401 4.67753828
v -0.42919691 -1.27724546 4.61359373
v 0.11141148 -1.28870710 0.58766873
v -0.56707730 -1.42957471 3.90804149
v -0.42919691 -1.27736865 4.61272954
v -0.39219809 -1.29098707 0.38200869
v -0.56707730 -1.42957471 3.89507986
v -0.61844978 -1.43709252 3.87693312
v -0.71454012 -1.44276175 3.84625684
v -0.80876728 -1.44645906 3.85273794
v -0.99881870 -1.45206662 3.94779086
v -1.94747869 -1.20890684 0.81622796
v -2.39625556 -1.09416692 1.31093533
v -2.38693921 -1.02730723 1.32173679
v -2.36564491 -0.96377507 1.34852452
v -2.38268037 -0.94048199 1.41203712
v -2.60760113 -0.82253781 3.47166176
v -2.39279513 -0.99698925 1.38006485
v -2.41435552 -1.09416692 1.38006485
v -2.59029957 -0.90400188 2.71123834
v -2.60307607 -0.90400188 2.80585918
v -2.60068056 -0.85661470 2.85338564
v -0.80876728 -1.21266567 4.73024957
v -2.59722014 -0.82253781 3.66219999
v -2.57725685 -1.09404366 3.75725292
v -2.56847268 -1.14192389 3.80564356
v -2.52961103 -1.18166993 3.87477294
v -2.55356691 -1.09404366 3.87477294
v -2.54318592 -1.17982127 3.84280066
v -2.59509058 -0.90400188 3.66219999
v -2.60068056 -0.90400188 3.56714678
v -2.59562304 -1.09404366 3.47166176
v -2.49181344 -1.25204206 3.87477294
v -1.93310496 -1.15024280 4.47533469
v -1.93310496 -1.19159111 4.43817788
v -1.62087761 -1.42994443 4.28436465
v -0.71347549 -1.25142582 4.68056293
v -1.56950527 -1.43450436 4.29170966
v -1.49603994 -1.43401145 4.29170966
v -0.71853286 -1.44233037 3.95211150
v -0.61844978 -1.43709252 3.92316359
v -1.56258456 -1.29376009 0.81622796
v -1.57003759 -1.29363690 0.81622796
v -1.75263598 -1.29049416 0.81622796
v -1.84739546 -1.28402384 0.81622796
v -1.94534913 -1.26257942 0.81622796
v -1.94747869 -1.26153193 0.81622796
v -1.57056991 -1.43592171 4.23467801
v -1.01824974 -1.45169690 3.94779086
v -2.39758642 -1.18900295 1.30618274
v -2.60414070 -0.82253781 3.56714678
v -2.60467316 -0.99908443 2.80585918
v -2.60414070 -0.90400188 3.47166176
v -2.41302465 -1.18900295 1.38006485
v -2.59375972 -0.99908443 2.71123834
v -0.80876728 -1.24970043 4.68229101
v -2.55196982 -1.19664409 3.75725292
v -2.58337873 -1.18900295 3.47166176
v -2.56900514 -1.23756102 3.52653351
v -2.56448008 -1.22646909 3.59004597
v -2.49527387 -1.25487675 3.85230584
v -2.42553520 -1.27890919 3.85230584
v -1.93310496 -1.24181290 4.38287404
v -1.93310496 -1.20280623 4.42651195
v -1.62087761 -1.42994443 4.26751447
v -2.42553520 -1.28648866 3.75725292
v -2.42553520 -1.29074069 3.66219999
v -2.42553520 -1.29437633 3.56714678
v -2.42553520 -1.29604006 3.47166176
v -2.33050934 -1.28692005 1.38006485
v -1.09437673 -1.44966332 3.94779086
v -2.33050934 -1.26516757 1.29624533
v -2.38880253 -1.25037834 1.31525597
v -2.58790379 -1.09940476 2.70389334
v -2.58071699 -1.16392288 2.73068080
v -2.57086846 -1.24014903 3.47166176
v -2.57086846 -1.24039556 3.41549430
v -2.52801364 -1.26153193 3.56196224
v -2.51151078 -1.26387357 3.66219999
v -2.50458993 -1.25999126 3.75725292
v -2.33050934 -1.30368120 2.42607928
v -2.52056090 -1.27213081 3.47166176
v -2.42553520 -1.28692005 2.80585918
v -2.39199644 -1.25376745 1.38006485
vn 0.72189219 0.69199102 0.00448344
vn 0.72223592 0.69123348 0.02390710
vn 0.99938918 -0.02170132 0.02739195
vn 0.99997288 -0.00420875 0.00604304
vn 0.68846270 0.71786984 -0.10335378
vn 0.01347182 0.99232891 0.12288953
vn 0.72161665 0.68959150 0.06109804
vn 0.99658346 -0.00749029 0.08225144
vn 0.95121217 -0.30138483 0.06604990
vn 0.98565421 -0.16737981 0.02167412
vn 0.99942062 -0.03332286 0.00692956
vn 0.99981007 -0.01840279 0.00641590
vn 0.72279479 0.65926408 -0.20721624
vn 0.02009076 0.97647812 -0.21467844
vn 0.00448384 0.99933752 -0.03611663
vn 0.01515358 0.99953412 -0.02649362
vn 0.02179980 0.99960378 -0.01780620
vn 0.01262647 0.99985017 -0.01184139
vn 0.01663641 0.99985933 -0.00213535
vn 0.27783969 0.94452412 0.17515507
vn 0.49710555 0.84340787 0.20383630
vn 0.59121758 0.77692513 0.21644658
vn 0.67922108 0.71457908 0.16743792
vn 0.68775151 0.71884817 0.10126783
vn -0.58975661 0.68368924 0.42983271
vn 0.00402355 0.57820295 0.81588305
vn 0.47826106 0.50439420 0.71892479
vn 0.97997168 -0.14135771 0.14026226
vn 0.80577241 -0.59000078 0.05128256
vn 0.81983648 -0.57238519 0.01559951
vn 0.71482129 -0.69361375 0.08905329
vn 0.99433420 -0.10565156 0.01171506
vn 0.99499178 -0.09931121 0.01134188
vn 0.99925718 -0.03788345 0.00706695
vn 0.99935127 -0.03534594 0.00690721
vn 0.60456360 0.45738668 -0.65215050
vn -0.04932429 0.92138368 -0.38551166
vn -0.15251337 0.98599244 -0.06751720
vn -0.48144793 0.87591460 -0.03132892
vn 0.95731068 0.10669310 0.26865006
vn 0.95994353 -0.10248475 0.26077824
vn -0.68141363 0.70468602 0.19771968
vn -0.96642036 -0.00182592 0.25695984
vn -0.84084217 0.01833757 0.54096967
vn -0.41285158 0.41760915 0.80941718
vn -0.17137586 0.77301827 0.61079708
vn -0.19453893 0.52023955 0.83156805
vn -0.09812098 0.56079027 0.82212320
vn -0.02076139 0.57616192 0.81707185
vn 0.00702120 -0.19283291 0.98120649
vn -0.10382326 -0.14822904 0.98348812
vn 0.56156076 -0.16327612 0.81116609
vn 0.91253728 -0.33472235 0.23502482
vn 0.72726628 -0.65835857 0.19403031
vn 0.77855133 -0.62757733 0.00212444
vn 0.36283771 -0.93004428 0.05802097
vn 0.38337979 -0.91536887 0.12296244
vn 0.58186139 -0.56311850 -0.58680054
vn -0.00202937 0.51304058 -0.85836195
vn -0.00496084 0.50627727 -0.86235649
vn -0.00804423 0.49845329 -0.86687924
vn -0.00911949 0.49768569 -0.86730951
vn -0.01474027 0.48416309 -0.87485360
vn -0.01610466 0.48215851 -0.87593596
vn -0.01969110 0.47381877 -0.88040220
vn -0.10566702 0.43521208 -0.89410566
vn -0.39837173 0.70746388 -0.58377635
vn -0.51072835 0.73487141 -0.44622928
vn -0.41296290 0.86845561 -0.27431096
vn -0.43290035 0.86800454 -0.24323940
vn -0.62087991 0.76935141 -0.15035472
vn -0.32099495 0.94295982 -0.08825536
vn -0.63258033 0.77435942 -0.01447823
vn -0.75761393 0.64139593 -0.12096442
vn -0.84388302 0.53115546 -0.07573188
vn 0.53374294 -0.40827817 0.74055885
vn -0.69246321 0.71031644 0.12627456
vn -0.97747449 -0.07739412 0.19635117
vn -0.93180685 -0.13041386 0.33871554
vn -0.84337250 -0.02760409 0.53661983
vn -0.98727825 0.01212470 0.15853910
vn -0.99325008 -0.03877114 0.10932099
vn -0.46316339 -0.27290025 0.84321120
vn -0.23657894 -0.07496055 0.96871633
vn -0.04099557 -0.48441251 0.87387865
vn 0.02072151 -0.39588394 0.91806673
vn -0.18827250 -0.44779885 0.87408790
vn 0.52904551 -0.57541305 0.62370720
vn 0.47746529 -0.71424468 0.51174353
vn 0.37200150 -0.88089802 0.29263214
vn 0.77565328 -0.63115924 0.00008194
vn 0.24009924 -0.96721725 0.08272333
vn 0.34910837 -0.92770637 0.13222795
vn -0.09984932 -0.66297013 -0.74195736
vn 0.17316278 -0.98489006 -0.00249285
vn 0.10220268 -0.99471761 -0.00956465
vn 0.04940775 -0.99865359 -0.01580789
vn 0.02594994 -0.99948068 -0.01910417
vn 0.01041828 -0.99966599 0.02365088
vn -0.49194300 0.11868184 -0.86250026
vn -0.87261449 0.11152364 -0.47550649
vn -0.84711530 0.29321932 -0.44319082
vn -0.72359529 0.53054827 -0.44150696
vn -0.80715749 0.52881470 -0.26239627
vn -0.72503891 0.68855711 0.01441107
vn -0.94330506 0.25916932 -0.20738088
vn -0.97729358 0.09495539 -0.18942213
vn -0.98969082 0.04623611 -0.13555183
vn -0.99659348 0.04398798 -0.06976031
vn -0.99101829 0.13232851 -0.01928511
vn -0.06155091 -0.72524812 0.68573075
vn -0.71674371 0.69352633 0.07279893
vn -0.99280371 -0.08982439 0.07919827
vn -0.95055148 -0.24096147 0.19593226
vn -0.79410032 -0.32040904 0.51647142
vn -0.82769320 -0.14143833 0.54306460
vn -0.87870621 -0.38654949 0.28009799
vn -0.99666313 -0.03905250 0.07167645
vn -0.99768089 -0.04718320 0.04905704
vn -0.99544436 -0.09076908 0.02918041
vn -0.61285589 -0.68517959 0.39361985
vn -0.40658605 -0.57992699 0.70595501
vn -0.38220490 -0.63891893 0.66760918
vn -0.19854055 -0.91036746 0.36306024
vn 0.00292181 -0.85137888 0.52454309
vn -0.09660918 -0.93110314 0.35172946
vn 0.01610521 -0.97034822 0.24117412
vn 0.06746336 -0.99192719 0.10737386
vn 0.12176359 -0.98818278 0.09310437
vn -0.01618216 -0.99866475 -0.04905978
vn -0.01699816 -0.99860589 -0.04997346
vn -0.05056697 -0.99134727 -0.12113455
vn -0.14070203 -0.93463869 -0.32657842
vn -0.27417520 -0.79017225 -0.54813846
vn -0.51609291 -0.42164795 -0.74556094
vn -0.07046564 -0.99751307 -0.00150654
vn -0.02124377 -0.99966102 -0.01505127
vn -0.88276593 -0.07845915 -0.46321536
vn -0.72371919 0.68912037 0.03665570
vn -0.99755538 -0.04987452 -0.04894686
vn -0.99881804 -0.04354393 0.02159738
vn -0.97993036 -0.12808145 -0.15274696
vn -0.99204785 -0.00759224 -0.12563207
vn -0.04443690 -0.83888954 0.54248475
vn -0.86838792 -0.47043687 0.15681703
vn -0.98319928 -0.18043298 0.02762441
vn -0.82118035 -0.56579075 0.07445577
vn -0.87103967 -0.46948409 0.14448036
vn -0.60844526 -0.77713235 0.16080942
vn -0.28180958 -0.94926901 0.13954107
vn -0.37464537 -0.74097522 0.55731191
vn -0.37180382 -0.67611425 0.63610646
vn -0.14045289 -0.99007831 -0.00423283
vn -0.26099059 -0.96346104 0.06022242
vn -0.23631234 -0.97082394 0.04071066
vn -0.22195139 -0.97467721 0.02723811
vn -0.20474482 -0.97881534 0.00031685
vn -0.27172015 -0.95820969 -0.08945589
vn -0.03411322 -0.99915266 -0.02302714
vn -0.30611875 -0.91934168 -0.24718857
vn -0.73419138 -0.58534173 -0.34400301
vn -0.98973136 -0.10608292 -0.09580320
vn -0.91487701 -0.39893225 -0.06207353
vn -0.81154793 -0.58361269 0.02803887
vn -0.80388506 -0.59443412 -0.02041779
vn -0.52206462 -0.85050783 0.06391378
vn -0.43683888 -0.89711983 0.06593784
vn -0.48338160 -0.87107337 0.08702538
vn -0.18458828 -0.98270080 -0.01504344
vn -0.39890660 -0.91689141 0.01355198
vn -0.25280186 -0.96738553 -0.01601433
vn -0.64451510 -0.76201212 -0.06275199
f 1//1 2//2 3//3
f 1//1 3//3 4//4
f 1//1 4//4 12//12
f 1//1 12//12 11//11
f 1//1 11//11 35//35
f 1//1 35//35 34//34
f 1//1 34//34 33//33
f 1//1 33//33 32//32
f 1//1 32//32 30//30
f 1//1 30//30 55//55
f 1//1 55//55 91//91
f 1//1 91//91 58//58
f 1//1 58//58 36//36
f 1//1 36//36 13//13
f 1//1 13//13 5//5
f 1//1 5//5 6//6
f 1//1 6//6 2//2
f 2//2 7//7 8//8
f 2//2 8//8 3//3
f 2//2 6//6 7//7
f 3//3 8//8 9//9
f 3//3 9//9 10//10
f 3//3 10//10 11//11
f 3//3 11//11 12//12
f 3//3 12//12 4//4
f 5//5 13//13 14//14
f 5//5 14//14 15//15
f 5//5 15//15 16//16
f 5//5 16//16 17//17
f 5//5 17//17 18//18
f 5//5 18//18 19//19
f 5//5 19//19 6//6
f 6//6 20//20 21//21
f 6//6 21//21 22//22
f 6//6 22//22 23//23
f 6//6 23//23 24//24
f 6//6 24//24 7//7
f 6//6 19//19 18//18
f 6//6 18//18 39//39
f 6//6 39//39 73//73
f 6//6 73//73 105//105
f 6//6 105//105 139//139
f 6//6 139//139 112//112
f 6//6 112//112 77//77
f 6//6 77//77 42//42
f 6//6 42//42 25//25
f 6//6 25//25 26//26
f 6//6 26//26 27//27
f 6//6 27//27 20//20
f 7//7 24//24 28//28
f 7//7 28//28 8//8
f 8//8 28//28 9//9
f 9//9 29//29 30//30
f 9//9 30//30 10//10
f 9//9 28//28 31//31
f 9//9 31//31 29//29
f 10//10 30//30 32//32
f 10//10 32//32 33//33
f 10//10 33//33 34//34
f 10//10 34//34 35//35
f 10//10 35//35 11//11
f 13//13 36//36 14//14
f 14//14 36//36 37//37
f 14//14 37//37 15//15
f 15//15 38//38 39//39
f 15//15 39//39 18//18
f 15//15 18//18 16//16
f 15//15 37//37 38//38
f 16//16 18//18 17//17
f 20//20 27//27 21//21
f 21//21 27//27 22//22
f 22//22 27//27 23//23
f 23//23 27//27 40//40
f 23//23 40//40 41//41
f 23//23 41//41 28//28
f 23//23 28//28 24//24
f 25//25 42//42 43//43
f 25//25 43//43 44//44
f 25//25 44//44 45//45
f 25//25 45//45 46//46
f 25//25 46//46 47//47
f 25//25 47//47 48//48
f 25//25 48//48 49//49
f 25//25 49//49 26//26
f 26//26 50//50 27//27
f 26//26 49//49 51//51
f 26//26 51//51 50//50
f 27//27 50//50 52//52
f 27//27 52//52 41//41
f 27//27 41//41 40//40
f 28//28 41//41 53//53
f 28//28 53//53 54//54
f 28//28 54//54 31//31
f 29//29 31//31 30//30
f 30//30 31//31 56//56
f 30//30 56//56 55//55
f 31//31 54//54 57//57
f 31//31 57//57 56//56
f 36//36 58//58 94//94
f 36//36 94//94 66//66
f 36//36 66//66 65//65
f 36//36 65//65 64//64
f 36//36 64//64 63//63
f 36//36 63//63 62//62
f 36//36 62//62 61//61
f 36//36 61//61 60//60
f 36//36 60//60 59//59
f 36//36 59//59 37//37
f 37//37 59//59 60//60
f 37//37 60//60 61//61
f 37//37 61//61 62//62
f 37//37 62//62 63//63
f 37//37 63//63 64//64
f 37//37 64//64 65//65
f 37//37 65//65 66//66
f 37//37 66//66 67//67
f 37//37 67//67 38//38
f 38//38 67//67 68//68
f 38//38 68//68 69//69
f 38//38 69//69 70//70
f 38//38 70//70 71//71
f 38//38 71//71 72//72
f 38//38 72//72 39//39
f 39//39 72//72 74//74
f 39//39 74//74 75//75
f 39//39 75//75 73//73
f 41//41 52//52 76//76
f 41//41 76//76 53//53
f 42//42 77//77 43//43
f 43//43 78//78 79//79
f 43//43 79//79 80//80
f 43//43 80//80 44//44
f 43//43 77//77 81//81
f 43//43 81//81 82//82
f 43//43 82//82 78//78
f 44//44 80//80 83//83
f 44//44 83//83 45//45
f 45//45 83//83 47//47
f 45//45 47//47 46//46
f 47//47 83//83 84//84
f 47//47 84//84 48//48
f 48//48 51//51 49//49
f 48//48 84//84 51//51
f 50//50 51//51 85//85
f 50//50 85//85 86//86
f 50//50 86//86 76//76
f 50//50 76//76 52//52
f 51//51 84//84 87//87
f 51//51 87//87 85//85
f 53//53 76//76 88//88
f 53//53 88//88 89//89
f 53//53 89//89 54//54
f 54//54 89//89 90//90
f 54//54 90//90 57//57
f 55//55 56//56 92//92
f 55//55 92//92 91//91
f 56//56 57//57 92//92
f 57//57 90//90 93//93
f 57//57 93//93 92//92
f 58//58 91//91 92//92
f 58//58 92//92 95//95
f 58//58 95//95 96//96
f 58//58 96//96 97//97
f 58//58 97//97 98//98
f 58//58 98//98 99//99
f 58//58 99//99 94//94
f 66//66 100//100 67//67
f 66//66 94//94 135//135
f 66//66 135//135 100//100
f 67//67 101//101 68//68
f 67//67 100//100 101//101
f 68//68 101//101 102//102
f 68//68 102//102 103//103
f 68//68 103//103 69//69
f 69//69 103//103 104//104
f 69//69 104//104 70//70
f 70//70 104//104 71//71
f 71//71 104//104 74//74
f 71//71 74//74 72//72
f 73//73 75//75 110//110
f 73//73 110//110 105//105
f 74//74 104//104 106//106
f 74//74 106//106 107//107
f 74//74 107//107 108//108
f 74//74 108//108 109//109
f 74//74 109//109 75//75
f 75//75 109//109 110//110
f 76//76 86//86 85//85
f 76//76 85//85 111//111
f 76//76 111//111 88//88
f 77//77 112//112 81//81
f 78//78 82//82 113//113
f 78//78 113//113 114//114
f 78//78 114//114 79//79
f 79//79 115//115 116//116
f 79//79 116//116 80//80
f 79//79 114//114 117//117
f 79//79 117//117 115//115
f 80//80 116//116 83//83
f 81//81 112//112 82//82
f 82//82 112//112 118//118
f 82//82 118//118 119//119
f 82//82 119//119 120//120
f 82//82 120//120 113//113
f 83//83 116//116 115//115
f 83//83 115//115 121//121
f 83//83 121//121 122//122
f 83//83 122//122 87//87
f 83//83 87//87 84//84
f 85//85 87//87 111//111
f 87//87 122//122 123//123
f 87//87 123//123 124//124
f 87//87 124//124 111//111
f 88//88 111//111 89//89
f 89//89 111//111 125//125
f 89//89 125//125 126//126
f 89//89 126//126 127//127
f 89//89 127//127 90//90
f 90//90 127//127 128//128
f 90//90 128//128 129//129
f 90//90 129//129 92//92
f 90//90 92//92 93//93
f 92//92 129//129 96//96
f 92//92 96//96 95//95
f 94//94 130//130 131//131
f 94//94 131//131 132//132
f 94//94 132//132 133//133
f 94//94 133//133 134//134
f 94//94 134//134 135//135
f 94//94 99//99 130//130
f 96//96 129//129 97//97
f 97//97 129//129 128//128
f 97//97 128//128 98//98
f 98//98 128//128 99//99
f 99//99 128//128 127//127
f 99//99 127//127 126//126
f 99//99 126//126 136//136
f 99//99 136//136 137//137
f 99//99 137//137 132//132
f 99//99 132//132 131//131
f 99//99 131//131 130//130
f 100//100 138//138 101//101
f 100//100 135//135 138//138
f 101//101 138//138 107//107
f 101//101 107//107 102//102
f 102//102 107//107 106//106
f 102//102 106//106 104//104
f 102//102 104//104 103//103
f 105//105 110//110 109//109
f 105//105 109//109 140//140
f 105//105 140//140 141//141
f 105//105 141//141 119//119
f 105//105 119//119 139//139
f 107//107 142//142 143//143
f 107//107 143//143 108//108
f 107//107 138//138 142//142
f 108//108 143//143 109//109
f 109//109 143//143 140//140
f 111//111 144//144 125//125
f 111//111 124//124 126//126
f 111//111 126//126 144//144
f 112//112 139//139 118//118
f 113//113 120//120 114//114
f 114//114 145//145 117//117
f 114//114 120//120 146//146
f 114//114 146//146 147//147
f 114//114 147//147 148//148
f 114//114 148//148 145//145
f 115//115 117//117 121//121
f 117//117 145//145 149//149
f 117//117 149//149 121//121
f 118//118 139//139 119//119
f 119//119 141//141 120//120
f 120//120 141//141 140//140
f 120//120 140//140 146//146
f 121//121 149//149 150//150
f 121//121 150//150 124//124
f 121//121 124//124 151//151
f 121//121 151//151 152//152
f 121//121 152//152 123//123
f 121//121 123//123 122//122
f 123//123 152//152 124//124
f 124//124 153//153 136//136
f 124//124 136//136 126//126
f 124//124 152//152 151//151
f 124//124 150//150 154//154
f 124//124 154//154 155//155
f 124//124 155//155 156//156
f 124//124 156//156 157//157
f 124//124 157//157 153//153
f 125//125 144//144 126//126
f 132//132 158//158 133//133
f 132//132 137//137 159//159
f 132//132 159//159 158//158
f 133//133 158//158 134//134
f 134//134 158//158 160//160
f 134//134 160//160 161//161
f 134//134 161//161 135//135
f 135//135 161//161 138//138
f 136//136 159//159 137//137
f 136//136 153//153 158//158
f 136//136 158//158 159//159
f 138//138 161//161 142//142
f 140//140 143//143 162//162
f 140//140 162//162 163//163
f 140//140 163//163 146//146
f 142//142 161//161 163//163
f 142//142 163//163 162//162
f 142//142 162//162 143//143
f 145//145 148//148 149//149
f 146//146 164//164 147//147
f 146//146 163//163 165//165
f 146//146 165//165 164//164
f 147//147 164//164 166//166
f 147//147 166//166 167//167
f 147//147 167//167 168//168
f 147//147 168//168 149//149
f 147//147 149//149 148//148
f 149//149 168//168 150//150
f 150//150 168//168 154//154
f 153//153 157//157 169//169
f 153//153 169//169 158//158
f 154//154 168//168 167//167
f 154//154 167//167 170//170
f 154//154 170//170 155//155
f 155//155 170//170 156//156
f 156//156 170//170 157//157
f 157//157 170//170 171//171
f 157//157 171//171 169//169
f 158//158 169//169 171//171
f 158//158 171//171 170//170
f 158//158 170//170 172//172
f 158//158 172//172 161//161
f 158//158 161//161 160//160
f 161//161 172//172 163//163
f 163//163 172//172 165//165
f 164//164 165//165 170//170
f 164//164 170//170 166//166
f 165//165 172//172 170//170
f 166//166 170//170 167//167

