# https://github.com/mikedh/trimesh
v -0.42809176 -0.99870834 4.79620488
v -0.42893755 -0.99870834 4.79609997
v -0.42893755 -1.09401807 4.78719842
v -0.42804725 -1.09401807 4.78730332
v -0.33291830 -1.09401807 4.78531355
v -0.33291830 -1.03330818 4.79065459
v -0.33291830 -0.99870834 4.79358681
v -0.42809176 -0.90355880 4.79568149
v -0.42893755 -0.90355880 4.79568149
v -0.42893755 -1.15536865 4.76740553
v -0.42804725 -1.15504834 4.76771968
v -0.33291830 -1.15408726 4.76667234
v -0.23778939 -1.15008261 4.76321673
v -0.23778939 -1.09401807 4.77861101
v -0.23778939 -1.03330818 4.78426620
v -0.27233317 -1.03330818 4.78667503
v -0.23778939 -0.99870834 4.78740823
v -0.23778939 -0.04769346 4.77515541
v -0.33291830 -0.90355880 4.79222532
v -0.42893755 -0.23799254 4.78625598
v -0.42893755 -1.20310364 4.72488726
v -0.42804725 -1.20262307 4.72530631
v -0.33291830 -1.20166192 4.72436387
v -0.23778939 -1.19749722 4.72268824
v -0.18343637 -1.14543726 4.75944642
v -0.16785606 -1.09401807 4.76541575
v -0.16011042 -1.03330818 4.76845287
v -0.15570341 -0.99870834 4.77012851
v -0.15837433 -0.04769346 4.76740553
v -0.16104524 0.01798215 4.76698648
v -0.18579567 0.01798215 4.76939531
v -0.23778939 0.01798215 4.77389826
v -0.42893755 -0.04769346 4.78311452
v -0.42893755 -0.14284300 4.78479016
v -0.42893755 -1.25163946 4.67776113
v -0.42804725 -1.25163946 4.67776113
v -0.33291830 -1.25147927 4.67671407
v -0.23778939 -1.25019787 4.67514306
v -0.16972570 -1.24539226 4.67022106
v -0.12031386 -1.09401807 4.73766375
v -0.14488624 -1.18564360 4.70446608
v -0.08559202 -1.16241680 4.67545721
v -0.11252370 -1.03330818 4.74300479
v -0.12979559 -1.03330818 4.75305831
v -0.10807219 -0.99870834 4.74593701
v -0.11074310 -0.04769346 4.74520382
v -0.11350304 0.01798215 4.74237650
v -0.42893755 0.01798215 4.78164813
v -0.42893755 -1.27710880 4.61398386
v -0.00234865 -1.61846183 3.99746985
v 0.00161320 -1.61846183 3.99746985
v -0.07887024 -1.09401807 4.69011886
v -0.05581138 -1.09401807 4.61398386
v 0.01002656 -1.56960564 4.00867533
v -0.07513096 -0.99870834 4.69839212
v -0.07570966 -0.04769346 4.69765892
v -0.08759521 0.01798215 4.70970222
v -0.42893755 0.01798215 4.69692601
v -0.42893755 -1.27726899 4.61314604
v -0.42893755 -1.30994668 3.85598685
v -0.42893755 -1.31026706 3.75785966
v -0.00234865 -1.61846183 3.99191928
v -0.42893755 -1.28960319 4.51889407
v 0.00161320 -1.61846183 3.99191928
v -0.04753155 -0.99870834 4.61398386
v 0.01002656 -1.56960564 3.96929879
v 0.01363229 -1.47445603 4.01883375
v 0.02017602 -0.33330227 4.42390863
v 0.00045580 -0.57710296 4.47281501
v 0.01127299 -0.23799254 4.50318536
v 0.01198523 -0.14284300 4.50894518
v 0.01238587 -0.04769346 4.51261059
v -0.00568728 -0.04769346 4.56015548
v -0.00582084 0.01798215 4.55994596
v -0.01454581 0.01798215 4.57670201
v -0.07668899 0.01798215 4.69483133
v -0.07628835 0.01798215 3.72633762
v -0.19972893 -0.17103546 3.72633762
v -0.42893755 -1.19781760 3.72665177
v -0.42893755 -1.31026706 3.75681260
v -0.42893755 -1.30706337 3.72654715
v -0.14270499 -1.29569019 3.72633762
v -0.07027880 -1.26221168 3.72633762
v 0.00913626 -0.33314207 4.49637821
v 0.01363229 -1.47445603 3.95903575
v -0.05986225 -1.23642210 3.72633762
v -0.04486064 -1.18916761 3.72633762
v 0.02529528 -0.04769346 4.42369910
v 0.02436046 -0.14300319 4.42390863
v 0.02315854 -0.23815273 4.42390863
v 0.02582946 0.01798215 4.42369910
v 0.02177857 0.01798215 4.45145139
v 0.01256394 0.01798215 4.51229616
v 0.00695501 0.01798215 4.52716734
v 0.01674836 0.01798215 3.72633762
v -0.42893755 -1.20054072 3.72633762
v -0.36452412 -1.29472918 3.72633762
v -0.42893755 -1.26942003 3.72633762
v 0.01536839 -0.04769346 3.72633762
v 0.01608062 -0.01613712 3.72633762
v 0.01786123 0.01798215 3.78749682
v 0.02164503 0.01798215 4.04333911
v 0.02569592 0.01798215 4.32850441
v 0.02578494 0.01798215 4.35814157
vn -0.04849560 -0.04306214 0.99789470
vn -0.73923993 -0.02998132 0.67277444
vn -0.72429694 -0.13933650 0.67526238
vn -0.04798210 -0.19843199 0.97893946
vn 0.04154051 -0.19111510 0.98068823
vn 0.04585587 -0.08623775 0.99521871
vn 0.04698452 -0.03649640 0.99822867
vn 0.01701550 0.01092741 0.99979551
vn -0.70613348 0.00695856 0.70804455
vn -0.69867093 -0.39225935 0.59832394
vn -0.06884746 -0.47063452 0.87963809
vn 0.03227223 -0.49142674 0.87032078
vn 0.07975040 -0.47107752 0.87847928
vn 0.11476542 -0.16683920 0.97928218
vn 0.12800080 -0.09048116 0.98763807
vn 0.06728638 -0.08883491 0.99377105
vn 0.13258009 -0.03788068 0.99044817
vn 0.06760728 0.01580678 0.99758679
vn 0.04381064 0.01432845 0.99893710
vn -0.69175647 0.01096390 0.72204763
vn -0.69852321 -0.48759397 0.52375323
vn 0.01194079 -0.66802082 0.74404677
vn 0.02521480 -0.67570926 0.73673687
vn 0.07893309 -0.65842182 0.74849868
vn 0.29584537 -0.42245200 0.85674374
vn 0.34918735 -0.15963906 0.92335452
vn 0.33059544 -0.08849684 0.93961426
vn 0.33573110 -0.04277937 0.94098595
vn 0.27620005 0.01234937 0.96102082
vn 0.19978053 0.67689241 0.70845212
vn 0.06559949 0.71104113 0.70008372
vn 0.04504397 0.70886731 0.70390210
vn -0.69185962 0.01417258 0.72189293
vn -0.69173500 0.01168551 0.72205688
vn -0.67436222 -0.59708869 0.43441994
vn 0.00346841 -0.79706857 0.60387885
vn 0.01430840 -0.79410539 0.60761164
vn 0.05963520 -0.78084880 0.62186719
vn 0.32175203 -0.72374722 0.61046343
vn 0.61456080 -0.22754307 0.75534044
vn 0.48944842 -0.54003159 0.68469418
vn 0.77148465 -0.37937352 0.51077115
vn 0.63044513 -0.14643892 0.76229560
vn 0.47464663 -0.11928970 0.87205536
vn 0.65451832 -0.05517032 0.75403051
vn 0.63469803 0.02296218 0.77241903
vn 0.46296661 0.68474431 0.56283847
vn -0.56785373 0.58116915 0.58291042
vn -0.77401364 -0.59568636 0.21461744
vn -0.25118110 -0.95060994 0.18234254
vn 0.60226863 -0.76876176 0.21512288
vn 0.86685012 -0.14462180 0.47713248
vn 0.96363642 -0.12086860 0.23831835
vn 0.98201362 -0.14189625 0.12455803
vn 0.89152249 -0.04281654 0.45094833
vn 0.84939130 0.01650716 0.52750538
vn 0.55565247 0.71850209 0.41833608
vn -0.71156266 0.70015147 -0.05887698
vn -0.85313799 -0.51351448 0.09196981
vn -0.88962572 -0.45664066 0.00673655
vn -0.89030662 -0.45536121 0.00054145
vn -0.22752603 -0.91008907 -0.34636656
vn -0.87011894 -0.49003155 0.05255583
vn 0.56472841 -0.74955547 -0.34532364
vn 0.96978758 -0.05796617 0.23696406
vn 0.87724241 -0.26964858 -0.39715916
vn 0.99758794 -0.03519814 0.05982802
vn 0.99278867 -0.03737994 0.11390083
vn 0.98628249 -0.05359082 0.15612453
vn 0.97254502 -0.02562356 0.23129986
vn 0.96847199 -0.01520339 0.24865813
vn 0.96745343 -0.00824891 0.25291465
vn 0.91508280 -0.00357641 0.40325013
vn 0.65386622 0.69719453 0.29390262
vn 0.61926025 0.71570548 0.32292788
vn 0.60323037 0.70346677 0.37582925
vn -0.28870701 0.68874258 -0.66504280
vn -0.59232299 0.24280310 -0.76824484
vn -0.85458591 0.08278556 -0.51266898
vn -0.87784900 -0.47782175 -0.03267278
vn -0.64855431 -0.39858110 -0.64846774
vn 0.07588163 -0.34848989 -0.93423593
vn 0.36795825 -0.26167010 -0.89226425
vn 0.97991114 -0.04067644 0.19524237
vn 0.98609610 -0.04437637 -0.16014123
vn 0.44217323 -0.14979616 -0.88433248
vn 0.59085841 -0.06076059 -0.80448399
vn 0.99735583 -0.00852169 0.07217158
vn 0.99709071 -0.01057025 0.07548761
vn 0.99627640 -0.01867630 0.08416965
vn 0.72358860 0.68825945 0.05213899
vn 0.70213602 0.70448262 0.10348549
vn 0.70613444 0.68370718 0.18417013
vn 0.66155264 0.70599630 0.25281877
vn 0.57342635 0.57649457 -0.58209640
vn -0.70699679 0.00566547 -0.70719406
vn -0.00022994 -0.00829250 -0.99996559
vn -0.70677554 -0.00149955 -0.70743628
vn 0.65946088 -0.01591692 -0.75157035
vn 0.66642846 -0.01314377 -0.74545312
vn 0.70906570 0.70504397 -0.01178249
vn 0.70870484 0.70543039 -0.01026699
vn 0.71051475 0.70366082 -0.00549863
vn 0.71008405 0.70411595 -0.00117027
f 1//1 2//2 3//3
f 1//1 3//3 4//4
f 1//1 4//4 5//5
f 1//1 5//5 6//6
f 1//1 6//6 7//7
f 1//1 7//7 8//8
f 1//1 8//8 9//9
f 1//1 9//9 2//2
f 2//2 9//9 20//20
f 2//2 20//20 34//34
f 2//2 34//34 33//33
f 2//2 33//33 48//48
f 2//2 48//48 58//58
f 2//2 58//58 79//79
f 2//2 79//79 96//96
f 2//2 96//96 98//98
f 2//2 98//98 81//81
f 2//2 81//81 80//80
f 2//2 80//80 61//61
f 2//2 61//61 60//60
f 2//2 60//60 63//63
f 2//2 63//63 59//59
f 2//2 59//59 49//49
f 2//2 49//49 35//35
f 2//2 35//35 21//21
f 2//2 21//21 10//10
f 2//2 10//10 3//3
f 3//3 10//10 11//11
f 3//3 11//11 4//4
f 4//4 11//11 12//12
f 4//4 12//12 5//5
f 5//5 12//12 13//13
f 5//5 13//13 14//14
f 5//5 14//14 15//15
f 5//5 15//15 16//16
f 5//5 16//16 6//6
f 6//6 16//16 17//17
f 6//6 17//17 7//7
f 7//7 17//17 18//18
f 7//7 18//18 19//19
f 7//7 19//19 20//20
f 7//7 20//20 8//8
f 8//8 20//20 9//9
f 10//10 21//21 11//11
f 11//11 21//21 22//22
f 11//11 22//22 23//23
f 11//11 23//23 12//12
f 12//12 23//23 24//24
f 12//12 24//24 13//13
f 13//13 25//25 14//14
f 13//13 24//24 25//25
f 14//14 25//25 26//26
f 14//14 26//26 15//15
f 15//15 17//17 16//16
f 15//15 26//26 17//17
f 17//17 26//26 27//27
f 17//17 27//27 28//28
f 17//17 28//28 29//29
f 17//17 29//29 30//30
f 17//17 30//30 31//31
f 17//17 31//31 18//18
f 18//18 31//31 32//32
f 18//18 32//32 33//33
f 18//18 33//33 34//34
f 18//18 34//34 20//20
f 18//18 20//20 19//19
f 21//21 23//23 22//22
f 21//21 35//35 36//36
f 21//21 36//36 37//37
f 21//21 37//37 23//23
f 23//23 37//37 38//38
f 23//23 38//38 24//24
f 24//24 38//38 39//39
f 24//24 39//39 25//25
f 25//25 40//40 26//26
f 25//25 39//39 41//41
f 25//25 41//41 42//42
f 25//25 42//42 40//40
f 26//26 40//40 43//43
f 26//26 43//43 44//44
f 26//26 44//44 27//27
f 27//27 44//44 28//28
f 28//28 44//44 45//45
f 28//28 45//45 46//46
f 28//28 46//46 29//29
f 29//29 46//46 30//30
f 30//30 46//46 47//47
f 30//30 47//47 57//57
f 30//30 57//57 76//76
f 30//30 76//76 75//75
f 30//30 75//75 74//74
f 30//30 74//74 94//94
f 30//30 94//94 93//93
f 30//30 93//93 92//92
f 30//30 92//92 91//91
f 30//30 91//91 104//104
f 30//30 104//104 103//103
f 30//30 103//103 102//102
f 30//30 102//102 101//101
f 30//30 101//101 95//95
f 30//30 95//95 77//77
f 30//30 77//77 58//58
f 30//30 58//58 48//48
f 30//30 48//48 32//32
f 30//30 32//32 31//31
f 32//32 48//48 33//33
f 35//35 49//49 50//50
f 35//35 50//50 51//51
f 35//35 51//51 36//36
f 36//36 51//51 37//37
f 37//37 51//51 38//38
f 38//38 51//51 39//39
f 39//39 51//51 42//42
f 39//39 42//42 41//41
f 40//40 42//42 52//52
f 40//40 52//52 43//43
f 42//42 53//53 52//52
f 42//42 51//51 54//54
f 42//42 54//54 53//53
f 43//43 52//52 45//45
f 43//43 45//45 44//44
f 45//45 52//52 55//55
f 45//45 55//55 56//56
f 45//45 56//56 46//46
f 46//46 56//56 57//57
f 46//46 57//57 47//47
f 49//49 59//59 50//50
f 50//50 60//60 61//61
f 50//50 61//61 80//80
f 50//50 80//80 62//62
f 50//50 62//62 64//64
f 50//50 64//64 51//51
f 50//50 59//59 63//63
f 50//50 63//63 60//60
f 51//51 64//64 66//66
f 51//51 66//66 54//54
f 52//52 53//53 65//65
f 52//52 65//65 55//55
f 53//53 54//54 65//65
f 54//54 66//66 85//85
f 54//54 85//85 67//67
f 54//54 67//67 68//68
f 54//54 68//68 69//69
f 54//54 69//69 65//65
f 55//55 65//65 70//70
f 55//55 70//70 71//71
f 55//55 71//71 72//72
f 55//55 72//72 73//73
f 55//55 73//73 56//56
f 56//56 73//73 74//74
f 56//56 74//74 75//75
f 56//56 75//75 76//76
f 56//56 76//76 57//57
f 58//58 77//77 78//78
f 58//58 78//78 79//79
f 62//62 80//80 81//81
f 62//62 81//81 64//64
f 64//64 81//81 82//82
f 64//64 82//82 83//83
f 64//64 83//83 66//66
f 65//65 69//69 84//84
f 65//65 84//84 70//70
f 66//66 83//83 86//86
f 66//66 86//86 87//87
f 66//66 87//87 85//85
f 67//67 85//85 88//88
f 67//67 88//88 89//89
f 67//67 89//89 90//90
f 67//67 90//90 68//68
f 68//68 90//90 70//70
f 68//68 70//70 84//84
f 68//68 84//84 69//69
f 70//70 90//90 71//71
f 71//71 90//90 89//89
f 71//71 89//89 72//72
f 72//72 89//89 88//88
f 72//72 88//88 91//91
f 72//72 91//91 92//92
f 72//72 92//92 93//93
f 72//72 93//93 94//94
f 72//72 94//94 73//73
f 73//73 94//94 74//74
f 77//77 95//95 100//100
f 77//77 100//100 99//99
f 77//77 99//99 87//87
f 77//77 87//87 86//86
f 77//77 86//86 83//83
f 77//77 83//83 82//82
f 77//77 82//82 97//97
f 77//77 97//97 98//98
f 77//77 98//98 96//96
f 77//77 96//96 78//78
f 78//78 96//96 79//79
f 81//81 97//97 82//82
f 81//81 98//98 97//97
f 85//85 87//87 99//99
f 85//85 99//99 100//100
f 85//85 100//100 95//95
f 85//85 95//95 101//101
f 85//85 101//101 102//102
f 85//85 102//102 103//103
f 85//85 103//103 104//104
f 85//85 104//104 91//91
f 85//85 91//91 88//88

