# https://github.com/mikedh/trimesh
v 1.36525747 -0.52329868 -1.85516107
v 1.40643779 -0.45254400 -1.78227329
v 1.39782415 -0.42374118 -1.86005131
v 1.36997717 -0.52329868 -1.95028771
v 1.38496260 -1.19327666 -2.31274692
v 1.38496260 -1.29032958 -2.31274692
v 1.38496260 -1.29032958 -1.95005480
v 1.38496260 -1.28945292 -1.47465450
v 1.38496260 -1.18851784 -1.47465450
v 1.61493535 -0.09225865 -1.71054994
v 1.60549580 -0.08148887 -1.76003443
v 1.59829795 -0.07560310 -1.85516107
v 1.42378314 -0.37878380 -1.90848789
v 1.40124602 -0.42662147 -1.94423303
v 1.41221957 -0.45730268 -2.00838825
v 1.61363737 -0.37728105 -2.19188839
v 1.80089578 -0.46456603 -2.31274692
v 2.33057640 -1.32614504 -2.31274692
v 2.28243426 -1.33228137 -2.19200478
v 1.99086810 -1.33390937 -1.72009750
v 1.99086810 -1.33390937 -1.70565970
v 1.47475699 -1.29007894 -1.47465450
v 1.91204726 -1.05339523 -1.12325645
v 1.62897679 -0.09225865 -1.71054994
v 1.66236938 -0.07510219 -1.75409628
v 1.66496534 -0.05456455 -1.85516107
v 1.60525977 -0.08436920 -1.91489173
v 1.60927151 -0.27847496 -2.09990547
v 1.89269611 -0.37627921 -2.31274692
v 1.86178138 -0.40270262 -2.31274692
v 1.82897866 -0.43238203 -2.31274692
v 2.42048873 -1.31900701 -2.31274692
v 2.37824633 -1.33178038 -2.18804606
v 2.33057640 -1.33215605 -2.19118978
v 2.33706600 -1.33265704 -2.14845844
v 2.02508674 -1.33390937 -1.72009750
v 2.02508674 -1.33390937 -1.70565970
v 1.56986124 -1.28945292 -1.47465450
v 2.05234357 -1.31349698 -1.67026371
v 2.49482561 -1.06917418 -1.50387941
v 2.47582858 -0.95421347 -1.42586861
v 2.47677244 -0.90362075 -1.42528639
v 2.47559240 -0.85365413 -1.42586861
v 2.08585425 -0.64452083 -1.41329371
v 1.69234025 -0.10590868 -1.71846738
v 1.72915471 -0.07998612 -1.78180760
v 1.73906633 -0.07422560 -1.85516107
v 1.73127860 -0.08249071 -1.91722032
v 1.66496534 -0.07748153 -1.92269278
v 1.91204726 -0.37515213 -2.31274692
v 2.42839426 -1.30986531 -2.14030808
v 2.38178614 -1.33278236 -2.08872778
v 2.38084228 -1.33253186 -2.14030808
v 2.50355734 -1.27154505 -2.31274692
v 2.41836485 -1.30723547 -2.05228389
v 2.47948634 -1.15082381 -1.69913933
v 2.50933898 -1.08169706 -1.56989753
v 2.54886748 -0.99879517 -1.56989753
v 2.50202346 -0.99103090 -1.47325728
v 2.51464884 -0.90362075 -1.47465450
v 2.57057870 -0.84751793 -1.60529351
v 2.49376381 -0.81671144 -1.48187333
v 2.47830631 -0.75885538 -1.51855014
v 2.47641831 -0.66217821 -2.31263053
v 2.54733361 -1.05339523 -2.31274692
v 2.49069579 -1.25914734 -2.04518144
v 2.53848394 -1.18901883 -2.31274692
v 2.52302644 -1.18901883 -2.04518144
v 2.47995841 -1.24612348 -1.98335496
v 2.55677330 -0.99879517 -1.66502417
v 2.57057870 -0.86843124 -1.60529351
v 2.55889718 -0.90161708 -1.57199334
v 2.57057870 -0.84751793 -1.64674403
v 2.55700919 -0.80869676 -2.31263053
v 2.51783481 -0.71590168 -2.31263053
v 2.51394088 -0.70701040 -2.31263053
v 2.50379323 -0.69473788 -2.31263053
v 2.55830717 -0.82672980 -2.31263053
v 2.55417734 -0.92190422 -2.31263053
v 2.57057870 -0.86843124 -1.64674403
v 2.54509150 -1.09396958 -2.31274692
v 2.55771715 -0.99879517 -1.75980151
vn -0.97945807 0.16662826 0.11356454
vn -0.84801092 0.31506519 0.42615889
vn -0.91184663 0.39958555 0.09416535
vn -0.96429485 0.18032436 -0.19395509
vn -0.69086560 0.04317689 -0.72169279
vn -0.58498057 -0.56193002 -0.58483535
vn -0.72312098 -0.69072123 0.00048443
vn -0.66623894 -0.61462148 0.42233412
vn -0.85241326 0.08611915 0.51572777
vn -0.43547604 0.69151958 0.57633435
vn -0.57024499 0.79448521 0.20883943
vn -0.62330708 0.78100951 -0.03888995
vn -0.86399185 0.49743266 -0.07796688
vn -0.88503886 0.41569659 -0.20952937
vn -0.80389407 0.35691586 -0.47577873
vn -0.51690096 0.45067937 -0.72780595
vn -0.22724574 0.16527640 -0.95970990
vn 0.01239413 -0.69658010 -0.71737198
vn -0.01842196 -0.99916649 -0.03642752
vn -0.03601291 -0.99932731 -0.00692851
vn -0.02236684 -0.99631554 0.08279531
vn -0.00414939 -0.92648627 0.37630570
vn -0.00427046 -0.21287352 0.97707043
vn 0.07781834 0.76001744 0.64522693
vn 0.08421668 0.93689282 0.33932197
vn -0.01923362 0.99835953 -0.05392885
vn -0.51164396 0.75588256 -0.40848748
vn -0.50812686 0.58359894 -0.63341879
vn -0.11093534 0.43601633 -0.89307509
vn -0.19110171 0.21993532 -0.95661308
vn -0.20242345 0.20607700 -0.95736984
vn 0.24114252 -0.70440001 -0.66758588
vn 0.10808847 -0.99357100 -0.03366823
vn 0.00607862 -0.99948306 -0.03157007
vn 0.00177965 -0.99996924 -0.00763926
vn 0.00120551 -0.99999869 -0.00107964
vn 0.12344152 -0.96903214 0.21386657
vn 0.03512359 -0.92080815 0.38843106
vn 0.24935078 -0.88615371 0.39058392
vn 0.62818039 -0.59855133 0.49711739
vn 0.63780754 -0.18914566 0.74660931
vn 0.64758632 0.00313964 0.76198563
vn 0.60078260 0.32140174 0.73195710
vn 0.26018683 0.57489517 0.77575663
vn 0.30342938 0.71645401 0.62819126
vn 0.40956935 0.85972073 0.30517735
vn 0.45266245 0.89167600 -0.00325707
vn 0.30343152 0.88844331 -0.34438031
vn -0.04972694 0.87119931 -0.48840454
vn 0.16590826 0.53197867 -0.83034520
vn 0.51606433 -0.85495428 0.05225694
vn 0.26725024 -0.95858122 0.09848532
vn 0.14448743 -0.98945260 -0.01034133
vn 0.58911975 -0.51401362 -0.62348048
vn 0.45344314 -0.86532782 0.21353474
vn 0.49380106 -0.81775297 0.29570358
vn 0.77083747 -0.59298119 0.23277223
vn 0.93526138 -0.24589468 0.25460155
vn 0.81262884 -0.22160220 0.53900541
vn 0.86581699 0.03504450 0.49913208
vn 0.92721700 0.32301640 0.18954957
vn 0.76518841 0.42226489 0.48598257
vn 0.62640474 0.66466671 0.40722876
vn 0.51385711 0.54766104 -0.66031678
vn 0.69938140 -0.03763970 -0.71375690
vn 0.73543462 -0.66232092 0.14306262
vn 0.72529928 -0.18953403 -0.66182914
vn 0.93083614 -0.35735018 0.07645213
vn 0.53523818 -0.80116552 0.26768245
vn 0.97550406 -0.21332014 0.05372473
vn 0.98693440 -0.04289481 0.15530786
vn 0.93678490 -0.03583428 0.34806602
vn 0.98637258 0.16445584 -0.00483825
vn 0.71723856 0.17710938 -0.67394445
vn 0.65274655 0.28135490 -0.70339275
vn 0.63074343 0.40441948 -0.66227457
vn 0.56123819 0.46850576 -0.68228590
vn 0.71453929 0.01147040 -0.69950127
vn 0.73534058 -0.03493996 -0.67679644
vn 0.99890223 -0.04644895 -0.00606823
vn 0.70138760 -0.04480051 -0.71137076
vn 0.99360219 -0.11282481 0.00502504
f 1//1 2//2 3//3
f 1//1 3//3 4//4
f 1//1 4//4 5//5
f 1//1 5//5 6//6
f 1//1 6//6 7//7
f 1//1 7//7 8//8
f 1//1 8//8 9//9
f 1//1 9//9 2//2
f 2//2 10//10 11//11
f 2//2 11//11 3//3
f 2//2 9//9 10//10
f 3//3 11//11 12//12
f 3//3 12//12 13//13
f 3//3 13//13 14//14
f 3//3 14//14 4//4
f 4//4 14//14 15//15
f 4//4 15//15 5//5
f 5//5 15//15 16//16
f 5//5 16//16 17//17
f 5//5 17//17 31//31
f 5//5 31//31 30//30
f 5//5 30//30 29//29
f 5//5 29//29 50//50
f 5//5 50//50 65//65
f 5//5 65//65 81//81
f 5//5 81//81 67//67
f 5//5 67//67 54//54
f 5//5 54//54 32//32
f 5//5 32//32 18//18
f 5//5 18//18 6//6
f 6//6 18//18 19//19
f 6//6 19//19 20//20
f 6//6 20//20 21//21
f 6//6 21//21 7//7
f 7//7 21//21 8//8
f 8//8 21//21 22//22
f 8//8 22//22 23//23
f 8//8 23//23 9//9
f 9//9 23//23 10//10
f 10//10 24//24 25//25
f 10//10 25//25 11//11
f 10//10 23//23 24//24
f 11//11 25//25 26//26
f 11//11 26//26 12//12
f 12//12 26//26 27//27
f 12//12 27//27 14//14
f 12//12 14//14 13//13
f 14//14 27//27 15//15
f 15//15 27//27 28//28
f 15//15 28//28 16//16
f 16//16 28//28 29//29
f 16//16 29//29 30//30
f 16//16 30//30 31//31
f 16//16 31//31 17//17
f 18//18 32//32 33//33
f 18//18 33//33 34//34
f 18//18 34//34 19//19
f 19//19 35//35 20//20
f 19//19 34//34 35//35
f 20//20 35//35 36//36
f 20//20 36//36 37//37
f 20//20 37//37 21//21
f 21//21 37//37 22//22
f 22//22 38//38 23//23
f 22//22 37//37 38//38
f 23//23 38//38 39//39
f 23//23 39//39 40//40
f 23//23 40//40 41//41
f 23//23 41//41 42//42
f 23//23 42//42 43//43
f 23//23 43//43 44//44
f 23//23 44//44 24//24
f 24//24 45//45 25//25
f 24//24 44//44 45//45
f 25//25 45//45 46//46
f 25//25 46//46 26//26
f 26//26 47//47 48//48
f 26//26 48//48 49//49
f 26//26 49//49 27//27
f 26//26 46//46 47//47
f 27//27 49//49 29//29
f 27//27 29//29 28//28
f 29//29 49//49 50//50
f 32//32 51//51 52//52
f 32//32 52//52 53//53
f 32//32 53//53 33//33
f 32//32 54//54 51//51
f 33//33 53//53 34//34
f 34//34 53//53 35//35
f 35//35 52//52 36//36
f 35//35 53//53 52//52
f 36//36 52//52 37//37
f 37//37 52//52 39//39
f 37//37 39//39 38//38
f 39//39 52//52 55//55
f 39//39 55//55 56//56
f 39//39 56//56 40//40
f 40//40 56//56 57//57
f 40//40 57//57 58//58
f 40//40 58//58 59//59
f 40//40 59//59 41//41
f 41//41 59//59 60//60
f 41//41 60//60 42//42
f 42//42 60//60 43//43
f 43//43 60//60 61//61
f 43//43 61//61 62//62
f 43//43 62//62 63//63
f 43//43 63//63 44//44
f 44//44 63//63 45//45
f 45//45 63//63 46//46
f 46//46 63//63 47//47
f 47//47 64//64 48//48
f 47//47 63//63 64//64
f 48//48 64//64 50//50
f 48//48 50//50 49//49
f 50//50 64//64 65//65
f 51//51 55//55 52//52
f 51//51 54//54 66//66
f 51//51 66//66 55//55
f 54//54 67//67 68//68
f 54//54 68//68 66//66
f 55//55 66//66 69//69
f 55//55 69//69 56//56
f 56//56 69//69 66//66
f 56//56 66//66 57//57
f 57//57 66//66 58//58
f 58//58 70//70 71//71
f 58//58 71//71 72//72
f 58//58 72//72 60//60
f 58//58 60//60 59//59
f 58//58 66//66 68//68
f 58//58 68//68 70//70
f 60//60 72//72 61//61
f 61//61 72//72 71//71
f 61//61 71//71 80//80
f 61//61 80//80 73//73
f 61//61 73//73 74//74
f 61//61 74//74 75//75
f 61//61 75//75 76//76
f 61//61 76//76 77//77
f 61//61 77//77 64//64
f 61//61 64//64 63//63
f 61//61 63//63 62//62
f 64//64 77//77 65//65
f 65//65 77//77 76//76
f 65//65 76//76 75//75
f 65//65 75//75 74//74
f 65//65 74//74 78//78
f 65//65 78//78 79//79
f 65//65 79//79 80//80
f 65//65 80//80 81//81
f 67//67 81//81 80//80
f 67//67 80//80 82//82
f 67//67 82//82 70//70
f 67//67 70//70 68//68
f 70//70 82//82 71//71
f 71//71 82//82 80//80
f 73//73 80//80 78//78
f 73//73 78//78 74//74
f 78//78 80//80 79//79

