# https://github.com/mikedh/trimesh
v -1.01820941 0.01798219 4.53394727
v -0.06101758 0.01798219 4.42538125
v -1.01820941 0.01798219 4.63939706
v -1.01820941 0.14278101 4.53097423
v -1.01820941 0.16201564 4.53093850
v -0.06101758 0.01877422 4.42538125
v 0.02556727 0.01798219 4.42538125
v -0.86583252 0.01798219 4.76476194
v -1.01820941 0.51808263 4.66830245
v -0.06081071 0.14515706 4.42538125
v -1.01820941 0.23793587 4.53136833
v -0.05563836 1.17387050 4.42538125
v 0.02173971 0.01798219 4.45142133
v 0.03560157 0.61832900 4.42538125
v 0.02949824 0.61832900 4.51893915
v -0.80862651 0.01798219 4.78306519
v -0.86107398 0.52328730 4.76085780
v -1.01820941 1.17387050 4.68230746
v -1.01820941 0.80863870 4.67471409
v -1.01820941 1.11333789 4.59354935
v -1.01820941 1.17387050 4.59788332
v 0.03818775 1.17387050 4.42538125
v 0.01253298 0.01798219 4.51234861
v 0.03756708 0.80863870 4.42538125
v 0.03187751 0.80863870 4.51893915
v 0.01025716 0.61832900 4.57886360
v 0.00818821 0.52328730 4.57682194
v -0.74304134 0.01798219 4.78890354
v -0.71345564 0.42813245 4.78646806
v -0.80862651 0.42813245 4.77697564
v -0.80862651 0.52328730 4.77532836
v -0.23791136 0.58257524 4.76501258
v -0.99886491 1.17387050 4.68162700
v -0.71345564 0.52328730 4.78467675
v -0.61828469 0.52328730 4.78277826
v -0.23791136 0.52328730 4.77493426
v 0.03849807 1.09240609 4.42538125
v 0.03704982 1.17387050 4.43913562
v 0.03239473 0.99883529 4.51893915
v 0.00694686 0.01798219 4.52714182
v 0.03808430 0.90209638 4.42538125
v 0.03249818 0.90368043 4.51893915
v 0.01170541 0.80863870 4.58058290
v 0.01222263 0.90368043 4.58129937
v -0.07674149 0.01798219 4.69495154
v -0.01457004 0.01798219 4.57667876
v -0.00577707 0.01798219 4.55991562
v -0.71345564 0.01798219 4.79130330
v -0.61828469 0.42813245 4.78456958
v -0.17946399 0.57691799 4.76160971
v -0.14274043 1.17387050 4.63452554
v -0.54907887 1.17387050 4.66239237
v -0.61176752 1.17387050 4.66669061
v -0.71345564 1.17387050 4.67120376
v -0.16756763 0.52328730 4.76519177
v -0.61828469 0.01798219 4.78922563
v -0.55280294 0.01798219 4.78764979
v -0.52321720 0.01798219 4.78693361
v -0.23791136 0.42813245 4.77514917
v -0.16105048 0.01798219 4.76709025
v 0.03860152 0.99725123 4.42538125
v 0.02836031 1.17387050 4.51893915
v 0.03032581 1.09399014 4.51893915
v 0.00932613 1.17387050 4.57850551
v 0.01056748 1.09399014 4.57972325
v 0.01201572 0.99883529 4.58122764
v -0.11346505 0.01798219 4.74251855
v -0.08760338 0.01798219 4.70974446
v -0.04756952 1.17387050 4.61464646
v -0.11905117 0.42813245 4.73682338
v -0.11998219 0.52328730 4.73266832
v -0.23791136 0.01798219 4.77400316
v -0.18577426 0.01798219 4.76949001
v 0.02525691 1.17387050 4.52871765
vn -0.60665032 -0.58937301 -0.53349306
vn -0.03956094 -0.69495905 -0.71796020
vn -0.70588374 -0.63139553 0.32104180
vn -0.74306669 -0.00799412 -0.66916963
vn -0.74452656 0.00045935 -0.66759269
vn -0.05491199 0.00004074 -0.99849120
vn 0.61268829 -0.57770539 -0.53932323
vn -0.34333807 -0.67181820 0.65633778
vn -0.88770929 -0.01203424 0.46024711
vn -0.05493364 0.00018222 -0.99848999
vn -0.74514059 0.01491763 -0.66674056
vn -0.05129849 0.69382613 -0.71831314
vn 0.68951600 -0.71695610 0.10267246
vn 0.73015557 -0.01043384 -0.68320127
vn 0.98190035 -0.01778263 0.18856159
vn -0.14483472 -0.67886099 0.71984072
vn -0.33402233 0.02414997 0.94225573
vn -0.58436156 0.60639451 0.53926548
vn -0.88677289 -0.00965087 0.46210465
vn -0.76673837 0.04565925 -0.64033390
vn -0.62294466 0.60383440 -0.49731677
vn 0.59988117 0.57530713 -0.55602544
vn 0.69503271 -0.69613156 0.17980653
vn 0.72866218 -0.00596165 -0.68484734
vn 0.98228466 -0.00879282 0.18718852
vn 0.89990191 -0.01621554 0.43579078
vn 0.91538770 -0.03039091 0.40142466
vn -0.06049351 -0.70194862 0.70965391
vn -0.03904779 0.01576927 0.99911291
vn -0.18493800 0.01540188 0.98262949
vn -0.17384096 0.05239845 0.98337873
vn 0.05265115 0.17983942 0.98228593
vn 0.02265210 0.76907955 0.63875154
vn -0.03078658 0.08195488 0.99616042
vn 0.02025240 0.09198437 0.99555448
vn 0.07171588 0.07811381 0.99436164
vn 0.73111422 0.00228669 -0.68225125
vn 0.70152095 0.70972648 0.06447241
vn 0.98127655 0.00759232 0.19245438
vn 0.64893829 -0.71918809 0.24828931
vn 0.72790534 -0.00399288 -0.68566601
vn 0.98238873 -0.00336598 0.18681824
vn 0.89474692 -0.00894865 0.44648390
vn 0.88149004 -0.00052873 0.47220232
vn 0.60317292 -0.69783918 0.38626792
vn 0.61349125 -0.72100490 0.32214968
vn 0.64261154 -0.70852249 0.29162698
vn -0.02143459 -0.69155486 0.72200584
vn 0.02088682 0.01488541 0.99967103
vn 0.21762155 0.15612335 0.96346581
vn 0.09147078 0.76071728 0.64260588
vn 0.04313850 0.77611575 0.62911320
vn 0.03324620 0.77066767 0.63636941
vn 0.02475720 0.76940506 0.63828124
vn 0.35282587 0.05957831 0.93379030
vn 0.01608730 -0.70295445 0.71105290
vn 0.01713062 -0.70349823 0.71049052
vn 0.02210931 -0.70264414 0.71119785
vn 0.07703691 0.00162623 0.99702692
vn 0.21353897 -0.66535066 0.71533880
vn 0.73028074 -0.00039841 -0.68314704
vn 0.70430471 0.69412812 0.14879862
vn 0.97797088 0.02188546 0.20759089
vn 0.60668272 0.65784195 0.44629591
vn 0.91466528 0.02035569 0.40369923
vn 0.85959346 0.01602847 0.51072710
vn 0.47671809 -0.65981835 0.58084387
vn 0.56441537 -0.70374221 0.43148835
vn 0.28171024 0.71875775 0.63563090
vn 0.63521294 0.02211789 0.77202029
vn 0.61786113 0.05270276 0.78451899
vn 0.04674484 -0.70350688 0.70914949
vn 0.06498493 -0.70666760 0.70455509
vn 0.66607398 0.71502463 0.21233285
f 1//1 2//2 7//7
f 1//1 7//7 13//13
f 1//1 13//13 23//23
f 1//1 23//23 40//40
f 1//1 40//40 47//47
f 1//1 47//47 46//46
f 1//1 46//46 45//45
f 1//1 45//45 68//68
f 1//1 68//68 67//67
f 1//1 67//67 60//60
f 1//1 60//60 73//73
f 1//1 73//73 72//72
f 1//1 72//72 58//58
f 1//1 58//58 57//57
f 1//1 57//57 56//56
f 1//1 56//56 48//48
f 1//1 48//48 28//28
f 1//1 28//28 16//16
f 1//1 16//16 8//8
f 1//1 8//8 3//3
f 1//1 3//3 9//9
f 1//1 9//9 19//19
f 1//1 19//19 18//18
f 1//1 18//18 21//21
f 1//1 21//21 20//20
f 1//1 20//20 11//11
f 1//1 11//11 5//5
f 1//1 5//5 4//4
f 1//1 4//4 2//2
f 2//2 4//4 5//5
f 2//2 5//5 6//6
f 2//2 6//6 10//10
f 2//2 10//10 12//12
f 2//2 12//12 22//22
f 2//2 22//22 37//37
f 2//2 37//37 61//61
f 2//2 61//61 41//41
f 2//2 41//41 24//24
f 2//2 24//24 14//14
f 2//2 14//14 7//7
f 3//3 8//8 9//9
f 5//5 10//10 6//6
f 5//5 11//11 12//12
f 5//5 12//12 10//10
f 7//7 14//14 15//15
f 7//7 15//15 13//13
f 8//8 16//16 17//17
f 8//8 17//17 18//18
f 8//8 18//18 19//19
f 8//8 19//19 9//9
f 11//11 20//20 12//12
f 12//12 20//20 21//21
f 12//12 21//21 18//18
f 12//12 18//18 33//33
f 12//12 33//33 54//54
f 12//12 54//54 53//53
f 12//12 53//53 52//52
f 12//12 52//52 51//51
f 12//12 51//51 69//69
f 12//12 69//69 64//64
f 12//12 64//64 74//74
f 12//12 74//74 62//62
f 12//12 62//62 38//38
f 12//12 38//38 22//22
f 13//13 15//15 23//23
f 14//14 24//24 25//25
f 14//14 25//25 15//15
f 15//15 25//25 26//26
f 15//15 26//26 27//27
f 15//15 27//27 23//23
f 16//16 28//28 29//29
f 16//16 29//29 30//30
f 16//16 30//30 17//17
f 17//17 30//30 31//31
f 17//17 31//31 18//18
f 18//18 32//32 33//33
f 18//18 31//31 34//34
f 18//18 34//34 35//35
f 18//18 35//35 36//36
f 18//18 36//36 32//32
f 22//22 38//38 39//39
f 22//22 39//39 37//37
f 23//23 27//27 40//40
f 24//24 41//41 42//42
f 24//24 42//42 25//25
f 25//25 43//43 26//26
f 25//25 42//42 44//44
f 25//25 44//44 43//43
f 26//26 43//43 45//45
f 26//26 45//45 27//27
f 27//27 45//45 46//46
f 27//27 46//46 47//47
f 27//27 47//47 40//40
f 28//28 48//48 29//29
f 29//29 49//49 35//35
f 29//29 35//35 34//34
f 29//29 34//34 31//31
f 29//29 31//31 30//30
f 29//29 48//48 49//49
f 32//32 50//50 51//51
f 32//32 51//51 52//52
f 32//32 52//52 53//53
f 32//32 53//53 54//54
f 32//32 54//54 33//33
f 32//32 36//36 50//50
f 35//35 49//49 36//36
f 36//36 55//55 50//50
f 36//36 49//49 56//56
f 36//36 56//56 57//57
f 36//36 57//57 58//58
f 36//36 58//58 59//59
f 36//36 59//59 60//60
f 36//36 60//60 55//55
f 37//37 39//39 42//42
f 37//37 42//42 61//61
f 38//38 62//62 63//63
f 38//38 63//63 39//39
f 39//39 63//63 64//64
f 39//39 64//64 65//65
f 39//39 65//65 66//66
f 39//39 66//66 44//44
f 39//39 44//44 42//42
f 41//41 61//61 42//42
f 43//43 44//44 45//45
f 44//44 66//66 67//67
f 44//44 67//67 68//68
f 44//44 68//68 45//45
f 48//48 56//56 49//49
f 50//50 69//69 51//51
f 50//50 55//55 69//69
f 55//55 70//70 71//71
f 55//55 71//71 64//64
f 55//55 64//64 69//69
f 55//55 60//60 67//67
f 55//55 67//67 70//70
f 58//58 72//72 59//59
f 59//59 72//72 73//73
f 59//59 73//73 60//60
f 62//62 74//74 63//63
f 63//63 74//74 64//64
f 64//64 66//66 65//65
f 64//64 71//71 70//70
f 64//64 70//70 66//66
f 66//66 70//70 67//67

