# https://github.com/mikedh/trimesh
v 0.11152552 -1.18458782 0.38183858
v -0.28257392 -0.76008928 0.00357536
v -0.39217285 -1.18618513 0.91011135
v 0.11152552 -1.28872922 0.38183858
v 0.11152552 -1.17708072 -0.67794639
v 0.00040438 -1.04573268 -0.65875911
v -0.25806640 -0.76008928 -0.23813437
v -0.29231605 -0.76008928 0.00681477
v -0.43464243 -1.18693052 0.91011135
v -0.39217285 -1.28926168 0.91011135
v -0.32641349 -0.76008928 0.01802812
v -0.94108072 -0.94441314 0.59638713
v 0.11152552 -1.28894215 0.33274911
v -0.80849644 -1.29980357 0.61831546
v -0.61837280 -1.30294474 -0.04775679
v -0.33311121 -1.29943087 -0.14294558
v -0.04769736 -1.29698164 -0.42801355
v 0.11152552 -1.28793053 -0.67794639
v -0.64516365 -1.02241267 -1.63556534
v 0.00253549 -1.08310859 -0.76939741
v -0.00690221 -1.05196201 -0.73575737
v 0.00040438 -1.04573268 -0.67196592
v -0.25958861 -0.76008928 -0.27451541
v -0.62491826 -1.19055100 0.91011135
v -1.01673437 -1.29245616 0.91011135
v -0.99877234 -1.30070858 0.71325504
v -0.42824915 -0.76008928 0.03821210
v -0.99877234 -0.94515852 0.59165261
v -1.01810436 -1.20407443 0.91011135
v -0.71959956 -1.19289362 0.91011135
v -0.47482868 -0.76008928 0.03671700
v -0.52323485 -0.76008928 0.03472353
v 0.11152552 -1.28920838 0.23756030
v -0.90363443 -1.30081519 0.61831546
v -0.71335853 -1.30326428 -0.04775679
v -0.04769736 -1.29447939 -0.52320232
v 0.11152552 -1.28942130 -0.61814187
v 0.11152552 -1.29053939 -0.52320232
v 0.11152552 -1.29053939 -0.45891250
v -1.26926848 -1.28862276 -0.81325393
v -0.66495236 -1.06048073 -1.63556534
v -0.65110024 -1.05760565 -1.63556534
v -0.64516365 -1.03029247 -1.63556534
v -0.66921452 -1.01985704 -1.63556534
v -0.65201355 -0.76008928 -1.34376952
v -0.44118789 -0.76008928 -1.17158239
v -0.41622372 -0.76008928 -1.12971927
v -0.39141173 -0.76008928 -1.08461673
v -0.38303959 -0.76008928 -1.05720637
v -0.36888304 -0.76008928 -1.00712010
v -0.36111980 -0.76008928 -0.95902737
v -1.01810436 -1.29245616 0.91011135
v -1.01810436 -1.30065542 0.71325504
v -1.18904824 -1.30140081 0.61806624
v -1.37932414 -1.30400966 0.23731115
v -0.55839785 -0.76008928 0.02650042
v -0.59264750 -0.76008928 0.01578544
v -1.09391033 -0.91906989 0.42768870
v -1.17062953 -0.94393391 0.49023419
v -1.01810436 -0.94702199 0.58492463
v -1.44340904 -1.20929215 0.81567020
v -1.26926848 -1.29048622 -0.69837962
v -1.44340904 -1.29437293 -0.08289193
v -1.26926848 -1.18543975 -0.81325393
v -1.01795218 -0.99903942 -1.30838502
v -1.01795218 -1.09396994 -1.28845037
v -1.01795218 -1.10030573 -1.28396501
v -0.66799678 -1.06048073 -1.63556534
v -1.01795218 -0.90884746 -1.30813595
v -1.01795218 -0.76008928 -1.26652197
v -0.67941327 -0.76008928 -1.34376952
v -1.44340904 -1.29447939 0.81567020
v -1.09391033 -1.30006980 0.71300583
v -1.37932414 -1.30331758 0.33274911
v -1.44340904 -1.29708825 0.33274911
v -1.44340904 -1.29735448 0.17351971
v -1.44340904 -1.29634286 0.07858012
v -1.44340904 -1.29522478 -0.01660865
v -0.60908735 -0.76008928 -0.01561192
v -1.19711588 -0.93818381 0.42469850
v -1.23395330 -0.95266563 0.45385317
v -1.05067962 -0.95011001 0.57296370
v -1.23699780 -0.95117486 0.39056009
v -1.44340904 -1.20343551 0.33274911
v -1.44340904 -1.20732221 -0.08289193
v -1.14292537 -0.85454057 -0.58574781
v -1.01795218 -0.76008928 -0.98718531
v -0.62476608 -0.76008928 -0.04775679
v -0.99862009 -0.78420791 -0.61789272
v -1.23699780 -0.95117486 0.37934674
v -1.14292537 -0.85454057 -0.55260617
v -1.44340904 -1.20418090 0.23731115
v -0.88734683 -0.76067490 -0.66324448
vn 0.84622034 0.39017860 0.36286607
vn 0.35298148 0.91844352 0.17850930
vn 0.34956417 0.44191325 0.82614622
vn 0.72361520 -0.62588650 0.29094180
vn 0.91807772 0.28947426 -0.27080980
vn 0.75297007 0.65805051 0.00236538
vn 0.41254410 0.91089743 0.00855829
vn 0.07421440 0.97173188 0.22411910
vn -0.00773356 0.43280598 0.90145392
vn 0.31122204 -0.62094691 0.71942044
vn 0.06947349 0.97169239 0.22580377
vn 0.00157690 0.88244879 0.47040584
vn 0.71754689 -0.69650396 0.00295061
vn 0.01280101 -0.99984426 0.01214827
vn 0.00783092 -0.99996932 -0.00017108
vn 0.01480414 -0.99986813 0.00667472
vn 0.01901347 -0.99977348 -0.00956401
vn 0.70934829 -0.64178059 -0.29144928
vn 0.40005806 0.33353029 -0.85364577
vn 0.76468274 0.47355373 -0.43704367
vn 0.73178841 0.64169881 -0.22958301
vn 0.72629010 0.68254735 -0.08143594
vn 0.39166164 0.91971010 -0.02710139
vn -0.00894342 0.43229660 0.90168712
vn 0.00166893 -0.69264507 0.72127666
vn 0.00320037 -0.99970504 0.02407489
vn 0.02828576 0.98066607 0.19363363
vn -0.12045428 0.88825074 0.44328476
vn -0.10881524 0.41452336 0.90350962
vn -0.01255455 0.43107136 0.90223050
vn -0.00538283 0.98794826 0.15469086
vn -0.01584404 0.98768484 0.15565222
vn 0.72010342 -0.69386417 0.00189467
vn 0.00754990 -0.99993997 0.00794106
vn 0.00029414 -0.99997519 -0.00703734
vn 0.00765693 -0.99951313 -0.03024695
vn 0.71309797 -0.70089466 -0.01542634
vn 0.71832235 -0.69568867 -0.00550146
vn 0.72110433 -0.69282625 0.00058131
vn -0.64866770 -0.69128491 -0.31836361
vn 0.04350634 -0.61730917 -0.78551677
vn 0.34504427 -0.47389662 -0.81016445
vn 0.45093239 -0.04377699 -0.89148391
vn -0.27544081 0.34593527 -0.89691758
vn 0.17569250 0.89773613 -0.40398265
vn 0.44966790 0.82509420 -0.34207943
vn 0.44158963 0.85893546 -0.25928454
vn 0.44434750 0.86833658 -0.22033359
vn 0.38752286 0.91450508 -0.11621742
vn 0.38732945 0.91681229 -0.09711399
vn 0.35878430 0.93170425 -0.05657753
vn -0.07961773 -0.66845605 0.73947787
vn -0.00371713 -0.99961735 0.02741056
vn -0.00653156 -0.99987481 0.01441177
vn -0.04991899 -0.99875155 -0.00185395
vn -0.03553349 0.99019738 0.13507971
vn -0.08903803 0.98898637 0.11822942
vn -0.15445974 0.96965027 0.18952714
vn -0.24084450 0.91887020 0.31252438
vn -0.23697277 0.86787357 0.43662269
vn -0.70924178 0.39064956 0.58682964
vn -0.00948730 -0.99982587 -0.01606932
vn -0.74322451 -0.66217814 -0.09558989
vn -0.94239822 0.13207529 -0.30731369
vn -0.79142442 -0.05322859 -0.60894508
vn -0.74088006 -0.27057911 -0.61472244
vn -0.60047119 -0.56039804 -0.57042825
vn -0.27803507 -0.53275794 -0.79929061
vn -0.78957855 0.10167029 -0.60516846
vn -0.56082781 0.72517027 -0.39950000
vn -0.04577208 0.92486073 -0.37754146
vn -0.63276709 -0.58174491 0.51105643
vn -0.00803822 -0.99966041 0.02478805
vn -0.04176196 -0.99909318 0.00829188
vn -0.74139084 -0.67106608 0.00315236
vn -0.73891804 -0.67377608 -0.00509186
vn -0.73829180 -0.67443597 -0.00783175
vn -0.73682708 -0.67602618 -0.00862906
vn -0.10852313 0.99259054 0.05465112
vn -0.24710539 0.96083205 0.12546196
vn -0.49722805 0.84900650 0.17875187
vn -0.24861239 0.86225370 0.44126006
vn -0.64311288 0.76525740 0.02805220
vn -0.94114950 0.33799035 0.00038234
vn -0.94766234 0.30829558 -0.08300563
vn -0.71236287 0.70122602 -0.02865662
vn -0.31770097 0.94815776 0.00793427
vn -0.10990081 0.99257804 0.05206392
vn -0.24821176 0.96541858 0.07973632
vn -0.74646989 0.66541598 -0.00206695
vn -0.62381417 0.78139552 0.01664086
vn -0.94153967 0.33688827 -0.00305761
vn -0.14733623 0.98716936 0.06155229
f 1//1 2//2 3//3
f 1//1 3//3 10//10
f 1//1 10//10 4//4
f 1//1 4//4 13//13
f 1//1 13//13 33//33
f 1//1 33//33 39//39
f 1//1 39//39 38//38
f 1//1 38//38 37//37
f 1//1 37//37 18//18
f 1//1 18//18 5//5
f 1//1 5//5 6//6
f 1//1 6//6 7//7
f 1//1 7//7 2//2
f 2//2 8//8 3//3
f 2//2 7//7 23//23
f 2//2 23//23 51//51
f 2//2 51//51 50//50
f 2//2 50//50 49//49
f 2//2 49//49 48//48
f 2//2 48//48 47//47
f 2//2 47//47 46//46
f 2//2 46//46 45//45
f 2//2 45//45 71//71
f 2//2 71//71 70//70
f 2//2 70//70 87//87
f 2//2 87//87 88//88
f 2//2 88//88 79//79
f 2//2 79//79 57//57
f 2//2 57//57 56//56
f 2//2 56//56 32//32
f 2//2 32//32 31//31
f 2//2 31//31 27//27
f 2//2 27//27 11//11
f 2//2 11//11 8//8
f 3//3 9//9 24//24
f 3//3 24//24 30//30
f 3//3 30//30 29//29
f 3//3 29//29 52//52
f 3//3 52//52 25//25
f 3//3 25//25 10//10
f 3//3 8//8 11//11
f 3//3 11//11 12//12
f 3//3 12//12 9//9
f 4//4 10//10 14//14
f 4//4 14//14 15//15
f 4//4 15//15 16//16
f 4//4 16//16 17//17
f 4//4 17//17 13//13
f 5//5 18//18 43//43
f 5//5 43//43 19//19
f 5//5 19//19 20//20
f 5//5 20//20 21//21
f 5//5 21//21 22//22
f 5//5 22//22 6//6
f 6//6 22//22 7//7
f 7//7 22//22 23//23
f 9//9 12//12 24//24
f 10//10 25//25 26//26
f 10//10 26//26 14//14
f 11//11 27//27 12//12
f 12//12 28//28 29//29
f 12//12 29//29 30//30
f 12//12 30//30 24//24
f 12//12 27//27 31//31
f 12//12 31//31 32//32
f 12//12 32//32 28//28
f 13//13 17//17 33//33
f 14//14 26//26 34//34
f 14//14 34//34 15//15
f 15//15 35//35 17//17
f 15//15 17//17 16//16
f 15//15 34//34 26//26
f 15//15 26//26 35//35
f 17//17 36//36 18//18
f 17//17 18//18 37//37
f 17//17 37//37 38//38
f 17//17 38//38 39//39
f 17//17 39//39 33//33
f 17//17 35//35 40//40
f 17//17 40//40 36//36
f 18//18 40//40 41//41
f 18//18 41//41 42//42
f 18//18 42//42 43//43
f 18//18 36//36 40//40
f 19//19 43//43 42//42
f 19//19 42//42 41//41
f 19//19 41//41 68//68
f 19//19 68//68 44//44
f 19//19 44//44 45//45
f 19//19 45//45 46//46
f 19//19 46//46 20//20
f 20//20 46//46 47//47
f 20//20 47//47 48//48
f 20//20 48//48 21//21
f 21//21 48//48 49//49
f 21//21 49//49 50//50
f 21//21 50//50 22//22
f 22//22 50//50 51//51
f 22//22 51//51 23//23
f 25//25 52//52 26//26
f 26//26 53//53 54//54
f 26//26 54//54 55//55
f 26//26 55//55 35//35
f 26//26 52//52 53//53
f 28//28 32//32 56//56
f 28//28 56//56 57//57
f 28//28 57//57 58//58
f 28//28 58//58 59//59
f 28//28 59//59 60//60
f 28//28 60//60 61//61
f 28//28 61//61 29//29
f 29//29 61//61 72//72
f 29//29 72//72 52//52
f 35//35 62//62 40//40
f 35//35 55//55 62//62
f 40//40 62//62 55//55
f 40//40 55//55 63//63
f 40//40 63//63 85//85
f 40//40 85//85 64//64
f 40//40 64//64 65//65
f 40//40 65//65 66//66
f 40//40 66//66 67//67
f 40//40 67//67 68//68
f 40//40 68//68 41//41
f 44//44 65//65 69//69
f 44//44 69//69 70//70
f 44//44 70//70 71//71
f 44//44 71//71 45//45
f 44//44 68//68 65//65
f 52//52 72//72 53//53
f 53//53 73//73 54//54
f 53//53 72//72 73//73
f 54//54 73//73 72//72
f 54//54 72//72 74//74
f 54//54 74//74 55//55
f 55//55 74//74 72//72
f 55//55 72//72 75//75
f 55//55 75//75 76//76
f 55//55 76//76 77//77
f 55//55 77//77 78//78
f 55//55 78//78 63//63
f 57//57 79//79 80//80
f 57//57 80//80 58//58
f 58//58 80//80 59//59
f 59//59 81//81 61//61
f 59//59 61//61 82//82
f 59//59 82//82 60//60
f 59//59 80//80 81//81
f 60//60 82//82 61//61
f 61//61 81//81 83//83
f 61//61 83//83 84//84
f 61//61 84//84 92//92
f 61//61 92//92 85//85
f 61//61 85//85 63//63
f 61//61 63//63 78//78
f 61//61 78//78 77//77
f 61//61 77//77 76//76
f 61//61 76//76 75//75
f 61//61 75//75 72//72
f 64//64 85//85 70//70
f 64//64 70//70 69//69
f 64//64 69//69 65//65
f 65//65 68//68 66//66
f 66//66 68//68 67//67
f 70//70 85//85 86//86
f 70//70 86//86 91//91
f 70//70 91//91 87//87
f 79//79 88//88 80//80
f 80//80 88//88 89//89
f 80//80 89//89 81//81
f 81//81 89//89 87//87
f 81//81 87//87 83//83
f 83//83 90//90 84//84
f 83//83 87//87 91//91
f 83//83 91//91 86//86
f 83//83 86//86 90//90
f 84//84 90//90 92//92
f 85//85 92//92 90//90
f 85//85 90//90 86//86
f 87//87 89//89 93//93
f 87//87 93//93 88//88
f 88//88 93//93 89//89

