# https://github.com/mikedh/trimesh
v 2.16608094 -0.35125543 -3.36223014
v 2.16608094 -0.32219145 -3.56762991
v 1.75602170 0.03960938 -3.94831056
v 1.74360599 0.02423020 -3.88878135
v 1.74189747 0.02227522 -3.88122200
v 1.66489743 0.02696721 -3.87862350
v 1.88632941 -0.37119618 -3.36223014
v 2.16608094 -0.48706105 -3.36223014
v 2.29707209 -0.99887370 -4.44486085
v 2.29354107 -0.94374338 -4.44781376
v 2.29354107 -0.94374338 -4.47864145
v 2.16608094 -0.32258247 -3.59255205
v 1.66501127 0.07049795 -3.94831056
v 2.16608094 -0.32505877 -3.68987771
v 2.16608094 -0.33574597 -3.76287210
v 2.16608094 -0.34434784 -3.79417214
v 1.73620216 0.02540321 -4.04327418
v 1.66489743 0.03335340 -3.88878135
v 1.61386773 0.01575868 -3.88878135
v 1.32637072 -0.46959661 -3.42128700
v 1.66489743 -0.27605405 -3.50762834
v 1.87266081 -0.37562746 -3.36223014
v 2.14569194 -0.49018901 -3.36223014
v 1.98132648 -1.19085224 -3.88878135
v 2.19387392 -1.19085224 -4.24241400
v 2.19421556 -1.19085224 -4.24312253
v 2.28363130 -1.14210818 -4.46954681
v 2.28944045 -1.09401580 -4.46116071
v 2.29707209 -0.99887370 -4.48478345
v 2.19307650 -1.04162249 -4.56876217
v 1.71569918 0.00337714 -4.09477170
v 2.16608094 -0.35894499 -3.83279535
v 1.66501127 0.04664725 -4.04327418
v 1.59347873 0.02110228 -4.04327418
v 1.58482186 0.03061646 -3.94831056
v 1.60441359 0.01367335 -3.89078927
v 1.29049048 -0.44652788 -3.47739124
v 1.23057623 -0.46373168 -3.51223477
v 1.32637072 -0.48536674 -3.42128700
v 1.79543296 -0.45108951 -3.36223014
v 1.85375252 -0.39270092 -3.36223014
v 2.06049066 -0.49396864 -3.36223014
v 1.13341502 -1.19085224 -3.88878135
v 2.06664160 -1.26097069 -4.36974059
v 2.12199959 -1.25810340 -4.36974059
v 1.85796698 -0.49957291 -3.36223014
v 2.17063719 -1.22356551 -4.36974059
v 2.28363130 -1.14210818 -4.47226327
v 2.28944045 -1.09401580 -4.47994084
v 2.19307650 -1.05400396 -4.56876217
v 1.57001420 -0.17322232 -4.19859377
v 1.63983821 -0.17635028 -4.19434175
v 1.66501127 -0.04771288 -4.12784348
v 2.18430579 -1.04162249 -4.56876217
v 1.66501127 0.00324679 -4.09429934
v 1.61614586 0.00077048 -4.09158261
v 1.50520206 -0.18169388 -4.19434175
v 1.41601413 -0.26693081 -4.19682202
v 1.40348459 -0.25298531 -4.13835574
v 1.21508513 -0.44770089 -3.66271175
v 1.21895794 -0.45095916 -3.56762991
v 1.21497115 -0.52277196 -3.56467728
v 1.23057623 -0.49071034 -3.51223477
v 1.35575824 -0.54883827 -3.43593306
v 1.41920351 -0.57412265 -3.42211376
v 1.38434849 -0.51964397 -3.41608999
v 1.79543296 -0.49279567 -3.36223014
v 1.20130255 -0.52316294 -3.66271175
v 1.23399342 -0.46855395 -3.90673473
v 1.14116057 -1.19085224 -3.94831056
v 1.55759849 -1.19085224 -4.36974059
v 2.07723481 -1.24989252 -4.39088305
v 2.11482357 -1.24989252 -4.39088305
v 1.20130255 -1.19085224 -4.04362859
v 2.23544933 -1.15344706 -4.48738196
v 2.14045226 -1.16022430 -4.49364191
v 2.18430579 -1.05400396 -4.56876217
v 1.65624056 -0.90542581 -4.36974059
v 1.47478931 -0.33313931 -4.22859470
v 1.47387806 -0.23630287 -4.20804281
v 1.40792686 -0.33313931 -4.20343638
v 1.33104081 -0.56930034 -4.18725475
v 1.33138245 -0.37927675 -4.09193701
v 1.32853487 -0.61830511 -4.19032590
v 1.32796527 -0.77066285 -4.19197942
v 1.32648456 -0.71331692 -4.19386911
v 1.37956443 -0.71331692 -4.22942146
vn 0.59541898 0.43168450 0.67758744
vn 0.84979033 0.52461980 0.05128798
vn 0.50273678 0.86432636 -0.01398846
vn 0.34717053 0.88704396 0.30434459
vn 0.22539943 0.87596528 0.42647382
vn -0.12097535 0.81584448 0.56547568
vn -0.05626169 0.43492293 0.89870833
vn 0.61715531 -0.23810847 0.74994912
vn 0.99681553 -0.02804506 0.07464760
vn 0.99213396 0.12241670 0.02616036
vn 0.78341383 0.33850329 -0.52122768
vn 0.86596542 0.50001792 -0.00927238
vn -0.06536798 0.99047465 0.12118994
vn 0.86349728 0.50326150 -0.03317107
vn 0.86051923 0.50011660 -0.09690220
vn 0.84913826 0.50397214 -0.15803892
vn 0.49945280 0.78551929 -0.36538519
vn -0.10718746 0.84275429 0.52751877
vn -0.28619511 0.78226249 0.55331524
vn -0.41445541 0.34554198 0.84191891
vn -0.18012053 0.73216328 0.65688167
vn -0.10434412 0.29696460 0.94917034
vn 0.03587711 -0.33183287 0.94265570
vn 0.30366018 -0.80797804 0.50493760
vn 0.63045169 -0.70157319 0.33215317
vn 0.72174414 -0.64397293 0.25374054
vn 0.86728025 -0.49181056 0.07711893
vn 0.98857623 -0.11850043 0.09313800
vn 0.89498749 0.01966904 -0.44565740
vn 0.29734102 0.18653051 -0.93637316
vn 0.29348448 0.66809543 -0.68375094
vn 0.82429430 0.51109321 -0.24356242
vn -0.02776693 0.91600391 -0.40020723
vn -0.55690441 0.76963821 -0.31227313
vn -0.60917148 0.78742563 0.09418592
vn -0.40254573 0.77743235 0.48327619
vn -0.46406464 0.70159415 0.54074917
vn -0.78949122 0.36106315 0.49632350
vn -0.44062582 -0.14134070 0.88649405
vn -0.07981746 0.04914930 0.99559707
vn -0.06664742 0.07235575 0.99514962
vn 0.01174016 -0.32032509 0.94723493
vn -0.70237623 -0.63289787 0.32574209
vn -0.03007457 -0.98111677 -0.19106385
vn 0.29418346 -0.95130101 -0.09210041
vn 0.00086239 -0.32209911 0.94670556
vn 0.59442255 -0.80250626 0.05143467
vn 0.75731606 -0.52307117 -0.39098458
vn 0.89348583 -0.13947314 -0.42688443
vn 0.28735641 -0.25594638 -0.92299390
vn -0.05380303 0.44372323 -0.89454733
vn 0.08031594 0.44162622 -0.89359702
vn 0.01613220 0.50144428 -0.86503953
vn -0.12393760 0.16670963 -0.97818575
vn -0.04174293 0.66203706 -0.74830773
vn -0.28945671 0.68477851 -0.66879982
vn -0.35453044 0.52494190 -0.77378561
vn -0.64322548 0.38100496 -0.66415074
vn -0.81851228 0.52866366 -0.22483859
vn -0.91273566 0.40838167 -0.01174888
vn -0.88209299 0.42634173 0.20036139
vn -0.97472329 0.01988679 0.22252869
vn -0.82525582 -0.10119154 0.55561956
vn -0.38944928 -0.39771780 0.83075256
vn -0.15747175 -0.41754329 0.89490795
vn -0.17060290 -0.16461782 0.97149144
vn -0.05822218 -0.20661841 0.97668777
vn -0.99266693 0.11931362 0.01940670
vn -0.92813530 0.31115814 -0.20431710
vn -0.76707997 -0.59006523 -0.25181608
vn -0.39508827 -0.56640304 -0.72325159
vn -0.05681094 -0.80995727 -0.58373088
vn 0.12782955 -0.84791609 -0.51448801
vn -0.61591322 -0.62747912 -0.47636211
vn 0.26952835 -0.69821534 -0.66321173
vn -0.02131690 -0.65636647 -0.75414100
vn -0.11556148 -0.27012651 -0.95586464
vn -0.33171642 0.12130031 -0.93554821
vn -0.30486976 0.16098691 -0.93868932
vn -0.27533049 0.32613260 -0.90433990
vn -0.49470774 0.13818527 -0.85800296
vn -0.74347599 0.13531463 -0.65493007
vn -0.88574486 0.29910157 -0.35495676
vn -0.71130013 0.07365304 -0.69901885
vn -0.67853065 -0.04417476 -0.73324262
vn -0.70232278 0.02801204 -0.71130727
vn -0.50425216 0.06759304 -0.86090704
f 1//1 2//2 3//3
f 1//1 3//3 4//4
f 1//1 4//4 5//5
f 1//1 5//5 6//6
f 1//1 6//6 7//7
f 1//1 7//7 22//22
f 1//1 22//22 41//41
f 1//1 41//41 40//40
f 1//1 40//40 67//67
f 1//1 67//67 46//46
f 1//1 46//46 42//42
f 1//1 42//42 23//23
f 1//1 23//23 8//8
f 1//1 8//8 9//9
f 1//1 9//9 10//10
f 1//1 10//10 2//2
f 2//2 10//10 11//11
f 2//2 11//11 12//12
f 2//2 12//12 3//3
f 3//3 13//13 4//4
f 3//3 12//12 14//14
f 3//3 14//14 15//15
f 3//3 15//15 16//16
f 3//3 16//16 17//17
f 3//3 17//17 13//13
f 4//4 13//13 5//5
f 5//5 13//13 18//18
f 5//5 18//18 6//6
f 6//6 18//18 19//19
f 6//6 19//19 20//20
f 6//6 20//20 21//21
f 6//6 21//21 7//7
f 7//7 20//20 22//22
f 7//7 21//21 20//20
f 8//8 23//23 24//24
f 8//8 24//24 25//25
f 8//8 25//25 26//26
f 8//8 26//26 27//27
f 8//8 27//27 28//28
f 8//8 28//28 9//9
f 9//9 28//28 49//49
f 9//9 49//49 29//29
f 9//9 29//29 11//11
f 9//9 11//11 10//10
f 11//11 29//29 30//30
f 11//11 30//30 31//31
f 11//11 31//31 17//17
f 11//11 17//17 32//32
f 11//11 32//32 16//16
f 11//11 16//16 15//15
f 11//11 15//15 14//14
f 11//11 14//14 12//12
f 13//13 17//17 33//33
f 13//13 33//33 34//34
f 13//13 34//34 35//35
f 13//13 35//35 36//36
f 13//13 36//36 19//19
f 13//13 19//19 18//18
f 16//16 32//32 17//17
f 17//17 31//31 33//33
f 19//19 36//36 20//20
f 20//20 37//37 38//38
f 20//20 38//38 63//63
f 20//20 63//63 39//39
f 20//20 39//39 67//67
f 20//20 67//67 40//40
f 20//20 40//40 41//41
f 20//20 41//41 22//22
f 20//20 36//36 37//37
f 23//23 42//42 24//24
f 24//24 43//43 44//44
f 24//24 44//44 45//45
f 24//24 45//45 25//25
f 24//24 42//42 46//46
f 24//24 46//46 43//43
f 25//25 45//45 26//26
f 26//26 45//45 47//47
f 26//26 47//47 27//27
f 27//27 47//47 48//48
f 27//27 48//48 49//49
f 27//27 49//49 28//28
f 29//29 49//49 50//50
f 29//29 50//50 30//30
f 30//30 51//51 52//52
f 30//30 52//52 53//53
f 30//30 53//53 31//31
f 30//30 50//50 77//77
f 30//30 77//77 54//54
f 30//30 54//54 51//51
f 31//31 53//53 55//55
f 31//31 55//55 33//33
f 33//33 55//55 56//56
f 33//33 56//56 34//34
f 34//34 56//56 57//57
f 34//34 57//57 58//58
f 34//34 58//58 59//59
f 34//34 59//59 35//35
f 35//35 59//59 60//60
f 35//35 60//60 61//61
f 35//35 61//61 38//38
f 35//35 38//38 36//36
f 36//36 38//38 37//37
f 38//38 61//61 62//62
f 38//38 62//62 63//63
f 39//39 63//63 43//43
f 39//39 43//43 64//64
f 39//39 64//64 65//65
f 39//39 65//65 66//66
f 39//39 66//66 67//67
f 43//43 63//63 62//62
f 43//43 62//62 68//68
f 43//43 68//68 69//69
f 43//43 69//69 70//70
f 43//43 70//70 44//44
f 43//43 46//46 65//65
f 43//43 65//65 64//64
f 44//44 71//71 72//72
f 44//44 72//72 73//73
f 44//44 73//73 45//45
f 44//44 70//70 74//74
f 44//44 74//74 71//71
f 45//45 73//73 75//75
f 45//45 75//75 48//48
f 45//45 48//48 47//47
f 46//46 67//67 65//65
f 48//48 75//75 50//50
f 48//48 50//50 49//49
f 50//50 75//75 76//76
f 50//50 76//76 77//77
f 51//51 57//57 56//56
f 51//51 56//56 53//53
f 51//51 53//53 52//52
f 51//51 54//54 57//57
f 53//53 56//56 55//55
f 54//54 77//77 71//71
f 54//54 71//71 78//78
f 54//54 78//78 79//79
f 54//54 79//79 80//80
f 54//54 80//80 57//57
f 57//57 80//80 58//58
f 58//58 80//80 79//79
f 58//58 79//79 81//81
f 58//58 81//81 82//82
f 58//58 82//82 83//83
f 58//58 83//83 59//59
f 59//59 83//83 69//69
f 59//59 69//69 60//60
f 60//60 69//69 68//68
f 60//60 68//68 61//61
f 61//61 68//68 62//62
f 65//65 67//67 66//66
f 69//69 83//83 82//82
f 69//69 82//82 70//70
f 70//70 82//82 84//84
f 70//70 84//84 74//74
f 71//71 76//76 72//72
f 71//71 74//74 85//85
f 71//71 85//85 86//86
f 71//71 86//86 87//87
f 71//71 87//87 81//81
f 71//71 81//81 79//79
f 71//71 79//79 78//78
f 71//71 77//77 76//76
f 72//72 76//76 73//73
f 73//73 76//76 75//75
f 74//74 84//84 86//86
f 74//74 86//86 85//85
f 81//81 87//87 82//82
f 82//82 87//87 84//84
f 84//84 87//87 86//86

