# https://github.com/mikedh/trimesh
v 2.01437133 1.18926053 1.73826679
v 1.75977245 1.28439299 1.74611972
v 0.41097574 1.24196104 1.80869712
v 0.11167771 1.18926053 1.82366668
v 2.01120521 1.15521909 1.73777600
v 2.01437133 1.15521909 1.73753061
v 2.01437133 1.28439299 1.73384961
v 2.01437133 1.33102025 1.72526050
v 2.01437133 1.35507310 1.72035239
v 0.14296711 1.25814267 1.81532310
v 0.11167771 1.23568805 1.81900410
v 0.11167771 1.15521909 1.82268511
v 2.01437133 1.15521909 1.65311243
v 1.85494431 1.36322388 1.72452418
v 2.01437133 1.38711683 1.70660993
v 0.11167771 1.25838239 1.81605913
v 1.75977245 1.36741906 1.72673284
v 1.37927098 1.37940551 1.73434039
v 0.11167771 1.15521909 1.71740770
v 1.47444284 1.15521909 1.65949288
v 1.18892711 1.37025587 -0.61808197
v 2.01437133 1.37265322 -0.33292496
v 2.01437133 1.45232307 1.67814330
v 1.28409911 1.37940551 1.73679430
v 0.11167771 1.29042612 1.80231667
v 1.42788122 1.42703163 1.71225421
v 1.37927098 1.42823038 1.71323577
v 0.23348286 1.15521909 1.70734625
v 0.11167771 1.37800717 -0.33439738
v 0.14296711 1.37185410 -0.33292496
v 0.23813905 1.37349217 -0.42789553
v 1.09394144 1.37133469 -0.61808197
v 1.37927098 1.15521909 1.66145601
v 1.18892711 1.39810442 -0.68335881
v 1.28409911 1.37425131 -0.61808197
v 1.28409911 1.15521909 1.66489162
v 0.26384102 1.15521909 1.70587376
v 1.56942858 1.37744777 -0.52286602
v 2.01437133 1.38152316 -0.35893754
v 2.01437133 1.47453797 1.66710014
v 0.14296711 1.30568884 1.79470912
v 0.14296711 1.37940551 1.75323620
v 0.11167771 1.35567233 1.76501554
v 2.01437133 1.51728958 1.64378701
v 2.01437133 1.53702733 1.63200767
v 1.28409911 1.42910931 1.71372670
v 0.23813905 1.37940551 1.75299095
v 0.11167771 1.39770479 -0.42789553
v 0.14296711 1.38551860 -0.42789553
v 0.23813905 1.39994237 -0.50470631
v 0.52346858 1.37988495 -0.52286602
v 0.99914199 1.37521033 -0.61808197
v 1.09394144 1.39898335 -0.68237725
v 1.18892711 1.44113573 -0.68335881
v 1.28409911 1.40209985 -0.67967780
v 1.56942858 1.40441725 -0.58814293
v 2.01437133 1.39994237 -0.40605474
v 0.14296711 1.43634118 1.71838927
v 0.11167771 1.43262530 1.71593521
v 1.75977245 1.53770651 1.63372555
v 0.23813905 1.43618127 1.71814373
v 2.01437133 1.55181061 1.58930794
v 0.11167771 1.42223708 -0.48041147
v 0.14296711 1.41348693 -0.48924597
v 0.44673506 1.41616397 -0.57783601
v 0.52346858 1.40621522 -0.58667051
v 0.99914199 1.40261927 -0.67967780
v 1.09394144 1.44097582 -0.68237725
v 0.99914199 1.45811648 -0.61808197
v 1.09394144 1.45811648 -0.61808197
v 1.18892711 1.45739731 -0.61808197
v 1.28409911 1.45539960 -0.61808197
v 1.28409911 1.43901808 -0.67967780
v 1.35934257 1.41316740 -0.67231579
v 1.63331104 1.41548479 -0.57734523
v 2.01437133 1.44620998 -0.40605474
v 0.23813905 1.47545687 1.66464623
v 0.14296711 1.47150141 1.66464623
v 0.11167771 1.44740858 1.69335825
v 1.28409911 1.53419052 1.63298938
v 1.18892711 1.53307173 1.63249859
v 1.09394144 1.53143366 1.63200767
v 2.01437133 1.55844311 1.56943028
v 1.75977245 1.55680490 1.56943028
v 0.11167771 1.43118698 -0.48041147
v 0.44673506 1.43590158 -0.57783601
v 0.84548867 1.42227706 -0.66789847
v 0.90397005 1.41276777 -0.67305196
v 0.99914199 1.43985718 -0.67967780
v 0.61864052 1.47250027 -0.52286602
v 1.47444284 1.46375012 -0.52286602
v 1.56942858 1.46143273 -0.52286602
v 1.56942858 1.44097582 -0.58814293
v 1.35934257 1.43350437 -0.67231579
v 1.63331104 1.43410374 -0.57734523
v 2.01437133 1.46614747 -0.33292496
v 0.66501587 1.52216409 1.61728364
v 0.14296711 1.49471517 1.56943028
v 0.11167771 1.48584509 1.56943028
v 0.11167771 1.46203210 1.66390992
v 1.37927098 1.55005247 1.56943028
v 1.28409911 1.54761529 1.56943028
v 2.01437133 1.56339743 1.47445986
v 0.11167771 1.43829892 -0.46127012
v 0.14296711 1.43885832 -0.48924597
v 0.23813905 1.45048511 -0.50470631
v 0.52346858 1.44405235 -0.58667051
v 0.84548867 1.42974865 -0.66789847
v 0.90397005 1.43490272 -0.67305196
v 0.61864052 1.44808791 -0.59476877
v 0.52346858 1.46874456 -0.52286602
v 1.66460058 1.46798528 -0.42789553
v 0.23813905 1.47413834 -0.42789553
v 1.75977245 1.46582779 -0.42789553
v 1.18892711 1.54385957 1.56943028
v 0.66501587 1.52216409 1.61630208
v 0.11167771 1.48632467 1.41040983
v 0.14296711 1.49455526 1.37948915
v 0.11167771 1.48636451 1.37948915
v 0.11167771 1.45036532 -0.42789553
v 0.14296711 1.46099326 -0.42789553
v 0.14296711 1.47018288 -0.33292496
v 0.11167771 1.47865333 0.23787976
v 0.14296711 1.48013163 0.23787976
v 0.11167771 1.45723755 -0.40041046
v 0.11167771 1.46770572 -0.30175896
v 0.11167771 1.47106181 -0.14249313
vn 0.71616438 0.00894435 0.69787433
vn 0.04240388 0.12828431 0.99083048
vn 0.04108831 0.12808956 0.99091110
vn -0.67865201 0.02328118 0.73409089
vn 0.04230157 -0.71053296 0.70239126
vn 0.59799562 -0.58694360 0.54580074
vn 0.70921360 0.08055947 0.70037579
vn 0.72083406 0.13287463 0.68025185
vn 0.70056552 0.21292199 0.68108162
vn 0.02790262 0.24560861 0.96896742
vn -0.69323040 0.08082888 0.71616918
vn -0.56712595 -0.58267835 0.58211176
vn 0.69644178 -0.71675147 -0.03515943
vn 0.03870473 0.32021878 0.94655263
vn 0.72161070 0.27516534 0.63526533
vn -0.66887039 0.19555057 0.71719759
vn 0.03479945 0.34473773 0.93805378
vn 0.02788455 0.36492040 0.93062106
vn -0.69783475 -0.71549289 -0.03311473
vn -0.00074955 -0.99889043 -0.04708874
vn 0.01265127 -0.96842674 -0.24897711
vn 0.70965183 -0.69156154 -0.13467339
vn 0.71451963 0.29768287 0.63312448
vn 0.02248540 0.38850629 0.92117168
vn -0.69357464 0.31021934 0.65016780
vn 0.03001543 0.43419869 0.90031693
vn 0.01795431 0.48092236 0.87657933
vn -0.00338324 -0.99884325 -0.04796572
vn -0.76640248 -0.63668281 -0.08521874
vn -0.14165676 -0.98277135 -0.11871742
vn -0.08138725 -0.97436742 -0.20972421
vn -0.02130993 -0.96759509 -0.25160608
vn -0.00132392 -0.99888783 -0.04713112
vn 0.01824521 -0.55137958 -0.83405495
vn 0.07308345 -0.95805384 -0.27711306
vn -0.00178925 -0.99889676 -0.04692623
vn -0.00214042 -0.99888856 -0.04708560
vn 0.11542381 -0.94513714 -0.30560289
vn 0.74790880 -0.62445417 -0.22514308
vn 0.71371489 0.32441485 0.62077859
vn 0.00055035 0.45685267 0.88954221
vn -0.03169579 0.51005853 0.85955551
vn -0.72351271 0.34869820 0.59576751
vn 0.71162799 0.34957488 0.60941202
vn 0.64236633 0.59710567 0.48044804
vn 0.00824510 0.53414667 0.84535161
vn 0.00653829 0.50349014 0.86397623
vn -0.80181737 -0.56583750 -0.19213753
vn -0.23600790 -0.93289489 -0.27204299
vn -0.16467452 -0.82018945 -0.54787915
vn -0.07274663 -0.94819397 -0.30925090
vn -0.05419955 -0.95360163 -0.29615258
vn -0.02754451 -0.55077782 -0.83419728
vn 0.01770598 0.61148131 -0.79106075
vn 0.09792652 -0.54238824 -0.83440122
vn 0.19083789 -0.82813805 -0.52703726
vn 0.71466858 -0.45460194 -0.53158809
vn -0.07311229 0.69413464 0.71612268
vn -0.71274082 0.49100448 0.50091428
vn 0.00037446 0.81190389 0.58379100
vn 0.00415147 0.56771951 0.82321159
vn 0.70711002 0.66962829 0.22714172
vn -0.73957956 -0.34439212 -0.57828726
vn -0.31125508 -0.54738266 -0.77684780
vn -0.23018205 -0.39538523 -0.88920568
vn -0.13264623 -0.78733621 -0.60208526
vn -0.06912408 -0.54297125 -0.83690148
vn -0.01667342 0.60472137 -0.79626256
vn -0.01326029 0.97543334 -0.21989537
vn 0.00425386 0.98315118 -0.18274478
vn 0.01251878 0.98506128 -0.17174850
vn 0.03588165 0.97948445 -0.19829956
vn 0.07477959 0.60523101 -0.79252977
vn 0.21914706 -0.44319841 -0.86922364
vn 0.33481045 -0.41493107 -0.84601074
vn 0.70174085 0.49905813 -0.50842970
vn -0.03456404 0.84148998 0.53916596
vn -0.15071061 0.91087818 0.38417086
vn -0.75329870 0.55971788 0.34533603
vn -0.00981332 0.86515247 0.50141290
vn -0.01554562 0.88754730 0.46045426
vn -0.02263271 0.90358900 0.42780215
vn 0.67705809 0.72347268 0.13483183
vn -0.01194870 0.98787220 0.15480872
vn -0.72999790 0.38238824 -0.56646475
vn -0.22449827 0.43225514 -0.87335904
vn -0.16735523 -0.29802935 -0.93977164
vn -0.11471537 -0.43022937 -0.89540107
vn -0.04877235 0.59463980 -0.80251153
vn -0.01909349 0.98584201 -0.16658622
vn 0.01739837 0.99482886 -0.10006414
vn 0.06394024 0.97761274 -0.20046189
vn 0.13826061 0.90243711 -0.40803341
vn 0.19419423 0.53966658 -0.81917555
vn 0.31605487 0.50283732 -0.80452716
vn 0.70245463 0.70525998 -0.09573844
vn -0.04373090 0.96293011 0.26618266
vn -0.16574770 0.97960092 0.11362106
vn -0.77568416 0.62624287 0.07831957
vn -0.78066574 0.58500780 0.21983376
vn -0.02139905 0.99533863 0.09403771
vn -0.02817856 0.99665583 0.07670152
vn 0.69202918 0.72186780 0.00157744
vn -0.80769859 0.55396152 -0.20186535
vn -0.29953979 0.58319688 -0.75508762
vn -0.15469967 0.84896840 -0.50529265
vn -0.11852363 0.82078656 -0.55880369
vn -0.15339683 0.40787113 -0.90006142
vn -0.09268122 0.52667687 -0.84499803
vn -0.06621734 0.92183779 -0.38187741
vn -0.05742242 0.96124166 -0.26966115
vn 0.01737360 0.99742809 -0.06953684
vn -0.07867613 0.98440091 -0.15736875
vn 0.04191622 0.99217263 -0.11762871
vn -0.04002558 0.99919580 0.00238793
vn -0.04599590 0.99892469 -0.00581768
vn -0.79526261 0.60626451 0.00084817
vn -0.15100219 0.98851486 -0.00605897
vn -0.79103533 0.61176631 -0.00225481
vn -0.79998011 0.57343854 -0.17663537
vn -0.21085608 0.95137587 -0.22455214
vn -0.11601217 0.99161519 -0.05692527
vn -0.72325270 0.69051270 -0.00988633
vn -0.04496663 0.99888436 -0.01442348
vn -0.77366801 0.62697784 -0.09130497
vn -0.73984888 0.67221322 -0.02744130
vn -0.73924008 0.67330712 -0.01347700
f 1//1 2//2 3//3
f 1//1 3//3 4//4
f 1//1 4//4 5//5
f 1//1 5//5 6//6
f 1//1 6//6 13//13
f 1//1 13//13 22//22
f 1//1 22//22 39//39
f 1//1 39//39 57//57
f 1//1 57//57 76//76
f 1//1 76//76 96//96
f 1//1 96//96 103//103
f 1//1 103//103 83//83
f 1//1 83//83 62//62
f 1//1 62//62 45//45
f 1//1 45//45 44//44
f 1//1 44//44 40//40
f 1//1 40//40 23//23
f 1//1 23//23 15//15
f 1//1 15//15 9//9
f 1//1 9//9 8//8
f 1//1 8//8 7//7
f 1//1 7//7 2//2
f 2//2 7//7 8//8
f 2//2 8//8 9//9
f 2//2 9//9 3//3
f 3//3 10//10 11//11
f 3//3 11//11 4//4
f 3//3 9//9 10//10
f 4//4 11//11 16//16
f 4//4 16//16 25//25
f 4//4 25//25 43//43
f 4//4 43//43 59//59
f 4//4 59//59 79//79
f 4//4 79//79 100//100
f 4//4 100//100 99//99
f 4//4 99//99 117//117
f 4//4 117//117 119//119
f 4//4 119//119 123//123
f 4//4 123//123 127//127
f 4//4 127//127 126//126
f 4//4 126//126 125//125
f 4//4 125//125 120//120
f 4//4 120//120 104//104
f 4//4 104//104 85//85
f 4//4 85//85 63//63
f 4//4 63//63 48//48
f 4//4 48//48 29//29
f 4//4 29//29 19//19
f 4//4 19//19 12//12
f 4//4 12//12 5//5
f 5//5 12//12 19//19
f 5//5 19//19 28//28
f 5//5 28//28 37//37
f 5//5 37//37 36//36
f 5//5 36//36 33//33
f 5//5 33//33 20//20
f 5//5 20//20 13//13
f 5//5 13//13 6//6
f 9//9 14//14 10//10
f 9//9 15//15 14//14
f 10//10 16//16 11//11
f 10//10 14//14 17//17
f 10//10 17//17 18//18
f 10//10 18//18 16//16
f 13//13 20//20 21//21
f 13//13 21//21 22//22
f 14//14 15//15 23//23
f 14//14 23//23 17//17
f 16//16 18//18 24//24
f 16//16 24//24 25//25
f 17//17 23//23 26//26
f 17//17 26//26 18//18
f 18//18 26//26 27//27
f 18//18 27//27 24//24
f 19//19 29//29 30//30
f 19//19 30//30 31//31
f 19//19 31//31 32//32
f 19//19 32//32 21//21
f 19//19 21//21 28//28
f 20//20 33//33 21//21
f 21//21 32//32 34//34
f 21//21 34//34 35//35
f 21//21 35//35 22//22
f 21//21 33//33 36//36
f 21//21 36//36 37//37
f 21//21 37//37 28//28
f 22//22 35//35 38//38
f 22//22 38//38 39//39
f 23//23 40//40 26//26
f 24//24 27//27 25//25
f 25//25 41//41 42//42
f 25//25 42//42 43//43
f 25//25 27//27 41//41
f 26//26 40//40 27//27
f 27//27 40//40 44//44
f 27//27 44//44 45//45
f 27//27 45//45 46//46
f 27//27 46//46 47//47
f 27//27 47//47 41//41
f 29//29 48//48 49//49
f 29//29 49//49 30//30
f 30//30 49//49 31//31
f 31//31 49//49 50//50
f 31//31 50//50 51//51
f 31//31 51//51 52//52
f 31//31 52//52 32//32
f 32//32 52//52 53//53
f 32//32 53//53 34//34
f 34//34 53//53 68//68
f 34//34 68//68 54//54
f 34//34 54//54 73//73
f 34//34 73//73 55//55
f 34//34 55//55 35//35
f 35//35 55//55 56//56
f 35//35 56//56 38//38
f 38//38 56//56 57//57
f 38//38 57//57 39//39
f 41//41 47//47 42//42
f 42//42 47//47 58//58
f 42//42 58//58 43//43
f 43//43 58//58 59//59
f 45//45 60//60 61//61
f 45//45 61//61 46//46
f 45//45 62//62 60//60
f 46//46 61//61 47//47
f 47//47 61//61 58//58
f 48//48 63//63 64//64
f 48//48 64//64 49//49
f 49//49 64//64 50//50
f 50//50 64//64 65//65
f 50//50 65//65 66//66
f 50//50 66//66 51//51
f 51//51 66//66 52//52
f 52//52 67//67 53//53
f 52//52 66//66 67//67
f 53//53 67//67 89//89
f 53//53 89//89 68//68
f 54//54 68//68 69//69
f 54//54 69//69 70//70
f 54//54 70//70 71//71
f 54//54 71//71 72//72
f 54//54 72//72 73//73
f 55//55 73//73 94//94
f 55//55 94//94 74//74
f 55//55 74//74 56//56
f 56//56 75//75 57//57
f 56//56 74//74 75//75
f 57//57 75//75 95//95
f 57//57 95//95 76//76
f 58//58 77//77 78//78
f 58//58 78//78 79//79
f 58//58 79//79 59//59
f 58//58 61//61 60//60
f 58//58 60//60 80//80
f 58//58 80//80 81//81
f 58//58 81//81 82//82
f 58//58 82//82 77//77
f 60//60 62//62 83//83
f 60//60 83//83 84//84
f 60//60 84//84 80//80
f 63//63 85//85 86//86
f 63//63 86//86 65//65
f 63//63 65//65 64//64
f 65//65 86//86 108//108
f 65//65 108//108 87//87
f 65//65 87//87 66//66
f 66//66 87//87 88//88
f 66//66 88//88 67//67
f 67//67 88//88 109//109
f 67//67 109//109 89//89
f 68//68 89//89 69//69
f 69//69 89//89 90//90
f 69//69 90//90 70//70
f 70//70 90//90 71//71
f 71//71 90//90 91//91
f 71//71 91//91 72//72
f 72//72 91//91 92//92
f 72//72 92//92 73//73
f 73//73 92//92 93//93
f 73//73 93//93 94//94
f 74//74 94//94 95//95
f 74//74 95//95 75//75
f 76//76 95//95 93//93
f 76//76 93//93 92//92
f 76//76 92//92 96//96
f 77//77 82//82 78//78
f 78//78 82//82 97//97
f 78//78 97//97 98//98
f 78//78 98//98 99//99
f 78//78 99//99 100//100
f 78//78 100//100 79//79
f 80//80 84//84 81//81
f 81//81 84//84 101//101
f 81//81 101//101 82//82
f 82//82 101//101 102//102
f 82//82 102//102 97//97
f 83//83 103//103 84//84
f 84//84 103//103 101//101
f 85//85 104//104 105//105
f 85//85 105//105 86//86
f 86//86 105//105 106//106
f 86//86 106//106 107//107
f 86//86 107//107 108//108
f 87//87 108//108 109//109
f 87//87 109//109 88//88
f 89//89 109//109 107//107
f 89//89 107//107 110//110
f 89//89 110//110 111//111
f 89//89 111//111 90//90
f 90//90 112//112 91//91
f 90//90 111//111 113//113
f 90//90 113//113 103//103
f 90//90 103//103 112//112
f 91//91 112//112 114//114
f 91//91 114//114 92//92
f 92//92 114//114 96//96
f 93//93 95//95 94//94
f 96//96 114//114 112//112
f 96//96 112//112 103//103
f 97//97 102//102 115//115
f 97//97 115//115 116//116
f 97//97 116//116 98//98
f 98//98 117//117 99//99
f 98//98 116//116 118//118
f 98//98 118//118 119//119
f 98//98 119//119 117//117
f 101//101 103//103 113//113
f 101//101 113//113 102//102
f 102//102 113//113 115//115
f 104//104 120//120 105//105
f 105//105 120//120 121//121
f 105//105 121//121 106//106
f 106//106 111//111 107//107
f 106//106 121//121 113//113
f 106//106 113//113 111//111
f 107//107 111//111 110//110
f 107//107 109//109 108//108
f 113//113 121//121 122//122
f 113//113 122//122 123//123
f 113//113 123//123 124//124
f 113//113 124//124 115//115
f 115//115 124//124 116//116
f 116//116 124//124 118//118
f 118//118 124//124 123//123
f 118//118 123//123 119//119
f 120//120 125//125 121//121
f 121//121 125//125 126//126
f 121//121 126//126 122//122
f 122//122 126//126 127//127
f 122//122 127//127 123//123

