# https://github.com/mikedh/trimesh
v -2.38286382 -1.15471137 1.51463593
v -2.71386776 -0.33283374 1.56994006
v -2.68283168 -0.38515908 1.51463593
v -2.19767159 -1.15471137 1.51463593
v -2.44544858 -1.15471137 1.95046974
v -2.71642969 0.14311529 1.57056849
v -2.71438009 0.14311529 1.51495022
v -2.70486442 -0.23769678 1.51495022
v -2.69717833 -0.32886971 1.51463593
v -2.59982432 -0.85635130 2.80674037
v -2.60121529 -0.85635130 2.85387444
v -2.60311831 -0.85635130 3.04429642
v -2.60275228 -0.85635130 3.34846897
v -2.60751012 -0.82226053 3.47196031
v -2.69578764 -0.33283374 2.99684793
v -2.76598506 0.44834634 3.72397104
v -2.76598506 0.44834634 3.68437817
v -2.76803466 0.52313455 3.67495153
v -2.02023832 -0.65286391 1.51463593
v -2.02023832 -0.66422746 1.52437700
v -2.02023832 -0.66951286 1.53443222
v -2.02023832 -0.68695462 1.56962577
v -2.02023832 -0.69567550 1.59696354
v -2.02023832 -0.71708136 1.66515105
v -2.02023832 -0.71813841 1.76036204
v -2.19767159 -1.15471137 1.87002743
v -2.44647352 -1.15471137 2.04756617
v -2.71203789 0.42799760 1.57056849
v -2.70464468 0.42799760 1.51495022
v -2.70413235 -0.24245363 1.51463593
v -2.59740897 -0.82226053 3.66238230
v -2.60450900 -0.82226053 3.56717145
v -2.66782583 -0.38806603 3.53951924
v -2.76803466 0.52313455 3.72679892
v -2.67280340 -0.33389083 3.56968518
v -2.57845049 -0.12379670 4.51833865
v -2.58752698 -0.04715863 4.51833865
v -2.60919369 0.71314419 4.61354950
v -2.76378916 0.57651698 3.68846320
v -2.71642969 1.09395633 2.33162799
v -2.02023832 -0.54927029 1.51463593
v -2.02023832 -0.68880455 1.85682990
v -2.07894361 -0.59842440 3.37674946
v -2.27687249 -1.15471137 2.12737991
v -2.08311582 -0.58943928 3.45027858
v -2.15280091 -0.61665896 3.87511459
v -2.18003080 -0.65101398 3.87511459
v -2.43739675 -1.15471137 2.08024584
v -2.57076469 -0.82226053 3.81164040
v -2.58276915 -0.82226053 3.75759343
v -2.70610881 0.52313455 1.57056849
v -2.70208275 0.46763802 1.51495022
v -2.61285371 1.37910299 1.51463593
v -2.76378916 0.57651698 3.71831500
v -2.60575339 0.82915841 4.61354950
v -2.59777471 1.09395633 4.51331090
v -2.57069126 -0.10265519 4.56861502
v -2.58071954 0.61800727 4.68142257
v -2.58584341 0.71314419 4.68362216
v -2.58372066 0.82915841 4.68142257
v -2.60121529 0.82915841 4.62800418
v -2.70823156 1.18882901 2.90195123
v -2.70325399 1.18882901 2.33162799
v -2.02038476 -0.46893246 1.51463593
v -2.02038476 -0.45809740 1.56994006
v -2.02038476 -0.45149070 1.66515105
v -2.02023832 -0.54927029 1.94418526
v -2.02023832 -0.65973486 1.90679213
v -2.07894361 -0.53103573 3.37674946
v -2.02023832 -0.61771608 1.94355669
v -2.42078076 -1.15471137 2.12737991
v -2.20499150 -0.67030567 3.87511459
v -2.43878773 -0.82226053 3.87511459
v -2.08311582 -0.54292783 3.45027858
v -2.14914103 1.43724208 4.51331090
v -2.13142694 -0.52416471 3.87511459
v -2.13691684 -0.55191303 3.87511459
v -2.49061215 -0.19884920 4.58149840
v -2.49061215 -0.20254899 4.57961296
v -2.54704839 -0.82226053 3.87511459
v -2.69820328 0.52313455 1.51495022
v -2.60385037 1.41055103 1.51463593
v -2.69278653 1.18882901 3.47164617
v -2.58079269 1.16266630 4.51331090
v -2.49456477 -0.20202043 4.57929881
v -2.52421044 -0.13753874 4.58841131
v -2.52106274 0.52313455 4.72038686
v -2.57010578 0.47107350 4.66948220
v -2.57281401 0.52313455 4.67576681
v -2.56015065 -0.17136520 4.51833865
v -2.52106274 0.61800727 4.72227230
v -2.52106274 0.71314419 4.72164401
v -2.52106274 0.82915841 4.71944443
v -2.48592746 1.45626945 4.51331090
v -2.68495443 1.27101670 2.90195123
v -2.59038180 1.45494822 1.51463593
v -2.14914103 1.48745324 1.51463593
v -2.14914103 1.49617419 1.66546519
v -2.14914103 1.54242139 4.43161172
v -2.14914103 1.54347837 4.51331090
v -2.02038476 -0.45360481 1.73522385
v -2.02038476 -0.45704035 1.82509295
v -2.02038476 -0.46179719 1.83954734
v -2.02038476 -0.52495751 1.94198567
v -2.02038476 -0.52918587 1.94449941
v -2.49061215 0.64866250 4.72415775
v -2.49061215 0.52313455 4.72164401
v -2.49061215 -0.13912435 4.59752409
v -2.67251052 1.24458989 3.47164617
v -2.49061215 0.74379949 4.72415775
v -2.50049385 0.82915841 4.72164401
v -2.40701930 1.53317195 4.51331090
v -2.45437877 1.50410241 4.51331090
v -2.58964974 1.45441973 1.57025420
v -2.52098959 1.49088872 1.51463593
v -2.52098959 1.49088872 1.57025420
v -2.42597778 1.49221023 1.51463593
v -2.32606183 1.54506413 4.51331090
v -2.23126974 1.54453535 4.51331090
v -2.49061215 0.82915841 4.72258645
v -2.33096610 1.54479988 4.51331090
vn -0.40968391 -0.66198750 -0.62763974
vn -0.97462449 -0.17433215 -0.14041152
vn -0.60690731 -0.21624979 -0.76478726
vn 0.44870601 -0.66124817 -0.60117698
vn -0.58097898 -0.81243709 -0.04908571
vn -0.99950906 0.00444303 -0.03101442
vn -0.70113957 0.00409322 -0.71301231
vn -0.79582349 -0.02590246 -0.60497441
vn -0.60473917 -0.10083966 -0.79001386
vn -0.94090299 -0.33725461 -0.03099815
vn -0.94065239 -0.33917337 -0.01159797
vn -0.94076899 -0.33904823 -0.00000038
vn -0.87082048 -0.48885000 0.05193620
vn -0.98009577 -0.19661076 0.02750442
vn -0.99088794 -0.13334569 0.01897426
vn -0.99343832 -0.06918230 0.09107201
vn -0.99896642 -0.04528025 -0.00397398
vn -0.99967687 0.02438784 -0.00716819
vn 0.70948828 -0.05474946 -0.70258727
vn 0.96797251 -0.18218284 -0.17273865
vn 0.98145805 -0.17044614 -0.08768242
vn 0.98093541 -0.17919537 -0.07519806
vn 0.98322297 -0.17389738 -0.05506617
vn 0.97946138 -0.19964819 -0.02821369
vn 0.98002588 -0.19832262 0.01474520
vn 0.56875026 -0.82180335 0.03409396
vn -0.52905882 -0.84856628 0.00565912
vn -0.99596603 0.03841433 -0.08109260
vn -0.66455158 0.03239448 -0.74653988
vn -0.35787084 -0.02816993 -0.93334608
vn -0.87330434 -0.47475843 0.10928842
vn -0.95115124 -0.30280220 0.06018432
vn -0.98919594 -0.13490405 0.05737846
vn -0.99582148 0.02369456 0.08819384
vn -0.98752975 -0.13418739 0.08233308
vn -0.96067735 -0.18916696 0.20326063
vn -0.97598482 -0.08410209 0.20094894
vn -0.96869959 -0.01164869 0.24796254
vn -0.99642935 0.08442292 -0.00114613
vn -0.99505153 0.09055688 -0.04088893
vn 0.70728378 0.00058767 -0.70692950
vn 0.99665649 -0.07773252 0.02516947
vn 0.96636337 -0.24486670 0.07862662
vn 0.29649405 -0.94478332 0.13955556
vn 0.96417252 -0.24674681 0.09740306
vn 0.83335943 -0.42121806 0.35789302
vn 0.64952451 -0.65125684 0.39240598
vn -0.24351051 -0.96737661 0.06989365
vn -0.74663433 -0.63001036 0.21359806
vn -0.82710005 -0.54062931 0.15370575
vn -0.99160580 0.07798183 -0.10313475
vn -0.66012631 0.04353537 -0.74989195
vn -0.68929977 0.14376711 -0.71006820
vn -0.99170111 0.10808610 0.06961535
vn -0.96839260 0.07731315 0.23714646
vn -0.94948360 0.18788049 0.25135991
vn -0.79433226 -0.22900294 0.56266678
vn -0.81123460 -0.06420565 0.58118505
vn -0.78343198 -0.00706714 0.62143735
vn -0.76252791 0.13740325 0.63219580
vn -0.94841437 0.08567808 0.30523670
vn -0.98241219 0.18660297 0.00675451
vn -0.97262350 0.22996782 -0.03344153
vn 0.71179141 0.02124476 -0.70206954
vn 0.99937491 0.03503082 -0.00475757
vn 0.99940940 0.03434358 -0.00116928
vn 0.99977368 0.00263714 0.02111023
vn 0.99908192 -0.03583579 0.02347560
vn 0.99885743 0.00427317 0.04759797
vn 0.99959147 -0.01336764 0.02526250
vn -0.17842613 -0.97741152 0.11327328
vn 0.52847769 -0.74114269 0.41402760
vn 0.24638013 -0.87010503 0.42686539
vn 0.99825522 0.00075589 0.05904192
vn 0.85756436 -0.01779217 0.51406887
vn 0.94459547 -0.12941377 0.30164794
vn 0.92023880 -0.20537100 0.33314156
vn 0.34641375 -0.30693496 0.88644709
vn 0.33000094 -0.54545116 0.77044300
vn -0.45378731 -0.77930876 0.43215152
vn -0.66140505 0.05601775 -0.74793407
vn -0.66615060 0.19742484 -0.71921263
vn -0.96922104 0.23819860 0.06222544
vn -0.91231685 0.27032033 0.30757909
vn -0.40912960 -0.53037373 0.74250702
vn -0.43931207 -0.27418842 0.85546807
vn -0.34658849 -0.10653074 0.93194829
vn -0.67970477 -0.12536400 0.72269309
vn -0.73120727 -0.10791899 0.67356471
vn -0.75218719 -0.46609329 0.46580197
vn -0.29587658 -0.01365704 0.95512854
vn -0.30615848 0.01046343 0.95192306
vn -0.31540870 0.16017004 0.93534107
vn -0.77566785 0.41843885 0.47249160
vn -0.89700336 0.44168465 0.01731021
vn -0.58831413 0.50158368 -0.63427147
vn 0.56334791 0.57104523 -0.59711512
vn 0.68001588 0.73283281 -0.02311887
vn 0.68673948 0.72681472 -0.01136847
vn 0.59512278 0.62485646 0.50535461
vn 0.99949622 0.03172208 0.00100983
vn 0.99949595 0.03158187 0.00322922
vn 0.99967584 0.02353394 0.00971444
vn 0.99965729 0.01894816 0.01806295
vn 0.99957156 0.01041573 0.02735323
vn 0.25858341 -0.01006549 0.96593649
vn 0.36203113 -0.11598994 0.92492151
vn 0.33085763 -0.22216451 0.91715656
vn -0.90072670 0.43052901 0.05775974
vn 0.22437503 0.00885667 0.97446262
vn -0.09946403 0.15781497 0.98244661
vn -0.27387047 0.78523133 0.55534379
vn -0.56996497 0.62769593 0.53022424
vn -0.73927176 0.67320643 0.01644255
vn -0.18642603 0.72596528 -0.66198168
vn -0.40656699 0.91361910 0.00185102
vn -0.00418580 0.70217687 -0.71199026
vn -0.01828552 0.80900691 0.58751464
vn 0.00694479 0.80514218 0.59304118
vn 0.17259337 0.11044598 0.97878149
vn -0.08041145 0.80810478 0.58352434
f 1//1 2//2 3//3
f 1//1 3//3 9//9
f 1//1 9//9 30//30
f 1//1 30//30 53//53
f 1//1 53//53 82//82
f 1//1 82//82 96//96
f 1//1 96//96 115//115
f 1//1 115//115 117//117
f 1//1 117//117 97//97
f 1//1 97//97 64//64
f 1//1 64//64 41//41
f 1//1 41//41 19//19
f 1//1 19//19 4//4
f 1//1 4//4 26//26
f 1//1 26//26 44//44
f 1//1 44//44 71//71
f 1//1 71//71 48//48
f 1//1 48//48 27//27
f 1//1 27//27 5//5
f 1//1 5//5 2//2
f 2//2 6//6 7//7
f 2//2 7//7 8//8
f 2//2 8//8 9//9
f 2//2 9//9 3//3
f 2//2 5//5 10//10
f 2//2 10//10 11//11
f 2//2 11//11 12//12
f 2//2 12//12 13//13
f 2//2 13//13 14//14
f 2//2 14//14 15//15
f 2//2 15//15 16//16
f 2//2 16//16 17//17
f 2//2 17//17 18//18
f 2//2 18//18 6//6
f 4//4 19//19 20//20
f 4//4 20//20 21//21
f 4//4 21//21 22//22
f 4//4 22//22 23//23
f 4//4 23//23 24//24
f 4//4 24//24 25//25
f 4//4 25//25 26//26
f 5//5 27//27 11//11
f 5//5 11//11 10//10
f 6//6 28//28 7//7
f 6//6 18//18 28//28
f 7//7 29//29 30//30
f 7//7 30//30 8//8
f 7//7 28//28 29//29
f 8//8 30//30 9//9
f 11//11 27//27 12//12
f 12//12 27//27 13//13
f 13//13 31//31 32//32
f 13//13 32//32 14//14
f 13//13 27//27 31//31
f 14//14 32//32 15//15
f 15//15 32//32 33//33
f 15//15 33//33 16//16
f 16//16 34//34 18//18
f 16//16 18//18 17//17
f 16//16 33//33 35//35
f 16//16 35//35 31//31
f 16//16 31//31 36//36
f 16//16 36//36 37//37
f 16//16 37//37 38//38
f 16//16 38//38 34//34
f 18//18 34//34 54//54
f 18//18 54//54 39//39
f 18//18 39//39 40//40
f 18//18 40//40 28//28
f 19//19 41//41 67//67
f 19//19 67//67 70//70
f 19//19 70//70 68//68
f 19//19 68//68 42//42
f 19//19 42//42 25//25
f 19//19 25//25 24//24
f 19//19 24//24 23//23
f 19//19 23//23 22//22
f 19//19 22//22 21//21
f 19//19 21//21 20//20
f 25//25 42//42 43//43
f 25//25 43//43 26//26
f 26//26 43//43 45//45
f 26//26 45//45 46//46
f 26//26 46//46 47//47
f 26//26 47//47 44//44
f 27//27 48//48 49//49
f 27//27 49//49 50//50
f 27//27 50//50 31//31
f 28//28 51//51 29//29
f 28//28 40//40 51//51
f 29//29 52//52 53//53
f 29//29 53//53 30//30
f 29//29 51//51 52//52
f 31//31 50//50 36//36
f 31//31 35//35 33//33
f 31//31 33//33 32//32
f 34//34 38//38 55//55
f 34//34 55//55 56//56
f 34//34 56//56 54//54
f 36//36 57//57 37//37
f 36//36 50//50 49//49
f 36//36 49//49 57//57
f 37//37 57//57 38//38
f 38//38 57//57 58//58
f 38//38 58//58 59//59
f 38//38 59//59 60//60
f 38//38 60//60 61//61
f 38//38 61//61 55//55
f 39//39 54//54 62//62
f 39//39 62//62 40//40
f 40//40 62//62 63//63
f 40//40 63//63 53//53
f 40//40 53//53 51//51
f 41//41 64//64 65//65
f 41//41 65//65 66//66
f 41//41 66//66 67//67
f 42//42 68//68 43//43
f 43//43 69//69 74//74
f 43//43 74//74 45//45
f 43//43 68//68 70//70
f 43//43 70//70 67//67
f 43//43 67//67 69//69
f 44//44 47//47 72//72
f 44//44 72//72 73//73
f 44//44 73//73 80//80
f 44//44 80//80 71//71
f 45//45 74//74 100//100
f 45//45 100//100 75//75
f 45//45 75//75 76//76
f 45//45 76//76 77//77
f 45//45 77//77 46//46
f 46//46 77//77 78//78
f 46//46 78//78 79//79
f 46//46 79//79 47//47
f 47//47 79//79 72//72
f 48//48 71//71 49//49
f 49//49 80//80 57//57
f 49//49 71//71 80//80
f 51//51 53//53 81//81
f 51//51 81//81 52//52
f 52//52 81//81 53//53
f 53//53 63//63 82//82
f 54//54 83//83 62//62
f 54//54 56//56 83//83
f 55//55 61//61 56//56
f 56//56 61//61 60//60
f 56//56 60//60 84//84
f 56//56 84//84 83//83
f 57//57 85//85 86//86
f 57//57 86//86 87//87
f 57//57 87//87 88//88
f 57//57 88//88 89//89
f 57//57 89//89 58//58
f 57//57 80//80 90//90
f 57//57 90//90 85//85
f 58//58 87//87 59//59
f 58//58 89//89 87//87
f 59//59 87//87 91//91
f 59//59 91//91 92//92
f 59//59 92//92 93//93
f 59//59 93//93 60//60
f 60//60 93//93 94//94
f 60//60 94//94 84//84
f 62//62 95//95 63//63
f 62//62 83//83 95//95
f 63//63 95//95 96//96
f 63//63 96//96 82//82
f 64//64 97//97 65//65
f 65//65 97//97 66//66
f 66//66 98//98 99//99
f 66//66 99//99 100//100
f 66//66 100//100 101//101
f 66//66 101//101 67//67
f 66//66 97//97 98//98
f 67//67 101//101 102//102
f 67//67 102//102 103//103
f 67//67 103//103 104//104
f 67//67 104//104 105//105
f 67//67 105//105 69//69
f 69//69 100//100 74//74
f 69//69 105//105 100//100
f 72//72 79//79 73//73
f 73//73 79//79 80//80
f 75//75 100//100 110//110
f 75//75 110//110 106//106
f 75//75 106//106 107//107
f 75//75 107//107 108//108
f 75//75 108//108 78//78
f 75//75 78//78 76//76
f 76//76 78//78 77//77
f 78//78 86//86 85//85
f 78//78 85//85 79//79
f 78//78 108//108 86//86
f 79//79 85//85 80//80
f 80//80 85//85 90//90
f 83//83 84//84 94//94
f 83//83 94//94 109//109
f 83//83 109//109 95//95
f 86//86 108//108 87//87
f 87//87 89//89 88//88
f 87//87 108//108 107//107
f 87//87 107//107 106//106
f 87//87 106//106 91//91
f 91//91 106//106 110//110
f 91//91 110//110 92//92
f 92//92 110//110 111//111
f 92//92 111//111 93//93
f 93//93 111//111 112//112
f 93//93 112//112 113//113
f 93//93 113//113 94//94
f 94//94 113//113 95//95
f 94//94 95//95 109//109
f 95//95 114//114 96//96
f 95//95 113//113 114//114
f 96//96 114//114 113//113
f 96//96 113//113 112//112
f 96//96 112//112 116//116
f 96//96 116//116 115//115
f 97//97 117//117 98//98
f 98//98 117//117 118//118
f 98//98 118//118 119//119
f 98//98 119//119 99//99
f 99//99 119//119 100//100
f 100//100 105//105 104//104
f 100//100 104//104 103//103
f 100//100 103//103 102//102
f 100//100 102//102 101//101
f 100//100 119//119 120//120
f 100//100 120//120 110//110
f 110//110 120//120 111//111
f 111//111 120//120 112//112
f 112//112 120//120 121//121
f 112//112 121//121 115//115
f 112//112 115//115 116//116
f 115//115 121//121 118//118
f 115//115 118//118 117//117
f 118//118 121//121 120//120
f 118//118 120//120 119//119

